<?xml version="1.0" standalone="no"?>
<!DOCTYPE svg PUBLIC "-//W3C//DTD SVG 1.1//EN" "http://www.w3.org/Graphics/SVG/1.1/DTD/svg11.dtd" >
<svg>
<metadata>
Created by FontForge 20110222 at Fri Jan 30 11:53:45 2015
 By deploy user
Core Sans A 15 Thin
</metadata>
<defs>
<font id="CoreSansA15Thin" horiz-adv-x="390" >
  <font-face 
    font-family="Core Sans A 15 Thin"
    font-weight="400"
    font-stretch="normal"
    units-per-em="1000"
    panose-1="2 11 4 3 3 3 2 2 2 4"
    ascent="800"
    descent="-200"
    x-height="518"
    cap-height="700"
    bbox="-406 -249 1000 989"
    underline-thickness="24"
    underline-position="-183"
    unicode-range="U+0008-FB04"
  />
<missing-glyph horiz-adv-x="500" 
d="M430 0h-360v750h360v-750zM145 65h210v620h-210v-620z" />
    <glyph glyph-name="f_f" unicode="ff" horiz-adv-x="609" 
d="M416 588v-70h163v-18h-163v-500h-20v500h-236v-500h-20v500h-120v18h120v72q0 77 36 108.5t100 31.5q30 0 57 -3v-18q-30 3 -60 3q-54 0 -83.5 -26t-29.5 -98v-70h236v72q0 77 36 108.5t100 31.5q30 0 57 -3v-18q-30 3 -60 3q-54 0 -83.5 -26t-29.5 -98z" />
    <glyph glyph-name="f_i" unicode="fi" horiz-adv-x="541" 
d="M160 588v-70h291v-518h-20v500h-271v-500h-20v500h-120v18h120v72q0 77 36 108.5t100 31.5q30 0 57 -3v-18q-30 3 -60 3q-54 0 -83.5 -26t-29.5 -98zM415 684q0 10 7.5 18t18.5 8t18.5 -8t7.5 -18t-7.5 -18t-18.5 -8t-18.5 8t-7.5 18z" />
    <glyph glyph-name="f_l" unicode="fl" horiz-adv-x="527" 
d="M160 584v-66h163v-18h-163v-500h-20v500h-120v18h120v68q0 144 137 144q56 0 140 -18v18h20v-730h-20v696q-84 16 -143 16q-53 0 -83.5 -27.5t-30.5 -100.5z" />
    <glyph glyph-name="f_f_i" unicode="ffi" horiz-adv-x="797" 
d="M687 0v500h-271v-500h-20v500h-236v-500h-20v500h-120v18h120v72q0 77 36 108.5t100 31.5q30 0 57 -3v-18q-30 3 -60 3q-54 0 -83.5 -26t-29.5 -98v-70h236v72q0 77 36 108.5t100 31.5q30 0 57 -3v-18q-30 3 -60 3q-54 0 -83.5 -26t-29.5 -98v-70h291v-518h-20zM671 684
q0 10 7.5 18t18.5 8t18.5 -8t7.5 -18t-7.5 -18t-18.5 -8t-18.5 8t-7.5 18z" />
    <glyph glyph-name="f_f_l" unicode="ffl" horiz-adv-x="783" 
d="M416 584v-66h163v-18h-163v-500h-20v500h-236v-500h-20v500h-120v18h120v72q0 77 36 108.5t100 31.5q30 0 57 -3v-18q-30 3 -60 3q-54 0 -83.5 -26t-29.5 -98v-70h236v68q0 144 137 144q56 0 140 -18v18h20v-730h-20v696q-84 16 -143 16q-53 0 -83.5 -27.5t-30.5 -100.5z
" />
    <glyph glyph-name=".notdef" horiz-adv-x="500" 
d="M430 0h-360v750h360v-750zM145 65h210v620h-210v-620z" />
    <glyph glyph-name=".null" horiz-adv-x="0" 
 />
    <glyph glyph-name=".null" horiz-adv-x="0" 
 />
    <glyph glyph-name=".null" horiz-adv-x="0" 
 />
    <glyph glyph-name="nonmarkingreturn" horiz-adv-x="333" 
 />
    <glyph glyph-name="CR" unicode="&#x9;" horiz-adv-x="237" 
 />
    <glyph glyph-name="CR" unicode="&#xd;" horiz-adv-x="237" 
 />
    <glyph glyph-name="space" unicode=" " horiz-adv-x="300" 
 />
    <glyph glyph-name="exclam" unicode="!" horiz-adv-x="220" 
d="M100 700h20v-531h-20v531zM84 14q0 10 8 18t18 8t18 -8t8 -18t-8 -18t-18 -8t-18 8t-8 18z" />
    <glyph glyph-name="quotedbl" unicode="&#x22;" 
d="M110 428v272h20v-272h-20zM260 428v272h20v-272h-20z" />
    <glyph glyph-name="numbersign" unicode="#" horiz-adv-x="679" 
d="M482 490l37 210h22l-37 -210h130v-18h-133l-43 -248h131v-18h-134l-36 -206h-22l36 206h-245l-36 -206h-22l36 206h-121v18h124l43 248h-123v18h126l37 210h22l-37 -210h245zM234 472l-43 -248h245l43 248h-245z" />
    <glyph glyph-name="dollar" unicode="$" horiz-adv-x="567" 
d="M281 -98v86q-137 3 -236 96l16 14q92 -90 220 -92v360q-1 0 -2.5 0.5t-2.5 1.5q-105 32 -154 73t-49 106q0 75 51 120t139 45q12 0 18 -1v89h20v-90q108 -11 190 -97l-16 -13q-71 79 -174 91v-312q111 -36 161 -82.5t50 -125.5q0 -80 -55.5 -129.5t-155.5 -53.5v-86h-20z
M492 172q0 70 -44.5 112t-146.5 76v-354q92 3 141.5 48.5t49.5 117.5zM93 547q0 -57 45 -94.5t143 -67.5v308q-6 1 -18 1q-81 0 -125.5 -41t-44.5 -106z" />
    <glyph glyph-name="percent" unicode="%" horiz-adv-x="862" 
d="M181 -12l-16 12l515 712l16 -12zM90 528q0 79 39 129t104 50t104 -50t39 -129t-39 -129t-104 -50t-104 50t-39 129zM110 528q0 -71 33.5 -116t89.5 -45t89.5 45t33.5 116q0 72 -33 116.5t-90 44.5q-56 0 -89.5 -45t-33.5 -116zM486 171q0 79 39 129t104 50t104 -50
t39 -129t-39 -129t-104 -50t-104 50t-39 129zM506 171q0 -71 33.5 -116t89.5 -45t89.5 45t33.5 116q0 72 -33 116.5t-90 44.5q-56 0 -89.5 -45t-33.5 -116z" />
    <glyph glyph-name="ampersand" unicode="&#x26;" horiz-adv-x="625" 
d="M545 0l-79 97q-95 -109 -216 -109q-82 0 -136 47.5t-54 121.5q0 64 39.5 115t134.5 112l-11 15q-38 51 -52 71.5t-26 48.5t-12 54q0 66 39 102.5t99 36.5q58 0 96 -37.5t38 -106.5q0 -50 -31 -92t-113 -98l205 -250q55 68 92 158l17 -9q-43 -99 -96 -165l93 -112h-27z
M251 6q111 0 203 106l-209 257q-97 -66 -131 -108.5t-34 -103.5q0 -64 47.5 -107.5t123.5 -43.5zM385 574q0 56 -33 88t-82 32q-55 0 -86 -33t-31 -87q0 -38 20 -73t76 -107q68 43 102 85t34 95z" />
    <glyph glyph-name="quotesingle" unicode="'" horiz-adv-x="230" 
d="M105 428v272h20v-272h-20z" />
    <glyph glyph-name="parenleft" unicode="(" horiz-adv-x="319" 
d="M138 310q0 253 134 440l17 -9q-131 -186 -131 -431t131 -431l-17 -9q-134 187 -134 440z" />
    <glyph glyph-name="parenright" unicode=")" horiz-adv-x="319" 
d="M181 310q0 -253 -134 -440l-17 9q131 186 131 431t-131 431l17 9q134 -187 134 -440z" />
    <glyph glyph-name="asterisk" unicode="*" horiz-adv-x="508" 
d="M273 332l165 -95l-10 -17l-164 94v-189h-20v189l-164 -94l-10 17l164 95l-164 95l10 17l164 -95v190h20v-190l164 95l10 -17z" />
    <glyph glyph-name="plus" unicode="+" horiz-adv-x="618" 
d="M299 95v228h-229v18h229v228h20v-228h229v-18h-229v-228h-20z" />
    <glyph glyph-name="comma" unicode="," horiz-adv-x="280" 
d="M143 39l19 -6l-63 -184l-19 7z" />
    <glyph glyph-name="hyphen" unicode="-" horiz-adv-x="406" 
d="M336 323h-266v18h266v-18z" />
    <glyph glyph-name="period" unicode="." horiz-adv-x="280" 
d="M114 14q0 10 8 18t18 8t18 -8t8 -18t-8 -18t-18 -8t-18 8t-8 18z" />
    <glyph glyph-name="slash" unicode="/" horiz-adv-x="453" 
d="M-2 -114l440 874l17 -10l-440 -874z" />
    <glyph glyph-name="zero" unicode="0" horiz-adv-x="560" 
d="M47 350q0 165 61.5 263.5t171.5 98.5t171.5 -98.5t61.5 -263.5t-61.5 -263.5t-171.5 -98.5t-171.5 98.5t-61.5 263.5zM67 350q0 -159 55 -251.5t158 -92.5t158 92.5t55 251.5t-55 251.5t-158 92.5t-158 -92.5t-55 -251.5z" />
    <glyph glyph-name="one" unicode="1" horiz-adv-x="560" 
d="M321 677l-193 -128l-13 14l206 137h20v-700h-20v677z" />
    <glyph glyph-name="two" unicode="2" horiz-adv-x="560" 
d="M458 534q0 68 -49 114t-127 46q-127 0 -215 -100l-15 12q45 51 105 78.5t123 27.5q88 0 143 -50t55 -128q0 -64 -28 -119.5t-97 -139.5q-99 -119 -256 -257h387v-18h-415v18q183 163 269 269q65 79 92.5 133.5t27.5 113.5z" />
    <glyph glyph-name="three" unicode="3" horiz-adv-x="560" 
d="M475 175q0 84 -55.5 134t-162.5 50h-74v18h76q91 0 148 45t57 123q0 60 -44 104.5t-134 44.5q-116 0 -201 -96l-16 14q96 100 217 100q97 0 147.5 -48t50.5 -119q0 -73 -45 -120t-115 -57q82 -13 126.5 -63t44.5 -131q0 -82 -55.5 -134.5t-158.5 -52.5q-140 0 -234 105
l16 13q88 -100 218 -100q95 0 144.5 48.5t49.5 121.5z" />
    <glyph glyph-name="four" unicode="4" horiz-adv-x="560" 
d="M408 175h-373v18l373 507h20v-507h96v-18h-96v-175h-20v175zM408 667l-349 -474h349v474z" />
    <glyph glyph-name="five" unicode="5" horiz-adv-x="560" 
d="M281 6q99 0 151.5 55.5t52.5 136.5q0 88 -56.5 140t-153.5 52q-78 0 -154 -27l-6 3v334h356v-18h-336v-296q71 22 140 22q102 0 166 -56t64 -154q0 -89 -58 -149.5t-166 -60.5q-130 0 -211 99l15 12q37 -45 89 -69t107 -24z" />
    <glyph glyph-name="six" unicode="6" horiz-adv-x="560" 
d="M300 435q98 0 155 -61t57 -164q0 -99 -62.5 -160.5t-152.5 -61.5q-104 0 -169.5 85t-65.5 251q0 388 240 388q109 0 175 -84l-16 -12q-61 78 -161 78q-215 0 -218 -359q40 48 98.5 74t119.5 26zM297 6q83 0 139 58t56 146q0 93 -51 150t-144 57q-60 0 -117 -27t-98 -81
q3 -156 65 -229.5t150 -73.5z" />
    <glyph glyph-name="seven" unicode="7" horiz-adv-x="560" 
d="M500 682l-300 -682h-24l300 682h-413v18h437v-18z" />
    <glyph glyph-name="eight" unicode="8" horiz-adv-x="560" 
d="M506 174q0 -85 -64.5 -135.5t-161.5 -50.5q-98 0 -162 50.5t-64 139.5q0 66 38 124t107 93q-59 28 -87.5 65t-28.5 88q0 73 57.5 118.5t139.5 45.5q90 0 143.5 -47t53.5 -119q0 -114 -127 -189q84 -36 120 -80.5t36 -102.5zM74 179q0 -80 57.5 -126.5t148.5 -46.5
q92 0 149 46.5t57 122.5q0 64 -49.5 109t-164.5 83q-26 8 -53 20q-73 -34 -109 -91t-36 -117zM457 546q0 64 -47 106t-130 42q-75 0 -126 -40.5t-51 -105.5q0 -58 44 -97t133 -68q30 -10 50 -18q127 70 127 181z" />
    <glyph glyph-name="nine" unicode="9" horiz-adv-x="560" 
d="M260 265q-98 0 -155 61t-57 164q0 99 62.5 160.5t152.5 61.5q104 0 169.5 -85t65.5 -251q0 -388 -244 -388q-95 0 -164 61l15 15q63 -58 149 -58q220 0 224 359q-40 -48 -98.5 -74t-119.5 -26zM478 391q-2 81 -21 141.5t-50 94.5t-67 50.5t-77 16.5q-83 0 -139 -58
t-56 -146q0 -93 51 -150t144 -57q60 0 117 27t98 81z" />
    <glyph glyph-name="colon" unicode=":" horiz-adv-x="280" 
d="M114 14q0 10 8 18t18 8t18 -8t8 -18t-8 -18t-18 -8t-18 8t-8 18zM114 504q0 10 8 18t18 8t18 -8t8 -18t-8 -18t-18 -8t-18 8t-8 18z" />
    <glyph glyph-name="semicolon" unicode=";" horiz-adv-x="280" 
d="M114 504q0 10 8 18t18 8t18 -8t8 -18t-8 -18t-18 -8t-18 8t-8 18zM134 39l19 -6l-63 -184l-19 7z" />
    <glyph glyph-name="less" unicode="&#x3c;" horiz-adv-x="618" 
d="M113 323v18l381 233l11 -19l-367 -223l367 -223l-11 -19z" />
    <glyph glyph-name="equal" unicode="=" horiz-adv-x="618" 
d="M548 433h-478v18h478v-18zM548 213h-478v18h478v-18z" />
    <glyph glyph-name="greater" unicode="&#x3e;" horiz-adv-x="618" 
d="M505 341v-18l-381 -233l-11 19l367 223l-367 223l11 19z" />
    <glyph glyph-name="question" unicode="?" horiz-adv-x="492" 
d="M183 14q0 10 7.5 18t18.5 8t18.5 -8t7.5 -18t-7.5 -18t-18.5 -8t-18.5 8t-7.5 18zM248 712q82 0 128.5 -44.5t46.5 -111.5q0 -103 -121 -190q-50 -36 -66.5 -74t-16.5 -102v-21h-20v25q0 68 20 110t71 78q61 43 86.5 85t25.5 91q0 61 -42.5 98.5t-117.5 37.5
q-101 0 -176 -93l-16 13q82 98 198 98z" />
    <glyph glyph-name="at" unicode="@" horiz-adv-x="958" 
d="M640 154v234q-29 38 -72.5 63t-91.5 25q-166 0 -166 -205t166 -205q48 0 91.5 25t72.5 63zM644 131q-31 -36 -75.5 -59.5t-94.5 -23.5q-89 0 -136.5 57t-47.5 166t47.5 166t136.5 57q96 0 166 -79v67h20v-309q0 -48 22.5 -73t63.5 -25q112 0 112 228q0 79 -24.5 149
t-71 124t-120.5 86t-165 32q-114 0 -200 -57t-129.5 -150.5t-43.5 -208.5q0 -64 16 -125.5t48.5 -115.5t77.5 -95t108.5 -64.5t136.5 -23.5q129 0 238 78l9 -16q-113 -80 -247 -80q-125 0 -219.5 63.5t-141 162.5t-46.5 216q0 183 106 308.5t287 125.5q125 0 218 -59
t138 -150.5t45 -199.5q0 -246 -133 -246q-81 0 -101 74z" />
    <glyph glyph-name="A" unicode="A" horiz-adv-x="648" 
d="M313 700h22l283 -700h-22l-85 211h-374l-85 -211h-22zM324 678l-180 -449h360z" />
    <glyph glyph-name="B" unicode="B" horiz-adv-x="606" 
d="M90 0v700h217q98 0 155 -48t57 -127q0 -63 -32.5 -106t-84.5 -54q70 -10 112 -56t42 -122q0 -89 -63.5 -138t-184.5 -49h-218zM110 373h241q66 0 107 42.5t41 109.5q0 72 -52.5 114.5t-145.5 42.5h-191v-309zM536 187q0 77 -49 122.5t-136 45.5h-241v-337h196
q111 0 170.5 44t59.5 125z" />
    <glyph glyph-name="C" unicode="C" horiz-adv-x="672" 
d="M55 350q0 157 86 259.5t218 102.5q176 0 267 -140l-17 -11q-88 133 -250 133q-124 0 -204 -97.5t-80 -246.5t80 -246.5t204 -97.5q162 0 250 133l17 -11q-91 -140 -267 -140q-132 0 -218 102.5t-86 259.5z" />
    <glyph glyph-name="D" unicode="D" horiz-adv-x="654" 
d="M110 18h176q133 0 213 90.5t80 241.5t-80 241.5t-213 90.5h-176v-664zM289 0h-199v700h199q140 0 225 -96t85 -254t-85 -254t-225 -96z" />
    <glyph glyph-name="E" unicode="E" horiz-adv-x="554" 
d="M90 0v700h405v-18h-385v-311h350v-18h-350v-335h394v-18h-414z" />
    <glyph glyph-name="F" unicode="F" horiz-adv-x="525" 
d="M90 0v700h405v-18h-385v-308h353v-18h-353v-356h-20z" />
    <glyph glyph-name="G" unicode="G" horiz-adv-x="693" 
d="M55 350q0 158 85 260t221 102q168 0 259 -133l-17 -11q-89 126 -242 126q-127 0 -206.5 -97t-79.5 -247q0 -149 79.5 -246.5t220.5 -97.5q62 0 127 27t101 71v227h-218v18h238v-253q-43 -52 -112 -80t-136 -28q-152 0 -236 102.5t-84 259.5z" />
    <glyph glyph-name="H" unicode="H" horiz-adv-x="672" 
d="M90 0v700h20v-317h452v317h20v-700h-20v365h-452v-365h-20z" />
    <glyph glyph-name="I" unicode="I" horiz-adv-x="210" 
d="M95 700h20v-700h-20v700z" />
    <glyph glyph-name="J" unicode="J" horiz-adv-x="526" 
d="M35 115l16 10q68 -119 193 -119q75 0 123.5 54.5t48.5 153.5v486h20v-486q0 -114 -55 -170t-136 -56q-136 0 -210 127z" />
    <glyph glyph-name="K" unicode="K" horiz-adv-x="585" 
d="M110 700v-508l397 508h26l-222 -283l254 -417h-24l-243 400l-188 -240v-160h-20v700h20z" />
    <glyph glyph-name="L" unicode="L" horiz-adv-x="512" 
d="M90 0v700h20v-682h382v-18h-402z" />
    <glyph glyph-name="M" unicode="M" horiz-adv-x="824" 
d="M734 700v-700h-20v663l-293 -504h-18l-293 504v-663h-20v700h20l302 -519l302 519h20z" />
    <glyph glyph-name="N" unicode="N" horiz-adv-x="678" 
d="M90 0v700h20l458 -667v667h20v-700h-20l-458 666v-666h-20z" />
    <glyph glyph-name="O" unicode="O" horiz-adv-x="696" 
d="M641 350q0 -158 -79.5 -260t-213.5 -102t-213.5 102t-79.5 260t79.5 260t213.5 102t213.5 -102t79.5 -260zM75 350q0 -151 73.5 -247.5t199.5 -96.5t199.5 96.5t73.5 247.5t-73.5 247.5t-199.5 96.5t-199.5 -96.5t-73.5 -247.5z" />
    <glyph glyph-name="P" unicode="P" horiz-adv-x="564" 
d="M519 494q0 -99 -64.5 -152.5t-185.5 -53.5h-159v-288h-20v700h179q121 0 185.5 -53.5t64.5 -152.5zM499 494q0 93 -61.5 140.5t-174.5 47.5h-153v-376h153q113 0 174.5 47.5t61.5 140.5z" />
    <glyph glyph-name="Q" unicode="Q" horiz-adv-x="696" 
d="M641 350q0 -164 -83 -264l133 -144l-13 -13l-133 142q-78 -83 -197 -83q-134 0 -213.5 102t-79.5 260t79.5 260t213.5 102t213.5 -102t79.5 -260zM384 247l14 13l147 -160q76 96 76 250q0 151 -73.5 247.5t-199.5 96.5t-199.5 -96.5t-73.5 -247.5t73.5 -247.5
t199.5 -96.5q112 0 185 79z" />
    <glyph glyph-name="R" unicode="R" horiz-adv-x="582" 
d="M522 509q0 -71 -42.5 -118.5t-121.5 -64.5l204 -326h-23l-201 323q-35 -5 -67 -5h-161v-318h-20v700h186q117 0 181.5 -52t64.5 -139zM502 509q0 81 -60 127t-171 46h-161v-346h161q110 0 170.5 46.5t60.5 126.5z" />
    <glyph glyph-name="S" unicode="S" horiz-adv-x="567" 
d="M288 6q99 0 151.5 45.5t52.5 120.5q0 74 -49.5 117t-166.5 79q-105 32 -154 73t-49 106q0 75 51 120t139 45q135 0 228 -99l-16 -13q-85 94 -212 94q-81 0 -125.5 -41t-44.5 -106q0 -58 46 -95.5t146 -67.5q120 -37 173.5 -84t53.5 -129q0 -83 -59 -133t-165 -50
q-139 0 -243 96l16 14q93 -92 227 -92z" />
    <glyph glyph-name="T" unicode="T" horiz-adv-x="522" 
d="M251 0v682h-236v18h492v-18h-236v-682h-20z" />
    <glyph glyph-name="U" unicode="U" horiz-adv-x="696" 
d="M348 -12q-115 0 -186.5 70t-71.5 208v434h20v-431q0 -131 66 -197t172 -66t172 66t66 197v431h20v-434q0 -138 -71.5 -208t-186.5 -70z" />
    <glyph glyph-name="V" unicode="V" horiz-adv-x="648" 
d="M335 0h-22l-283 700h22l272 -678l271 678h23z" />
    <glyph glyph-name="W" unicode="W" horiz-adv-x="974" 
d="M474 700h26l194 -677l228 677h22l-238 -700h-25l-194 677l-194 -677h-25l-238 700h22l228 -677z" />
    <glyph glyph-name="X" unicode="X" horiz-adv-x="563" 
d="M270 364l-225 336h23l213 -319l214 319h23l-225 -336l245 -364h-24l-233 347l-232 -347h-24z" />
    <glyph glyph-name="Y" unicode="Y" horiz-adv-x="560" 
d="M535 700l-245 -421v-279h-20v279l-245 421h24l231 -401l231 401h24z" />
    <glyph glyph-name="Z" unicode="Z" horiz-adv-x="558" 
d="M40 18l444 664h-429v18h453v-18l-444 -664h454v-18h-478v18z" />
    <glyph glyph-name="bracketleft" unicode="[" horiz-adv-x="383" 
d="M130 -130v880h223v-18h-203v-844h203v-18h-223z" />
    <glyph glyph-name="backslash" unicode="\" horiz-adv-x="453" 
d="M15 760l440 -874l-17 -10l-440 874z" />
    <glyph glyph-name="bracketright" unicode="]" horiz-adv-x="383" 
d="M253 750v-880h-223v18h203v844h-203v18h223z" />
    <glyph glyph-name="asciicircum" unicode="^" horiz-adv-x="618" 
d="M300 700h18l214 -309l-16 -11l-207 302l-207 -302l-16 11z" />
    <glyph glyph-name="underscore" unicode="_" horiz-adv-x="480" 
d="M0 -146v18h480v-18h-480z" />
    <glyph glyph-name="grave" unicode="`" horiz-adv-x="400" 
d="M120 711l16 13l144 -142l-15 -12z" />
    <glyph glyph-name="a" unicode="a" horiz-adv-x="530" 
d="M435 242v101q0 90 -42.5 129.5t-124.5 39.5q-95 0 -172 -62l-14 14q84 66 186 66q187 0 187 -182v-348h-20v60q-79 -72 -197 -72q-82 0 -135 44.5t-53 118.5t53 118.5t135 44.5q118 0 197 -72zM237 6q112 0 198 76v138q-86 76 -198 76q-75 0 -121 -39.5t-46 -105.5
t46 -105.5t121 -39.5z" />
    <glyph glyph-name="b" unicode="b" horiz-adv-x="559" 
d="M100 416v-314q36 -40 87.5 -68t102.5 -28q199 0 199 253t-199 253q-51 0 -102.5 -28t-87.5 -68zM100 78v-78h-20v730h20v-290q90 90 197 90q101 0 156.5 -68.5t55.5 -202.5t-55.5 -202.5t-156.5 -68.5q-107 0 -197 90z" />
    <glyph glyph-name="c" unicode="c" horiz-adv-x="535" 
d="M50 259q0 124 69 197.5t169 73.5q134 0 202 -104l-16 -10q-66 96 -186 96q-91 0 -154.5 -68t-63.5 -185t63.5 -185t154.5 -68q120 0 186 96l16 -10q-68 -104 -202 -104q-100 0 -169 73.5t-69 197.5z" />
    <glyph glyph-name="d" unicode="d" horiz-adv-x="559" 
d="M459 102v314q-36 40 -87.5 68t-102.5 28q-199 0 -199 -253t199 -253q51 0 102.5 28t87.5 68zM459 0v78q-90 -90 -197 -90q-101 0 -156.5 68.5t-55.5 202.5t55.5 202.5t156.5 68.5q107 0 197 -90v290h20v-730h-20z" />
    <glyph glyph-name="e" unicode="e" horiz-adv-x="545" 
d="M290 6q115 0 178 85l16 -11q-69 -92 -194 -92q-111 0 -175.5 79.5t-64.5 193.5q0 117 65.5 193t163.5 76t164 -73t66 -187v-18h-439q2 -104 62.5 -175t157.5 -71zM70 270h419q0 107 -59.5 174.5t-150.5 67.5q-87 0 -147 -68t-62 -174z" />
    <glyph glyph-name="f" unicode="f" horiz-adv-x="353" 
d="M160 588v-70h163v-18h-163v-500h-20v500h-120v18h120v72q0 77 36 108.5t100 31.5q30 0 57 -3v-18q-30 3 -60 3q-54 0 -83.5 -26t-29.5 -98z" />
    <glyph glyph-name="g" unicode="g" horiz-adv-x="559" 
d="M459 78q-90 -90 -197 -90q-101 0 -156.5 68.5t-55.5 202.5t55.5 202.5t156.5 68.5q107 0 197 -90v78h20v-515q0 -107 -51 -167t-150 -60q-125 0 -203 100l15 11q72 -93 188 -93q90 0 135.5 55t45.5 150v79zM459 102v314q-36 40 -87.5 68t-102.5 28q-199 0 -199 -253
t199 -253q51 0 102.5 28t87.5 68z" />
    <glyph glyph-name="h" unicode="h" horiz-adv-x="559" 
d="M306 512q-55 0 -109.5 -29.5t-96.5 -78.5v-404h-20v730h20v-301q40 43 95 72t112 29q177 0 177 -190v-340h-20v333q0 93 -37.5 136t-120.5 43z" />
    <glyph glyph-name="i" unicode="i" horiz-adv-x="200" 
d="M90 0v518h20v-518h-20zM74 684q0 10 8 18t18 8t18 -8t8 -18t-8 -18t-18 -8t-18 8t-8 18z" />
    <glyph glyph-name="j" unicode="j" horiz-adv-x="190" 
d="M85 -87v605h20v-607q0 -77 -31.5 -106t-94.5 -29q-15 0 -31 2v18q18 -2 34 -2q50 0 76.5 23.5t26.5 95.5zM69 684q0 10 7.5 18t18.5 8t18.5 -8t7.5 -18t-7.5 -18t-18.5 -8t-18.5 8t-7.5 18z" />
    <glyph glyph-name="k" unicode="k" horiz-adv-x="478" 
d="M100 730v-565l308 353h28l-182 -207l214 -311h-24l-204 296l-140 -159v-137h-20v730h20z" />
    <glyph glyph-name="l" unicode="l" horiz-adv-x="200" 
d="M90 0v730h20v-730h-20z" />
    <glyph glyph-name="m" unicode="m" horiz-adv-x="867" 
d="M289 512q-47 0 -100 -28t-89 -74v-410h-20v518h20v-81q38 44 90 68.5t102 24.5q113 0 143 -91q88 91 199 91q86 0 122 -44.5t36 -139.5v-346h-20v339q0 88 -30.5 130.5t-110.5 42.5q-46 0 -97.5 -25t-93.5 -67q6 -27 6 -60v-360h-20v353q0 159 -137 159z" />
    <glyph glyph-name="n" unicode="n" horiz-adv-x="559" 
d="M306 512q-55 0 -109.5 -29.5t-96.5 -78.5v-404h-20v518h20v-89q40 43 95 72t112 29q177 0 177 -190v-340h-20v333q0 93 -37.5 136t-120.5 43z" />
    <glyph glyph-name="o" unicode="o" horiz-adv-x="566" 
d="M516 259q0 -119 -65.5 -195t-167.5 -76t-167.5 76t-65.5 195t65.5 195t167.5 76t167.5 -76t65.5 -195zM496 259q0 113 -60.5 183t-152.5 70t-152.5 -70t-60.5 -183t60.5 -183t152.5 -70t152.5 70t60.5 183z" />
    <glyph glyph-name="p" unicode="p" horiz-adv-x="559" 
d="M100 419v-320q35 -40 86.5 -66.5t103.5 -26.5q199 0 199 253t-199 253q-52 0 -103.5 -26.5t-86.5 -66.5zM100 518v-75q87 87 197 87q101 0 156.5 -68.5t55.5 -202.5t-55.5 -202.5t-156.5 -68.5q-110 0 -197 87v-287h-20v730h20z" />
    <glyph glyph-name="q" unicode="q" horiz-adv-x="559" 
d="M459 102v314q-36 40 -87.5 68t-102.5 28q-199 0 -199 -253t199 -253q51 0 102.5 28t87.5 68zM459 440v78h20v-730h-20v290q-90 -90 -197 -90q-101 0 -156.5 68.5t-55.5 202.5t55.5 202.5t156.5 68.5q107 0 197 -90z" />
    <glyph glyph-name="r" unicode="r" horiz-adv-x="339" 
d="M279 512q-104 0 -179 -106v-406h-20v518h20v-85q78 97 181 97q14 0 38 -2v-18q-26 2 -40 2z" />
    <glyph glyph-name="s" unicode="s" horiz-adv-x="474" 
d="M238 6q75 0 120.5 34.5t45.5 89.5q0 52 -41.5 85t-129.5 56q-90 23 -132 52.5t-42 84.5t45 88.5t118 33.5q99 0 173 -59l-14 -14q-66 55 -158 55q-65 0 -104.5 -28.5t-39.5 -75.5q0 -46 38 -71.5t127 -48.5q94 -25 137 -62.5t43 -95.5q0 -67 -52 -104.5t-135 -37.5
q-116 0 -202 78l14 14q39 -35 90 -54.5t99 -19.5z" />
    <glyph glyph-name="t" unicode="t" horiz-adv-x="353" 
d="M319 8v-18q-22 -2 -43 -2q-65 0 -100.5 31.5t-35.5 108.5v372h-120v18h120v155h20v-155h163v-18h-163v-370q0 -72 30.5 -98t82.5 -26q22 0 46 2z" />
    <glyph glyph-name="u" unicode="u" horiz-adv-x="554" 
d="M277 -12q-94 0 -148 58t-54 167v305h20v-303q0 -101 47.5 -155t134.5 -54t134.5 54t47.5 155v303h20v-305q0 -109 -54 -167t-148 -58z" />
    <glyph glyph-name="v" unicode="v" horiz-adv-x="496" 
d="M449 518h22l-210 -518h-26l-210 518h22l201 -499z" />
    <glyph glyph-name="w" unicode="w" horiz-adv-x="760" 
d="M366 518h28l154 -499l164 499h23l-174 -518h-26l-155 499l-155 -499h-26l-174 518h23l164 -499z" />
    <glyph glyph-name="x" unicode="x" horiz-adv-x="458" 
d="M413 0l-184 257l-184 -257h-25l197 274l-175 244h24l163 -228l163 228h24l-175 -244l197 -274h-25z" />
    <glyph glyph-name="y" unicode="y" horiz-adv-x="485" 
d="M247 33l191 485h22l-287 -730h-22l86 218l-212 512h22z" />
    <glyph glyph-name="z" unicode="z" horiz-adv-x="461" 
d="M35 0v18l356 482h-341v18h366v-18l-357 -482h367v-18h-391z" />
    <glyph glyph-name="braceleft" unicode="{" horiz-adv-x="355" 
d="M186 -44v243q0 44 -24 73t-62 29v18q38 0 62 29t24 73v243q0 46 18 66t59 20h72v-18h-72q-32 0 -44.5 -15t-12.5 -51v-250q0 -38 -19 -67.5t-54 -38.5q35 -9 54 -38.5t19 -67.5v-250q0 -36 12.5 -51t44.5 -15h72v-18h-72q-41 0 -59 20t-18 66z" />
    <glyph glyph-name="bar" unicode="|" horiz-adv-x="260" 
d="M120 -200v969h20v-969h-20z" />
    <glyph glyph-name="braceright" unicode="}" horiz-adv-x="355" 
d="M169 199v-243q0 -46 -18 -66t-59 -20h-72v18h72q32 0 44.5 15t12.5 51v250q0 38 19 67.5t54 38.5q-35 9 -54 38.5t-19 67.5v250q0 36 -12.5 51t-44.5 15h-72v18h72q41 0 59 -20t18 -66v-243q0 -44 24 -73t62 -29v-18q-38 0 -62 -29t-24 -73z" />
    <glyph glyph-name="asciitilde" unicode="~" horiz-adv-x="618" 
d="M301 325q-72 55 -129 55q-80 0 -98 -106l-20 4q21 120 120 120q65 0 143 -63q72 -55 129 -55q80 0 98 106l20 -4q-21 -120 -120 -120q-65 0 -143 63z" />
    <glyph glyph-name="uni00A0" unicode="&#xa0;" horiz-adv-x="300" 
 />
    <glyph glyph-name="exclamdown" unicode="&#xa1;" horiz-adv-x="220" 
d="M120 -182h-20v531h20v-531zM84 504q0 10 8 18t18 8t18 -8t8 -18t-8 -18t-18 -8t-18 8t-8 18z" />
    <glyph glyph-name="cent" unicode="&#xa2;" horiz-adv-x="535" 
d="M50 259q0 120 65 193t162 78v86h20v-86q126 -5 193 -104l-16 -10q-64 91 -177 96v-506q113 3 177 96l16 -10q-66 -99 -193 -104v-86h-20v86q-97 5 -162 78t-65 193zM70 259q0 -113 59.5 -181t147.5 -72v506q-88 -5 -147.5 -72.5t-59.5 -180.5z" />
    <glyph glyph-name="sterling" unicode="&#xa3;" horiz-adv-x="565" 
d="M318 712q121 0 191 -89l-15 -11q-67 82 -176 82q-80 0 -124 -45.5t-44 -140.5v-134h235v-18h-235v-109q0 -145 -75 -229h450v-18h-475v15q80 83 80 231v110h-80v18h80v136q0 101 49.5 151.5t138.5 50.5z" />
    <glyph glyph-name="currency" unicode="&#xa4;" horiz-adv-x="707" 
d="M207 171l-87 -87l-14 15l87 87q-56 61 -56 146q0 84 55 145l-86 87l14 15l87 -87q62 57 147 57q83 0 147 -57l87 87l14 -15l-87 -87q57 -62 57 -145t-57 -147l87 -86l-14 -15l-87 87q-62 -57 -147 -57q-83 0 -147 57zM157 332q0 -82 57.5 -140t139.5 -58t140 58t58 140
t-58 139.5t-140 57.5t-139.5 -57.5t-57.5 -139.5z" />
    <glyph glyph-name="yen" unicode="&#xa5;" horiz-adv-x="560" 
d="M58 297h201l-234 403h24l231 -401l231 401h24l-235 -403h204v-18h-214v-91h214v-18h-214v-170h-20v170h-212v18h212v91h-212v18z" />
    <glyph glyph-name="brokenbar" unicode="&#xa6;" horiz-adv-x="260" 
d="M120 220h20v-320h-20v320zM120 688h20v-320h-20v320z" />
    <glyph glyph-name="section" unicode="&#xa7;" horiz-adv-x="495" 
d="M435 312q0 -56 -37 -88.5t-101 -41.5q72 -23 105 -56.5t33 -83.5q0 -67 -51.5 -104.5t-136.5 -37.5q-111 0 -197 78l14 14q82 -74 187 -74q74 0 119 34.5t45 89.5q0 51 -40.5 82t-130.5 54q-86 22 -130 57t-44 90q0 48 35 84t92 47q-64 21 -95.5 50.5t-31.5 76.5
q0 58 46.5 93.5t121.5 35.5q94 0 168 -59l-14 -14q-66 55 -158 55q-65 0 -104.5 -30.5t-39.5 -80.5q0 -45 39 -72.5t126 -50.5q96 -25 138 -58.5t42 -89.5zM244 443q-3 0 -4 1q-65 -1 -107.5 -35.5t-42.5 -83.5q0 -46 39 -76.5t122 -52.5q75 0 119.5 31t44.5 85
q0 51 -39.5 79t-131.5 52z" />
    <glyph glyph-name="dieresis" unicode="&#xa8;" horiz-adv-x="400" 
d="M91 649q0 9 6.5 15.5t15.5 6.5t15.5 -6.5t6.5 -15.5t-6.5 -15.5t-15.5 -6.5t-15.5 6.5t-6.5 15.5zM265 649q0 9 6.5 15.5t15.5 6.5t15.5 -6.5t6.5 -15.5t-6.5 -15.5t-15.5 -6.5t-15.5 6.5t-6.5 15.5z" />
    <glyph glyph-name="copyright" unicode="&#xa9;" horiz-adv-x="834" 
d="M60 350q0 150 105 256t252 106t252 -106t105 -256t-105 -256t-252 -106t-252 106t-105 256zM754 350q0 141 -99.5 241.5t-237.5 100.5t-237.5 -100.5t-99.5 -241.5t99.5 -241.5t237.5 -100.5t237.5 100.5t99.5 241.5zM219 348q0 97 56.5 157t141.5 60q117 0 176 -95
l-16 -9q-57 86 -160 86q-81 0 -129.5 -55.5t-48.5 -143.5t48.5 -143.5t129.5 -55.5q103 0 160 86l16 -9q-59 -95 -176 -95q-85 0 -141.5 60t-56.5 157z" />
    <glyph glyph-name="ordfeminine" unicode="&#xaa;" horiz-adv-x="410" 
d="M50 442q0 53 39 85t93 32q81 0 142 -41v65q0 107 -121 107q-66 0 -121 -44l-12 14q62 48 135 48q139 0 139 -122v-253h-20v33q-61 -41 -142 -41q-54 0 -93 32t-39 85zM181 343q79 0 143 42v114q-64 42 -143 42q-46 0 -78.5 -27.5t-32.5 -71.5t32.5 -71.5t78.5 -27.5z" />
    <glyph glyph-name="guillemotleft" unicode="&#xab;" horiz-adv-x="487" 
d="M50 307v10l206 159l11 -15l-194 -149l194 -149l-11 -15zM220 307v10l206 159l11 -15l-194 -149l194 -149l-11 -15z" />
    <glyph glyph-name="logicalnot" unicode="&#xac;" horiz-adv-x="618" 
d="M67 406v18h474v-250h-20v232h-454z" />
    <glyph glyph-name="uni00AD" unicode="&#xad;" horiz-adv-x="406" 
d="M336 323h-266v18h266v-18z" />
    <glyph glyph-name="registered" unicode="&#xae;" horiz-adv-x="834" 
d="M60 350q0 150 105 256t252 106t252 -106t105 -256t-105 -256t-252 -106t-252 106t-105 256zM80 350q0 -141 99.5 -241.5t237.5 -100.5t237.5 100.5t99.5 241.5t-99.5 241.5t-237.5 100.5t-237.5 -100.5t-99.5 -241.5zM578 437q0 -86 -88 -113l108 -183h-23l-104 178
q-21 -4 -51 -4h-123v-174h-20v417h143q75 0 116.5 -31.5t41.5 -89.5zM558 437q0 103 -140 103h-121v-207h121q140 0 140 104z" />
    <glyph glyph-name="macron" unicode="&#xaf;" horiz-adv-x="400" 
d="M64 639v18h272v-18h-272z" />
    <glyph glyph-name="degree" unicode="&#xb0;" horiz-adv-x="386" 
d="M72 591q0 50 35.5 85.5t85.5 35.5t85.5 -35.5t35.5 -85.5t-35.5 -85.5t-85.5 -35.5t-85.5 35.5t-35.5 85.5zM92 591q0 -43 29.5 -73t71.5 -30t71.5 30t29.5 73t-29.5 73t-71.5 30t-71.5 -30t-29.5 -73z" />
    <glyph glyph-name="plusminus" unicode="&#xb1;" horiz-adv-x="618" 
d="M548 0h-478v18h478v-18zM299 103v228h-229v18h229v228h20v-228h229v-18h-229v-228h-20z" />
    <glyph glyph-name="twosuperior" unicode="&#xb2;" 
d="M320 237h-264v20q110 92 189 195q51 67 51 131q0 52 -30.5 79.5t-79.5 27.5q-74 0 -126 -54l-14 11q58 61 139 61q60 0 95.5 -34t35.5 -90q0 -69 -56 -144q-74 -99 -176 -183h236v-20z" />
    <glyph glyph-name="threesuperior" unicode="&#xb3;" 
d="M191 247q57 0 86.5 31t29.5 74q0 57 -39 87.5t-115 30.5h-31v18h33q67 0 106 29.5t39 75.5q0 44 -26 70.5t-78 26.5q-63 0 -110 -48l-13 12q54 54 123 54q58 0 91 -32.5t33 -82.5q0 -44 -29.5 -74t-71.5 -39q49 -11 78.5 -43.5t29.5 -84.5q0 -54 -35.5 -88.5
t-100.5 -34.5q-83 0 -138 62l14 13q24 -26 58 -41.5t66 -15.5z" />
    <glyph glyph-name="acute" unicode="&#xb4;" horiz-adv-x="400" 
d="M264 724l16 -13l-145 -141l-15 12z" />
    <glyph glyph-name="mu" unicode="&#xb5;" horiz-adv-x="564" 
d="M282 -12q-110 0 -182 77v-277h-20v730h20v-430q32 -38 80.5 -60t101.5 -22t101.5 22t80.5 60v430h20v-518h-20v65q-72 -77 -182 -77z" />
    <glyph glyph-name="paragraph" unicode="&#xb6;" horiz-adv-x="540" 
d="M50 524q0 90 65.5 133t168.5 43h156v-831h-20v813h-66v-813h-20v477h-50q-102 0 -168 44t-66 134z" />
    <glyph glyph-name="periodcentered" unicode="&#xb7;" horiz-adv-x="280" 
d="M114 299q0 11 8 18.5t18 7.5t18 -7.5t8 -18.5t-8 -18.5t-18 -7.5t-18 7.5t-8 18.5z" />
    <glyph glyph-name="cedilla" unicode="&#xb8;" horiz-adv-x="400" 
d="M181 -238q-44 0 -80 28l12 14q29 -24 67 -24t57.5 16.5t19.5 42.5q0 70 -106 78l-3 4l41 79h20l-34 -69q102 -15 102 -92q0 -33 -25 -55t-71 -22z" />
    <glyph glyph-name="onesuperior" unicode="&#xb9;" 
d="M204 678l-98 -75l-11 16l109 82h20v-464h-20v441z" />
    <glyph glyph-name="ordmasculine" unicode="&#xba;" horiz-adv-x="410" 
d="M38 517q0 82 47 136.5t120 54.5t120 -54.5t47 -136.5t-47 -136.5t-120 -54.5t-120 54.5t-47 136.5zM58 517q0 -79 42 -126t105 -47t105 47t42 126t-42 126t-105 47t-105 -47t-42 -126z" />
    <glyph glyph-name="guillemotright" unicode="&#xbb;" horiz-adv-x="487" 
d="M437 317v-10l-206 -159l-11 15l194 149l-194 149l11 15zM267 317v-10l-206 -159l-11 15l194 149l-194 149l11 15z" />
    <glyph glyph-name="onequarter" unicode="&#xbc;" horiz-adv-x="950" 
d="M204 678l-98 -75l-11 16l109 82h20v-464h-20v441zM817 109h-240v18l239 336h21v-336h56v-18h-56v-109h-20v109zM817 432l-217 -305h217v305zM282 -12l-16 11l402 716l16 -11z" />
    <glyph glyph-name="onehalf" unicode="&#xbd;" horiz-adv-x="950" 
d="M204 678l-98 -75l-11 16l109 82h20v-464h-20v441zM880 0h-264v20q110 92 189 195q51 67 51 131q0 52 -30.5 79.5t-79.5 27.5q-74 0 -126 -54l-14 11q58 61 139 61q60 0 95.5 -34t35.5 -90q0 -69 -56 -144q-74 -99 -176 -183h236v-20zM282 -12l-16 11l402 716l16 -11z" />
    <glyph glyph-name="threequarters" unicode="&#xbe;" horiz-adv-x="950" 
d="M202 247q57 0 86.5 31t29.5 74q0 57 -39 87.5t-115 30.5h-31v18h33q67 0 106 29.5t39 75.5q0 44 -26 70.5t-78 26.5q-63 0 -110 -48l-13 12q54 54 123 54q58 0 91 -32.5t33 -82.5q0 -44 -29.5 -74t-71.5 -39q50 -11 79 -43.5t29 -84.5q0 -54 -35.5 -88.5t-100.5 -34.5
q-83 0 -138 62l14 13q24 -26 58 -41.5t66 -15.5zM282 -12l-16 11l402 716l16 -11zM817 109h-240v18l239 336h21v-336h56v-18h-56v-109h-20v109zM817 432l-217 -305h217v305z" />
    <glyph glyph-name="questiondown" unicode="&#xbf;" horiz-adv-x="492" 
d="M309 505q0 -11 -7.5 -18.5t-18.5 -7.5t-18.5 7.5t-7.5 18.5t7.5 18.5t18.5 7.5t18.5 -7.5t7.5 -18.5zM244 -193q-82 0 -128.5 44.5t-46.5 111.5q0 103 121 190q50 36 66.5 74t16.5 102v21h20v-25q0 -68 -20 -110t-71 -78q-61 -43 -86.5 -85t-25.5 -91q0 -61 42.5 -98.5
t117.5 -37.5q101 0 176 93l16 -13q-82 -98 -198 -98z" />
    <glyph glyph-name="Agrave" unicode="&#xc0;" horiz-adv-x="648" 
d="M313 700h22l283 -700h-22l-85 211h-374l-85 -211h-22zM324 678l-180 -449h360zM199 905l16 13l144 -142l-15 -12z" />
    <glyph glyph-name="Aacute" unicode="&#xc1;" horiz-adv-x="648" 
d="M313 700h22l283 -700h-22l-85 211h-374l-85 -211h-22zM324 678l-180 -449h360zM433 918l16 -13l-145 -141l-15 12z" />
    <glyph glyph-name="Acircumflex" unicode="&#xc2;" horiz-adv-x="648" 
d="M313 700h22l283 -700h-22l-85 211h-374l-85 -211h-22zM324 678l-180 -449h360zM317 924h14l146 -162l-14 -12l-139 156l-139 -156l-14 12z" />
    <glyph glyph-name="Atilde" unicode="&#xc3;" horiz-adv-x="648" 
d="M313 700h22l283 -700h-22l-85 211h-374l-85 -211h-22zM324 678l-180 -449h360zM319 834q-36 34 -67 34q-44 0 -62 -59l-19 4q11 36 33.5 54.5t47.5 18.5q38 0 77 -36q36 -34 67 -34q44 0 62 59l19 -4q-11 -36 -33.5 -54.5t-47.5 -18.5q-38 0 -77 36z" />
    <glyph glyph-name="Adieresis" unicode="&#xc4;" horiz-adv-x="648" 
d="M313 700h22l283 -700h-22l-85 211h-374l-85 -211h-22zM324 678l-180 -449h360zM215 843q0 9 6.5 15.5t15.5 6.5t15.5 -6.5t6.5 -15.5t-6.5 -15.5t-15.5 -6.5t-15.5 6.5t-6.5 15.5zM389 843q0 9 6.5 15.5t15.5 6.5t15.5 -6.5t6.5 -15.5t-6.5 -15.5t-15.5 -6.5t-15.5 6.5
t-6.5 15.5z" />
    <glyph glyph-name="Aring" unicode="&#xc5;" horiz-adv-x="648" 
d="M313 700h22l283 -700h-22l-85 211h-374l-85 -211h-22zM324 678l-180 -449h360zM239 843q0 35 25 59t60 24t60 -24t25 -59t-25 -59t-60 -24t-60 24t-25 59zM259 843q0 -27 19 -46t46 -19t46 19t19 46t-19 46t-46 19t-46 -19t-19 -46z" />
    <glyph glyph-name="AE" unicode="&#xc6;" horiz-adv-x="854" 
d="M432 700h363v-18h-332v-311h297v-18h-297v-335h341v-18h-361v210h-268l-120 -210h-25zM443 228v451l-258 -451h258z" />
    <glyph glyph-name="Ccedilla" unicode="&#xc7;" horiz-adv-x="672" 
d="M55 350q0 157 86 259.5t218 102.5q176 0 267 -140l-17 -11q-88 133 -250 133q-124 0 -204 -97.5t-80 -246.5t80 -246.5t204 -97.5q162 0 250 133l17 -11q-85 -128 -240 -139l-27 -58q101 -14 101 -92q0 -32 -25.5 -54.5t-70.5 -22.5q-44 0 -80 28l12 14q28 -24 67 -24
q37 0 57 17.5t20 41.5q0 70 -108 78l34 71h-7q-132 0 -218 102.5t-86 259.5z" />
    <glyph glyph-name="Egrave" unicode="&#xc8;" horiz-adv-x="554" 
d="M90 0v700h405v-18h-385v-311h350v-18h-350v-335h394v-18h-414zM196 905l16 13l144 -142l-15 -12z" />
    <glyph glyph-name="Eacute" unicode="&#xc9;" horiz-adv-x="554" 
d="M90 0v700h405v-18h-385v-311h350v-18h-350v-335h394v-18h-414zM384 918l16 -13l-145 -141l-15 12z" />
    <glyph glyph-name="Ecircumflex" unicode="&#xca;" horiz-adv-x="554" 
d="M90 0v700h405v-18h-385v-311h350v-18h-350v-335h394v-18h-414zM289 924h14l146 -162l-14 -12l-139 156l-139 -156l-14 12z" />
    <glyph glyph-name="Edieresis" unicode="&#xcb;" horiz-adv-x="554" 
d="M90 0v700h405v-18h-385v-311h350v-18h-350v-335h394v-18h-414zM186 843q0 9 6.5 15.5t15.5 6.5t15.5 -6.5t6.5 -15.5t-6.5 -15.5t-15.5 -6.5t-15.5 6.5t-6.5 15.5zM360 843q0 9 6.5 15.5t15.5 6.5t15.5 -6.5t6.5 -15.5t-6.5 -15.5t-15.5 -6.5t-15.5 6.5t-6.5 15.5z" />
    <glyph glyph-name="Igrave" unicode="&#xcc;" horiz-adv-x="210" 
d="M95 700h20v-700h-20v700zM-46 905l16 13l144 -142l-15 -12z" />
    <glyph glyph-name="Iacute" unicode="&#xcd;" horiz-adv-x="210" 
d="M95 700h20v-700h-20v700zM240 918l16 -13l-145 -141l-15 12z" />
    <glyph glyph-name="Icircumflex" unicode="&#xce;" horiz-adv-x="210" 
d="M95 700h20v-700h-20v700zM98 924h14l146 -162l-14 -12l-139 156l-139 -156l-14 12z" />
    <glyph glyph-name="Idieresis" unicode="&#xcf;" horiz-adv-x="210" 
d="M95 700h20v-700h-20v700zM-4 843q0 9 6.5 15.5t15.5 6.5t15.5 -6.5t6.5 -15.5t-6.5 -15.5t-15.5 -6.5t-15.5 6.5t-6.5 15.5zM170 843q0 9 6.5 15.5t15.5 6.5t15.5 -6.5t6.5 -15.5t-6.5 -15.5t-15.5 -6.5t-15.5 6.5t-6.5 15.5z" />
    <glyph glyph-name="Eth" unicode="&#xd0;" horiz-adv-x="674" 
d="M309 0h-199v341h-90v18h90v341h199q140 0 225 -96t85 -254t-85 -254t-225 -96zM130 18h176q133 0 213 90.5t80 241.5t-80 241.5t-213 90.5h-176v-323h194v-18h-194v-323z" />
    <glyph glyph-name="Ntilde" unicode="&#xd1;" horiz-adv-x="678" 
d="M90 0v700h20l458 -667v667h20v-700h-20l-458 666v-666h-20zM334 834q-36 34 -67 34q-44 0 -62 -59l-19 4q11 36 33.5 54.5t47.5 18.5q38 0 77 -36q36 -34 67 -34q44 0 62 59l19 -4q-11 -36 -33.5 -54.5t-47.5 -18.5q-38 0 -77 36z" />
    <glyph glyph-name="Ograve" unicode="&#xd2;" horiz-adv-x="696" 
d="M641 350q0 -158 -79.5 -260t-213.5 -102t-213.5 102t-79.5 260t79.5 260t213.5 102t213.5 -102t79.5 -260zM75 350q0 -151 73.5 -247.5t199.5 -96.5t199.5 96.5t73.5 247.5t-73.5 247.5t-199.5 96.5t-199.5 -96.5t-73.5 -247.5zM251 905l16 13l144 -142l-15 -12z" />
    <glyph glyph-name="Oacute" unicode="&#xd3;" horiz-adv-x="696" 
d="M641 350q0 -158 -79.5 -260t-213.5 -102t-213.5 102t-79.5 260t79.5 260t213.5 102t213.5 -102t79.5 -260zM75 350q0 -151 73.5 -247.5t199.5 -96.5t199.5 96.5t73.5 247.5t-73.5 247.5t-199.5 96.5t-199.5 -96.5t-73.5 -247.5zM429 918l16 -13l-145 -141l-15 12z" />
    <glyph glyph-name="Ocircumflex" unicode="&#xd4;" horiz-adv-x="696" 
d="M641 350q0 -158 -79.5 -260t-213.5 -102t-213.5 102t-79.5 260t79.5 260t213.5 102t213.5 -102t79.5 -260zM75 350q0 -151 73.5 -247.5t199.5 -96.5t199.5 96.5t73.5 247.5t-73.5 247.5t-199.5 96.5t-199.5 -96.5t-73.5 -247.5zM341 924h14l146 -162l-14 -12l-139 156
l-139 -156l-14 12z" />
    <glyph glyph-name="Otilde" unicode="&#xd5;" horiz-adv-x="696" 
d="M641 350q0 -158 -79.5 -260t-213.5 -102t-213.5 102t-79.5 260t79.5 260t213.5 102t213.5 -102t79.5 -260zM75 350q0 -151 73.5 -247.5t199.5 -96.5t199.5 96.5t73.5 247.5t-73.5 247.5t-199.5 96.5t-199.5 -96.5t-73.5 -247.5zM343 834q-36 34 -67 34q-44 0 -62 -59
l-19 4q11 36 33.5 54.5t47.5 18.5q38 0 77 -36q36 -34 67 -34q44 0 62 59l19 -4q-11 -36 -33.5 -54.5t-47.5 -18.5q-38 0 -77 36z" />
    <glyph glyph-name="Odieresis" unicode="&#xd6;" horiz-adv-x="696" 
d="M641 350q0 -158 -79.5 -260t-213.5 -102t-213.5 102t-79.5 260t79.5 260t213.5 102t213.5 -102t79.5 -260zM75 350q0 -151 73.5 -247.5t199.5 -96.5t199.5 96.5t73.5 247.5t-73.5 247.5t-199.5 96.5t-199.5 -96.5t-73.5 -247.5zM239 843q0 9 6.5 15.5t15.5 6.5t15.5 -6.5
t6.5 -15.5t-6.5 -15.5t-15.5 -6.5t-15.5 6.5t-6.5 15.5zM413 843q0 9 6.5 15.5t15.5 6.5t15.5 -6.5t6.5 -15.5t-6.5 -15.5t-15.5 -6.5t-15.5 6.5t-6.5 15.5z" />
    <glyph glyph-name="multiply" unicode="&#xd7;" horiz-adv-x="618" 
d="M323 333l175 -172l-14 -14l-175 172l-175 -172l-14 14l175 172l-175 173l14 14l175 -173l175 173l14 -14z" />
    <glyph glyph-name="Oslash" unicode="&#xd8;" horiz-adv-x="696" 
d="M71 -26l73 104q-89 101 -89 272q0 158 79.5 260t213.5 102q112 0 190 -76l71 101l17 -10l-75 -105q90 -102 90 -272q0 -158 -79.5 -260t-213.5 -102q-112 0 -190 75l-70 -99zM75 350q0 -161 81 -256l371 527q-71 73 -179 73q-126 0 -199.5 -96.5t-73.5 -247.5zM621 350
q0 159 -81 256l-371 -527q73 -73 179 -73q126 0 199.5 96.5t73.5 247.5z" />
    <glyph glyph-name="Ugrave" unicode="&#xd9;" horiz-adv-x="696" 
d="M348 -12q-115 0 -186.5 70t-71.5 208v434h20v-431q0 -131 66 -197t172 -66t172 66t66 197v431h20v-434q0 -138 -71.5 -208t-186.5 -70zM201 905l16 13l144 -142l-15 -12z" />
    <glyph glyph-name="Uacute" unicode="&#xda;" horiz-adv-x="696" 
d="M348 -12q-115 0 -186.5 70t-71.5 208v434h20v-431q0 -131 66 -197t172 -66t172 66t66 197v431h20v-434q0 -138 -71.5 -208t-186.5 -70zM479 918l16 -13l-145 -141l-15 12z" />
    <glyph glyph-name="Ucircumflex" unicode="&#xdb;" horiz-adv-x="696" 
d="M348 -11q-115 0 -186.5 70t-71.5 208v434h20v-431q0 -131 66 -197t172 -66t172 66t66 197v431h20v-434q0 -138 -71.5 -208t-186.5 -70zM341 924h14l146 -162l-14 -12l-139 156l-139 -156l-14 12z" />
    <glyph glyph-name="Udieresis" unicode="&#xdc;" horiz-adv-x="696" 
d="M348 -12q-115 0 -186.5 70t-71.5 208v434h20v-431q0 -131 66 -197t172 -66t172 66t66 197v431h20v-434q0 -138 -71.5 -208t-186.5 -70zM239 843q0 9 6.5 15.5t15.5 6.5t15.5 -6.5t6.5 -15.5t-6.5 -15.5t-15.5 -6.5t-15.5 6.5t-6.5 15.5zM413 843q0 9 6.5 15.5t15.5 6.5
t15.5 -6.5t6.5 -15.5t-6.5 -15.5t-15.5 -6.5t-15.5 6.5t-6.5 15.5z" />
    <glyph glyph-name="Yacute" unicode="&#xdd;" horiz-adv-x="560" 
d="M535 700l-245 -421v-279h-20v279l-245 421h24l231 -401l231 401h24zM399 918l16 -13l-145 -141l-15 12z" />
    <glyph glyph-name="Thorn" unicode="&#xde;" horiz-adv-x="564" 
d="M110 562h159q121 0 185.5 -53.5t64.5 -152.5t-64.5 -152.5t-185.5 -53.5h-159v-150h-20v700h20v-138zM263 544h-153v-376h153q113 0 174.5 47.5t61.5 140.5t-61.5 140.5t-174.5 47.5z" />
    <glyph glyph-name="germandbls" unicode="&#xdf;" horiz-adv-x="552" 
d="M189 22l10 17q23 -15 57.5 -24t57.5 -9q87 0 132.5 48t45.5 123q0 93 -67 143t-181 50v18q94 0 142 42.5t48 110.5q0 71 -44.5 112t-117.5 41q-172 0 -172 -215v-479h-20v478q0 234 194 234q78 0 129 -46t51 -125q0 -130 -138 -162q85 -10 140.5 -62t55.5 -140
q0 -85 -51.5 -137t-145.5 -52q-27 0 -65.5 10t-60.5 24z" />
    <glyph glyph-name="agrave" unicode="&#xe0;" horiz-adv-x="530" 
d="M435 242v101q0 90 -42.5 129.5t-124.5 39.5q-95 0 -172 -62l-14 14q84 66 186 66q187 0 187 -182v-348h-20v60q-79 -72 -197 -72q-82 0 -135 44.5t-53 118.5t53 118.5t135 44.5q118 0 197 -72zM237 6q112 0 198 76v138q-86 76 -198 76q-75 0 -121 -39.5t-46 -105.5
t46 -105.5t121 -39.5zM166 731l16 13l144 -142l-15 -12z" />
    <glyph glyph-name="aacute" unicode="&#xe1;" horiz-adv-x="530" 
d="M435 242v101q0 90 -42.5 129.5t-124.5 39.5q-95 0 -172 -62l-14 14q84 66 186 66q187 0 187 -182v-348h-20v60q-79 -72 -197 -72q-82 0 -135 44.5t-53 118.5t53 118.5t135 44.5q118 0 197 -72zM237 6q112 0 198 76v138q-86 76 -198 76q-75 0 -121 -39.5t-46 -105.5
t46 -105.5t121 -39.5zM366 744l16 -13l-145 -141l-15 12z" />
    <glyph glyph-name="acircumflex" unicode="&#xe2;" horiz-adv-x="530" 
d="M435 242v101q0 90 -42.5 129.5t-124.5 39.5q-95 0 -172 -62l-14 14q84 66 186 66q187 0 187 -182v-348h-20v60q-79 -72 -197 -72q-82 0 -135 44.5t-53 118.5t53 118.5t135 44.5q118 0 197 -72zM237 6q112 0 198 76v138q-86 76 -198 76q-75 0 -121 -39.5t-46 -105.5
t46 -105.5t121 -39.5zM264 750h14l146 -162l-14 -12l-139 156l-139 -156l-14 12z" />
    <glyph glyph-name="atilde" unicode="&#xe3;" horiz-adv-x="530" 
d="M435 242v101q0 90 -42.5 129.5t-124.5 39.5q-95 0 -172 -62l-14 14q84 66 186 66q187 0 187 -182v-348h-20v60q-79 -72 -197 -72q-82 0 -135 44.5t-53 118.5t53 118.5t135 44.5q118 0 197 -72zM237 6q112 0 198 76v138q-86 76 -198 76q-75 0 -121 -39.5t-46 -105.5
t46 -105.5t121 -39.5zM266 660q-36 34 -67 34q-44 0 -62 -59l-19 4q11 36 33.5 54.5t47.5 18.5q38 0 77 -36q36 -34 67 -34q44 0 62 59l19 -4q-11 -36 -33.5 -54.5t-47.5 -18.5q-38 0 -77 36z" />
    <glyph glyph-name="adieresis" unicode="&#xe4;" horiz-adv-x="530" 
d="M435 242v101q0 90 -42.5 129.5t-124.5 39.5q-95 0 -172 -62l-14 14q84 66 186 66q187 0 187 -182v-348h-20v60q-79 -72 -197 -72q-82 0 -135 44.5t-53 118.5t53 118.5t135 44.5q118 0 197 -72zM237 6q112 0 198 76v138q-86 76 -198 76q-75 0 -121 -39.5t-46 -105.5
t46 -105.5t121 -39.5zM169 669q0 9 6.5 15.5t15.5 6.5t15.5 -6.5t6.5 -15.5t-6.5 -15.5t-15.5 -6.5t-15.5 6.5t-6.5 15.5zM343 669q0 9 6.5 15.5t15.5 6.5t15.5 -6.5t6.5 -15.5t-6.5 -15.5t-15.5 -6.5t-15.5 6.5t-6.5 15.5z" />
    <glyph glyph-name="aring" unicode="&#xe5;" horiz-adv-x="530" 
d="M435 242v101q0 90 -42.5 129.5t-124.5 39.5q-95 0 -172 -62l-14 14q84 66 186 66q187 0 187 -182v-348h-20v60q-79 -72 -197 -72q-82 0 -135 44.5t-53 118.5t53 118.5t135 44.5q118 0 197 -72zM237 6q112 0 198 76v138q-86 76 -198 76q-75 0 -121 -39.5t-46 -105.5
t46 -105.5t121 -39.5zM192 669q0 35 25 59t60 24t60 -24t25 -59t-25 -59t-60 -24t-60 24t-25 59zM212 669q0 -27 19 -46t46 -19t46 19t19 46t-19 46t-46 19t-46 -19t-19 -46z" />
    <glyph glyph-name="ae" unicode="&#xe6;" horiz-adv-x="930" 
d="M894 252h-439q2 -104 62.5 -175t157.5 -71q115 0 178 85l16 -11q-69 -92 -194 -92q-68 0 -120 32t-82 86q-85 -118 -234 -118q-83 0 -136 44.5t-53 118.5t53 118.5t135 44.5q118 0 197 -72v101q0 90 -42.5 129.5t-124.5 39.5q-95 0 -172 -62l-14 14q84 66 186 66
q176 0 186 -161q23 73 80.5 117t129.5 44q98 0 164 -73t66 -187v-18zM237 296q-75 0 -121 -39.5t-46 -105.5t46 -105.5t121 -39.5q74 0 132.5 31.5t93.5 87.5q-20 43 -26 93q-87 78 -200 78zM455 270h419q0 107 -59.5 174.5t-150.5 67.5q-87 0 -147 -68t-62 -174z" />
    <glyph glyph-name="ccedilla" unicode="&#xe7;" horiz-adv-x="535" 
d="M50 259q0 124 69 197.5t169 73.5q134 0 202 -104l-16 -10q-66 96 -186 96q-91 0 -154.5 -68t-63.5 -185t63.5 -185t154.5 -68q120 0 186 96l16 -10q-63 -97 -186 -103l-27 -58q101 -14 101 -92q0 -32 -25.5 -54.5t-70.5 -22.5q-44 0 -80 28l12 14q28 -24 67 -24
q37 0 57 17.5t20 41.5q0 70 -108 78l33 71q-99 2 -166 75.5t-67 195.5z" />
    <glyph glyph-name="egrave" unicode="&#xe8;" horiz-adv-x="545" 
d="M290 6q115 0 178 85l16 -11q-69 -92 -194 -92q-111 0 -175.5 79.5t-64.5 193.5q0 117 65.5 193t163.5 76t164 -73t66 -187v-18h-439q2 -104 62.5 -175t157.5 -71zM70 270h419q0 107 -59.5 174.5t-150.5 67.5q-87 0 -147 -68t-62 -174zM182 731l16 13l144 -142l-15 -12z
" />
    <glyph glyph-name="eacute" unicode="&#xe9;" horiz-adv-x="545" 
d="M290 6q115 0 178 85l16 -11q-69 -92 -194 -92q-111 0 -175.5 79.5t-64.5 193.5q0 117 65.5 193t163.5 76t164 -73t66 -187v-18h-439q2 -104 62.5 -175t157.5 -71zM70 270h419q0 107 -59.5 174.5t-150.5 67.5q-87 0 -147 -68t-62 -174zM380 744l16 -13l-145 -141l-15 12z
" />
    <glyph glyph-name="ecircumflex" unicode="&#xea;" horiz-adv-x="545" 
d="M290 6q115 0 178 85l16 -11q-69 -92 -194 -92q-111 0 -175.5 79.5t-64.5 193.5q0 117 65.5 193t163.5 76t164 -73t66 -187v-18h-439q2 -104 62.5 -175t157.5 -71zM70 270h419q0 107 -59.5 174.5t-150.5 67.5q-87 0 -147 -68t-62 -174zM275 750h14l146 -162l-14 -12
l-139 156l-139 -156l-14 12z" />
    <glyph glyph-name="edieresis" unicode="&#xeb;" horiz-adv-x="545" 
d="M290 6q115 0 178 85l16 -11q-69 -92 -194 -92q-111 0 -175.5 79.5t-64.5 193.5q0 117 65.5 193t163.5 76t164 -73t66 -187v-18h-439q2 -104 62.5 -175t157.5 -71zM70 270h419q0 107 -59.5 174.5t-150.5 67.5q-87 0 -147 -68t-62 -174zM173 669q0 9 6.5 15.5t15.5 6.5
t15.5 -6.5t6.5 -15.5t-6.5 -15.5t-15.5 -6.5t-15.5 6.5t-6.5 15.5zM347 669q0 9 6.5 15.5t15.5 6.5t15.5 -6.5t6.5 -15.5t-6.5 -15.5t-15.5 -6.5t-15.5 6.5t-6.5 15.5z" />
    <glyph glyph-name="igrave" unicode="&#xec;" horiz-adv-x="200" 
d="M90 0v518h20v-518h-20zM-49 731l16 13l144 -142l-15 -12z" />
    <glyph glyph-name="iacute" unicode="&#xed;" horiz-adv-x="200" 
d="M90 0v518h20v-518h-20zM233 744l16 -13l-145 -141l-15 12z" />
    <glyph glyph-name="icircumflex" unicode="&#xee;" horiz-adv-x="200" 
d="M90 0v518h20v-518h-20zM93 750h14l146 -162l-14 -12l-139 156l-139 -156l-14 12z" />
    <glyph glyph-name="idieresis" unicode="&#xef;" horiz-adv-x="200" 
d="M90 0v518h20v-518h-20zM-9 669q0 9 6.5 15.5t15.5 6.5t15.5 -6.5t6.5 -15.5t-6.5 -15.5t-15.5 -6.5t-15.5 6.5t-6.5 15.5zM165 669q0 9 6.5 15.5t15.5 6.5t15.5 -6.5t6.5 -15.5t-6.5 -15.5t-15.5 -6.5t-15.5 6.5t-6.5 15.5z" />
    <glyph glyph-name="eth" unicode="&#xf0;" horiz-adv-x="555" 
d="M173 577l166 50q-68 59 -162 83l2 20q109 -28 182 -96l160 49l6 -18l-151 -46q104 -110 104 -295q0 -161 -58 -248.5t-168 -87.5q-93 0 -148.5 67t-55.5 187q0 122 55.5 188t156.5 66q55 0 108.5 -29.5t84.5 -70.5q-17 133 -100 216l-176 -53zM460 325q0 25 -1 38
q-38 54 -91.5 84.5t-105.5 30.5q-90 0 -141 -59.5t-51 -176.5q0 -107 48.5 -171.5t135.5 -64.5q101 0 153.5 83t52.5 236z" />
    <glyph glyph-name="ntilde" unicode="&#xf1;" horiz-adv-x="559" 
d="M276 660q-36 34 -67 34q-44 0 -62 -59l-19 4q11 36 33.5 54.5t47.5 18.5q38 0 77 -36q36 -34 67 -34q44 0 62 59l19 -4q-11 -36 -33.5 -54.5t-47.5 -18.5q-38 0 -77 36zM306 512q-55 0 -109.5 -29.5t-96.5 -78.5v-404h-20v518h20v-89q40 43 95 72t112 29q177 0 177 -190
v-340h-20v333q0 93 -37.5 136t-120.5 43z" />
    <glyph glyph-name="ograve" unicode="&#xf2;" horiz-adv-x="566" 
d="M516 259q0 -119 -65.5 -195t-167.5 -76t-167.5 76t-65.5 195t65.5 195t167.5 76t167.5 -76t65.5 -195zM496 259q0 113 -60.5 183t-152.5 70t-152.5 -70t-60.5 -183t60.5 -183t152.5 -70t152.5 70t60.5 183zM177 731l16 13l144 -142l-15 -12z" />
    <glyph glyph-name="oacute" unicode="&#xf3;" horiz-adv-x="566" 
d="M516 259q0 -119 -65.5 -195t-167.5 -76t-167.5 76t-65.5 195t65.5 195t167.5 76t167.5 -76t65.5 -195zM496 259q0 113 -60.5 183t-152.5 70t-152.5 -70t-60.5 -183t60.5 -183t152.5 -70t152.5 70t60.5 183zM373 744l16 -13l-145 -141l-15 12z" />
    <glyph glyph-name="ocircumflex" unicode="&#xf4;" horiz-adv-x="566" 
d="M516 259q0 -119 -65.5 -195t-167.5 -76t-167.5 76t-65.5 195t65.5 195t167.5 76t167.5 -76t65.5 -195zM496 259q0 113 -60.5 183t-152.5 70t-152.5 -70t-60.5 -183t60.5 -183t152.5 -70t152.5 70t60.5 183zM276 750h14l146 -162l-14 -12l-139 156l-139 -156l-14 12z" />
    <glyph glyph-name="otilde" unicode="&#xf5;" horiz-adv-x="566" 
d="M516 259q0 -119 -65.5 -195t-167.5 -76t-167.5 76t-65.5 195t65.5 195t167.5 76t167.5 -76t65.5 -195zM496 259q0 113 -60.5 183t-152.5 70t-152.5 -70t-60.5 -183t60.5 -183t152.5 -70t152.5 70t60.5 183zM278 660q-36 34 -67 34q-44 0 -62 -59l-19 4q11 36 33.5 54.5
t47.5 18.5q38 0 77 -36q36 -34 67 -34q44 0 62 59l19 -4q-11 -36 -33.5 -54.5t-47.5 -18.5q-38 0 -77 36z" />
    <glyph glyph-name="odieresis" unicode="&#xf6;" horiz-adv-x="566" 
d="M516 259q0 119 -65.5 195t-167.5 76t-167.5 -76t-65.5 -195t65.5 -195t167.5 -76t167.5 76t65.5 195zM496 259q0 -113 -60.5 -183t-152.5 -70t-152.5 70t-60.5 183t60.5 183t152.5 70t152.5 -70t60.5 -183zM174 669q0 9 6.5 15.5t15.5 6.5t15.5 -6.5t6.5 -15.5
t-6.5 -15.5t-15.5 -6.5t-15.5 6.5t-6.5 15.5zM348 669q0 9 6.5 15.5t15.5 6.5t15.5 -6.5t6.5 -15.5t-6.5 -15.5t-15.5 -6.5t-15.5 6.5t-6.5 15.5z" />
    <glyph glyph-name="divide" unicode="&#xf7;" horiz-adv-x="618" 
d="M283 534q0 10 7.5 18t18.5 8t18.5 -8t7.5 -18t-7.5 -18t-18.5 -8t-18.5 8t-7.5 18zM548 341h-478v-18h478v18zM283 130q0 -10 7.5 -18t18.5 -8t18.5 8t7.5 18t-7.5 18t-18.5 8t-18.5 -8t-7.5 -18z" />
    <glyph glyph-name="oslash" unicode="&#xf8;" horiz-adv-x="566" 
d="M426 477l59 83l14 -10l-60 -84q77 -79 77 -207q0 -119 -65.5 -195t-167.5 -76q-84 0 -144 52l-58 -82l-14 10l59 84q-76 78 -76 207q0 119 65.5 195t167.5 76q82 0 143 -53zM496 259q0 118 -68 191l-278 -394q56 -50 133 -50q92 0 152.5 70t60.5 183zM283 512
q-92 0 -152.5 -70t-60.5 -183q0 -119 67 -191l278 394q-56 50 -132 50z" />
    <glyph glyph-name="ugrave" unicode="&#xf9;" horiz-adv-x="554" 
d="M277 -12q-94 0 -148 58t-54 167v305h20v-303q0 -101 47.5 -155t134.5 -54t134.5 54t47.5 155v303h20v-305q0 -109 -54 -167t-148 -58zM152 731l16 13l144 -142l-15 -12z" />
    <glyph glyph-name="uacute" unicode="&#xfa;" horiz-adv-x="554" 
d="M277 -12q-94 0 -148 58t-54 167v305h20v-303q0 -101 47.5 -155t134.5 -54t134.5 54t47.5 155v303h20v-305q0 -109 -54 -167t-148 -58zM386 744l16 -13l-145 -141l-15 12z" />
    <glyph glyph-name="ucircumflex" unicode="&#xfb;" horiz-adv-x="554" 
d="M277 -12q-94 0 -148 58t-54 167v305h20v-303q0 -101 47.5 -155t134.5 -54t134.5 54t47.5 155v303h20v-305q0 -109 -54 -167t-148 -58zM270 750h14l146 -162l-14 -12l-139 156l-139 -156l-14 12z" />
    <glyph glyph-name="udieresis" unicode="&#xfc;" horiz-adv-x="554" 
d="M277 -12q94 0 148 58t54 167v305h-20v-303q0 -101 -47.5 -155t-134.5 -54t-134.5 54t-47.5 155v303h-20v-305q0 -109 54 -167t148 -58zM168 669q0 9 6.5 15.5t15.5 6.5t15.5 -6.5t6.5 -15.5t-6.5 -15.5t-15.5 -6.5t-15.5 6.5t-6.5 15.5zM342 669q0 9 6.5 15.5t15.5 6.5
t15.5 -6.5t6.5 -15.5t-6.5 -15.5t-15.5 -6.5t-15.5 6.5t-6.5 15.5z" />
    <glyph glyph-name="yacute" unicode="&#xfd;" horiz-adv-x="485" 
d="M247 33l191 485h22l-287 -730h-22l86 218l-212 512h22zM352 744l16 -13l-145 -141l-15 12z" />
    <glyph glyph-name="thorn" unicode="&#xfe;" horiz-adv-x="559" 
d="M100 419v-320q35 -40 86.5 -66.5t103.5 -26.5q199 0 199 253t-199 253q-52 0 -103.5 -26.5t-86.5 -66.5zM100 730v-287q87 87 197 87q101 0 156.5 -68.5t55.5 -202.5t-55.5 -202.5t-156.5 -68.5q-110 0 -197 87v-287h-20v942h20z" />
    <glyph glyph-name="ydieresis" unicode="&#xff;" horiz-adv-x="485" 
d="M247 33l191 485h22l-287 -730h-22l86 218l-212 512h22zM133 669q0 9 6.5 15.5t15.5 6.5t15.5 -6.5t6.5 -15.5t-6.5 -15.5t-15.5 -6.5t-15.5 6.5t-6.5 15.5zM307 669q0 9 6.5 15.5t15.5 6.5t15.5 -6.5t6.5 -15.5t-6.5 -15.5t-15.5 -6.5t-15.5 6.5t-6.5 15.5z" />
    <glyph glyph-name="Amacron" unicode="&#x100;" horiz-adv-x="648" 
d="M313 700h22l283 -700h-22l-85 211h-374l-85 -211h-22zM324 678l-180 -449h360zM188 834v18h272v-18h-272z" />
    <glyph glyph-name="amacron" unicode="&#x101;" horiz-adv-x="530" 
d="M435 242v101q0 90 -42.5 129.5t-124.5 39.5q-95 0 -172 -62l-14 14q84 66 186 66q187 0 187 -182v-348h-20v60q-79 -72 -197 -72q-82 0 -135 44.5t-53 118.5t53 118.5t135 44.5q118 0 197 -72zM237 6q112 0 198 76v138q-86 76 -198 76q-75 0 -121 -39.5t-46 -105.5
t46 -105.5t121 -39.5zM131 660v18h272v-18h-272z" />
    <glyph glyph-name="Abreve" unicode="&#x102;" horiz-adv-x="648" 
d="M313 700h22l283 -700h-22l-85 211h-374l-85 -211h-22zM324 678l-180 -449h360zM324 783q-48 0 -86.5 30.5t-53.5 84.5l19 5q10 -43 42.5 -72.5t78.5 -29.5t78.5 29.5t42.5 72.5l19 -5q-15 -54 -53.5 -84.5t-86.5 -30.5z" />
    <glyph glyph-name="abreve" unicode="&#x103;" horiz-adv-x="530" 
d="M435 242v101q0 90 -42.5 129.5t-124.5 39.5q-95 0 -172 -62l-14 14q84 66 186 66q187 0 187 -182v-348h-20v60q-79 -72 -197 -72q-82 0 -135 44.5t-53 118.5t53 118.5t135 44.5q118 0 197 -72zM237 6q112 0 198 76v138q-86 76 -198 76q-75 0 -121 -39.5t-46 -105.5
t46 -105.5t121 -39.5zM275 611q-48 0 -86.5 30.5t-53.5 84.5l19 5q10 -43 42.5 -72.5t78.5 -29.5t78.5 29.5t42.5 72.5l19 -5q-15 -54 -53.5 -84.5t-86.5 -30.5z" />
    <glyph glyph-name="Aogonek" unicode="&#x104;" horiz-adv-x="633" 
d="M313 700h22l283 -700q-79 -56 -79 -123q0 -34 21 -56t54 -22q42 0 76 34l12 -14q-38 -38 -89 -38q-42 0 -68 28t-26 67q0 72 76 125l-84 210h-374l-85 -211h-22zM324 678l-180 -449h360z" />
    <glyph glyph-name="aogonek" unicode="&#x105;" horiz-adv-x="530" 
d="M435 242v101q0 90 -42.5 129.5t-124.5 39.5q-95 0 -172 -62l-14 14q84 66 186 66q187 0 187 -182v-348q-79 -56 -79 -123q0 -34 21 -56t54 -22q42 0 76 34l12 -14q-38 -38 -89 -38q-42 0 -68 28t-26 67q0 71 79 126v58q-79 -72 -197 -72q-82 0 -135 44.5t-53 118.5
t53 118.5t135 44.5q118 0 197 -72zM237 6q112 0 198 76v138q-86 76 -198 76q-75 0 -121 -39.5t-46 -105.5t46 -105.5t121 -39.5z" />
    <glyph glyph-name="Cacute" unicode="&#x106;" horiz-adv-x="672" 
d="M55 350q0 157 86 259.5t218 102.5q176 0 267 -140l-17 -11q-88 133 -250 133q-124 0 -204 -97.5t-80 -246.5t80 -246.5t204 -97.5q162 0 250 133l17 -11q-91 -140 -267 -140q-132 0 -218 102.5t-86 259.5zM460 918l16 -13l-145 -141l-15 12z" />
    <glyph glyph-name="cacute" unicode="&#x107;" horiz-adv-x="535" 
d="M50 259q0 124 69 197.5t169 73.5q134 0 202 -104l-16 -10q-66 96 -186 96q-91 0 -154.5 -68t-63.5 -185t63.5 -185t154.5 -68q120 0 186 96l16 -10q-68 -104 -202 -104q-100 0 -169 73.5t-69 197.5zM372 744l16 -13l-145 -141l-15 12z" />
    <glyph glyph-name="Ccircumflex" unicode="&#x108;" horiz-adv-x="672" 
d="M55 350q0 157 86 259.5t218 102.5q176 0 267 -140l-17 -11q-88 133 -250 133q-124 0 -204 -97.5t-80 -246.5t80 -246.5t204 -97.5q162 0 250 133l17 -11q-91 -140 -267 -140q-132 0 -218 102.5t-86 259.5zM367 924h14l146 -162l-14 -12l-139 156l-139 -156l-14 12z" />
    <glyph glyph-name="ccircumflex" unicode="&#x109;" horiz-adv-x="535" 
d="M50 259q0 124 69 197.5t169 73.5q134 0 202 -104l-16 -10q-66 96 -186 96q-91 0 -154.5 -68t-63.5 -185t63.5 -185t154.5 -68q120 0 186 96l16 -10q-68 -104 -202 -104q-100 0 -169 73.5t-69 197.5zM276 750h14l146 -162l-14 -12l-139 156l-139 -156l-14 12z" />
    <glyph glyph-name="Cdotaccent" unicode="&#x10a;" horiz-adv-x="672" 
d="M55 350q0 157 86 259.5t218 102.5q176 0 267 -140l-17 -11q-88 133 -250 133q-124 0 -204 -97.5t-80 -246.5t80 -246.5t204 -97.5q162 0 250 133l17 -11q-91 -140 -267 -140q-132 0 -218 102.5t-86 259.5zM341 843q0 9 6.5 15.5t15.5 6.5t15.5 -6.5t6.5 -15.5t-6.5 -15.5
t-15.5 -6.5t-15.5 6.5t-6.5 15.5z" />
    <glyph glyph-name="cdotaccent" unicode="&#x10b;" horiz-adv-x="535" 
d="M50 259q0 -124 69 -197.5t169 -73.5q134 0 202 104l-16 10q-66 -96 -186 -96q-91 0 -154.5 68t-63.5 185t63.5 185t154.5 68q120 0 186 -96l16 10q-68 104 -202 104q-100 0 -169 -73.5t-69 -197.5zM266 669q0 9 6.5 15.5t15.5 6.5t15.5 -6.5t6.5 -15.5t-6.5 -15.5
t-15.5 -6.5t-15.5 6.5t-6.5 15.5z" />
    <glyph glyph-name="Ccaron" unicode="&#x10c;" horiz-adv-x="672" 
d="M55 350q0 157 86 259.5t218 102.5q176 0 267 -140l-17 -11q-88 133 -250 133q-124 0 -204 -97.5t-80 -246.5t80 -246.5t204 -97.5q162 0 250 133l17 -11q-91 -140 -267 -140q-132 0 -218 102.5t-86 259.5zM376 762h-14l-146 162l14 12l139 -156l139 156l14 -12z" />
    <glyph glyph-name="ccaron" unicode="&#x10d;" horiz-adv-x="535" 
d="M50 259q0 -124 69 -197.5t169 -73.5q134 0 202 104l-16 10q-66 -96 -186 -96q-91 0 -154.5 68t-63.5 185t63.5 185t154.5 68q120 0 186 -96l16 10q-68 104 -202 104q-100 0 -169 -73.5t-69 -197.5zM300 588h-14l-146 162l14 12l139 -156l139 156l14 -12z" />
    <glyph glyph-name="Dcaron" unicode="&#x10e;" horiz-adv-x="654" 
d="M110 18h176q133 0 213 90.5t80 241.5t-80 241.5t-213 90.5h-176v-664zM289 0h-199v700h199q140 0 225 -96t85 -254t-85 -254t-225 -96zM297 762h-14l-146 162l14 12l139 -156l139 156l14 -12z" />
    <glyph glyph-name="dcaron" unicode="&#x10f;" horiz-adv-x="622" 
d="M459 102v314q-36 40 -87.5 68t-102.5 28q-199 0 -199 -253t199 -253q51 0 102.5 28t87.5 68zM459 0v78q-90 -90 -197 -90q-101 0 -156.5 68.5t-55.5 202.5t55.5 202.5t156.5 68.5q107 0 197 -90v290h20v-730h-20zM614 735l19 -5l-85 -231l-19 5z" />
    <glyph glyph-name="Dcroat" unicode="&#x110;" horiz-adv-x="674" 
d="M309 0h-199v341h-90v18h90v341h199q140 0 225 -96t85 -254t-85 -254t-225 -96zM130 18h176q133 0 213 90.5t80 241.5t-80 241.5t-213 90.5h-176v-323h194v-18h-194v-323z" />
    <glyph glyph-name="dcroat" unicode="&#x111;" horiz-adv-x="562" 
d="M479 636h68v-18h-68v-618h-20v78q-90 -90 -197 -90q-101 0 -156.5 68.5t-55.5 202.5t55.5 202.5t156.5 68.5q107 0 197 -90v178h-205v18h205v94h20v-94zM459 102v314q-36 40 -87.5 68t-102.5 28q-199 0 -199 -253t199 -253q51 0 102.5 28t87.5 68z" />
    <glyph glyph-name="Emacron" unicode="&#x112;" horiz-adv-x="554" 
d="M90 0v700h405v-18h-385v-311h350v-18h-350v-335h394v-18h-414zM158 834v18h272v-18h-272z" />
    <glyph glyph-name="emacron" unicode="&#x113;" horiz-adv-x="545" 
d="M290 6q-97 0 -157.5 71t-62.5 175h439v18q0 114 -66 187t-164 73t-163.5 -76t-65.5 -193q0 -114 64.5 -193.5t175.5 -79.5q125 0 194 92l-16 11q-63 -85 -178 -85zM489 270h-419q2 106 62 174t147 68q91 0 150.5 -67.5t59.5 -174.5zM143 660v18h272v-18h-272z" />
    <glyph glyph-name="Ebreve" unicode="&#x114;" horiz-adv-x="554" 
d="M90 0v700h405v-18h-385v-311h350v-18h-350v-335h394v-18h-414zM291 783q-48 0 -86.5 30.5t-53.5 84.5l19 5q10 -43 42.5 -72.5t78.5 -29.5t78.5 29.5t42.5 72.5l19 -5q-15 -54 -53.5 -84.5t-86.5 -30.5z" />
    <glyph glyph-name="ebreve" unicode="&#x115;" horiz-adv-x="545" 
d="M290 6q-97 0 -157.5 71t-62.5 175h439v18q0 114 -66 187t-164 73t-163.5 -76t-65.5 -193q0 -114 64.5 -193.5t175.5 -79.5q125 0 194 92l-16 11q-63 -85 -178 -85zM489 270h-419q2 106 62 174t147 68q91 0 150.5 -67.5t59.5 -174.5zM275 611q-48 0 -86.5 30.5t-53.5 84.5
l19 5q10 -43 42.5 -72.5t78.5 -29.5t78.5 29.5t42.5 72.5l19 -5q-15 -54 -53.5 -84.5t-86.5 -30.5z" />
    <glyph glyph-name="Edotaccent" unicode="&#x116;" horiz-adv-x="554" 
d="M90 0v700h405v-18h-385v-311h350v-18h-350v-335h394v-18h-414zM276 843q0 9 6.5 15.5t15.5 6.5t15.5 -6.5t6.5 -15.5t-6.5 -15.5t-15.5 -6.5t-15.5 6.5t-6.5 15.5z" />
    <glyph glyph-name="edotaccent" unicode="&#x117;" horiz-adv-x="545" 
d="M290 6q-97 0 -157.5 71t-62.5 175h439v18q0 114 -66 187t-164 73t-163.5 -76t-65.5 -193q0 -114 64.5 -193.5t175.5 -79.5q125 0 194 92l-16 11q-63 -85 -178 -85zM489 270h-419q2 106 62 174t147 68q91 0 150.5 -67.5t59.5 -174.5zM256 669q0 9 6.5 15.5t15.5 6.5
t15.5 -6.5t6.5 -15.5t-6.5 -15.5t-15.5 -6.5t-15.5 6.5t-6.5 15.5z" />
    <glyph glyph-name="Eogonek" unicode="&#x118;" horiz-adv-x="554" 
d="M90 0v700h405v-18h-385v-311h350v-18h-350v-335h394v-18h-77q-79 -56 -79 -123q0 -34 21 -56t54 -22q42 0 76 34l12 -14q-38 -38 -89 -38q-42 0 -68 28t-26 67q0 72 75 124h-313z" />
    <glyph glyph-name="eogonek" unicode="&#x119;" horiz-adv-x="545" 
d="M290 6q115 0 178 85l16 -11q-58 -78 -159 -90q-65 -52 -65 -113q0 -34 21 -56t54 -22q42 0 76 34l12 -14q-38 -38 -89 -38q-42 0 -68 28t-26 67q0 64 60 112h-10q-111 0 -175.5 79.5t-64.5 193.5q0 117 65.5 193t163.5 76t164 -73t66 -187v-18h-439q2 -104 62.5 -175
t157.5 -71zM70 270h419q0 107 -59.5 174.5t-150.5 67.5q-87 0 -147 -68t-62 -174z" />
    <glyph glyph-name="Ecaron" unicode="&#x11a;" horiz-adv-x="554" 
d="M90 0v700h405v-18h-385v-311h350v-18h-350v-335h394v-18h-414zM304 762h-14l-146 162l14 12l139 -156l139 156l14 -12z" />
    <glyph glyph-name="ecaron" unicode="&#x11b;" horiz-adv-x="545" 
d="M290 6q115 0 178 85l16 -11q-69 -92 -194 -92q-111 0 -175.5 79.5t-64.5 193.5q0 117 65.5 193t163.5 76t164 -73t66 -187v-18h-439q2 -104 62.5 -175t157.5 -71zM70 270h419q0 107 -59.5 174.5t-150.5 67.5q-87 0 -147 -68t-62 -174zM293 588h-14l-146 162l14 12
l139 -156l139 156l14 -12z" />
    <glyph glyph-name="Gcircumflex" unicode="&#x11c;" horiz-adv-x="693" 
d="M55 350q0 158 85 260t221 102q168 0 259 -133l-17 -11q-89 126 -242 126q-127 0 -206.5 -97t-79.5 -247q0 -149 79.5 -246.5t220.5 -97.5q62 0 127 27t101 71v227h-218v18h238v-253q-43 -52 -112 -80t-136 -28q-152 0 -236 102.5t-84 259.5zM349 924h14l146 -162l-14 -12
l-139 156l-139 -156l-14 12z" />
    <glyph glyph-name="gcircumflex" unicode="&#x11d;" horiz-adv-x="559" 
d="M459 78q-90 -90 -197 -90q-101 0 -156.5 68.5t-55.5 202.5t55.5 202.5t156.5 68.5q107 0 197 -90v78h20v-515q0 -107 -51 -167t-150 -60q-125 0 -203 100l15 11q72 -93 188 -93q90 0 135.5 55t45.5 150v79zM459 102v314q-36 40 -87.5 68t-102.5 28q-199 0 -199 -253
t199 -253q51 0 102.5 28t87.5 68zM276 750h14l146 -162l-14 -12l-139 156l-139 -156l-14 12z" />
    <glyph glyph-name="Gbreve" unicode="&#x11e;" horiz-adv-x="693" 
d="M55 350q0 158 85 260t221 102q168 0 259 -133l-17 -11q-89 126 -242 126q-127 0 -206.5 -97t-79.5 -247q0 -149 79.5 -246.5t220.5 -97.5q62 0 127 27t101 71v227h-218v18h238v-253q-43 -52 -112 -80t-136 -28q-152 0 -236 102.5t-84 259.5zM361 783q-48 0 -86.5 30.5
t-53.5 84.5l19 5q10 -43 42.5 -72.5t78.5 -29.5t78.5 29.5t42.5 72.5l19 -5q-15 -54 -53.5 -84.5t-86.5 -30.5z" />
    <glyph glyph-name="gbreve" unicode="&#x11f;" horiz-adv-x="559" 
d="M459 78q-90 -90 -197 -90q-101 0 -156.5 68.5t-55.5 202.5t55.5 202.5t156.5 68.5q107 0 197 -90v78h20v-515q0 -107 -51 -167t-150 -60q-125 0 -203 100l15 11q72 -93 188 -93q90 0 135.5 55t45.5 150v79zM459 102v314q-36 40 -87.5 68t-102.5 28q-199 0 -199 -253
t199 -253q51 0 102.5 28t87.5 68zM284 611q-48 0 -86.5 30.5t-53.5 84.5l19 5q10 -43 42.5 -72.5t78.5 -29.5t78.5 29.5t42.5 72.5l19 -5q-15 -54 -53.5 -84.5t-86.5 -30.5z" />
    <glyph glyph-name="Gdotaccent" unicode="&#x120;" horiz-adv-x="693" 
d="M55 350q0 158 85 260t221 102q168 0 259 -133l-17 -11q-89 126 -242 126q-127 0 -206.5 -97t-79.5 -247q0 -149 79.5 -246.5t220.5 -97.5q62 0 127 27t101 71v227h-218v18h238v-253q-43 -52 -112 -80t-136 -28q-152 0 -236 102.5t-84 259.5zM339 843q0 9 6.5 15.5
t15.5 6.5t15.5 -6.5t6.5 -15.5t-6.5 -15.5t-15.5 -6.5t-15.5 6.5t-6.5 15.5z" />
    <glyph glyph-name="gdotaccent" unicode="&#x121;" horiz-adv-x="559" 
d="M459 78q-90 -90 -197 -90q-101 0 -156.5 68.5t-55.5 202.5t55.5 202.5t156.5 68.5q107 0 197 -90v78h20v-515q0 -107 -51 -167t-150 -60q-125 0 -203 100l15 11q72 -93 188 -93q90 0 135.5 55t45.5 150v79zM459 102v314q-36 40 -87.5 68t-102.5 28q-199 0 -199 -253
t199 -253q51 0 102.5 28t87.5 68zM260 669q0 9 6.5 15.5t15.5 6.5t15.5 -6.5t6.5 -15.5t-6.5 -15.5t-15.5 -6.5t-15.5 6.5t-6.5 15.5z" />
    <glyph glyph-name="Gcommaaccent" unicode="&#x122;" horiz-adv-x="693" 
d="M55 350q0 158 85 260t221 102q168 0 259 -133l-17 -11q-89 126 -242 126q-127 0 -206.5 -97t-79.5 -247q0 -149 79.5 -246.5t220.5 -97.5q62 0 127 27t101 71v227h-218v18h238v-253q-43 -52 -112 -80t-136 -28q-152 0 -236 102.5t-84 259.5zM376 -60l19 -6l-63 -183
l-19 6z" />
    <glyph glyph-name="gcommaaccent" unicode="&#x123;" horiz-adv-x="559" 
d="M459 78q-90 -90 -197 -90q-101 0 -156.5 68.5t-55.5 202.5t55.5 202.5t156.5 68.5q107 0 197 -90v78h20v-515q0 -107 -51 -167t-150 -60q-125 0 -203 100l15 11q72 -93 188 -93q90 0 135.5 55t45.5 150v79zM459 102v314q-36 40 -87.5 68t-102.5 28q-199 0 -199 -253
t199 -253q51 0 102.5 28t87.5 68zM273 596l-19 6l63 183l19 -6z" />
    <glyph glyph-name="Hcircumflex" unicode="&#x124;" horiz-adv-x="672" 
d="M90 0v700h20v-317h452v317h20v-700h-20v365h-452v-365h-20zM329 924h14l146 -162l-14 -12l-139 156l-139 -156l-14 12z" />
    <glyph glyph-name="hcircumflex" unicode="&#x125;" horiz-adv-x="559" 
d="M306 512q-55 0 -109.5 -29.5t-96.5 -78.5v-404h-20v730h20v-301q40 43 95 72t112 29q177 0 177 -190v-340h-20v333q0 93 -37.5 136t-120.5 43zM83 924h14l146 -162l-14 -12l-139 156l-139 -156l-14 12z" />
    <glyph glyph-name="Hbar" unicode="&#x126;" horiz-adv-x="668" 
d="M88 0v559h-68v18h68v123h20v-123h452v123h20v-123h68v-18h-68v-559h-20v365h-452v-365h-20zM108 383h452v176h-452v-176z" />
    <glyph glyph-name="hbar" unicode="&#x127;" horiz-adv-x="562" 
d="M15 636h68v94h20v-94h205v-18h-205v-189q40 43 95 72t112 29q177 0 177 -190v-340h-20v333q0 93 -37.5 136t-120.5 43q-55 0 -109.5 -29.5t-96.5 -78.5v-404h-20v618h-68v18z" />
    <glyph glyph-name="Itilde" unicode="&#x128;" horiz-adv-x="210" 
d="M95 700h20v-700h-20v700zM100 834q-36 34 -67 34q-44 0 -62 -59l-19 4q11 36 33.5 54.5t47.5 18.5q38 0 77 -36q36 -34 67 -34q44 0 62 59l19 -4q-11 -36 -33.5 -54.5t-47.5 -18.5q-38 0 -77 36z" />
    <glyph glyph-name="itilde" unicode="&#x129;" horiz-adv-x="200" 
d="M90 0v518h20v-518h-20zM95 660q-36 34 -67 34q-44 0 -62 -59l-19 4q11 36 33.5 54.5t47.5 18.5q38 0 77 -36q36 -34 67 -34q44 0 62 59l19 -4q-11 -36 -33.5 -54.5t-47.5 -18.5q-38 0 -77 36z" />
    <glyph glyph-name="Imacron" unicode="&#x12a;" horiz-adv-x="210" 
d="M95 700h20v-700h-20v700zM-31 834v18h272v-18h-272z" />
    <glyph glyph-name="imacron" unicode="&#x12b;" horiz-adv-x="200" 
d="M90 0v518h20v-518h-20zM-36 660v18h272v-18h-272z" />
    <glyph glyph-name="Ibreve" unicode="&#x12c;" horiz-adv-x="210" 
d="M95 700h20v-700h-20v700zM105 783q-48 0 -86.5 30.5t-53.5 84.5l19 5q10 -43 42.5 -72.5t78.5 -29.5t78.5 29.5t42.5 72.5l19 -5q-15 -54 -53.5 -84.5t-86.5 -30.5z" />
    <glyph glyph-name="ibreve" unicode="&#x12d;" horiz-adv-x="200" 
d="M90 0v518h20v-518h-20zM100 611q-48 0 -86.5 30.5t-53.5 84.5l19 5q10 -43 42.5 -72.5t78.5 -29.5t78.5 29.5t42.5 72.5l19 -5q-15 -54 -53.5 -84.5t-86.5 -30.5z" />
    <glyph glyph-name="Iogonek" unicode="&#x12e;" horiz-adv-x="210" 
d="M95 700h20v-700q-79 -54 -79 -123q0 -34 21 -56t54 -22q42 0 76 34l12 -14q-38 -38 -89 -38q-42 0 -68 28t-26 67q0 75 79 127v697z" />
    <glyph glyph-name="iogonek" unicode="&#x12f;" horiz-adv-x="200" 
d="M90 2v516h20v-518q-76 -56 -76 -123q0 -34 21 -56t54 -22q42 0 76 34l12 -14q-38 -38 -89 -38q-42 0 -68 28t-26 67q0 72 76 126zM74 684q0 10 8 18t18 8t18 -8t8 -18t-8 -18t-18 -8t-18 8t-8 18z" />
    <glyph glyph-name="Idotaccent" unicode="&#x130;" horiz-adv-x="210" 
d="M95 700h20v-700h-20v700zM83 843q0 9 6.5 15.5t15.5 6.5t15.5 -6.5t6.5 -15.5t-6.5 -15.5t-15.5 -6.5t-15.5 6.5t-6.5 15.5z" />
    <glyph glyph-name="dotlessi" unicode="&#x131;" horiz-adv-x="200" 
d="M90 0v518h20v-518h-20z" />
    <glyph glyph-name="IJ" unicode="&#x132;" horiz-adv-x="736" 
d="M95 700h20v-700h-20v700zM245 115l16 10q68 -119 193 -119q75 0 123.5 54.5t48.5 153.5v486h20v-486q0 -114 -55 -170t-136 -56q-136 0 -210 127z" />
    <glyph glyph-name="ij" unicode="&#x133;" horiz-adv-x="380" 
d="M90 0v518h20v-518h-20zM74 684q0 10 8 18t18 8t18 -8t8 -18t-8 -18t-18 -8t-18 8t-8 18zM275 -87v605h20v-607q0 -77 -31.5 -106t-94.5 -29q-15 0 -31 2v18q18 -2 34 -2q50 0 76.5 23.5t26.5 95.5zM259 684q0 10 7.5 18t18.5 8t18.5 -8t7.5 -18t-7.5 -18t-18.5 -8
t-18.5 8t-7.5 18z" />
    <glyph glyph-name="Jcircumflex" unicode="&#x134;" horiz-adv-x="526" 
d="M35 115l16 10q68 -119 193 -119q75 0 123.5 54.5t48.5 153.5v486h20v-486q0 -114 -55 -170t-136 -56q-136 0 -210 127zM419 924h14l146 -162l-14 -12l-139 156l-139 -156l-14 12z" />
    <glyph glyph-name="jcircumflex" unicode="&#x135;" horiz-adv-x="190" 
d="M88 750h14l146 -162l-14 -12l-139 156l-139 -156l-14 12zM85 -87v605h20v-607q0 -77 -31.5 -106t-94.5 -29q-15 0 -31 2v18q18 -2 34 -2q50 0 76.5 23.5t26.5 95.5z" />
    <glyph glyph-name="Kcommaaccent" unicode="&#x136;" horiz-adv-x="585" 
d="M110 700v-508l397 508h26l-222 -283l254 -417h-24l-243 400l-188 -240v-160h-20v700h20zM320 -60l19 -6l-63 -183l-19 6z" />
    <glyph glyph-name="kcommaaccent" unicode="&#x137;" horiz-adv-x="478" 
d="M100 730v-565l308 353h28l-182 -207l214 -311h-24l-204 296l-140 -159v-137h-20v730h20zM267 -60l19 -6l-63 -183l-19 6z" />
    <glyph glyph-name="kgreenlandic" unicode="&#x138;" horiz-adv-x="478" 
d="M100 518v-353l308 353h28l-182 -207l214 -311h-24l-204 296l-140 -159v-137h-20v518h20z" />
    <glyph glyph-name="Lacute" unicode="&#x139;" horiz-adv-x="512" 
d="M90 0v700h20v-682h382v-18h-402zM231 918l16 -13l-145 -141l-15 12z" />
    <glyph glyph-name="lacute" unicode="&#x13a;" horiz-adv-x="200" 
d="M90 0v730h20v-730h-20zM234 918l16 -13l-145 -141l-15 12z" />
    <glyph glyph-name="Lcommaaccent" unicode="&#x13b;" horiz-adv-x="512" 
d="M90 0v700h20v-682h382v-18h-402zM289 -60l19 -6l-63 -183l-19 6z" />
    <glyph glyph-name="lcommaaccent" unicode="&#x13c;" horiz-adv-x="200" 
d="M90 0v730h20v-730h-20zM88 -60l19 -6l-63 -183l-19 6z" />
    <glyph glyph-name="Lcaron" unicode="&#x13d;" horiz-adv-x="512" 
d="M90 0v700h20v-682h382v-18h-402zM417 735l19 -5l-85 -231l-19 5z" />
    <glyph glyph-name="lcaron" unicode="&#x13e;" horiz-adv-x="254" 
d="M90 0v730h20v-730h-20zM245 735l19 -5l-85 -231l-19 5z" />
    <glyph glyph-name="Ldot" unicode="&#x13f;" horiz-adv-x="512" 
d="M90 0v700h20v-682h382v-18h-402zM313 379q0 9 6.5 15.5t15.5 6.5t15.5 -6.5t6.5 -15.5t-6.5 -15.5t-15.5 -6.5t-15.5 6.5t-6.5 15.5z" />
    <glyph glyph-name="ldot" unicode="&#x140;" horiz-adv-x="364" 
d="M100 0v730h20v-730h-20zM275 379q0 9 6.5 15.5t15.5 6.5t15.5 -6.5t6.5 -15.5t-6.5 -15.5t-15.5 -6.5t-15.5 6.5t-6.5 15.5z" />
    <glyph glyph-name="Lslash" unicode="&#x141;" horiz-adv-x="515" 
d="M96 332v368h20v-354l302 203l11 -16l-313 -211v-304h379v-18h-399v308l-96 -64l-10 17z" />
    <glyph glyph-name="lslash" unicode="&#x142;" horiz-adv-x="325" 
d="M-10 272l162 120v338h20v-323l150 111l13 -16l-163 -121v-381h-20v366l-149 -110z" />
    <glyph glyph-name="Nacute" unicode="&#x143;" horiz-adv-x="678" 
d="M90 0v700h20l458 -667v667h20v-700h-20l-458 666v-666h-20zM464 918l16 -13l-145 -141l-15 12z" />
    <glyph glyph-name="nacute" unicode="&#x144;" horiz-adv-x="559" 
d="M386 744l16 -13l-145 -141l-15 12zM306 512q-55 0 -109.5 -29.5t-96.5 -78.5v-404h-20v518h20v-89q40 43 95 72t112 29q177 0 177 -190v-340h-20v333q0 93 -37.5 136t-120.5 43z" />
    <glyph glyph-name="Ncommaaccent" unicode="&#x145;" horiz-adv-x="678" 
d="M90 0v700h20l458 -667v667h20v-700h-20l-458 666v-666h-20zM351 -60l19 -6l-63 -183l-19 6z" />
    <glyph glyph-name="ncommaaccent" unicode="&#x146;" horiz-adv-x="559" 
d="M306 512q-55 0 -109.5 -29.5t-96.5 -78.5v-404h-20v518h20v-89q40 43 95 72t112 29q177 0 177 -190v-340h-20v333q0 93 -37.5 136t-120.5 43zM288 -60l19 -6l-63 -183l-19 6z" />
    <glyph glyph-name="Ncaron" unicode="&#x147;" horiz-adv-x="678" 
d="M90 0v700h20l458 -667v667h20v-700h-20l-458 666v-666h-20zM346 762h-14l-146 162l14 12l139 -156l139 156l14 -12z" />
    <glyph glyph-name="ncaron" unicode="&#x148;" horiz-adv-x="559" 
d="M290 588h-14l-146 162l14 12l139 -156l139 156l14 -12zM306 512q-55 0 -109.5 -29.5t-96.5 -78.5v-404h-20v518h20v-89q40 43 95 72t112 29q177 0 177 -190v-340h-20v333q0 93 -37.5 136t-120.5 43z" />
    <glyph glyph-name="napostrophe" unicode="&#x149;" horiz-adv-x="571" 
d="M76 735l19 -5l-85 -231l-19 5zM318 512q-55 0 -109.5 -29.5t-96.5 -78.5v-404h-20v518h20v-89q40 43 95 72t112 29q177 0 177 -190v-340h-20v333q0 93 -37.5 136t-120.5 43z" />
    <glyph glyph-name="Eng" unicode="&#x14a;" horiz-adv-x="678" 
d="M90 0v700h20l458 -667v667h20v-789q0 -77 -31.5 -106t-94.5 -29q-15 0 -31 2v18q18 -2 34 -2q50 0 76.5 23.5t26.5 95.5v87l-458 666v-666h-20z" />
    <glyph glyph-name="eng" unicode="&#x14b;" horiz-adv-x="559" 
d="M306 512q-55 0 -109.5 -29.5t-96.5 -78.5v-404h-20v518h20v-89q40 43 95 72t112 29q177 0 177 -190v-429q0 -77 -31.5 -106t-94.5 -29q-15 0 -31 2v18q18 -2 34 -2q50 0 76.5 23.5t26.5 95.5v420q0 93 -37.5 136t-120.5 43z" />
    <glyph glyph-name="Omacron" unicode="&#x14c;" horiz-adv-x="696" 
d="M641 350q0 -158 -79.5 -260t-213.5 -102t-213.5 102t-79.5 260t79.5 260t213.5 102t213.5 -102t79.5 -260zM75 350q0 -151 73.5 -247.5t199.5 -96.5t199.5 96.5t73.5 247.5t-73.5 247.5t-199.5 96.5t-199.5 -96.5t-73.5 -247.5zM212 834v18h272v-18h-272z" />
    <glyph glyph-name="omacron" unicode="&#x14d;" horiz-adv-x="566" 
d="M516 259q0 -119 -65.5 -195t-167.5 -76t-167.5 76t-65.5 195t65.5 195t167.5 76t167.5 -76t65.5 -195zM496 259q0 113 -60.5 183t-152.5 70t-152.5 -70t-60.5 -183t60.5 -183t152.5 -70t152.5 70t60.5 183zM147 660v18h272v-18h-272z" />
    <glyph glyph-name="Obreve" unicode="&#x14e;" horiz-adv-x="696" 
d="M641 350q0 -158 -79.5 -260t-213.5 -102t-213.5 102t-79.5 260t79.5 260t213.5 102t213.5 -102t79.5 -260zM75 350q0 -151 73.5 -247.5t199.5 -96.5t199.5 96.5t73.5 247.5t-73.5 247.5t-199.5 96.5t-199.5 -96.5t-73.5 -247.5zM348 783q-48 0 -86.5 30.5t-53.5 84.5
l19 5q10 -43 42.5 -72.5t78.5 -29.5t78.5 29.5t42.5 72.5l19 -5q-15 -54 -53.5 -84.5t-86.5 -30.5z" />
    <glyph glyph-name="obreve" unicode="&#x14f;" horiz-adv-x="566" 
d="M516 259q0 119 -65.5 195t-167.5 76t-167.5 -76t-65.5 -195t65.5 -195t167.5 -76t167.5 76t65.5 195zM496 259q0 -113 -60.5 -183t-152.5 -70t-152.5 70t-60.5 183t60.5 183t152.5 70t152.5 -70t60.5 -183zM283 611q-48 0 -86.5 30.5t-53.5 84.5l19 5q10 -43 42.5 -72.5
t78.5 -29.5t78.5 29.5t42.5 72.5l19 -5q-15 -54 -53.5 -84.5t-86.5 -30.5z" />
    <glyph glyph-name="Ohungarumlaut" unicode="&#x150;" horiz-adv-x="696" 
d="M641 350q0 -158 -79.5 -260t-213.5 -102t-213.5 102t-79.5 260t79.5 260t213.5 102t213.5 -102t79.5 -260zM75 350q0 -151 73.5 -247.5t199.5 -96.5t199.5 96.5t73.5 247.5t-73.5 247.5t-199.5 96.5t-199.5 -96.5t-73.5 -247.5zM392 918l16 -13l-145 -141l-15 12z
M532 918l16 -13l-145 -141l-15 12z" />
    <glyph glyph-name="ohungarumlaut" unicode="&#x151;" horiz-adv-x="566" 
d="M516 259q0 -119 -65.5 -195t-167.5 -76t-167.5 76t-65.5 195t65.5 195t167.5 76t167.5 -76t65.5 -195zM496 259q0 113 -60.5 183t-152.5 70t-152.5 -70t-60.5 -183t60.5 -183t152.5 -70t152.5 70t60.5 183zM314 744l16 -13l-145 -141l-15 12zM454 744l16 -13l-145 -141
l-15 12z" />
    <glyph glyph-name="OE" unicode="&#x152;" horiz-adv-x="814" 
d="M55 350q0 162 93.5 256t247.5 94h359v-18h-332v-311h297v-18h-297v-335h341v-18h-368q-154 0 -247.5 94t-93.5 256zM403 18v664h-7q-146 0 -233.5 -89t-87.5 -243t87.5 -243t233.5 -89h7z" />
    <glyph glyph-name="oe" unicode="&#x153;" horiz-adv-x="991" 
d="M736 6q115 0 178 85l16 -11q-69 -92 -194 -92q-90 0 -150.5 53.5t-79.5 140.5q-19 -88 -79.5 -141t-143.5 -53q-102 0 -167.5 76t-65.5 195t65.5 195t167.5 76q83 0 143.5 -52.5t79.5 -140.5q19 88 79.5 140.5t139.5 52.5q98 0 164 -73t66 -187v-18h-439
q2 -104 62.5 -175t157.5 -71zM496 250v20q0 104 -62 173t-151 69q-92 0 -152.5 -70t-60.5 -183t60.5 -183t152.5 -70q90 0 150 67.5t63 176.5zM516 270h419q0 107 -59.5 174.5t-150.5 67.5q-87 0 -147 -68t-62 -174z" />
    <glyph glyph-name="Racute" unicode="&#x154;" horiz-adv-x="582" 
d="M522 509q0 -71 -42.5 -118.5t-121.5 -64.5l204 -326h-23l-201 323q-35 -5 -67 -5h-161v-318h-20v700h186q117 0 181.5 -52t64.5 -139zM502 509q0 81 -60 127t-171 46h-161v-346h161q110 0 170.5 46.5t60.5 126.5zM348 918l16 -13l-145 -141l-15 12z" />
    <glyph glyph-name="racute" unicode="&#x155;" horiz-adv-x="339" 
d="M279 512q-104 0 -179 -106v-406h-20v518h20v-85q78 97 181 97q14 0 38 -2v-18q-26 2 -40 2zM271 744l16 -13l-145 -141l-15 12z" />
    <glyph glyph-name="Rcommaaccent" unicode="&#x156;" horiz-adv-x="582" 
d="M522 509q0 -71 -42.5 -118.5t-121.5 -64.5l204 -326h-23l-201 323q-35 -5 -67 -5h-161v-318h-20v700h186q117 0 181.5 -52t64.5 -139zM502 509q0 81 -60 127t-171 46h-161v-346h161q110 0 170.5 46.5t60.5 126.5zM317 -60l19 -6l-63 -183l-19 6z" />
    <glyph glyph-name="rcommaaccent" unicode="&#x157;" horiz-adv-x="339" 
d="M279 512q-104 0 -179 -106v-406h-20v518h20v-85q78 97 181 97q14 0 38 -2v-18q-26 2 -40 2zM81 -60l19 -6l-63 -183l-19 6z" />
    <glyph glyph-name="Rcaron" unicode="&#x158;" horiz-adv-x="582" 
d="M522 509q0 -71 -42.5 -118.5t-121.5 -64.5l204 -326h-23l-201 323q-35 -5 -67 -5h-161v-318h-20v700h186q117 0 181.5 -52t64.5 -139zM502 509q0 81 -60 127t-171 46h-161v-346h161q110 0 170.5 46.5t60.5 126.5zM284 762h-14l-146 162l14 12l139 -156l139 156l14 -12z
" />
    <glyph glyph-name="rcaron" unicode="&#x159;" horiz-adv-x="339" 
d="M279 512q-104 0 -179 -106v-406h-20v518h20v-85q78 97 181 97q14 0 38 -2v-18q-26 2 -40 2zM193 588h-14l-146 162l14 12l139 -156l139 156l14 -12z" />
    <glyph glyph-name="Sacute" unicode="&#x15a;" horiz-adv-x="567" 
d="M288 6q99 0 151.5 45.5t52.5 120.5q0 74 -49.5 117t-166.5 79q-105 32 -154 73t-49 106q0 75 51 120t139 45q135 0 228 -99l-16 -13q-85 94 -212 94q-81 0 -125.5 -41t-44.5 -106q0 -58 46 -95.5t146 -67.5q120 -37 173.5 -84t53.5 -129q0 -83 -59 -133t-165 -50
q-139 0 -243 96l16 14q93 -92 227 -92zM381 918l16 -13l-145 -141l-15 12z" />
    <glyph glyph-name="sacute" unicode="&#x15b;" horiz-adv-x="474" 
d="M238 6q75 0 120.5 34.5t45.5 89.5q0 52 -41.5 85t-129.5 56q-90 23 -132 52.5t-42 84.5t45 88.5t118 33.5q99 0 173 -59l-14 -14q-66 55 -158 55q-65 0 -104.5 -28.5t-39.5 -75.5q0 -46 38 -71.5t127 -48.5q94 -25 137 -62.5t43 -95.5q0 -67 -52 -104.5t-135 -37.5
q-116 0 -202 78l14 14q39 -35 90 -54.5t99 -19.5zM330 744l16 -13l-145 -141l-15 12z" />
    <glyph glyph-name="Scircumflex" unicode="&#x15c;" horiz-adv-x="567" 
d="M288 6q99 0 151.5 45.5t52.5 120.5q0 74 -49.5 117t-166.5 79q-105 32 -154 73t-49 106q0 75 51 120t139 45q135 0 228 -99l-16 -13q-85 94 -212 94q-81 0 -125.5 -41t-44.5 -106q0 -58 46 -95.5t146 -67.5q120 -37 173.5 -84t53.5 -129q0 -83 -59 -133t-165 -50
q-139 0 -243 96l16 14q93 -92 227 -92zM275 924h14l146 -162l-14 -12l-139 156l-139 -156l-14 12z" />
    <glyph glyph-name="scircumflex" unicode="&#x15d;" horiz-adv-x="474" 
d="M238 6q75 0 120.5 34.5t45.5 89.5q0 52 -41.5 85t-129.5 56q-90 23 -132 52.5t-42 84.5t45 88.5t118 33.5q99 0 173 -59l-14 -14q-66 55 -158 55q-65 0 -104.5 -28.5t-39.5 -75.5q0 -46 38 -71.5t127 -48.5q94 -25 137 -62.5t43 -95.5q0 -67 -52 -104.5t-135 -37.5
q-116 0 -202 78l14 14q39 -35 90 -54.5t99 -19.5zM219 750h14l146 -162l-14 -12l-139 156l-139 -156l-14 12z" />
    <glyph glyph-name="Scedilla" unicode="&#x15e;" horiz-adv-x="567" 
d="M288 6q99 0 151.5 45.5t52.5 120.5q0 74 -49.5 117t-166.5 79q-105 32 -154 73t-49 106q0 75 51 120t139 45q135 0 228 -99l-16 -13q-85 94 -212 94q-81 0 -125.5 -41t-44.5 -106q0 -58 46 -95.5t146 -67.5q120 -37 173.5 -84t53.5 -129q0 -79 -54 -128.5t-151 -53.5
l-26 -58q101 -14 101 -92q0 -32 -25.5 -54.5t-70.5 -22.5q-44 0 -80 28l12 14q28 -24 67 -24q37 0 57 17.5t20 41.5q0 70 -108 78l34 71q-139 0 -243 96l16 14q93 -92 227 -92z" />
    <glyph glyph-name="scedilla" unicode="&#x15f;" horiz-adv-x="474" 
d="M238 6q75 0 120.5 34.5t45.5 89.5q0 52 -41.5 85t-129.5 56q-90 23 -132 52.5t-42 84.5t45 88.5t118 33.5q99 0 173 -59l-14 -14q-66 55 -158 55q-65 0 -104.5 -28.5t-39.5 -75.5q0 -46 38 -71.5t127 -48.5q94 -25 137 -62.5t43 -95.5q0 -65 -49 -102.5t-128 -39.5
l-26 -57q101 -14 101 -92q0 -32 -25.5 -54.5t-70.5 -22.5q-44 0 -80 28l12 14q28 -24 67 -24q37 0 57 17.5t20 41.5q0 70 -108 78l34 71q-112 5 -193 78l14 14q39 -35 90 -54.5t99 -19.5z" />
    <glyph glyph-name="Scaron" unicode="&#x160;" horiz-adv-x="567" 
d="M288 6q99 0 151.5 45.5t52.5 120.5q0 74 -49.5 117t-166.5 79q-105 32 -154 73t-49 106q0 75 51 120t139 45q135 0 228 -99l-16 -13q-85 94 -212 94q-81 0 -125.5 -41t-44.5 -106q0 -58 46 -95.5t146 -67.5q120 -37 173.5 -84t53.5 -129q0 -83 -59 -133t-165 -50
q-139 0 -243 96l16 14q93 -92 227 -92zM296 762h-14l-146 162l14 12l139 -156l139 156l14 -12z" />
    <glyph glyph-name="scaron" unicode="&#x161;" horiz-adv-x="474" 
d="M238 6q75 0 120.5 34.5t45.5 89.5q0 52 -41.5 85t-129.5 56q-90 23 -132 52.5t-42 84.5t45 88.5t118 33.5q99 0 173 -59l-14 -14q-66 55 -158 55q-65 0 -104.5 -28.5t-39.5 -75.5q0 -46 38 -71.5t127 -48.5q94 -25 137 -62.5t43 -95.5q0 -67 -52 -104.5t-135 -37.5
q-116 0 -202 78l14 14q39 -35 90 -54.5t99 -19.5zM239 588h-14l-146 162l14 12l139 -156l139 156l14 -12z" />
    <glyph glyph-name="Tcommaaccent" unicode="&#x162;" horiz-adv-x="522" 
d="M271 0l-33 -69q101 -14 101 -92q0 -32 -25.5 -54.5t-70.5 -22.5q-44 0 -80 28l12 14q29 -24 67 -24q37 0 57 17.5t20 41.5q0 70 -108 78l40 83v682h-236v18h492v-18h-236v-682z" />
    <glyph glyph-name="tcommaaccent" unicode="&#x163;" horiz-adv-x="353" 
d="M319 8v-18q-22 -2 -43 -2q-31 0 -58 8l-31 -65q101 -14 101 -92q0 -32 -25.5 -54.5t-70.5 -22.5q-44 0 -80 28l12 14q28 -24 67 -24q37 0 57 17.5t20 41.5q0 70 -108 78l41 85q-61 29 -61 126v372h-120v18h120v155h20v-155h163v-18h-163v-370q0 -72 30.5 -98t82.5 -26
q22 0 46 2z" />
    <glyph glyph-name="Tcaron" unicode="&#x164;" horiz-adv-x="522" 
d="M251 0v682h-236v18h492v-18h-236v-682h-20zM268 762h-14l-146 162l14 12l139 -156l139 156l14 -12z" />
    <glyph glyph-name="tcaron" unicode="&#x165;" horiz-adv-x="453" 
d="M319 8v-18q-22 -2 -43 -2q-65 0 -100.5 31.5t-35.5 108.5v372h-120v18h120v155h20v-155h163v-18h-163v-370q0 -72 30.5 -98t82.5 -26q22 0 46 2zM445 735l19 -5l-85 -231l-19 5z" />
    <glyph glyph-name="Tbar" unicode="&#x166;" horiz-adv-x="522" 
d="M447 361v-18h-176v-343h-20v343h-175v18h175v321h-236v18h492v-18h-236v-321h176z" />
    <glyph glyph-name="tbar" unicode="&#x167;" horiz-adv-x="353" 
d="M160 307h146v-18h-146v-159q0 -72 30.5 -98t82.5 -26q22 0 46 2v-18q-22 -2 -43 -2q-65 0 -100.5 31.5t-35.5 108.5v161h-102v18h102v193h-120v18h120v155h20v-155h163v-18h-163v-193z" />
    <glyph glyph-name="Utilde" unicode="&#x168;" horiz-adv-x="696" 
d="M348 -12q-115 0 -186.5 70t-71.5 208v434h20v-431q0 -131 66 -197t172 -66t172 66t66 197v431h20v-434q0 -138 -71.5 -208t-186.5 -70zM343 834q-36 34 -67 34q-44 0 -62 -59l-19 4q11 36 33.5 54.5t47.5 18.5q38 0 77 -36q36 -34 67 -34q44 0 62 59l19 -4
q-11 -36 -33.5 -54.5t-47.5 -18.5q-38 0 -77 36z" />
    <glyph glyph-name="utilde" unicode="&#x169;" horiz-adv-x="554" 
d="M277 -12q94 0 148 58t54 167v305h-20v-303q0 -101 -47.5 -155t-134.5 -54t-134.5 54t-47.5 155v303h-20v-305q0 -109 54 -167t148 -58zM272 660q-36 34 -67 34q-44 0 -62 -59l-19 4q11 36 33.5 54.5t47.5 18.5q38 0 77 -36q36 -34 67 -34q44 0 62 59l19 -4
q-11 -36 -33.5 -54.5t-47.5 -18.5q-38 0 -77 36z" />
    <glyph glyph-name="Umacron" unicode="&#x16a;" horiz-adv-x="696" 
d="M348 -12q-115 0 -186.5 70t-71.5 208v434h20v-431q0 -131 66 -197t172 -66t172 66t66 197v431h20v-434q0 -138 -71.5 -208t-186.5 -70zM212 834v18h272v-18h-272z" />
    <glyph glyph-name="umacron" unicode="&#x16b;" horiz-adv-x="554" 
d="M277 -12q-94 0 -148 58t-54 167v305h20v-303q0 -101 47.5 -155t134.5 -54t134.5 54t47.5 155v303h20v-305q0 -109 -54 -167t-148 -58zM141 660v18h272v-18h-272z" />
    <glyph glyph-name="Ubreve" unicode="&#x16c;" horiz-adv-x="696" 
d="M348 -12q-115 0 -186.5 70t-71.5 208v434h20v-431q0 -131 66 -197t172 -66t172 66t66 197v431h20v-434q0 -138 -71.5 -208t-186.5 -70zM348 783q-48 0 -86.5 30.5t-53.5 84.5l19 5q10 -43 42.5 -72.5t78.5 -29.5t78.5 29.5t42.5 72.5l19 -5q-15 -54 -53.5 -84.5
t-86.5 -30.5z" />
    <glyph glyph-name="ubreve" unicode="&#x16d;" horiz-adv-x="554" 
d="M277 -12q94 0 148 58t54 167v305h-20v-303q0 -101 -47.5 -155t-134.5 -54t-134.5 54t-47.5 155v303h-20v-305q0 -109 54 -167t148 -58zM277 611q-48 0 -86.5 30.5t-53.5 84.5l19 5q10 -43 42.5 -72.5t78.5 -29.5t78.5 29.5t42.5 72.5l19 -5q-15 -54 -53.5 -84.5
t-86.5 -30.5z" />
    <glyph glyph-name="Uring" unicode="&#x16e;" horiz-adv-x="696" 
d="M348 -12q-115 0 -186.5 70t-71.5 208v434h20v-431q0 -131 66 -197t172 -66t172 66t66 197v431h20v-434q0 -138 -71.5 -208t-186.5 -70zM263 843q0 35 25 59t60 24t60 -24t25 -59t-25 -59t-60 -24t-60 24t-25 59zM283 843q0 -27 19 -46t46 -19t46 19t19 46t-19 46t-46 19
t-46 -19t-19 -46z" />
    <glyph glyph-name="uring" unicode="&#x16f;" horiz-adv-x="554" 
d="M277 -12q-94 0 -148 58t-54 167v305h20v-303q0 -101 47.5 -155t134.5 -54t134.5 54t47.5 155v303h20v-305q0 -109 -54 -167t-148 -58zM192 669q0 35 25 59t60 24t60 -24t25 -59t-25 -59t-60 -24t-60 24t-25 59zM212 669q0 -27 19 -46t46 -19t46 19t19 46t-19 46t-46 19
t-46 -19t-19 -46z" />
    <glyph glyph-name="Uhungarumlaut" unicode="&#x170;" horiz-adv-x="696" 
d="M348 -12q-115 0 -186.5 70t-71.5 208v434h20v-431q0 -131 66 -197t172 -66t172 66t66 197v431h20v-434q0 -138 -71.5 -208t-186.5 -70zM402 918l16 -13l-145 -141l-15 12zM542 918l16 -13l-145 -141l-15 12z" />
    <glyph glyph-name="uhungarumlaut" unicode="&#x171;" horiz-adv-x="554" 
d="M277 -12q-94 0 -148 58t-54 167v305h20v-303q0 -101 47.5 -155t134.5 -54t134.5 54t47.5 155v303h20v-305q0 -109 -54 -167t-148 -58zM316 744l16 -13l-145 -141l-15 12zM456 744l16 -13l-145 -141l-15 12z" />
    <glyph glyph-name="Uogonek" unicode="&#x172;" horiz-adv-x="696" 
d="M348 -12q-115 0 -186.5 70t-71.5 208v434h20v-431q0 -131 66 -197t172 -66t172 66t66 197v431h20v-434q0 -130 -64.5 -200t-169.5 -77q-64 -50 -64 -112q0 -34 21 -56t54 -22q42 0 76 34l12 -14q-38 -38 -89 -38q-42 0 -68 28t-26 67q0 64 60 112z" />
    <glyph glyph-name="uogonek" unicode="&#x173;" horiz-adv-x="554" 
d="M289 -12h-12q-94 0 -148 58t-54 167v305h20v-303q0 -101 47.5 -155t134.5 -54t134.5 54t47.5 155v303h20v-305q0 -97 -43 -154t-120 -68q-67 -51 -67 -114q0 -34 21 -56t54 -22q42 0 76 34l12 -14q-38 -38 -89 -38q-42 0 -68 28t-26 67q0 64 60 112z" />
    <glyph glyph-name="Wcircumflex" unicode="&#x174;" horiz-adv-x="974" 
d="M474 700h26l194 -677l228 677h22l-238 -700h-25l-194 677l-194 -677h-25l-238 700h22l228 -677zM480 924h14l146 -162l-14 -12l-139 156l-139 -156l-14 12z" />
    <glyph glyph-name="wcircumflex" unicode="&#x175;" horiz-adv-x="760" 
d="M366 518h28l154 -499l164 499h23l-174 -518h-26l-155 499l-155 -499h-26l-174 518h23l164 -499zM373 750h14l146 -162l-14 -12l-139 156l-139 -156l-14 12z" />
    <glyph glyph-name="Ycircumflex" unicode="&#x176;" horiz-adv-x="560" 
d="M535 700l-245 -421v-279h-20v279l-245 421h24l231 -401l231 401h24zM273 924h14l146 -162l-14 -12l-139 156l-139 -156l-14 12z" />
    <glyph glyph-name="ycircumflex" unicode="&#x177;" horiz-adv-x="485" 
d="M247 33l191 485h22l-287 -730h-22l86 218l-212 512h22zM235 750h14l146 -162l-14 -12l-139 156l-139 -156l-14 12z" />
    <glyph glyph-name="Ydieresis" unicode="&#x178;" horiz-adv-x="560" 
d="M535 700l-245 -421v-279h-20v279l-245 421h24l231 -401l231 401h24zM171 843q0 9 6.5 15.5t15.5 6.5t15.5 -6.5t6.5 -15.5t-6.5 -15.5t-15.5 -6.5t-15.5 6.5t-6.5 15.5zM345 843q0 9 6.5 15.5t15.5 6.5t15.5 -6.5t6.5 -15.5t-6.5 -15.5t-15.5 -6.5t-15.5 6.5t-6.5 15.5z
" />
    <glyph glyph-name="Zacute" unicode="&#x179;" horiz-adv-x="558" 
d="M40 18l444 664h-429v18h453v-18l-444 -664h454v-18h-478v18zM373 918l16 -13l-145 -141l-15 12z" />
    <glyph glyph-name="zacute" unicode="&#x17a;" horiz-adv-x="461" 
d="M35 0v18l356 482h-341v18h366v-18l-357 -482h367v-18h-391zM325 744l16 -13l-145 -141l-15 12z" />
    <glyph glyph-name="Zdotaccent" unicode="&#x17b;" horiz-adv-x="558" 
d="M40 18l444 664h-429v18h453v-18l-444 -664h454v-18h-478v18zM254 843q0 9 6.5 15.5t15.5 6.5t15.5 -6.5t6.5 -15.5t-6.5 -15.5t-15.5 -6.5t-15.5 6.5t-6.5 15.5z" />
    <glyph glyph-name="zdotaccent" unicode="&#x17c;" horiz-adv-x="461" 
d="M35 0v18l356 482h-341v18h366v-18l-357 -482h367v-18h-391zM207 669q0 9 6.5 15.5t15.5 6.5t15.5 -6.5t6.5 -15.5t-6.5 -15.5t-15.5 -6.5t-15.5 6.5t-6.5 15.5z" />
    <glyph glyph-name="Zcaron" unicode="&#x17d;" horiz-adv-x="558" 
d="M40 18l444 664h-429v18h453v-18l-444 -664h454v-18h-478v18zM288 762h-14l-146 162l14 12l139 -156l139 156l14 -12z" />
    <glyph glyph-name="zcaron" unicode="&#x17e;" horiz-adv-x="461" 
d="M35 0v18l356 482h-341v18h366v-18l-357 -482h367v-18h-391zM241 588h-14l-146 162l14 12l139 -156l139 156l14 -12z" />
    <glyph glyph-name="longs" unicode="&#x17f;" horiz-adv-x="353" 
d="M160 588v-588h-20v500h-120v18h120v72q0 77 36 108.5t100 31.5q30 0 57 -3v-18q-30 3 -60 3q-54 0 -83.5 -26t-29.5 -98z" />
    <glyph glyph-name="uni0191" unicode="&#x191;" horiz-adv-x="525" 
d="M90 -87v787h405v-18h-385v-308h353v-18h-353v-445q0 -77 -31.5 -106t-94.5 -29q-15 0 -31 2v18q18 -2 34 -2q50 0 76.5 23.5t26.5 95.5z" />
    <glyph glyph-name="florin" unicode="&#x192;" horiz-adv-x="353" 
d="M140 -51v551h-120v18h120v72q0 77 36 108.5t100 31.5q30 0 57 -3v-18q-30 3 -60 3q-54 0 -83.5 -26t-29.5 -98v-70h163v-18h-163v-553q0 -77 -36 -108.5t-100 -31.5q-30 0 -57 3v18q30 -3 60 -3q54 0 83.5 26t29.5 98z" />
    <glyph glyph-name="Aringacute" unicode="&#x1fa;" horiz-adv-x="648" 
d="M239 749q0 35 25 59t60 24t60 -24t25 -59q0 -29 -17 -50.5t-44 -29.5l270 -669h-22l-85 211h-374l-85 -211h-22l270 669q-27 8 -44 29.5t-17 50.5zM329 666h-10l-175 -437h360zM259 749q0 -27 19 -46t46 -19t46 19t19 46t-19 46t-46 19t-46 -19t-19 -46zM411 989l13 -15
l-133 -95l-13 15z" />
    <glyph glyph-name="aringacute" unicode="&#x1fb;" horiz-adv-x="530" 
d="M364 909l13 -15l-133 -95l-13 15zM192 669q0 35 25 59t60 24t60 -24t25 -59t-25 -59t-60 -24t-60 24t-25 59zM212 669q0 -27 19 -46t46 -19t46 19t19 46t-19 46t-46 19t-46 -19t-19 -46zM435 242v101q0 90 -42.5 129.5t-124.5 39.5q-95 0 -172 -62l-14 14q84 66 186 66
q187 0 187 -182v-348h-20v60q-79 -72 -197 -72q-82 0 -135 44.5t-53 118.5t53 118.5t135 44.5q118 0 197 -72zM237 6q112 0 198 76v138q-86 76 -198 76q-75 0 -121 -39.5t-46 -105.5t46 -105.5t121 -39.5z" />
    <glyph glyph-name="AEacute" unicode="&#x1fc;" horiz-adv-x="854" 
d="M432 700h363v-18h-332v-311h297v-18h-297v-335h341v-18h-361v210h-268l-120 -210h-25zM443 228v451l-258 -451h258zM614 918l16 -13l-145 -141l-15 12z" />
    <glyph glyph-name="aeacute" unicode="&#x1fd;" horiz-adv-x="930" 
d="M894 252h-439q2 -104 62.5 -175t157.5 -71q115 0 178 85l16 -11q-69 -92 -194 -92q-68 0 -120 32t-82 86q-85 -118 -234 -118q-83 0 -136 44.5t-53 118.5t53 118.5t135 44.5q118 0 197 -72v101q0 90 -42.5 129.5t-124.5 39.5q-95 0 -172 -62l-14 14q84 66 186 66
q176 0 186 -161q23 73 80.5 117t129.5 44q98 0 164 -73t66 -187v-18zM237 296q-75 0 -121 -39.5t-46 -105.5t46 -105.5t121 -39.5q74 0 132.5 31.5t93.5 87.5q-20 43 -26 93q-87 78 -200 78zM455 270h419q0 107 -59.5 174.5t-150.5 67.5q-87 0 -147 -68t-62 -174zM576 744
l16 -13l-145 -141l-15 12z" />
    <glyph glyph-name="Oslashacute" unicode="&#x1fe;" horiz-adv-x="696" 
d="M71 -26l73 104q-89 101 -89 272q0 158 79.5 260t213.5 102q112 0 190 -76l71 101l17 -10l-75 -105q90 -102 90 -272q0 -158 -79.5 -260t-213.5 -102q-112 0 -190 75l-70 -99zM75 350q0 -161 81 -256l371 527q-71 73 -179 73q-126 0 -199.5 -96.5t-73.5 -247.5zM621 350
q0 159 -81 256l-371 -527q73 -73 179 -73q126 0 199.5 96.5t73.5 247.5zM429 918l16 -13l-145 -141l-15 12z" />
    <glyph glyph-name="oslashacute" unicode="&#x1ff;" horiz-adv-x="566" 
d="M426 477l59 83l14 -10l-60 -84q77 -79 77 -207q0 -119 -65.5 -195t-167.5 -76q-84 0 -144 52l-58 -82l-14 10l59 84q-76 78 -76 207q0 119 65.5 195t167.5 76q82 0 143 -53zM496 259q0 118 -68 191l-278 -394q56 -50 133 -50q92 0 152.5 70t60.5 183zM283 512
q-92 0 -152.5 -70t-60.5 -183q0 -119 67 -191l278 394q-56 50 -132 50zM373 744l16 -13l-145 -141l-15 12z" />
    <glyph glyph-name="Scommaaccent" unicode="&#x218;" horiz-adv-x="567" 
d="M288 6q99 0 151.5 45.5t52.5 120.5q0 74 -49.5 117t-166.5 79q-105 32 -154 73t-49 106q0 75 51 120t139 45q135 0 228 -99l-16 -13q-85 94 -212 94q-81 0 -125.5 -41t-44.5 -106q0 -58 46 -95.5t146 -67.5q120 -37 173.5 -84t53.5 -129q0 -83 -59 -133t-165 -50
q-139 0 -243 96l16 14q93 -92 227 -92zM282 -60l19 -6l-63 -183l-19 6z" />
    <glyph glyph-name="scommaaccent" unicode="&#x219;" horiz-adv-x="474" 
d="M238 6q75 0 120.5 34.5t45.5 89.5q0 52 -41.5 85t-129.5 56q-90 23 -132 52.5t-42 84.5t45 88.5t118 33.5q99 0 173 -59l-14 -14q-66 55 -158 55q-65 0 -104.5 -28.5t-39.5 -75.5q0 -46 38 -71.5t127 -48.5q94 -25 137 -62.5t43 -95.5q0 -67 -52 -104.5t-135 -37.5
q-116 0 -202 78l14 14q39 -35 90 -54.5t99 -19.5zM247 -60l19 -6l-63 -183l-19 6z" />
    <glyph glyph-name="uni021A" unicode="&#x21a;" horiz-adv-x="522" 
d="M251 0v682h-236v18h492v-18h-236v-682h-20zM250 -60l19 -6l-63 -183l-19 6z" />
    <glyph glyph-name="uni021B" unicode="&#x21b;" horiz-adv-x="353" 
d="M319 8v-18q-22 -2 -43 -2q-65 0 -100.5 31.5t-35.5 108.5v372h-120v18h120v155h20v-155h163v-18h-163v-370q0 -72 30.5 -98t82.5 -26q22 0 46 2zM217 -60l19 -6l-63 -183l-19 6z" />
    <glyph glyph-name="dotlessj" unicode="&#x237;" horiz-adv-x="190" 
d="M85 -87v605h20v-607q0 -77 -31.5 -106t-94.5 -29q-15 0 -31 2v18q18 -2 34 -2q50 0 76.5 23.5t26.5 95.5z" />
    <glyph glyph-name="apostrophe" unicode="&#x2bc;" horiz-adv-x="400" 
d="M233 743l19 -5l-85 -231l-19 5z" />
    <glyph glyph-name="circumflex" unicode="&#x2c6;" horiz-adv-x="400" 
d="M193 730h14l146 -162l-14 -12l-139 156l-139 -156l-14 12z" />
    <glyph glyph-name="caron" unicode="&#x2c7;" horiz-adv-x="400" 
d="M207 568h-14l-146 162l14 12l139 -156l139 156l14 -12z" />
    <glyph glyph-name="uni02C9" unicode="&#x2c9;" horiz-adv-x="400" 
d="M64 639v18h272v-18h-272z" />
    <glyph glyph-name="breve" unicode="&#x2d8;" horiz-adv-x="400" 
d="M200 591q-48 0 -86.5 30.5t-53.5 84.5l19 5q10 -43 42.5 -72.5t78.5 -29.5t78.5 29.5t42.5 72.5l19 -5q-15 -54 -53.5 -84.5t-86.5 -30.5z" />
    <glyph glyph-name="dotaccent" unicode="&#x2d9;" horiz-adv-x="400" 
d="M178 649q0 9 6.5 15.5t15.5 6.5t15.5 -6.5t6.5 -15.5t-6.5 -15.5t-15.5 -6.5t-15.5 6.5t-6.5 15.5z" />
    <glyph glyph-name="ring" unicode="&#x2da;" horiz-adv-x="400" 
d="M115 649q0 35 25 59t60 24t60 -24t25 -59t-25 -59t-60 -24t-60 24t-25 59zM135 649q0 -27 19 -46t46 -19t46 19t19 46t-19 46t-46 19t-46 -19t-19 -46z" />
    <glyph glyph-name="ogonek" unicode="&#x2db;" horiz-adv-x="400" 
d="M207 0h23q-79 -56 -79 -123q0 -34 21 -56t54 -22q42 0 76 34l12 -14q-38 -38 -89 -38q-42 0 -68 28t-26 67q0 71 76 124z" />
    <glyph glyph-name="tilde" unicode="&#x2dc;" horiz-adv-x="400" 
d="M195 641q-36 34 -67 34q-44 0 -62 -59l-19 4q11 36 33.5 54.5t47.5 18.5q38 0 77 -36q36 -34 67 -34q44 0 62 59l19 -4q-11 -36 -33.5 -54.5t-47.5 -18.5q-38 0 -77 36z" />
    <glyph glyph-name="hungarumlaut" unicode="&#x2dd;" horiz-adv-x="400" 
d="M194 724l16 -13l-145 -141l-15 12zM334 724l16 -13l-145 -141l-15 12z" />
    <glyph glyph-name="gravecomb" unicode="&#x300;" horiz-adv-x="0" 
d="M-367 711l16 13l144 -142l-15 -12z" />
    <glyph glyph-name="acutecomb" unicode="&#x301;" horiz-adv-x="0" 
d="M-168 724l16 -13l-145 -141l-15 12z" />
    <glyph glyph-name="uni0302" unicode="&#x302;" horiz-adv-x="0" 
d="M-260 730h14l146 -162l-14 -12l-139 156l-139 -156l-14 12z" />
    <glyph glyph-name="tildecomb" unicode="&#x303;" horiz-adv-x="0" 
d="M-258 641q-36 34 -67 34q-44 0 -62 -59l-19 4q11 36 33.5 54.5t47.5 18.5q38 0 77 -36q36 -34 67 -34q44 0 62 59l19 -4q-11 -36 -33.5 -54.5t-47.5 -18.5q-38 0 -77 36z" />
    <glyph glyph-name="uni0304" unicode="&#x304;" horiz-adv-x="0" 
d="M-391 640v18h272v-18h-272z" />
    <glyph glyph-name="uni0306" unicode="&#x306;" horiz-adv-x="0" 
d="M-253 591q-48 0 -86.5 30.5t-53.5 84.5l19 5q10 -43 42.5 -72.5t78.5 -29.5t78.5 29.5t42.5 72.5l19 -5q-15 -54 -53.5 -84.5t-86.5 -30.5z" />
    <glyph glyph-name="uni0307" unicode="&#x307;" horiz-adv-x="0" 
d="M-275 649q0 9 6.5 15.5t15.5 6.5t15.5 -6.5t6.5 -15.5t-6.5 -15.5t-15.5 -6.5t-15.5 6.5t-6.5 15.5z" />
    <glyph glyph-name="uni0308" unicode="&#x308;" horiz-adv-x="0" 
d="M-362 649q0 9 6.5 15.5t15.5 6.5t15.5 -6.5t6.5 -15.5t-6.5 -15.5t-15.5 -6.5t-15.5 6.5t-6.5 15.5zM-188 649q0 9 6.5 15.5t15.5 6.5t15.5 -6.5t6.5 -15.5t-6.5 -15.5t-15.5 -6.5t-15.5 6.5t-6.5 15.5z" />
    <glyph glyph-name="uni030A" unicode="&#x30a;" horiz-adv-x="0" 
d="M-338 649q0 35 25 59t60 24t60 -24t25 -59t-25 -59t-60 -24t-60 24t-25 59zM-318 649q0 -27 19 -46t46 -19t46 19t19 46t-19 46t-46 19t-46 -19t-19 -46z" />
    <glyph glyph-name="uni030C" unicode="&#x30c;" horiz-adv-x="0" 
d="M-246 568h-14l-146 162l14 12l139 -156l139 156l14 -12z" />
    <glyph glyph-name="uni0327" unicode="&#x327;" horiz-adv-x="0" 
d="M-269 -238q-44 0 -80 28l12 14q29 -24 67 -24t57.5 16.5t19.5 42.5q0 70 -106 78l-3 4l41 79h20l-34 -69q102 -15 102 -92q0 -33 -25 -55t-71 -22z" />
    <glyph glyph-name="uni03A9" unicode="&#x3a9;" horiz-adv-x="696" 
d="M348 712q137 0 215 -97t78 -245q0 -114 -55.5 -204.5t-143.5 -147.5h185v-18h-217v16q97 61 154 150.5t57 203.5q0 142 -72.5 233t-200.5 91t-200.5 -91t-72.5 -233q0 -114 57 -203.5t154 -150.5v-16h-217v18h185q-88 56 -143.5 147t-55.5 205q0 148 78 245t215 97z" />
    <glyph glyph-name="uni0400" unicode="&#x400;" horiz-adv-x="554" 
d="M90 0v700h405v-18h-385v-311h350v-18h-350v-335h394v-18h-414zM190 905l16 13l144 -142l-15 -12z" />
    <glyph glyph-name="afii10023" unicode="&#x401;" horiz-adv-x="554" 
d="M90 0v700h405v-18h-385v-311h350v-18h-350v-335h394v-18h-414zM186 843q0 9 6.5 15.5t15.5 6.5t15.5 -6.5t6.5 -15.5t-6.5 -15.5t-15.5 -6.5t-15.5 6.5t-6.5 15.5zM360 843q0 9 6.5 15.5t15.5 6.5t15.5 -6.5t6.5 -15.5t-6.5 -15.5t-15.5 -6.5t-15.5 6.5t-6.5 15.5z" />
    <glyph glyph-name="afii10051" unicode="&#x402;" horiz-adv-x="729" 
d="M462 0v18h23q85 0 129.5 61t44.5 152q0 95 -50 153t-142 58q-49 0 -102 -20.5t-94 -55.5v-366h-20v682h-236v18h492v-18h-236v-295q40 32 93.5 52.5t102.5 20.5q100 0 156 -62.5t56 -164.5t-50.5 -167.5t-142.5 -65.5h-24z" />
    <glyph glyph-name="afii10052" unicode="&#x403;" horiz-adv-x="508" 
d="M382 918l16 -13l-145 -141l-15 12zM90 0v700h398v-18h-378v-682h-20z" />
    <glyph glyph-name="afii10053" unicode="&#x404;" horiz-adv-x="672" 
d="M55 350q0 157 86 259.5t218 102.5q176 0 267 -140l-17 -11q-88 133 -250 133q-122 0 -202 -94.5t-82 -240.5h382v-18h-382q2 -146 82 -240.5t202 -94.5q162 0 250 133l17 -11q-91 -140 -267 -140q-132 0 -218 102.5t-86 259.5z" />
    <glyph glyph-name="afii10054" unicode="&#x405;" horiz-adv-x="567" 
d="M288 6q99 0 151.5 45.5t52.5 120.5q0 74 -49.5 117t-166.5 79q-105 32 -154 73t-49 106q0 75 51 120t139 45q135 0 228 -99l-16 -13q-85 94 -212 94q-81 0 -125.5 -41t-44.5 -106q0 -58 46 -95.5t146 -67.5q120 -37 173.5 -84t53.5 -129q0 -83 -59 -133t-165 -50
q-139 0 -243 96l16 14q93 -92 227 -92z" />
    <glyph glyph-name="afii10055" unicode="&#x406;" horiz-adv-x="210" 
d="M95 700h20v-700h-20v700z" />
    <glyph glyph-name="afii10056" unicode="&#x407;" horiz-adv-x="210" 
d="M95 700h20v-700h-20v700zM-4 843q0 9 6.5 15.5t15.5 6.5t15.5 -6.5t6.5 -15.5t-6.5 -15.5t-15.5 -6.5t-15.5 6.5t-6.5 15.5zM170 843q0 9 6.5 15.5t15.5 6.5t15.5 -6.5t6.5 -15.5t-6.5 -15.5t-15.5 -6.5t-15.5 6.5t-6.5 15.5z" />
    <glyph glyph-name="afii10057" unicode="&#x408;" horiz-adv-x="526" 
d="M35 115l16 10q68 -119 193 -119q75 0 123.5 54.5t48.5 153.5v486h20v-486q0 -114 -55 -170t-136 -56q-136 0 -210 127z" />
    <glyph glyph-name="afii10058" unicode="&#x409;" horiz-adv-x="1022" 
d="M182 700h410v-310h174q103 0 159.5 -52.5t56.5 -142.5t-56.5 -142.5t-159.5 -52.5h-194v682h-370v-541q0 -80 -30.5 -116.5t-106.5 -36.5q-24 0 -45 3v18q26 -3 48 -3q62 0 88 31t26 106v557zM962 195q0 81 -51.5 129t-151.5 48h-167v-354h167q100 0 151.5 48t51.5 129z
" />
    <glyph glyph-name="afii10059" unicode="&#x40a;" horiz-adv-x="991" 
d="M541 700h20v-310h174q103 0 159.5 -52.5t56.5 -142.5t-56.5 -142.5t-159.5 -52.5h-194v372h-431v-372h-20v700h20v-310h431v310zM931 195q0 81 -51.5 129t-151.5 48h-167v-354h167q100 0 151.5 48t51.5 129z" />
    <glyph glyph-name="afii10060" unicode="&#x40b;" horiz-adv-x="754" 
d="M251 0v682h-236v18h492v-18h-236v-285q89 63 196 63q103 0 157.5 -58t54.5 -166v-236h-20v234q0 101 -49 154.5t-143 53.5q-109 0 -196 -65v-377h-20z" />
    <glyph glyph-name="afii10061" unicode="&#x40c;" horiz-adv-x="585" 
d="M110 700v-508l397 508h26l-222 -283l254 -417h-24l-243 400l-188 -240v-160h-20v700h20zM409 918l16 -13l-145 -141l-15 12z" />
    <glyph glyph-name="uni040D" unicode="&#x40d;" horiz-adv-x="688" 
d="M225 905l16 13l144 -142l-15 -12zM588 0v700h-20l-458 -667v667h-20v-700h20l458 666v-666h20z" />
    <glyph glyph-name="afii10062" unicode="&#x40e;" horiz-adv-x="553" 
d="M289 250l217 450h22l-338 -700h-22l110 228l-253 472h22zM276 783q-48 0 -86.5 30.5t-53.5 84.5l19 5q10 -43 42.5 -72.5t78.5 -29.5t78.5 29.5t42.5 72.5l19 -5q-15 -54 -53.5 -84.5t-86.5 -30.5z" />
    <glyph glyph-name="afii10145" unicode="&#x40f;" horiz-adv-x="676" 
d="M90 0v700h20v-682h456v682h20v-700h-238v-120h-20v120h-238z" />
    <glyph glyph-name="afii10017" unicode="&#x410;" horiz-adv-x="648" 
d="M313 700h22l283 -700h-22l-85 211h-374l-85 -211h-22zM324 678l-180 -449h360z" />
    <glyph glyph-name="afii10018" unicode="&#x411;" horiz-adv-x="540" 
d="M90 700h351v-18h-331v-292h174q103 0 159.5 -52.5t56.5 -142.5t-56.5 -142.5t-159.5 -52.5h-194v700zM480 195q0 81 -51.5 129t-151.5 48h-167v-354h167q100 0 151.5 48t51.5 129z" />
    <glyph glyph-name="afii10019" unicode="&#x412;" horiz-adv-x="606" 
d="M90 0v700h217q98 0 155 -48t57 -127q0 -63 -32.5 -106t-84.5 -54q70 -10 112 -56t42 -122q0 -89 -63.5 -138t-184.5 -49h-218zM110 373h241q66 0 107 42.5t41 109.5q0 72 -52.5 114.5t-145.5 42.5h-191v-309zM536 187q0 77 -49 122.5t-136 45.5h-241v-337h196
q111 0 170.5 44t59.5 125z" />
    <glyph glyph-name="afii10020" unicode="&#x413;" horiz-adv-x="508" 
d="M90 0v700h398v-18h-378v-682h-20z" />
    <glyph glyph-name="afii10021" unicode="&#x414;" horiz-adv-x="591" 
d="M561 18v-138h-20v120h-491v-120h-20v138h49q83 178 83 523v159h330v-682h69zM103 18h369v664h-291v-145q0 -325 -78 -519z" />
    <glyph glyph-name="afii10022" unicode="&#x415;" horiz-adv-x="554" 
d="M90 0v700h405v-18h-385v-311h350v-18h-350v-335h394v-18h-414z" />
    <glyph glyph-name="afii10024" unicode="&#x416;" horiz-adv-x="890" 
d="M455 700v-495l356 495h27l-212 -293l244 -407h-25l-232 389l-158 -218v-171h-20v171l-159 218l-231 -389h-25l244 407l-212 293h27l356 -495v495h20z" />
    <glyph glyph-name="afii10025" unicode="&#x417;" horiz-adv-x="559" 
d="M475 175q0 84 -55.5 134t-162.5 50h-74v18h76q91 0 148 45t57 123q0 60 -44 104.5t-134 44.5q-116 0 -201 -96l-16 14q96 100 217 100q97 0 147.5 -48t50.5 -119q0 -73 -45 -120t-115 -57q82 -13 126.5 -63t44.5 -131q0 -82 -55.5 -134.5t-158.5 -52.5q-140 0 -234 105
l16 13q88 -100 218 -100q95 0 144.5 48.5t49.5 121.5z" />
    <glyph glyph-name="afii10026" unicode="&#x418;" horiz-adv-x="678" 
d="M588 700v-700h-20v666l-458 -666h-20v700h20v-667l458 667h20z" />
    <glyph glyph-name="afii10027" unicode="&#x419;" horiz-adv-x="678" 
d="M588 0v700h-20l-458 -667v667h-20v-700h20l458 666v-666h20zM339 783q-48 0 -86.5 30.5t-53.5 84.5l19 5q10 -43 42.5 -72.5t78.5 -29.5t78.5 29.5t42.5 72.5l19 -5q-15 -54 -53.5 -84.5t-86.5 -30.5z" />
    <glyph glyph-name="afii10028" unicode="&#x41a;" horiz-adv-x="585" 
d="M110 700v-508l397 508h26l-222 -283l254 -417h-24l-243 400l-188 -240v-160h-20v700h20z" />
    <glyph glyph-name="afii10029" unicode="&#x41b;" horiz-adv-x="702" 
d="M202 682v-541q0 -80 -30.5 -116.5t-106.5 -36.5q-24 0 -45 3v18q26 -3 48 -3q62 0 88 31t26 106v557h430v-700h-20v682h-390z" />
    <glyph glyph-name="afii10030" unicode="&#x41c;" horiz-adv-x="824" 
d="M734 700v-700h-20v663l-293 -504h-18l-293 504v-663h-20v700h20l302 -519l302 519h20z" />
    <glyph glyph-name="afii10031" unicode="&#x41d;" horiz-adv-x="672" 
d="M90 0v700h20v-317h452v317h20v-700h-20v365h-452v-365h-20z" />
    <glyph glyph-name="afii10032" unicode="&#x41e;" horiz-adv-x="696" 
d="M641 350q0 -158 -79.5 -260t-213.5 -102t-213.5 102t-79.5 260t79.5 260t213.5 102t213.5 -102t79.5 -260zM75 350q0 -151 73.5 -247.5t199.5 -96.5t199.5 96.5t73.5 247.5t-73.5 247.5t-199.5 96.5t-199.5 -96.5t-73.5 -247.5z" />
    <glyph glyph-name="afii10033" unicode="&#x41f;" horiz-adv-x="677" 
d="M90 0v700h497v-700h-20v682h-457v-682h-20z" />
    <glyph glyph-name="afii10034" unicode="&#x420;" horiz-adv-x="564" 
d="M519 494q0 -99 -64.5 -152.5t-185.5 -53.5h-159v-288h-20v700h179q121 0 185.5 -53.5t64.5 -152.5zM499 494q0 93 -61.5 140.5t-174.5 47.5h-153v-376h153q113 0 174.5 47.5t61.5 140.5z" />
    <glyph glyph-name="afii10035" unicode="&#x421;" horiz-adv-x="672" 
d="M55 350q0 157 86 259.5t218 102.5q176 0 267 -140l-17 -11q-88 133 -250 133q-124 0 -204 -97.5t-80 -246.5t80 -246.5t204 -97.5q162 0 250 133l17 -11q-91 -140 -267 -140q-132 0 -218 102.5t-86 259.5z" />
    <glyph glyph-name="afii10036" unicode="&#x422;" horiz-adv-x="522" 
d="M251 0v682h-236v18h492v-18h-236v-682h-20z" />
    <glyph glyph-name="afii10037" unicode="&#x423;" horiz-adv-x="553" 
d="M289 250l217 450h22l-338 -700h-22l110 228l-253 472h22z" />
    <glyph glyph-name="afii10038" unicode="&#x424;" horiz-adv-x="694" 
d="M639 350q0 -111 -78.5 -177t-205.5 -68v-105h-20v105q-126 3 -203 69t-77 176q0 109 77 175t203 70v105h20v-105q126 -2 205 -68.5t79 -176.5zM619 350q0 103 -72 164t-192 63v-454q120 2 192 63t72 164zM75 350q0 -103 70.5 -163.5t189.5 -63.5v454q-119 -3 -189.5 -64
t-70.5 -163z" />
    <glyph glyph-name="afii10039" unicode="&#x425;" horiz-adv-x="563" 
d="M270 364l-225 336h23l213 -319l214 319h23l-225 -336l245 -364h-24l-233 347l-232 -347h-24z" />
    <glyph glyph-name="afii10040" unicode="&#x426;" horiz-adv-x="685" 
d="M586 18h69v-138h-20v120h-545v700h20v-682h456v682h20v-682z" />
    <glyph glyph-name="afii10041" unicode="&#x427;" horiz-adv-x="593" 
d="M483 700h20v-700h-20v310q-87 -55 -186 -55q-103 0 -157.5 58t-54.5 166v221h20v-219q0 -101 49 -154.5t143 -53.5q102 0 186 58v369z" />
    <glyph glyph-name="afii10042" unicode="&#x428;" horiz-adv-x="802" 
d="M90 0v700h20v-682h281v682h20v-682h281v682h20v-700h-622z" />
    <glyph glyph-name="afii10043" unicode="&#x429;" horiz-adv-x="811" 
d="M90 0v700h20v-682h281v682h20v-682h281v682h20v-682h69v-138h-20v120h-671z" />
    <glyph glyph-name="afii10044" unicode="&#x42a;" horiz-adv-x="630" 
d="M20 700h180v-310h174q103 0 159.5 -52.5t56.5 -142.5t-56.5 -142.5t-159.5 -52.5h-194v682h-160v18zM570 195q0 81 -51.5 129t-151.5 48h-167v-354h167q100 0 151.5 48t51.5 129z" />
    <glyph glyph-name="afii10045" unicode="&#x42b;" horiz-adv-x="718" 
d="M608 700h20v-700h-20v700zM90 700h20v-310h174q103 0 159.5 -52.5t56.5 -142.5t-56.5 -142.5t-159.5 -52.5h-194v700zM480 195q0 81 -51.5 129t-151.5 48h-167v-354h167q100 0 151.5 48t51.5 129z" />
    <glyph glyph-name="afii10046" unicode="&#x42c;" horiz-adv-x="540" 
d="M90 700h20v-310h174q103 0 159.5 -52.5t56.5 -142.5t-56.5 -142.5t-159.5 -52.5h-194v700zM480 195q0 81 -51.5 129t-151.5 48h-167v-354h167q100 0 151.5 48t51.5 129z" />
    <glyph glyph-name="afii10047" unicode="&#x42d;" horiz-adv-x="672" 
d="M617 350q0 -157 -86 -259.5t-218 -102.5q-176 0 -267 140l17 11q88 -133 250 -133q122 0 202 94.5t82 240.5h-382v18h382q-2 146 -82 240.5t-202 94.5q-162 0 -250 -133l-17 11q91 140 267 140q132 0 218 -102.5t86 -259.5z" />
    <glyph glyph-name="afii10048" unicode="&#x42e;" horiz-adv-x="785" 
d="M90 700h20v-341h124q2 160 69 256.5t179 96.5q113 0 180.5 -99t67.5 -263t-67.5 -263t-180.5 -99q-112 0 -179 96.5t-69 256.5h-124v-341h-20v700zM254 350q0 -157 61 -250.5t167 -93.5t167 93.5t61 250.5t-61 250.5t-167 93.5t-167 -93.5t-61 -250.5z" />
    <glyph glyph-name="afii10049" unicode="&#x42f;" horiz-adv-x="582" 
d="M60 509q0 87 64.5 139t181.5 52h186v-700h-20v318h-161q-32 0 -67 5l-201 -323h-23l204 326q-79 17 -121.5 64.5t-42.5 118.5zM80 509q0 -80 60.5 -126.5t170.5 -46.5h161v346h-161q-111 0 -171 -46t-60 -127z" />
    <glyph glyph-name="afii10065" unicode="&#x430;" horiz-adv-x="530" 
d="M435 242v101q0 90 -42.5 129.5t-124.5 39.5q-95 0 -172 -62l-14 14q84 66 186 66q187 0 187 -182v-348h-20v60q-79 -72 -197 -72q-82 0 -135 44.5t-53 118.5t53 118.5t135 44.5q118 0 197 -72zM237 6q112 0 198 76v138q-86 76 -198 76q-75 0 -121 -39.5t-46 -105.5
t46 -105.5t121 -39.5z" />
    <glyph glyph-name="afii10066" unicode="&#x431;" horiz-adv-x="530" 
d="M470 722q-78 -7 -139 -25.5t-113.5 -53.5t-86 -93t-45.5 -137q35 37 86 60t99 23q100 0 154.5 -66t54.5 -188q0 -119 -55 -186.5t-144 -67.5q-110 0 -165.5 88.5t-55.5 247.5q0 189 98.5 294.5t315.5 123.5zM271 478q-49 0 -99.5 -24t-88.5 -67q-3 -29 -3 -62
q0 -161 54 -240t147 -79q83 0 131 65t48 171q0 117 -49.5 176.5t-139.5 59.5z" />
    <glyph glyph-name="afii10067" unicode="&#x432;" horiz-adv-x="497" 
d="M247 0h-167v518h173q167 0 167 -129q0 -44 -24.5 -76t-77.5 -43q60 -5 94.5 -39.5t34.5 -91.5q0 -62 -48 -100.5t-152 -38.5zM400 389q0 54 -35.5 82.5t-118.5 28.5h-146v-222h159q79 0 110 33t31 78zM427 137q0 57 -36.5 90t-132.5 33h-158v-242h150q90 0 133.5 33
t43.5 86z" />
    <glyph glyph-name="afii10068" unicode="&#x433;" horiz-adv-x="418" 
d="M408 500h-308v-500h-20v518h328v-18z" />
    <glyph glyph-name="afii10069" unicode="&#x434;" horiz-adv-x="536" 
d="M506 18v-128h-20v110h-436v-110h-20v128h49q74 153 74 374v126h284v-500h69zM101 18h316v482h-244v-104q0 -221 -72 -378z" />
    <glyph glyph-name="afii10070" unicode="&#x435;" horiz-adv-x="545" 
d="M290 6q115 0 178 85l16 -11q-69 -92 -194 -92q-111 0 -175.5 79.5t-64.5 193.5q0 117 65.5 193t163.5 76t164 -73t66 -187v-18h-439q2 -104 62.5 -175t157.5 -71zM70 270h419q0 107 -59.5 174.5t-150.5 67.5q-87 0 -147 -68t-62 -174z" />
    <glyph glyph-name="afii10072" unicode="&#x436;" horiz-adv-x="734" 
d="M377 518v-352l287 352h28l-176 -213l208 -305h-24l-197 289l-126 -152v-137h-20v137l-126 152l-197 -289h-24l208 305l-176 213h28l287 -352v352h20z" />
    <glyph glyph-name="afii10073" unicode="&#x437;" horiz-adv-x="469" 
d="M414 134q0 -64 -53.5 -105t-136.5 -41q-115 0 -199 76l14 14q38 -35 89 -53.5t99 -18.5q73 0 120 38.5t47 89.5q0 61 -58.5 96t-142.5 35h-56v18h53q84 0 135 33t51 90q0 49 -42 77.5t-109 28.5q-89 0 -157 -57l-14 14q76 61 169 61q76 0 124.5 -33.5t48.5 -90.5
q0 -50 -36.5 -86t-107.5 -47q75 -10 118.5 -45.5t43.5 -93.5z" />
    <glyph glyph-name="afii10074" unicode="&#x438;" horiz-adv-x="572" 
d="M492 0h-20v486l-372 -486h-20v518h20v-486l372 486h20v-518z" />
    <glyph glyph-name="afii10075" unicode="&#x439;" horiz-adv-x="572" 
d="M492 0h-20v486l-372 -486h-20v518h20v-486l372 486h20v-518zM286 611q-48 0 -86.5 30.5t-53.5 84.5l19 5q10 -43 42.5 -72.5t78.5 -29.5t78.5 29.5t42.5 72.5l19 -5q-15 -54 -53.5 -84.5t-86.5 -30.5z" />
    <glyph glyph-name="afii10076" unicode="&#x43a;" horiz-adv-x="478" 
d="M100 518v-353l308 353h28l-182 -207l214 -311h-24l-204 296l-140 -159v-137h-20v518h20z" />
    <glyph glyph-name="afii10077" unicode="&#x43b;" horiz-adv-x="576" 
d="M10 -10v19q24 -3 41 -3q54 0 78 30.5t24 103.5v378h343v-518h-20v500h-303v-365q0 -79 -28.5 -113t-94.5 -34q-18 0 -40 2z" />
    <glyph glyph-name="afii10078" unicode="&#x43c;" horiz-adv-x="668" 
d="M100 0h-20v518h20l234 -361l234 361h20v-518h-20v480l-225 -347h-18l-225 348v-481z" />
    <glyph glyph-name="afii10079" unicode="&#x43d;" horiz-adv-x="554" 
d="M100 291h354v227h20v-518h-20v273h-354v-273h-20v518h20v-227z" />
    <glyph glyph-name="afii10080" unicode="&#x43e;" horiz-adv-x="566" 
d="M516 259q0 -119 -65.5 -195t-167.5 -76t-167.5 76t-65.5 195t65.5 195t167.5 76t167.5 -76t65.5 -195zM496 259q0 113 -60.5 183t-152.5 70t-152.5 -70t-60.5 -183t60.5 -183t152.5 -70t152.5 70t60.5 183z" />
    <glyph glyph-name="afii10081" unicode="&#x43f;" horiz-adv-x="539" 
d="M80 0v518h379v-518h-20v500h-339v-500h-20z" />
    <glyph glyph-name="afii10082" unicode="&#x440;" horiz-adv-x="559" 
d="M100 419v-320q35 -40 86.5 -66.5t103.5 -26.5q199 0 199 253t-199 253q-52 0 -103.5 -26.5t-86.5 -66.5zM100 518v-75q87 87 197 87q101 0 156.5 -68.5t55.5 -202.5t-55.5 -202.5t-156.5 -68.5q-110 0 -197 87v-287h-20v730h20z" />
    <glyph glyph-name="afii10083" unicode="&#x441;" horiz-adv-x="535" 
d="M50 259q0 124 69 197.5t169 73.5q134 0 202 -104l-16 -10q-66 96 -186 96q-91 0 -154.5 -68t-63.5 -185t63.5 -185t154.5 -68q120 0 186 96l16 -10q-68 -104 -202 -104q-100 0 -169 73.5t-69 197.5z" />
    <glyph glyph-name="afii10084" unicode="&#x442;" horiz-adv-x="464" 
d="M222 0v500h-207v18h434v-18h-207v-500h-20z" />
    <glyph glyph-name="afii10085" unicode="&#x443;" horiz-adv-x="485" 
d="M247 33l191 485h22l-287 -730h-22l86 218l-212 512h22z" />
    <glyph glyph-name="afii10086" unicode="&#x444;" horiz-adv-x="872" 
d="M426 -212v283q-75 -83 -177 -83q-97 0 -148 69t-51 202t51 202t148 69q101 0 177 -84v284h20v-284q76 84 177 84q97 0 148 -69t51 -202t-51 -202t-148 -69q-102 0 -177 83v-283h-20zM616 512q-94 0 -170 -90v-327q75 -89 170 -89q186 0 186 253t-186 253zM256 6
q93 0 170 89v327q-78 90 -170 90q-186 0 -186 -253t186 -253z" />
    <glyph glyph-name="afii10087" unicode="&#x445;" horiz-adv-x="458" 
d="M413 0l-184 257l-184 -257h-25l197 274l-175 244h24l163 -228l163 228h24l-175 -244l197 -274h-25z" />
    <glyph glyph-name="afii10088" unicode="&#x446;" horiz-adv-x="558" 
d="M459 18h69v-128h-20v110h-428v518h20v-500h339v500h20v-500z" />
    <glyph glyph-name="afii10089" unicode="&#x447;" horiz-adv-x="565" 
d="M260 218q51 0 110 27.5t95 68.5v204h20v-518h-20v290q-39 -39 -98 -64.5t-112 -25.5q-180 0 -180 190v128h20v-121q0 -93 39.5 -136t125.5 -43z" />
    <glyph glyph-name="afii10090" unicode="&#x448;" horiz-adv-x="676" 
d="M348 18h228v500h20v-518h-516v518h20v-500h228v500h20v-500z" />
    <glyph glyph-name="afii10091" unicode="&#x449;" horiz-adv-x="695" 
d="M596 18h69v-128h-20v110h-565v518h20v-500h228v500h20v-500h228v500h20v-500z" />
    <glyph glyph-name="afii10092" unicode="&#x44a;" horiz-adv-x="538" 
d="M306 0h-146v500h-150v18h170v-210h126q97 0 144.5 -42.5t47.5 -111.5t-47.5 -111.5t-144.5 -42.5zM478 154q0 136 -178 136h-120v-272h120q178 0 178 136z" />
    <glyph glyph-name="afii10093" unicode="&#x44b;" horiz-adv-x="615" 
d="M535 0h-19v518h19v-518zM80 0h146q97 0 144.5 42.5t47.5 111.5t-47.5 111.5t-144.5 42.5h-126v210h-20v-518zM398 154q0 -136 -178 -136h-120v272h120q178 0 178 -136z" />
    <glyph glyph-name="afii10094" unicode="&#x44c;" horiz-adv-x="458" 
d="M226 0h-146v518h20v-210h126q97 0 144.5 -42.5t47.5 -111.5t-47.5 -111.5t-144.5 -42.5zM398 154q0 136 -178 136h-120v-272h120q178 0 178 136z" />
    <glyph glyph-name="afii10095" unicode="&#x44d;" horiz-adv-x="535" 
d="M485 259q0 -124 -69 -197.5t-169 -73.5q-134 0 -202 104l16 10q66 -96 186 -96q90 0 153 65.5t65 178.5h-282v18h282q-2 113 -65 178.5t-153 65.5q-120 0 -186 -96l-16 10q68 104 202 104q100 0 169 -73.5t69 -197.5z" />
    <glyph glyph-name="afii10096" unicode="&#x44e;" horiz-adv-x="691" 
d="M99 0h-19v518h19v-250h120q2 118 59.5 190t151.5 72q96 0 153.5 -74.5t57.5 -196.5t-57.5 -196.5t-153.5 -74.5q-94 0 -151.5 72t-59.5 190h-120v-250zM239 259q0 -114 52.5 -183.5t138.5 -69.5t138.5 69.5t52.5 183.5t-52.5 183.5t-138.5 69.5t-138.5 -69.5
t-52.5 -183.5z" />
    <glyph glyph-name="afii10097" unicode="&#x44f;" horiz-adv-x="511" 
d="M207 236l-152 -236h-25l154 239q-61 12 -92.5 48.5t-31.5 88.5q0 64 46.5 103t135.5 39h189v-518h-20v234h-169q-13 0 -35 2zM248 252h163v248h-163q-87 0 -127.5 -34.5t-40.5 -89.5t40.5 -89.5t127.5 -34.5z" />
    <glyph glyph-name="uni0450" unicode="&#x450;" horiz-adv-x="545" 
d="M290 6q115 0 178 85l16 -11q-69 -92 -194 -92q-111 0 -175.5 79.5t-64.5 193.5q0 117 65.5 193t163.5 76t164 -73t66 -187v-18h-439q2 -104 62.5 -175t157.5 -71zM70 270h419q0 107 -59.5 174.5t-150.5 67.5q-87 0 -147 -68t-62 -174zM167 731l16 13l144 -142l-15 -12z
" />
    <glyph glyph-name="afii10071" unicode="&#x451;" horiz-adv-x="545" 
d="M290 6q-97 0 -157.5 71t-62.5 175h439v18q0 114 -66 187t-164 73t-163.5 -76t-65.5 -193q0 -114 64.5 -193.5t175.5 -79.5q125 0 194 92l-16 11q-63 -85 -178 -85zM489 270h-419q2 106 62 174t147 68q91 0 150.5 -67.5t59.5 -174.5zM173 669q0 9 6.5 15.5t15.5 6.5
t15.5 -6.5t6.5 -15.5t-6.5 -15.5t-15.5 -6.5t-15.5 6.5t-6.5 15.5zM347 669q0 9 6.5 15.5t15.5 6.5t15.5 -6.5t6.5 -15.5t-6.5 -15.5t-15.5 -6.5t-15.5 6.5t-6.5 15.5z" />
    <glyph glyph-name="afii10099" unicode="&#x452;" horiz-adv-x="562" 
d="M15 636h68v94h20v-94h205v-18h-205v-189q40 43 95 72t112 29q177 0 177 -190v-429q0 -77 -31.5 -106t-94.5 -29q-15 0 -31 2v18q18 -2 34 -2q50 0 76.5 23.5t26.5 95.5v420q0 93 -37.5 136t-120.5 43q-55 0 -109.5 -29.5t-96.5 -78.5v-404h-20v618h-68v18z" />
    <glyph glyph-name="afii10100" unicode="&#x453;" horiz-adv-x="418" 
d="M408 500h-308v-500h-20v518h328v-18zM329 744l16 -13l-145 -141l-15 12z" />
    <glyph glyph-name="afii10101" unicode="&#x454;" horiz-adv-x="535" 
d="M50 259q0 124 69 197.5t169 73.5q134 0 202 -104l-16 -10q-66 96 -186 96q-90 0 -153 -65.5t-65 -178.5h282v-18h-282q2 -113 65 -178.5t153 -65.5q120 0 186 96l16 -10q-68 -104 -202 -104q-100 0 -169 73.5t-69 197.5z" />
    <glyph glyph-name="afii10102" unicode="&#x455;" horiz-adv-x="474" 
d="M238 6q75 0 120.5 34.5t45.5 89.5q0 52 -41.5 85t-129.5 56q-90 23 -132 52.5t-42 84.5t45 88.5t118 33.5q99 0 173 -59l-14 -14q-66 55 -158 55q-65 0 -104.5 -28.5t-39.5 -75.5q0 -46 38 -71.5t127 -48.5q94 -25 137 -62.5t43 -95.5q0 -67 -52 -104.5t-135 -37.5
q-116 0 -202 78l14 14q39 -35 90 -54.5t99 -19.5z" />
    <glyph glyph-name="afii10103" unicode="&#x456;" horiz-adv-x="200" 
d="M90 0v518h20v-518h-20zM74 684q0 10 8 18t18 8t18 -8t8 -18t-8 -18t-18 -8t-18 8t-8 18z" />
    <glyph glyph-name="afii10104" unicode="&#x457;" horiz-adv-x="200" 
d="M90 0v518h20v-518h-20zM-9 669q0 9 6.5 15.5t15.5 6.5t15.5 -6.5t6.5 -15.5t-6.5 -15.5t-15.5 -6.5t-15.5 6.5t-6.5 15.5zM165 669q0 9 6.5 15.5t15.5 6.5t15.5 -6.5t6.5 -15.5t-6.5 -15.5t-15.5 -6.5t-15.5 6.5t-6.5 15.5z" />
    <glyph glyph-name="afii10105" unicode="&#x458;" horiz-adv-x="190" 
d="M85 -87v605h20v-607q0 -77 -31.5 -106t-94.5 -29q-15 0 -31 2v18q18 -2 34 -2q50 0 76.5 23.5t26.5 95.5zM69 684q0 10 7.5 18t18.5 8t18.5 -8t7.5 -18t-7.5 -18t-18.5 -8t-18.5 8t-7.5 18z" />
    <glyph glyph-name="afii10106" unicode="&#x459;" horiz-adv-x="804" 
d="M754 154q0 136 -178 136h-120v-272h120q178 0 178 136zM153 140v378h303v-210h126q97 0 144.5 -42.5t47.5 -111.5t-47.5 -111.5t-144.5 -42.5h-146v500h-263v-365q0 -79 -28.5 -113t-94.5 -34q-18 0 -40 2v19q24 -3 41 -3q54 0 78 30.5t24 103.5z" />
    <glyph glyph-name="afii10107" unicode="&#x45a;" horiz-adv-x="792" 
d="M560 0h-146v290h-314v-290h-20v518h20v-210h314v210h20v-210h126q97 0 144.5 -42.5t47.5 -111.5t-47.5 -111.5t-144.5 -42.5zM732 154q0 136 -178 136h-120v-272h120q178 0 178 136z" />
    <glyph glyph-name="afii10108" unicode="&#x45b;" horiz-adv-x="562" 
d="M15 636h68v94h20v-94h205v-18h-205v-189q40 43 95 72t112 29q177 0 177 -190v-340h-20v333q0 93 -37.5 136t-120.5 43q-55 0 -109.5 -29.5t-96.5 -78.5v-404h-20v618h-68v18z" />
    <glyph glyph-name="afii10109" unicode="&#x45c;" horiz-adv-x="478" 
d="M100 518v-353l308 353h28l-182 -207l214 -311h-24l-204 296l-140 -159v-137h-20v518h20zM351 744l16 -13l-145 -141l-15 12z" />
    <glyph glyph-name="uni045D" unicode="&#x45d;" horiz-adv-x="572" 
d="M492 0h-20v486l-372 -486h-20v518h20v-486l372 486h20v-518zM169 731l16 13l144 -142l-15 -12z" />
    <glyph glyph-name="afii10110" unicode="&#x45e;" horiz-adv-x="485" 
d="M247 33l191 485h22l-287 -730h-22l86 218l-212 512h22zM242 611q-48 0 -86.5 30.5t-53.5 84.5l19 5q10 -43 42.5 -72.5t78.5 -29.5t78.5 29.5t42.5 72.5l19 -5q-15 -54 -53.5 -84.5t-86.5 -30.5z" />
    <glyph glyph-name="afii10193" unicode="&#x45f;" horiz-adv-x="539" 
d="M80 0v518h20v-500h339v500h20v-518h-180v-110h-20v110h-179z" />
    <glyph glyph-name="afii10050" unicode="&#x490;" horiz-adv-x="508" 
d="M90 0v700h378v123h20v-141h-378v-682h-20z" />
    <glyph glyph-name="afii10098" unicode="&#x491;" horiz-adv-x="418" 
d="M388 650h20v-150h-308v-500h-20v518h308v132z" />
    <glyph glyph-name="Wgrave" unicode="&#x1e80;" horiz-adv-x="974" 
d="M474 700h26l194 -677l228 677h22l-238 -700h-25l-194 677l-194 -677h-25l-238 700h22l228 -677zM343 905l16 13l144 -142l-15 -12z" />
    <glyph glyph-name="wgrave" unicode="&#x1e81;" horiz-adv-x="760" 
d="M366 518h28l154 -499l164 499h23l-174 -518h-26l-155 499l-155 -499h-26l-174 518h23l164 -499zM239 731l16 13l144 -142l-15 -12z" />
    <glyph glyph-name="Wacute" unicode="&#x1e82;" horiz-adv-x="974" 
d="M474 700h26l194 -677l228 677h22l-238 -700h-25l-194 677l-194 -677h-25l-238 700h22l228 -677zM615 918l16 -13l-145 -141l-15 12z" />
    <glyph glyph-name="wacute" unicode="&#x1e83;" horiz-adv-x="760" 
d="M366 518h28l154 -499l164 499h23l-174 -518h-26l-155 499l-155 -499h-26l-174 518h23l164 -499zM505 744l16 -13l-145 -141l-15 12z" />
    <glyph glyph-name="Wdieresis" unicode="&#x1e84;" horiz-adv-x="974" 
d="M474 700h26l194 -677l228 677h22l-238 -700h-25l-194 677l-194 -677h-25l-238 700h22l228 -677zM378 843q0 9 6.5 15.5t15.5 6.5t15.5 -6.5t6.5 -15.5t-6.5 -15.5t-15.5 -6.5t-15.5 6.5t-6.5 15.5zM552 843q0 9 6.5 15.5t15.5 6.5t15.5 -6.5t6.5 -15.5t-6.5 -15.5
t-15.5 -6.5t-15.5 6.5t-6.5 15.5z" />
    <glyph glyph-name="wdieresis" unicode="&#x1e85;" horiz-adv-x="760" 
d="M366 518h28l154 -499l164 499h23l-174 -518h-26l-155 499l-155 -499h-26l-174 518h23l164 -499zM271 669q0 9 6.5 15.5t15.5 6.5t15.5 -6.5t6.5 -15.5t-6.5 -15.5t-15.5 -6.5t-15.5 6.5t-6.5 15.5zM445 669q0 9 6.5 15.5t15.5 6.5t15.5 -6.5t6.5 -15.5t-6.5 -15.5
t-15.5 -6.5t-15.5 6.5t-6.5 15.5z" />
    <glyph glyph-name="Ygrave" unicode="&#x1ef2;" horiz-adv-x="560" 
d="M535 700l-245 -421v-279h-20v279l-245 421h24l231 -401l231 401h24zM145 905l16 13l144 -142l-15 -12z" />
    <glyph glyph-name="ygrave" unicode="&#x1ef3;" horiz-adv-x="485" 
d="M438 518l-191 -485l-200 485h-22l212 -512l-86 -218h22l287 730h-22zM122 731l16 13l144 -142l-15 -12z" />
    <glyph glyph-name="thinspace" unicode="&#x2009;" horiz-adv-x="200" 
 />
    <glyph glyph-name="uni2010" unicode="&#x2010;" horiz-adv-x="406" 
d="M336 323h-266v18h266v-18z" />
    <glyph glyph-name="figuredash" unicode="&#x2012;" horiz-adv-x="560" 
d="M520 323h-480v18h480v-18z" />
    <glyph glyph-name="endash" unicode="&#x2013;" horiz-adv-x="500" 
d="M500 323h-500v18h500v-18z" />
    <glyph glyph-name="emdash" unicode="&#x2014;" horiz-adv-x="1000" 
d="M1000 323h-1000v18h1000v-18z" />
    <glyph glyph-name="afii00208" unicode="&#x2015;" horiz-adv-x="1000" 
d="M900 323h-800v18h800v-18z" />
    <glyph glyph-name="uni2016" unicode="&#x2016;" horiz-adv-x="376" 
d="M110 -130v879h20v-879h-20zM246 -130v879h20v-879h-20z" />
    <glyph glyph-name="underscoredbl" unicode="&#x2017;" horiz-adv-x="620" 
d="M60 -56h500v-18h-500v18zM60 -157h500v-18h-500v18z" />
    <glyph glyph-name="quoteleft" unicode="&#x2018;" horiz-adv-x="280" 
d="M137 549l-19 6l63 184l19 -7z" />
    <glyph glyph-name="quoteright" unicode="&#x2019;" horiz-adv-x="280" 
d="M143 739l19 -6l-63 -184l-19 7z" />
    <glyph glyph-name="quotesinglbase" unicode="&#x201a;" horiz-adv-x="280" 
d="M143 39l19 -6l-63 -184l-19 7z" />
    <glyph glyph-name="quotereversed" unicode="&#x201b;" horiz-adv-x="280" 
d="M200 555l-19 -6l-63 183l19 7z" />
    <glyph glyph-name="quotedblleft" unicode="&#x201c;" horiz-adv-x="408" 
d="M137 549l-19 6l63 184l19 -7zM265 549l-19 6l63 184l19 -7z" />
    <glyph glyph-name="quotedblright" unicode="&#x201d;" horiz-adv-x="408" 
d="M143 739l19 -6l-63 -184l-19 7zM271 739l19 -6l-63 -184l-19 7z" />
    <glyph glyph-name="quotedblbase" unicode="&#x201e;" horiz-adv-x="408" 
d="M143 39l19 -6l-63 -184l-19 7zM271 39l19 -6l-63 -184l-19 7z" />
    <glyph glyph-name="uni201F" unicode="&#x201f;" horiz-adv-x="408" 
d="M200 555l-19 -6l-63 183l19 7zM328 555l-19 -6l-63 183l19 7z" />
    <glyph glyph-name="dagger" unicode="&#x2020;" horiz-adv-x="576" 
d="M298 535v-666h-20v666h-198v18h198v195h20v-195h198v-18h-198z" />
    <glyph glyph-name="daggerdbl" unicode="&#x2021;" horiz-adv-x="576" 
d="M496 82v-18h-198v-195h-20v195h-198v18h198v453h-198v18h198v195h20v-195h198v-18h-198v-453h198z" />
    <glyph glyph-name="bullet" unicode="&#x2022;" horiz-adv-x="398" 
d="M100 332q0 42 28.5 70.5t70.5 28.5t70.5 -28.5t28.5 -70.5t-28.5 -70.5t-70.5 -28.5t-70.5 28.5t-28.5 70.5z" />
    <glyph glyph-name="onedotenleader" unicode="&#x2024;" horiz-adv-x="280" 
d="M114 14q0 10 8 18t18 8t18 -8t8 -18t-8 -18t-18 -8t-18 8t-8 18z" />
    <glyph glyph-name="twodotenleader" unicode="&#x2025;" horiz-adv-x="560" 
d="M114 14q0 10 8 18t18 8t18 -8t8 -18t-8 -18t-18 -8t-18 8t-8 18zM394 14q0 10 8 18t18 8t18 -8t8 -18t-8 -18t-18 -8t-18 8t-8 18z" />
    <glyph glyph-name="ellipsis" unicode="&#x2026;" horiz-adv-x="840" 
d="M114 14q0 10 8 18t18 8t18 -8t8 -18t-8 -18t-18 -8t-18 8t-8 18zM394 14q0 10 8 18t18 8t18 -8t8 -18t-8 -18t-18 -8t-18 8t-8 18zM674 14q0 10 8 18t18 8t18 -8t8 -18t-8 -18t-18 -8t-18 8t-8 18z" />
    <glyph glyph-name="perthousand" unicode="&#x2030;" horiz-adv-x="998" 
d="M136 -12l-16 11l450 713l16 -11zM356 528q0 -79 -36 -129t-97 -50t-97 50t-36 129t36 129t97 50t97 -50t36 -129zM110 528q0 -73 30 -117t83 -44t83 44t30 117t-30 117t-83 44t-83 -44t-30 -117zM614 171q0 -79 -36 -129t-97 -50t-97 50t-36 129t36 129t97 50t97 -50
t36 -129zM368 171q0 -73 30 -117t83 -44t83 44t30 117t-30 117t-83 44t-83 -44t-30 -117zM908 171q0 -79 -36 -129t-97 -50t-97 50t-36 129t36 129t97 50t97 -50t36 -129zM662 171q0 -73 30 -117t83 -44t83 44t30 117t-30 117t-83 44t-83 -44t-30 -117z" />
    <glyph glyph-name="minute" unicode="&#x2032;" horiz-adv-x="318" 
d="M137 469l-19 6l63 184l19 -7z" />
    <glyph glyph-name="second" unicode="&#x2033;" horiz-adv-x="446" 
d="M181 659l19 -6l-63 -184l-19 7zM309 659l19 -6l-63 -184l-19 7z" />
    <glyph glyph-name="guilsinglleft" unicode="&#x2039;" horiz-adv-x="317" 
d="M50 307v10l206 159l11 -15l-194 -149l194 -149l-11 -15z" />
    <glyph glyph-name="guilsinglright" unicode="&#x203a;" horiz-adv-x="317" 
d="M267 317v-10l-206 -159l-11 15l194 149l-194 149l11 15z" />
    <glyph glyph-name="exclamdbl" unicode="&#x203c;" horiz-adv-x="409" 
d="M100 700h20v-531h-20v531zM84 14q0 10 8 18t18 8t18 -8t8 -18t-8 -18t-18 -8t-18 8t-8 18zM289 700h20v-531h-20v531zM273 14q0 10 7.5 18t18.5 8t18.5 -8t7.5 -18t-7.5 -18t-18.5 -8t-18.5 8t-7.5 18z" />
    <glyph glyph-name="uni203E" unicode="&#x203e;" horiz-adv-x="400" 
d="M64 639v18h272v-18h-272z" />
    <glyph glyph-name="fraction" unicode="&#x2044;" horiz-adv-x="178" 
d="M-104 -12l-16 11l402 716l16 -11z" />
    <glyph glyph-name="zerosuperior" unicode="&#x2070;" 
d="M37 469q0 112 41.5 175.5t116.5 63.5t116.5 -63.5t41.5 -175.5t-41.5 -175.5t-116.5 -63.5t-116.5 63.5t-41.5 175.5zM57 469q0 -104 36 -162.5t102 -58.5t102 58.5t36 162.5t-36 162.5t-102 58.5t-102 -58.5t-36 -162.5z" />
    <glyph glyph-name="uni2071" unicode="&#x2071;" 
d="M205 569v-332h-20v332h20zM175 672q0 8 6 14t14 6t14 -6t6 -14t-6 -14t-14 -6t-14 6t-6 14z" />
    <glyph glyph-name="foursuperior" unicode="&#x2074;" 
d="M277 346h-240v18l239 336h21v-336h56v-18h-56v-109h-20v109zM277 669l-217 -305h217v305z" />
    <glyph glyph-name="fivesuperior" unicode="&#x2075;" 
d="M172 247q61 0 99.5 33.5t38.5 94.5q0 60 -39 94t-106 34q-48 0 -91 -19l-3 2v214h231v-18h-211v-176q31 15 76 15q71 0 117 -39t46 -107q0 -70 -43 -108t-115 -38q-82 0 -135 53l13 13q24 -24 58.5 -36t63.5 -12z" />
    <glyph glyph-name="sixsuperior" unicode="&#x2076;" 
d="M216 690q-149 0 -152 -221q25 26 61.5 42t71.5 16q69 0 110 -41t41 -110q0 -65 -42.5 -106t-102.5 -41q-70 0 -114.5 56t-44.5 166q0 257 174 257q55 0 95 -41l-13 -12q-38 35 -84 35zM197 509q-36 0 -72 -16.5t-61 -45.5q2 -103 40.5 -151.5t97.5 -48.5q57 0 91.5 37.5
t34.5 91.5q0 59 -33.5 96t-97.5 37z" />
    <glyph glyph-name="sevensuperior" unicode="&#x2077;" 
d="M329 682l-190 -445h-22l191 445h-268v18h289v-18z" />
    <glyph glyph-name="eightsuperior" unicode="&#x2078;" 
d="M327 597q0 -79 -68 -128q48 -23 68 -50t20 -65q0 -60 -41.5 -92.5t-109.5 -32.5t-111 35.5t-43 92.5q0 94 90 143q-70 36 -70 97q0 47 38 79t96 32t94.5 -32t36.5 -79zM171 483q-7 2 -19 8q-90 -45 -90 -134q0 -50 38 -80t96 -30t94.5 27.5t36.5 80.5q0 24 -9 42.5
t-31 33t-34.5 21t-45 18t-36.5 13.5zM224 484q10 -4 14 -6q69 44 69 119q0 40 -30.5 66.5t-80.5 26.5q-54 0 -84 -27t-30 -66q0 -37 32 -60.5t110 -52.5z" />
    <glyph glyph-name="ninesuperior" unicode="&#x2079;" 
d="M68 278l14 13q41 -44 103 -44q70 0 105.5 53.5t37.5 167.5q-26 -26 -62 -42t-71 -16q-69 0 -110 41t-41 110q0 65 42.5 106t102.5 41q70 0 114.5 -56t44.5 -166q0 -133 -41.5 -195t-123.5 -62q-30 0 -62 13t-53 36zM195 428q79 0 133 62q-2 102 -41 151t-97 49
q-57 0 -91.5 -37.5t-34.5 -91.5q0 -59 33.5 -96t97.5 -37z" />
    <glyph glyph-name="uni207A" unicode="&#x207a;" 
d="M185 312v150h-154v18h154v150h20v-150h154v-18h-154v-150h-20z" />
    <glyph glyph-name="uni207B" unicode="&#x207b;" 
d="M359 462h-328v18h328v-18z" />
    <glyph glyph-name="uni207C" unicode="&#x207c;" 
d="M359 525h-328v18h328v-18zM359 399h-328v18h328v-18z" />
    <glyph glyph-name="uni207D" unicode="&#x207d;" 
d="M149 469q0 162 92 290l16 -8q-88 -126 -88 -282t88 -282l-16 -8q-92 128 -92 290z" />
    <glyph glyph-name="uni207E" unicode="&#x207e;" 
d="M241 469q0 -162 -92 -290l-16 8q88 126 88 282t-88 282l16 8q92 -128 92 -290z" />
    <glyph glyph-name="uni207F" unicode="&#x207f;" 
d="M212 559q-35 0 -71.5 -18t-62.5 -43v-261h-20v332h20v-50q63 58 135 58q63 0 88 -29.5t25 -98.5v-212h-20v208q0 64 -20.5 89t-73.5 25z" />
    <glyph glyph-name="zeroinferior" unicode="&#x2080;" 
d="M37 106q0 112 41.5 175.5t116.5 63.5t116.5 -63.5t41.5 -175.5t-41.5 -175.5t-116.5 -63.5t-116.5 63.5t-41.5 175.5zM57 106q0 -104 36 -162.5t102 -58.5t102 58.5t36 162.5t-36 162.5t-102 58.5t-102 -58.5t-36 -162.5z" />
    <glyph glyph-name="oneinferior" unicode="&#x2081;" 
d="M204 315l-98 -75l-11 16l109 82h20v-464h-20v441z" />
    <glyph glyph-name="twoinferior" unicode="&#x2082;" 
d="M325 -126h-264v20q110 92 189 195q51 67 51 131q0 52 -30.5 79.5t-79.5 27.5q-74 0 -126 -54l-14 11q58 61 139 61q60 0 95.5 -34t35.5 -90q0 -69 -56 -144q-74 -99 -176 -183h236v-20z" />
    <glyph glyph-name="threeinferior" unicode="&#x2083;" 
d="M191 -116q57 0 86.5 31t29.5 74q0 57 -39 87.5t-115 30.5h-31v18h33q67 0 106 29.5t39 75.5q0 44 -26 70.5t-78 26.5q-63 0 -110 -48l-13 12q54 54 123 54q58 0 91 -32.5t33 -82.5q0 -44 -29.5 -74t-71.5 -39q49 -11 78.5 -43.5t29.5 -84.5q0 -54 -35.5 -88.5
t-100.5 -34.5q-83 0 -138 62l14 13q24 -26 58 -41.5t66 -15.5z" />
    <glyph glyph-name="fourinferior" unicode="&#x2084;" 
d="M257 -17h-240v18l239 336h21v-336h56v-18h-56v-109h-20v109zM257 306l-217 -305h217v305z" />
    <glyph glyph-name="fiveinferior" unicode="&#x2085;" 
d="M172 -116q61 0 99.5 33.5t38.5 94.5q0 60 -39 94t-106 34q-48 0 -91 -19l-3 2v214h231v-18h-211v-176q31 15 76 15q71 0 117 -39t46 -107q0 -70 -43 -108t-115 -38q-82 0 -135 53l13 13q24 -24 58.5 -36t63.5 -12z" />
    <glyph glyph-name="sixinferior" unicode="&#x2086;" 
d="M216 327q-149 0 -152 -221q25 26 61.5 42t71.5 16q69 0 110 -41t41 -110q0 -65 -42.5 -106t-102.5 -41q-70 0 -114.5 56t-44.5 166q0 257 174 257q55 0 95 -41l-13 -12q-38 35 -84 35zM197 146q-36 0 -72 -16.5t-61 -45.5q2 -103 40.5 -151.5t97.5 -48.5q57 0 91.5 37.5
t34.5 91.5q0 59 -33.5 96t-97.5 37z" />
    <glyph glyph-name="seveninferior" unicode="&#x2087;" 
d="M329 319l-190 -445h-22l191 445h-268v18h289v-18z" />
    <glyph glyph-name="eightinferior" unicode="&#x2088;" 
d="M327 234q0 -79 -68 -128q48 -23 68 -50t20 -65q0 -60 -41.5 -92.5t-109.5 -32.5t-111 35.5t-43 92.5q0 94 90 143q-70 36 -70 97q0 47 38 79t96 32t94.5 -32t36.5 -79zM171 120q-7 2 -19 8q-90 -45 -90 -134q0 -50 38 -80t96 -30t94.5 27.5t36.5 80.5q0 24 -9 42.5
t-31 33t-34.5 21t-45 18t-36.5 13.5zM224 121q10 -4 14 -6q69 44 69 119q0 40 -30.5 66.5t-80.5 26.5q-54 0 -84 -27t-30 -66q0 -37 32 -60.5t110 -52.5z" />
    <glyph glyph-name="nineinferior" unicode="&#x2089;" 
d="M68 -85l14 13q41 -44 103 -44q70 0 105.5 53.5t37.5 167.5q-26 -26 -62 -42t-71 -16q-69 0 -110 41t-41 110q0 65 42.5 106t102.5 41q70 0 114.5 -56t44.5 -166q0 -133 -41.5 -195t-123.5 -62q-30 0 -62 13t-53 36zM195 65q79 0 133 62q-2 102 -41 151t-97 49
q-57 0 -91.5 -37.5t-34.5 -91.5q0 -59 33.5 -96t97.5 -37z" />
    <glyph glyph-name="uni208A" unicode="&#x208a;" 
d="M185 -51v150h-154v18h154v150h20v-150h154v-18h-154v-150h-20z" />
    <glyph glyph-name="uni208B" unicode="&#x208b;" 
d="M359 99h-328v18h328v-18z" />
    <glyph glyph-name="uni208C" unicode="&#x208c;" 
d="M359 162h-328v18h328v-18zM359 36h-328v18h328v-18z" />
    <glyph glyph-name="uni208D" unicode="&#x208d;" 
d="M149 106q0 162 92 290l16 -8q-88 -126 -88 -282t88 -282l-16 -8q-92 128 -92 290z" />
    <glyph glyph-name="uni208E" unicode="&#x208e;" 
d="M241 106q0 -162 -92 -290l-16 8q88 126 88 282t-88 282l16 8q92 -128 92 -290z" />
    <glyph glyph-name="uni2090" unicode="&#x2090;" 
d="M34 -27q0 50 34.5 78t87.5 28q94 0 139 -45v65q0 108 -113 108q-61 0 -113 -40l-11 14q59 44 124 44q64 0 98.5 -32t34.5 -94v-224h-20v35q-66 -43 -139 -43q-53 0 -87.5 28t-34.5 78zM295 -64v70q-41 55 -139 55q-45 0 -73.5 -25t-28.5 -63t28.5 -63t73.5 -25
q84 0 139 51z" />
    <glyph glyph-name="uni2091" unicode="&#x2091;" 
d="M64 56h265q0 64 -38 107.5t-94 43.5q-58 0 -94.5 -41.5t-38.5 -109.5zM315 -67l15 -12q-48 -54 -119 -54q-78 0 -122.5 50t-44.5 130q0 82 43 130t110 48q65 0 109 -50t44 -125v-12h-286q2 -71 41.5 -112t105.5 -41q63 0 104 48z" />
    <glyph glyph-name="uni2092" unicode="&#x2092;" 
d="M35 46q0 77 43 128t117 51t117 -51t43 -128t-43 -128t-117 -51t-117 51t-43 128zM55 46q0 -71 39.5 -116t100.5 -45t100.5 45t39.5 116t-39.5 116t-100.5 45t-100.5 -45t-39.5 -116z" />
    <glyph glyph-name="uni2093" unicode="&#x2093;" 
d="M338 217l-130 -169l134 -173h-27l-120 156l-120 -156h-27l134 173l-130 169h25l118 -152l118 152h25z" />
    <glyph glyph-name="uni2094" unicode="&#x2094;" 
d="M326 36h-265q0 -64 38 -107.5t94 -43.5q58 0 94.5 41.5t38.5 109.5zM75 159l-15 12q48 54 119 54q78 0 122.5 -50t44.5 -130q0 -82 -43 -130t-110 -48q-65 0 -109 50t-44 125v12h286q-2 71 -41.5 112t-105.5 41q-63 0 -104 -48z" />
    <glyph glyph-name="uni20A0" unicode="&#x20a0;" horiz-adv-x="743" 
d="M391 0v231q-48 -25 -103 -25q-102 0 -167.5 70t-65.5 183t64 183t164 70q114 0 179 -88l-16 -11q-58 81 -163 81q-94 0 -151 -64.5t-57 -170.5t59.5 -170.5t155.5 -64.5q58 0 101 27v239h300v-18h-280v-212h263v-18h-263v-224h287v-18h-307z" />
    <glyph glyph-name="colonmonetary" unicode="&#x20a1;" horiz-adv-x="672" 
d="M164 -63l27 105q-64 48 -100 128.5t-36 179.5q0 157 86 259.5t218 102.5h6l20 75l18 -5l-19 -71q49 -3 91 -18l25 94l18 -5l-25 -96q79 -33 133 -114l-17 -11q-50 75 -121 107l-171 -659q19 -3 42 -3q162 0 250 133l17 -11q-91 -140 -267 -140q-27 0 -47 4l-15 -60l-18 5
l15 58q-43 10 -86 36l-26 -99zM75 350q0 -93 32 -167.5t89 -120.5l165 632h-2q-124 0 -204 -97.5t-80 -246.5zM213 50q44 -29 85 -38l173 663q-42 17 -91 18z" />
    <glyph glyph-name="uni20A2" unicode="&#x20a2;" horiz-adv-x="672" 
d="M55 350q0 157 86 259.5t218 102.5q176 0 267 -140l-17 -11q-88 133 -250 133q-124 0 -204 -97.5t-80 -246.5q0 -134 65 -227t170 -113v418h20v-85q78 97 181 97q14 0 38 -2v-18q-26 2 -42 2q-102 0 -177 -106v-309q9 -1 29 -1q162 0 250 133l17 -11q-91 -140 -267 -140
q-132 0 -218 102.5t-86 259.5z" />
    <glyph glyph-name="franc" unicode="&#x20a3;" horiz-adv-x="525" 
d="M30 287v18h59v118h-59v18h59v259h406v-18h-386v-241h333v-18h-333v-118h332v-18h-332v-287h-20v287h-59z" />
    <glyph glyph-name="lira" unicode="&#x20a4;" horiz-adv-x="565" 
d="M385 254h-235v-7q0 -145 -75 -229h450v-18h-475v15q80 83 80 231v8h-80v18h80v118h-80v18h80v102q0 101 49.5 151.5t138.5 50.5q121 0 191 -89l-15 -11q-67 82 -176 82q-80 0 -124 -45.5t-44 -140.5v-100h235v-18h-235v-118h235v-18z" />
    <glyph glyph-name="uni20A6" unicode="&#x20a6;" horiz-adv-x="678" 
d="M25 427h60v273h20l187 -273h271v273h20v-273h70v-18h-70v-118h70v-18h-70v-273h-20l-188 273h-270v-273h-20v273h-60v18h60v118h-60v18zM305 409l81 -118h177v118h-258zM105 409v-118h258l-81 118h-177zM398 273l165 -240v240h-165zM105 666v-239h164z" />
    <glyph glyph-name="peseta" unicode="&#x20a7;" horiz-adv-x="963" 
d="M749 0h-148q-59 0 -85 42t-26 135v323h-78q1 -6 1 -18q0 -106 -67.5 -162t-183.5 -56h-52v-264h-20v700h72q105 0 171 -47t77 -135h80v155h20v-155h181q33 12 68 12q81 0 140 -55l-14 -15q-52 52 -123 52q-55 0 -90.5 -26.5t-35.5 -70.5q0 -39 28 -69t111 -69
q138 -65 138 -148q0 -129 -164 -129zM510 500v-327q0 -83 21 -119t65 -36h153q144 0 144 111q0 72 -126 132q-90 43 -120.5 76t-30.5 77q0 55 42 86h-148zM393 482q0 95 -59 147.5t-174 52.5h-50v-400h50q108 0 170.5 53.5t62.5 146.5z" />
    <glyph glyph-name="uni20A8" unicode="&#x20a8;" horiz-adv-x="1010" 
d="M522 509q0 -71 -42.5 -118.5t-121.5 -64.5l204 -326h-23l-201 323q-35 -5 -67 -5h-161v-318h-20v700h181q118 0 184.5 -51.5t66.5 -139.5zM502 509q0 80 -60.5 126.5t-170.5 46.5h-161v-346h161q110 0 170.5 46.5t60.5 126.5zM774 6q75 0 120.5 34.5t45.5 89.5
q0 52 -41.5 85t-129.5 56q-90 23 -132 52.5t-42 84.5t45 88.5t118 33.5q99 0 173 -59l-14 -14q-66 55 -158 55q-65 0 -104.5 -28.5t-39.5 -75.5q0 -46 38 -71.5t127 -48.5q94 -25 137 -62.5t43 -95.5q0 -67 -52 -104.5t-135 -37.5q-116 0 -202 78l14 14q39 -35 90 -54.5
t99 -19.5z" />
    <glyph glyph-name="uni20A9" unicode="&#x20a9;" horiz-adv-x="974" 
d="M20 413h107l-97 287h22l96 -287h244l82 287h26l82 -287h243l97 287h22l-98 -287h108v-18h-114l-40 -118h154v-18h-160l-88 -259h-25l-74 259h-240l-74 -259h-25l-89 259h-159v18h153l-40 118h-113v18zM406 395l-34 -118h230l-34 118h-162zM154 395l40 -118h159l34 118
h-233zM587 395l34 -118h158l40 118h-232zM487 677l-76 -264h152zM200 259l80 -236l68 236h-148zM626 259l68 -236l79 236h-147z" />
    <glyph glyph-name="afii57636" unicode="&#x20aa;" horiz-adv-x="818" 
d="M90 0v700h194q113 0 177.5 -73t64.5 -211v-154h-20v153q0 131 -57.5 199t-161.5 68h-177v-682h-20zM728 700v-700h-184q-115 0 -183.5 73.5t-68.5 210.5v154h20v-153q0 -129 62 -198t167 -69h167v682h20z" />
    <glyph glyph-name="dong" unicode="&#x20ab;" horiz-adv-x="562" 
d="M459 601h-205v18h205v81h20v-81h68v-18h-68v-601h-20v78q-90 -90 -197 -90q-101 0 -156.5 65t-55.5 191t55.5 191t156.5 65q107 0 197 -90v191zM459 102v284q-36 40 -87.5 68t-102.5 28q-199 0 -199 -238t199 -238q51 0 102.5 28t87.5 68zM468 -109v-18h-324v18h324z" />
    <glyph glyph-name="Euro" unicode="&#x20ac;" horiz-adv-x="693" 
d="M76 350q0 26 3 52h-59v18h61q19 130 100.5 211t198.5 81q176 0 267 -140l-17 -11q-88 133 -250 133q-108 0 -184.5 -76t-94.5 -198h360l-6 -18h-356q-3 -26 -3 -52q0 -28 3 -54h325l-6 -18h-317q19 -122 95 -197t184 -75q162 0 250 133l17 -11q-91 -140 -267 -140
q-116 0 -197.5 80.5t-101.5 209.5h-61v18h59q-3 26 -3 54z" />
    <glyph glyph-name="afii61248" unicode="&#x2105;" horiz-adv-x="978" 
d="M550 215q0 98 53 161.5t141 63.5t141 -63.5t53 -161.5t-53 -161.5t-141 -63.5t-141 63.5t-53 161.5zM570 215q0 -93 48 -150t126 -57t126 57t48 150t-48 150t-126 57t-126 -57t-48 -150zM305 -12l-16 11l402 716l16 -11zM40 487q0 101 56.5 163t144.5 62q113 0 169 -94
l-17 -10q-51 86 -152 86q-80 0 -130.5 -55.5t-50.5 -151.5t50.5 -151.5t130.5 -55.5q101 0 152 86l17 -10q-56 -94 -169 -94q-88 0 -144.5 62t-56.5 163z" />
    <glyph glyph-name="uni2109" unicode="&#x2109;" horiz-adv-x="753" 
d="M10 591q0 50 35.5 85.5t85.5 35.5t85.5 -35.5t35.5 -85.5t-35.5 -85.5t-85.5 -35.5t-85.5 35.5t-35.5 85.5zM30 591q0 -43 29.5 -73t71.5 -30t71.5 30t29.5 73t-29.5 73t-71.5 30t-71.5 -30t-29.5 -73zM318 0v700h405v-18h-385v-308h353v-18h-353v-356h-20z" />
    <glyph glyph-name="afii61289" unicode="&#x2113;" horiz-adv-x="425" 
d="M363 41l12 -17q-48 -36 -110 -36q-84 0 -132 79q-42 -23 -75 -33l-8 20q35 11 72 31q-53 104 -53 294q0 148 50.5 240.5t123.5 92.5q120 0 120 -220q0 -125 -55.5 -238t-158.5 -178q43 -70 114 -70q54 0 100 35zM343 492q0 98 -25.5 150t-74.5 52q-61 0 -107.5 -85.5
t-46.5 -229.5q0 -184 50 -284q97 60 150.5 167.5t53.5 229.5z" />
    <glyph glyph-name="afii61352" unicode="&#x2116;" horiz-adv-x="892" 
d="M90 0v700h18l315 -652v652h20v-700h-18l-315 652v-652h-20zM847 18v-18h-350v18h350zM505 323q0 92 44 148t123 56t123 -56t44 -148t-44 -148t-123 -56t-123 56t-44 148zM525 323q0 -89 39 -137.5t108 -48.5t108 48.5t39 137.5t-39 137.5t-108 48.5t-108 -48.5
t-39 -137.5z" />
    <glyph glyph-name="uni2117" unicode="&#x2117;" horiz-adv-x="834" 
d="M60 350q0 150 105 256t252 106t252 -106t105 -256t-105 -256t-252 -106t-252 106t-105 256zM80 350q0 -141 99.5 -241.5t237.5 -100.5t237.5 100.5t99.5 241.5t-99.5 241.5t-237.5 100.5t-237.5 -100.5t-99.5 -241.5zM572 417q0 56 -36.5 89.5t-103.5 33.5h-121v-246h121
q67 0 103.5 33.5t36.5 89.5zM436 276h-125v-145h-20v427h145q72 0 114 -37.5t42 -103.5t-42 -103.5t-114 -37.5z" />
    <glyph glyph-name="uni2120" unicode="&#x2120;" horiz-adv-x="675" 
d="M609 700v-322h-20v280l-122 -210h-13l-122 210v-280h-20v322h17l131 -229l132 229h17zM32 425l16 12q16 -20 43.5 -33.5t55.5 -13.5q44 0 66 19.5t22 50.5q0 29 -23.5 48.5t-70.5 35.5q-49 17 -69 36.5t-20 49.5q0 34 25 54t68 20q68 0 102 -48l-15 -11q-31 41 -85 41
q-36 0 -55.5 -15t-19.5 -41q0 -22 16 -37t59 -31q58 -21 83 -43.5t25 -58.5q0 -40 -28.5 -63t-78.5 -23q-70 0 -116 51z" />
    <glyph glyph-name="uni2121" unicode="&#x2121;" horiz-adv-x="856" 
d="M646 270h-309q2 108 44 175t110 67q69 0 112 -68t43 -174zM202 0v682h-187v18h392v-18h-185v-682h-20zM751 0v730h20v-730h-20zM651 70l-17 11q-51 -75 -131 -75q-83 0 -123.5 69t-42.5 177h329v19q0 114 -49.5 186.5t-125.5 72.5q-77 0 -125.5 -73t-48.5 -196
q0 -122 47.5 -197.5t139.5 -75.5q91 0 147 82z" />
    <glyph glyph-name="trademark" unicode="&#x2122;" horiz-adv-x="658" 
d="M129 379v303h-109v18h237v-18h-108v-303h-20zM592 700v-322h-20v280l-122 -210h-13l-122 210v-280h-20v322h17l131 -229l132 229h17z" />
    <glyph glyph-name="Omega" unicode="&#x2126;" horiz-adv-x="696" 
d="M348 712q137 0 215 -97t78 -245q0 -114 -55.5 -204.5t-143.5 -147.5h185v-18h-217v16q97 61 154 150.5t57 203.5q0 142 -72.5 233t-200.5 91t-200.5 -91t-72.5 -233q0 -114 57 -203.5t154 -150.5v-16h-217v18h185q-88 56 -143.5 147t-55.5 205q0 148 78 245t215 97z" />
    <glyph glyph-name="estimated" unicode="&#x212e;" horiz-adv-x="758" 
d="M620 81l15 -14q-83 -79 -220 -79q-96 0 -167 28t-112.5 79t-61 114.5t-19.5 140.5q0 99 37.5 180.5t114 131.5t178.5 50q148 0 233 -105t85 -263v-6h-499v-275q79 -57 211 -57q127 0 205 75zM382 694q-108 0 -178 -58v-278h355v278q-70 58 -177 58z" />
    <glyph glyph-name="onethird" unicode="&#x2153;" horiz-adv-x="950" 
d="M204 678l-98 -75l-11 16l109 82h20v-464h-20v441zM282 -12l-16 11l402 716l16 -11zM751 10q57 0 86.5 31t29.5 74q0 57 -39 87.5t-115 30.5h-31v18h33q67 0 106 29.5t39 75.5q0 44 -26 70.5t-78 26.5q-63 0 -110 -48l-13 12q54 54 123 54q58 0 91 -32.5t33 -82.5
q0 -44 -29.5 -74t-71.5 -39q49 -11 78.5 -43.5t29.5 -84.5q0 -54 -35.5 -88.5t-100.5 -34.5q-83 0 -138 62l14 13q24 -26 58 -41.5t66 -15.5z" />
    <glyph glyph-name="twothirds" unicode="&#x2154;" horiz-adv-x="950" 
d="M751 10q57 0 86.5 31t29.5 74q0 57 -39 87.5t-115 30.5h-31v18h33q67 0 106 29.5t39 75.5q0 44 -26 70.5t-78 26.5q-63 0 -110 -48l-13 12q54 54 123 54q58 0 91 -32.5t33 -82.5q0 -44 -29.5 -74t-71.5 -39q49 -11 78.5 -43.5t29.5 -84.5q0 -54 -35.5 -88.5t-100.5 -34.5
q-83 0 -138 62l14 13q24 -26 58 -41.5t66 -15.5zM320 237h-264v20q110 92 189 195q51 67 51 131q0 52 -30.5 79.5t-79.5 27.5q-74 0 -126 -54l-14 11q58 61 139 61q60 0 95.5 -34t35.5 -90q0 -69 -56 -144q-74 -99 -176 -183h236v-20zM282 -12l-16 11l402 716l16 -11z" />
    <glyph glyph-name="onefifth" unicode="&#x2155;" horiz-adv-x="950" 
d="M204 678l-98 -75l-11 16l109 82h20v-464h-20v441zM282 -12l-16 11l402 716l16 -11zM732 10q61 0 99.5 33.5t38.5 94.5q0 60 -39 94t-106 34q-48 0 -91 -19l-3 2v214h231v-18h-211v-176q31 15 76 15q71 0 117 -39t46 -107q0 -70 -43 -108t-115 -38q-82 0 -135 53l13 13
q24 -24 58.5 -36t63.5 -12z" />
    <glyph glyph-name="twofifths" unicode="&#x2156;" horiz-adv-x="950" 
d="M320 237h-264v20q110 92 189 195q51 67 51 131q0 52 -30.5 79.5t-79.5 27.5q-74 0 -126 -54l-14 11q58 61 139 61q60 0 95.5 -34t35.5 -90q0 -69 -56 -144q-74 -99 -176 -183h236v-20zM282 -12l-16 11l402 716l16 -11zM732 10q61 0 99.5 33.5t38.5 94.5q0 60 -39 94
t-106 34q-48 0 -91 -19l-3 2v214h231v-18h-211v-176q31 15 76 15q71 0 117 -39t46 -107q0 -70 -43 -108t-115 -38q-82 0 -135 53l13 13q24 -24 58.5 -36t63.5 -12z" />
    <glyph glyph-name="threefifths" unicode="&#x2157;" horiz-adv-x="950" 
d="M191 247q57 0 86.5 31t29.5 74q0 57 -39 87.5t-115 30.5h-31v18h33q67 0 106 29.5t39 75.5q0 44 -26 70.5t-78 26.5q-63 0 -110 -48l-13 12q54 54 123 54q58 0 91 -32.5t33 -82.5q0 -44 -29.5 -74t-71.5 -39q49 -11 78.5 -43.5t29.5 -84.5q0 -54 -35.5 -88.5
t-100.5 -34.5q-83 0 -138 62l14 13q24 -26 58 -41.5t66 -15.5zM282 -12l-16 11l402 716l16 -11zM732 10q61 0 99.5 33.5t38.5 94.5q0 60 -39 94t-106 34q-48 0 -91 -19l-3 2v214h231v-18h-211v-176q31 15 76 15q71 0 117 -39t46 -107q0 -70 -43 -108t-115 -38q-82 0 -135 53
l13 13q24 -24 58.5 -36t63.5 -12z" />
    <glyph glyph-name="fourfifths" unicode="&#x2158;" horiz-adv-x="950" 
d="M277 346h-240v18l239 336h21v-336h56v-18h-56v-109h-20v109zM277 669l-217 -305h217v305zM282 -12l-16 11l402 716l16 -11zM732 10q61 0 99.5 33.5t38.5 94.5q0 60 -39 94t-106 34q-48 0 -91 -19l-3 2v214h231v-18h-211v-176q31 15 76 15q71 0 117 -39t46 -107
q0 -70 -43 -108t-115 -38q-82 0 -135 53l13 13q24 -24 58.5 -36t63.5 -12z" />
    <glyph glyph-name="onesixth" unicode="&#x2159;" horiz-adv-x="950" 
d="M204 678l-98 -75l-11 16l109 82h20v-464h-20v441zM282 -12l-16 11l402 716l16 -11zM776 453q-149 0 -152 -221q25 26 61.5 42t71.5 16q69 0 110 -41t41 -110q0 -65 -42.5 -106t-102.5 -41q-70 0 -114.5 56t-44.5 166q0 257 174 257q55 0 95 -41l-13 -12q-38 35 -84 35z
M757 272q-36 0 -72 -16.5t-61 -45.5q2 -103 40.5 -151.5t97.5 -48.5q57 0 91.5 37.5t34.5 91.5q0 59 -33.5 96t-97.5 37z" />
    <glyph glyph-name="fivesixths" unicode="&#x215a;" horiz-adv-x="950" 
d="M172 247q61 0 99.5 33.5t38.5 94.5q0 60 -39 94t-106 34q-48 0 -91 -19l-3 2v214h231v-18h-211v-176q31 15 76 15q71 0 117 -39t46 -107q0 -70 -43 -108t-115 -38q-82 0 -135 53l13 13q24 -24 58.5 -36t63.5 -12zM776 453q-149 0 -152 -221q25 26 61.5 42t71.5 16
q69 0 110 -41t41 -110q0 -65 -42.5 -106t-102.5 -41q-70 0 -114.5 56t-44.5 166q0 257 174 257q55 0 95 -41l-13 -12q-38 35 -84 35zM757 272q-36 0 -72 -16.5t-61 -45.5q2 -103 40.5 -151.5t97.5 -48.5q57 0 91.5 37.5t34.5 91.5q0 59 -33.5 96t-97.5 37zM282 -12l-16 11
l402 716l16 -11z" />
    <glyph glyph-name="oneeighth" unicode="&#x215b;" horiz-adv-x="950" 
d="M204 678l-98 -75l-11 16l109 82h20v-464h-20v441zM282 -12l-16 11l402 716l16 -11zM887 360q0 -79 -68 -128q48 -23 68 -50t20 -65q0 -60 -41.5 -92.5t-109.5 -32.5t-111 35.5t-43 92.5q0 94 90 143q-70 36 -70 97q0 47 38 79t96 32t94.5 -32t36.5 -79zM731 246
q-7 2 -19 8q-90 -45 -90 -134q0 -50 38 -80t96 -30t94.5 27.5t36.5 80.5q0 24 -9 42.5t-31 33t-34.5 21t-45 18t-36.5 13.5zM784 247q10 -4 14 -6q69 44 69 119q0 40 -30.5 66.5t-80.5 26.5q-54 0 -84 -27t-30 -66q0 -37 32 -60.5t110 -52.5z" />
    <glyph glyph-name="threeeighths" unicode="&#x215c;" horiz-adv-x="950" 
d="M191 247q57 0 86.5 31t29.5 74q0 57 -39 87.5t-115 30.5h-31v18h33q67 0 106 29.5t39 75.5q0 44 -26 70.5t-78 26.5q-63 0 -110 -48l-13 12q54 54 123 54q58 0 91 -32.5t33 -82.5q0 -44 -29.5 -74t-71.5 -39q49 -11 78.5 -43.5t29.5 -84.5q0 -54 -35.5 -88.5
t-100.5 -34.5q-83 0 -138 62l14 13q24 -26 58 -41.5t66 -15.5zM282 -12l-16 11l402 716l16 -11zM887 360q0 -79 -68 -128q48 -23 68 -50t20 -65q0 -60 -41.5 -92.5t-109.5 -32.5t-111 35.5t-43 92.5q0 94 90 143q-70 36 -70 97q0 47 38 79t96 32t94.5 -32t36.5 -79zM731 246
q-7 2 -19 8q-90 -45 -90 -134q0 -50 38 -80t96 -30t94.5 27.5t36.5 80.5q0 24 -9 42.5t-31 33t-34.5 21t-45 18t-36.5 13.5zM784 247q10 -4 14 -6q69 44 69 119q0 40 -30.5 66.5t-80.5 26.5q-54 0 -84 -27t-30 -66q0 -37 32 -60.5t110 -52.5z" />
    <glyph glyph-name="fiveeighths" unicode="&#x215d;" horiz-adv-x="950" 
d="M172 247q61 0 99.5 33.5t38.5 94.5q0 60 -39 94t-106 34q-48 0 -91 -19l-3 2v214h231v-18h-211v-176q31 15 76 15q71 0 117 -39t46 -107q0 -70 -43 -108t-115 -38q-82 0 -135 53l13 13q24 -24 58.5 -36t63.5 -12zM282 -12l-16 11l402 716l16 -11zM887 360q0 -79 -68 -128
q48 -23 68 -50t20 -65q0 -60 -41.5 -92.5t-109.5 -32.5t-111 35.5t-43 92.5q0 94 90 143q-70 36 -70 97q0 47 38 79t96 32t94.5 -32t36.5 -79zM731 246q-7 2 -19 8q-90 -45 -90 -134q0 -50 38 -80t96 -30t94.5 27.5t36.5 80.5q0 24 -9 42.5t-31 33t-34.5 21t-45 18
t-36.5 13.5zM784 247q10 -4 14 -6q69 44 69 119q0 40 -30.5 66.5t-80.5 26.5q-54 0 -84 -27t-30 -66q0 -37 32 -60.5t110 -52.5z" />
    <glyph glyph-name="seveneighths" unicode="&#x215e;" horiz-adv-x="950" 
d="M329 682l-190 -445h-22l191 445h-268v18h289v-18zM282 -12l-16 11l402 716l16 -11zM887 360q0 -79 -68 -128q48 -23 68 -50t20 -65q0 -60 -41.5 -92.5t-109.5 -32.5t-111 35.5t-43 92.5q0 94 90 143q-70 36 -70 97q0 47 38 79t96 32t94.5 -32t36.5 -79zM731 246
q-7 2 -19 8q-90 -45 -90 -134q0 -50 38 -80t96 -30t94.5 27.5t36.5 80.5q0 24 -9 42.5t-31 33t-34.5 21t-45 18t-36.5 13.5zM784 247q10 -4 14 -6q69 44 69 119q0 40 -30.5 66.5t-80.5 26.5q-54 0 -84 -27t-30 -66q0 -37 32 -60.5t110 -52.5z" />
    <glyph glyph-name="uni215F" unicode="&#x215f;" horiz-adv-x="950" 
d="M204 678l-98 -75l-11 16l109 82h20v-464h-20v441zM282 -12l-16 11l402 716l16 -11z" />
    <glyph glyph-name="arrowleft" unicode="&#x2190;" horiz-adv-x="860" 
d="M824 342v-20h-621l46 -160l-213 170l213 163l-46 -153h621z" />
    <glyph glyph-name="arrowup" unicode="&#x2191;" horiz-adv-x="860" 
d="M437 -38h-20v621l-153 -46l163 213l170 -213l-160 46v-621z" />
    <glyph glyph-name="arrowright" unicode="&#x2192;" horiz-adv-x="860" 
d="M36 322v20h621l-46 153l213 -163l-213 -170l46 160h-621z" />
    <glyph glyph-name="arrowdown" unicode="&#x2193;" horiz-adv-x="860" 
d="M420 750h20v-621l160 46l-170 -213l-163 213l153 -46v621z" />
    <glyph glyph-name="arrowboth" unicode="&#x2194;" horiz-adv-x="860" 
d="M204 342h453l-46 153l213 -163l-213 -170l46 160h-453l46 -160l-213 170l213 163z" />
    <glyph glyph-name="arrowupdn" unicode="&#x2195;" horiz-adv-x="860" 
d="M264 175l153 -46v453l-153 -46l163 213l170 -213l-160 46v-453l160 46l-170 -213z" />
    <glyph glyph-name="arrowupdnbse" unicode="&#x21a8;" horiz-adv-x="860" 
d="M237 -68h386v-20h-386v20zM264 175l153 -46v453l-153 -46l163 213l170 -213l-160 46v-453l160 46l-170 -213z" />
    <glyph glyph-name="partialdiff" unicode="&#x2202;" horiz-adv-x="580" 
d="M272 435q62 0 119.5 -26.5t98.5 -72.5q-3 358 -218 358q-100 0 -161 -78l-16 12q66 84 175 84q240 0 240 -388q0 -166 -65.5 -251t-169.5 -85q-90 0 -152.5 61.5t-62.5 160.5q0 103 57 164t155 61zM275 6q88 0 150 73.5t65 229.5q-40 53 -98.5 80.5t-120.5 27.5
q-90 0 -140.5 -57.5t-50.5 -149.5q0 -88 56 -146t139 -58z" />
    <glyph glyph-name="Delta" unicode="&#x2206;" horiz-adv-x="664" 
d="M44 18h576l-288 661zM638 0h-612l-6 8l307 704h10l307 -704z" />
    <glyph glyph-name="product" unicode="&#x220f;" horiz-adv-x="667" 
d="M90 -111v851h487v-851h-20v833h-447v-833h-20z" />
    <glyph glyph-name="summation" unicode="&#x2211;" horiz-adv-x="606" 
d="M50 -93l262 424l-262 391v18h526v-18h-505l261 -386v-12l-260 -417h504v-18h-526v18z" />
    <glyph glyph-name="minus" unicode="&#x2212;" horiz-adv-x="618" 
d="M548 323h-478v18h478v-18z" />
    <glyph glyph-name="uni2215" unicode="&#x2215;" horiz-adv-x="178" 
d="M-104 -12l-16 11l402 716l16 -11z" />
    <glyph glyph-name="uni2219" unicode="&#x2219;" horiz-adv-x="280" 
d="M114 299q0 11 8 18.5t18 7.5t18 -7.5t8 -18.5t-8 -18.5t-18 -7.5t-18 7.5t-8 18.5z" />
    <glyph glyph-name="radical" unicode="&#x221a;" horiz-adv-x="603" 
d="M110 374h100l153 -344l178 740h22l-189 -770h-18l-162 356h-84v18z" />
    <glyph glyph-name="infinity" unicode="&#x221e;" horiz-adv-x="768" 
d="M570 192q-51 0 -93 27t-93 97q-53 -70 -94 -97t-92 -27q-54 0 -91 39t-37 101t37 101t91 39q51 0 92 -27t94 -97q51 70 93 97t93 27q54 0 91 -39t37 -101t-37 -101t-91 -39zM569 454q-43 0 -83 -26t-91 -96q51 -70 90.5 -96t83.5 -26q46 0 77.5 33.5t31.5 88.5
t-31.5 88.5t-77.5 33.5zM199 210q44 0 82 25.5t91 96.5q-53 71 -91 96.5t-82 25.5q-46 0 -77.5 -33.5t-31.5 -88.5t31.5 -88.5t77.5 -33.5z" />
    <glyph glyph-name="orthogonal" unicode="&#x221f;" horiz-adv-x="630" 
d="M600 18v-18h-490v575h19v-557h471z" />
    <glyph glyph-name="intersection" unicode="&#x2229;" horiz-adv-x="744" 
d="M372 617q128 0 195 -90t67 -261v-266h-20v268q0 161 -62.5 246t-179.5 85t-179.5 -85t-62.5 -246v-268h-20v266q0 171 67 261t195 90z" />
    <glyph glyph-name="integral" unicode="&#x222b;" horiz-adv-x="406" 
d="M193 -78v688q0 77 36 108.5t100 31.5q30 0 57 -3v-18q-30 3 -60 3q-54 0 -83.5 -26t-29.5 -98v-688q0 -77 -36 -108.5t-100 -31.5q-30 0 -57 3v18q30 -3 60 -3q54 0 83.5 26t29.5 98z" />
    <glyph glyph-name="approxequal" unicode="&#x2248;" horiz-adv-x="618" 
d="M301 423q-72 55 -129 55q-80 0 -98 -106l-20 4q21 120 120 120q65 0 143 -63q72 -55 129 -55q80 0 98 106l20 -4q-21 -120 -120 -120q-65 0 -143 63zM301 235q-72 55 -129 55q-80 0 -98 -106l-20 4q21 120 120 120q65 0 143 -63q72 -55 129 -55q80 0 98 106l20 -4
q-21 -120 -120 -120q-65 0 -143 63z" />
    <glyph glyph-name="notequal" unicode="&#x2260;" horiz-adv-x="618" 
d="M116 12l-19 11l114 190h-141v18h152l122 202h-274v18h285l112 186l18 -11l-105 -175h168v-18h-179l-121 -202h300v-18h-311z" />
    <glyph glyph-name="equivalence" unicode="&#x2261;" horiz-adv-x="618" 
d="M548 493h-478v18h478v-18zM548 153h-478v18h478v-18zM548 323h-478v18h478v-18z" />
    <glyph glyph-name="lessequal" unicode="&#x2264;" horiz-adv-x="618" 
d="M70 349l461 221l7 -17l-443 -213l443 -213l-7 -17l-461 221v18zM548 0h-478v18h478v-18z" />
    <glyph glyph-name="greaterequal" unicode="&#x2265;" horiz-adv-x="618" 
d="M87 570l461 -221v-18l-461 -221l-7 17l443 213l-443 213zM548 0h-478v18h478v-18z" />
    <glyph glyph-name="house" unicode="&#x2302;" horiz-adv-x="702" 
d="M592 328v-328h-482v328l241 288zM130 18h442v304l-221 265l-221 -265v-304z" />
    <glyph glyph-name="revlogicalnot" unicode="&#x2310;" horiz-adv-x="618" 
d="M551 424v-18h-454v-232h-20v250h474z" />
    <glyph glyph-name="uni2318" unicode="&#x2318;" horiz-adv-x="881" 
d="M515 249v148h-149v-148h149zM515 415v86q0 69 33 110t94 41q59 0 94 -35.5t35 -93.5q0 -60 -42.5 -93t-108.5 -33h-85v-148h85q66 0 108.5 -33t42.5 -93q0 -58 -35 -93.5t-94 -35.5q-61 0 -94 41t-33 110v86h-149v-86q0 -69 -33 -110t-94 -41q-59 0 -94 35.5t-35 93.5
q0 60 42 93t109 33h85v148h-85q-67 0 -109 33t-42 93q0 58 35 93.5t94 35.5q61 0 94 -41t33 -110v-86h149zM346 415v86q0 63 -28 98t-79 35t-80 -31t-29 -80q0 -51 35 -79.5t96 -28.5h85zM346 145v86h-85q-61 0 -96 -28.5t-35 -79.5q0 -49 29 -80t80 -31t79 35t28 98z
M535 501v-86h85q61 0 96 28.5t35 79.5q0 49 -29 80t-80 31t-79 -35t-28 -98zM535 231v-86q0 -63 28 -98t79 -35t80 31t29 80q0 51 -35 79.5t-96 28.5h-85z" />
    <glyph glyph-name="lozenge" unicode="&#x25ca;" horiz-adv-x="588" 
d="M294 -157l-244 459l244 459l244 -459zM294 721l-222 -419l222 -419l222 419z" />
    <glyph glyph-name="H18533" unicode="&#x25cf;" horiz-adv-x="1000" 
d="M162 326q0 140 99 239t239 99t239 -99t99 -239t-99 -239t-239 -99t-239 99t-99 239z" />
    <glyph glyph-name="fi" horiz-adv-x="541" 
d="M160 588v-70h291v-518h-20v500h-271v-500h-20v500h-120v18h120v72q0 77 36 108.5t100 31.5q30 0 57 -3v-18q-30 3 -60 3q-54 0 -83.5 -26t-29.5 -98zM415 684q0 10 7.5 18t18.5 8t18.5 -8t7.5 -18t-7.5 -18t-18.5 -8t-18.5 8t-7.5 18z" />
    <glyph glyph-name="fl" horiz-adv-x="527" 
d="M160 584v-66h163v-18h-163v-500h-20v500h-120v18h120v68q0 144 137 144q56 0 140 -18v18h20v-730h-20v696q-84 16 -143 16q-53 0 -83.5 -27.5t-30.5 -100.5z" />
    <glyph glyph-name="commaaccent" horiz-adv-x="400" 
d="M217 -60l19 -6l-63 -183l-19 6z" />
    <glyph glyph-name="zero.tnum" horiz-adv-x="586" 
d="M60 350q0 165 61.5 263.5t171.5 98.5t171.5 -98.5t61.5 -263.5t-61.5 -263.5t-171.5 -98.5t-171.5 98.5t-61.5 263.5zM80 350q0 -159 55 -251.5t158 -92.5t158 92.5t55 251.5t-55 251.5t-158 92.5t-158 -92.5t-55 -251.5z" />
    <glyph glyph-name="one.tnum" horiz-adv-x="386" 
d="M226 677l-193 -128l-13 14l206 137h20v-700h-20v677z" />
    <glyph glyph-name="two.tnum" horiz-adv-x="537" 
d="M446 534q0 68 -49 114t-127 46q-127 0 -215 -100l-15 12q45 51 105 78.5t123 27.5q88 0 143 -50t55 -128q0 -64 -28 -119.5t-97 -139.5q-99 -119 -256 -257h387v-18h-415v18q183 163 269 269q65 79 92.5 133.5t27.5 113.5z" />
    <glyph glyph-name="three.tnum" horiz-adv-x="538" 
d="M453 175q0 84 -55.5 134t-162.5 50h-74v18h76q91 0 148 45t57 123q0 60 -44 104.5t-134 44.5q-116 0 -201 -96l-16 14q96 100 217 100q97 0 147.5 -48t50.5 -119q0 -73 -45 -120t-115 -57q82 -13 126.5 -63t44.5 -131q0 -82 -55.5 -134.5t-158.5 -52.5q-140 0 -234 105
l16 13q88 -100 218 -100q95 0 144.5 48.5t49.5 121.5z" />
    <glyph glyph-name="four.tnum" horiz-adv-x="560" 
d="M405 175h-373v18l373 507h20v-507h96v-18h-96v-175h-20v175zM405 667l-349 -474h349v474z" />
    <glyph glyph-name="five.tnum" horiz-adv-x="550" 
d="M266 6q99 0 151.5 55.5t52.5 136.5q0 88 -56.5 140t-153.5 52q-78 0 -154 -27l-6 3v334h356v-18h-336v-296q71 22 140 22q102 0 166 -56t64 -154q0 -89 -58 -149.5t-166 -60.5q-130 0 -211 99l15 12q37 -45 89 -69t107 -24z" />
    <glyph glyph-name="six.tnum" horiz-adv-x="560" 
d="M298 435q98 0 155 -61t57 -164q0 -99 -62.5 -160.5t-152.5 -61.5q-104 0 -169.5 85t-65.5 251q0 388 240 388q109 0 175 -84l-16 -12q-61 78 -161 78q-215 0 -218 -359q40 48 98.5 74t119.5 26zM295 6q83 0 139 58t56 146q0 93 -51 150t-144 57q-60 0 -117 -27t-98 -81
q3 -156 65 -229.5t150 -73.5z" />
    <glyph glyph-name="seven.tnum" horiz-adv-x="480" 
d="M447 682l-300 -682h-24l300 682h-413v18h437v-18z" />
    <glyph glyph-name="eight.tnum" horiz-adv-x="570" 
d="M510 174q0 -85 -64.5 -135.5t-161.5 -50.5q-98 0 -162 50.5t-64 139.5q0 66 38 124t107 93q-59 28 -87.5 65t-28.5 88q0 73 57.5 118.5t139.5 45.5q90 0 143.5 -47t53.5 -119q0 -114 -127 -189q84 -36 120 -80.5t36 -102.5zM78 179q0 -80 57.5 -126.5t148.5 -46.5
q92 0 149 46.5t57 122.5q0 64 -49.5 109t-164.5 83q-26 8 -53 20q-73 -34 -109 -91t-36 -117zM461 546q0 64 -47 106t-130 42q-75 0 -126 -40.5t-51 -105.5q0 -58 44 -97t133 -68q30 -10 50 -18q127 70 127 181z" />
    <glyph glyph-name="nine.tnum" horiz-adv-x="560" 
d="M262 265q-98 0 -155 61t-57 164q0 99 62.5 160.5t152.5 61.5q104 0 169.5 -85t65.5 -251q0 -388 -244 -388q-95 0 -164 61l15 15q63 -58 149 -58q220 0 224 359q-40 -48 -98.5 -74t-119.5 -26zM480 391q-2 81 -21 141.5t-50 94.5t-67 50.5t-77 16.5q-83 0 -139 -58
t-56 -146q0 -93 51 -150t144 -57q60 0 117 27t98 81z" />
    <glyph glyph-name="parenleft.case" horiz-adv-x="319" 
d="M138 350q0 253 134 440l17 -9q-131 -186 -131 -431t131 -431l-17 -9q-134 187 -134 440z" />
    <glyph glyph-name="parenright.case" horiz-adv-x="319" 
d="M181 350q0 -253 -134 -440l-17 9q131 186 131 431t-131 431l17 9q134 -187 134 -440z" />
    <glyph glyph-name="hyphen.case" horiz-adv-x="406" 
d="M336 341h-266v18h266v-18z" />
    <glyph glyph-name="at.case" horiz-adv-x="958" 
d="M640 229v234q-29 38 -72.5 63t-91.5 25q-166 0 -166 -205t166 -205q48 0 91.5 25t72.5 63zM644 206q-31 -36 -75.5 -59.5t-94.5 -23.5q-89 0 -136.5 57t-47.5 166t47.5 166t136.5 57q96 0 166 -79v67h20v-309q0 -48 22.5 -73t63.5 -25q112 0 112 228q0 79 -24.5 149
t-71 124t-120.5 86t-165 32q-114 0 -200 -57t-129.5 -150.5t-43.5 -208.5q0 -64 16 -125.5t48.5 -115.5t77.5 -95t108.5 -64.5t136.5 -23.5q129 0 238 78l9 -16q-113 -80 -247 -80q-125 0 -219.5 63.5t-141 162.5t-46.5 216q0 183 106 308.5t287 125.5q125 0 218 -59
t138 -150.5t45 -199.5q0 -246 -133 -246q-81 0 -101 74z" />
    <glyph glyph-name="bracketleft.case" horiz-adv-x="383" 
d="M130 -90v880h223v-18h-203v-844h203v-18h-223z" />
    <glyph glyph-name="bracketright.case" horiz-adv-x="383" 
d="M253 790v-880h-223v18h203v844h-203v18h223z" />
    <glyph glyph-name="braceleft.case" horiz-adv-x="355" 
d="M186 -4v243q0 44 -24 73t-62 29v18q38 0 62 29t24 73v243q0 46 18 66t59 20h72v-18h-72q-32 0 -44.5 -15t-12.5 -51v-250q0 -38 -19 -67.5t-54 -38.5q35 -9 54 -38.5t19 -67.5v-250q0 -36 12.5 -51t44.5 -15h72v-18h-72q-41 0 -59 20t-18 66z" />
    <glyph glyph-name="braceright.case" horiz-adv-x="355" 
d="M169 239v-243q0 -46 -18 -66t-59 -20h-72v18h72q32 0 44.5 15t12.5 51v250q0 38 19 67.5t54 38.5q-35 9 -54 38.5t-19 67.5v250q0 36 -12.5 51t-44.5 15h-72v18h72q41 0 59 -20t18 -66v-243q0 -44 24 -73t62 -29v-18q-38 0 -62 -29t-24 -73z" />
    <glyph glyph-name="exclamdown.case" horiz-adv-x="220" 
d="M120 0h-20v531h20v-531zM84 686q0 10 8 18t18 8t18 -8t8 -18t-8 -18t-18 -8t-18 8t-8 18z" />
    <glyph glyph-name="guillemotleft.case" horiz-adv-x="487" 
d="M50 345v10l206 159l11 -15l-194 -149l194 -149l-11 -15zM220 345v10l206 159l11 -15l-194 -149l194 -149l-11 -15z" />
    <glyph glyph-name="periodcentered.case" horiz-adv-x="280" 
d="M114 313q0 11 8 18.5t18 7.5t18 -7.5t8 -18.5t-8 -18.5t-18 -7.5t-18 7.5t-8 18.5z" />
    <glyph glyph-name="guillemotright.case" horiz-adv-x="487" 
d="M437 355v-10l-206 -159l-11 15l194 149l-194 149l11 15zM267 355v-10l-206 -159l-11 15l194 149l-194 149l11 15z" />
    <glyph glyph-name="questiondown.case" horiz-adv-x="492" 
d="M309 686q0 -10 -7.5 -18t-18.5 -8t-18.5 8t-7.5 18t7.5 18t18.5 8t18.5 -8t7.5 -18zM244 -12q-82 0 -128.5 44.5t-46.5 111.5q0 103 121 190q50 36 66.5 74t16.5 102v21h20v-25q0 -68 -20 -110t-71 -78q-61 -43 -86.5 -85t-25.5 -91q0 -61 42.5 -98.5t117.5 -37.5
q101 0 176 93l16 -13q-82 -98 -198 -98z" />
    <glyph glyph-name="endash.case" horiz-adv-x="500" 
d="M500 341h-500v18h500v-18z" />
    <glyph glyph-name="emdash.case" horiz-adv-x="1000" 
d="M1000 341h-1000v18h1000v-18z" />
    <glyph glyph-name="bullet.case" horiz-adv-x="398" 
d="M100 350q0 42 28.5 70.5t70.5 28.5t70.5 -28.5t28.5 -70.5t-28.5 -70.5t-70.5 -28.5t-70.5 28.5t-28.5 70.5z" />
    <glyph glyph-name="guilsinglleft.case" horiz-adv-x="317" 
d="M50 345v10l206 159l11 -15l-194 -149l194 -149l-11 -15z" />
    <glyph glyph-name="guilsinglright.case" horiz-adv-x="317" 
d="M267 355v-10l-206 -159l-11 15l194 149l-194 149l11 15z" />
    <glyph glyph-name="zero.numerator" 
d="M37 469q0 112 41.5 175.5t116.5 63.5t116.5 -63.5t41.5 -175.5t-41.5 -175.5t-116.5 -63.5t-116.5 63.5t-41.5 175.5zM57 469q0 -104 36 -162.5t102 -58.5t102 58.5t36 162.5t-36 162.5t-102 58.5t-102 -58.5t-36 -162.5z" />
    <glyph glyph-name="one.numerator" 
d="M204 678l-98 -75l-11 16l109 82h20v-464h-20v441z" />
    <glyph glyph-name="two.numerator" 
d="M320 237h-264v20q110 92 189 195q51 67 51 131q0 52 -30.5 79.5t-79.5 27.5q-74 0 -126 -54l-14 11q58 61 139 61q60 0 95.5 -34t35.5 -90q0 -69 -56 -144q-74 -99 -176 -183h236v-20z" />
    <glyph glyph-name="three.numerator" 
d="M191 247q57 0 86.5 31t29.5 74q0 57 -39 87.5t-115 30.5h-31v18h33q67 0 106 29.5t39 75.5q0 44 -26 70.5t-78 26.5q-63 0 -110 -48l-13 12q54 54 123 54q58 0 91 -32.5t33 -82.5q0 -44 -29.5 -74t-71.5 -39q49 -11 78.5 -43.5t29.5 -84.5q0 -54 -35.5 -88.5
t-100.5 -34.5q-83 0 -138 62l14 13q24 -26 58 -41.5t66 -15.5z" />
    <glyph glyph-name="four.numerator" 
d="M257 346h-240v18l239 336h21v-336h56v-18h-56v-109h-20v109zM257 669l-217 -305h217v305z" />
    <glyph glyph-name="five.numerator" 
d="M172 247q61 0 99.5 33.5t38.5 94.5q0 60 -39 94t-106 34q-48 0 -91 -19l-3 2v214h231v-18h-211v-176q31 15 76 15q71 0 117 -39t46 -107q0 -70 -43 -108t-115 -38q-82 0 -135 53l13 13q24 -24 58.5 -36t63.5 -12z" />
    <glyph glyph-name="six.numerator" 
d="M216 690q-149 0 -152 -221q25 26 61.5 42t71.5 16q69 0 110 -41t41 -110q0 -65 -42.5 -106t-102.5 -41q-70 0 -114.5 56t-44.5 166q0 257 174 257q55 0 95 -41l-13 -12q-38 35 -84 35zM197 509q-36 0 -72 -16.5t-61 -45.5q2 -103 40.5 -151.5t97.5 -48.5q57 0 91.5 37.5
t34.5 91.5q0 59 -33.5 96t-97.5 37z" />
    <glyph glyph-name="seven.numerator" 
d="M329 682l-190 -445h-22l191 445h-268v18h289v-18z" />
    <glyph glyph-name="eight.numerator" 
d="M327 597q0 -79 -68 -128q48 -23 68 -50t20 -65q0 -60 -41.5 -92.5t-109.5 -32.5t-111 35.5t-43 92.5q0 94 90 143q-70 36 -70 97q0 47 38 79t96 32t94.5 -32t36.5 -79zM171 483q-7 2 -19 8q-90 -45 -90 -134q0 -50 38 -80t96 -30t94.5 27.5t36.5 80.5q0 24 -9 42.5
t-31 33t-34.5 21t-45 18t-36.5 13.5zM224 484q10 -4 14 -6q69 44 69 119q0 40 -30.5 66.5t-80.5 26.5q-54 0 -84 -27t-30 -66q0 -37 32 -60.5t110 -52.5z" />
    <glyph glyph-name="nine.numerator" 
d="M68 278l14 13q41 -44 103 -44q70 0 105.5 53.5t37.5 167.5q-26 -26 -62 -42t-71 -16q-69 0 -110 41t-41 110q0 65 42.5 106t102.5 41q70 0 114.5 -56t44.5 -166q0 -133 -41.5 -195t-123.5 -62q-30 0 -62 13t-53 36zM195 428q79 0 133 62q-2 102 -41 151t-97 49
q-57 0 -91.5 -37.5t-34.5 -91.5q0 -59 33.5 -96t97.5 -37z" />
    <glyph glyph-name="zero.denominator" 
d="M37 232q0 112 41.5 175.5t116.5 63.5t116.5 -63.5t41.5 -175.5t-41.5 -175.5t-116.5 -63.5t-116.5 63.5t-41.5 175.5zM57 232q0 -104 36 -162.5t102 -58.5t102 58.5t36 162.5t-36 162.5t-102 58.5t-102 -58.5t-36 -162.5z" />
    <glyph glyph-name="one.denominator" 
d="M204 441l-98 -75l-11 16l109 82h20v-464h-20v441z" />
    <glyph glyph-name="two.denominator" 
d="M320 0h-264v20q110 92 189 195q51 67 51 131q0 52 -30.5 79.5t-79.5 27.5q-74 0 -126 -54l-14 11q58 61 139 61q60 0 95.5 -34t35.5 -90q0 -69 -56 -144q-74 -99 -176 -183h236v-20z" />
    <glyph glyph-name="three.denominator" 
d="M191 10q57 0 86.5 31t29.5 74q0 57 -39 87.5t-115 30.5h-31v18h33q67 0 106 29.5t39 75.5q0 44 -26 70.5t-78 26.5q-63 0 -110 -48l-13 12q54 54 123 54q58 0 91 -32.5t33 -82.5q0 -44 -29.5 -74t-71.5 -39q49 -11 78.5 -43.5t29.5 -84.5q0 -54 -35.5 -88.5t-100.5 -34.5
q-83 0 -138 62l14 13q24 -26 58 -41.5t66 -15.5z" />
    <glyph glyph-name="four.denominator" 
d="M257 109h-240v18l239 336h21v-336h56v-18h-56v-109h-20v109zM257 432l-217 -305h217v305z" />
    <glyph glyph-name="five.denominator" 
d="M172 10q61 0 99.5 33.5t38.5 94.5q0 60 -39 94t-106 34q-48 0 -91 -19l-3 2v214h231v-18h-211v-176q31 15 76 15q71 0 117 -39t46 -107q0 -70 -43 -108t-115 -38q-82 0 -135 53l13 13q24 -24 58.5 -36t63.5 -12z" />
    <glyph glyph-name="six.denominator" 
d="M216 453q-149 0 -152 -221q25 26 61.5 42t71.5 16q69 0 110 -41t41 -110q0 -65 -42.5 -106t-102.5 -41q-70 0 -114.5 56t-44.5 166q0 257 174 257q55 0 95 -41l-13 -12q-38 35 -84 35zM197 272q-36 0 -72 -16.5t-61 -45.5q2 -103 40.5 -151.5t97.5 -48.5q57 0 91.5 37.5
t34.5 91.5q0 59 -33.5 96t-97.5 37z" />
    <glyph glyph-name="seven.denominator" 
d="M329 445l-190 -445h-22l191 445h-268v18h289v-18z" />
    <glyph glyph-name="eight.denominator" 
d="M327 360q0 -79 -68 -128q48 -23 68 -50t20 -65q0 -60 -41.5 -92.5t-109.5 -32.5t-111 35.5t-43 92.5q0 94 90 143q-70 36 -70 97q0 47 38 79t96 32t94.5 -32t36.5 -79zM171 246q-7 2 -19 8q-90 -45 -90 -134q0 -50 38 -80t96 -30t94.5 27.5t36.5 80.5q0 24 -9 42.5
t-31 33t-34.5 21t-45 18t-36.5 13.5zM224 247q10 -4 14 -6q69 44 69 119q0 40 -30.5 66.5t-80.5 26.5q-54 0 -84 -27t-30 -66q0 -37 32 -60.5t110 -52.5z" />
    <glyph glyph-name="nine.denominator" 
d="M68 41l14 13q41 -44 103 -44q70 0 105.5 53.5t37.5 167.5q-26 -26 -62 -42t-71 -16q-69 0 -110 41t-41 110q0 65 42.5 106t102.5 41q70 0 114.5 -56t44.5 -166q0 -133 -41.5 -195t-123.5 -62q-30 0 -62 13t-53 36zM195 191q79 0 133 62q-2 102 -41 151t-97 49
q-57 0 -91.5 -37.5t-34.5 -91.5q0 -59 33.5 -96t97.5 -37z" />
    </font>
</defs>
</svg>
