<?xml version="1.0" standalone="no"?>
<!DOCTYPE svg PUBLIC "-//W3C//DTD SVG 1.1//EN" "http://www.w3.org/Graphics/SVG/1.1/DTD/svg11.dtd" >
<svg>
<metadata>
Created by FontForge 20110222 at Fri Jan 30 11:55:07 2015
 By deploy user
Core Sans A 55 Medium
</metadata>
<defs>
<font id="CoreSansA55Medium" horiz-adv-x="420" >
  <font-face 
    font-family="Core Sans A 55 Medium"
    font-weight="400"
    font-stretch="normal"
    units-per-em="1000"
    panose-1="2 11 6 3 3 3 2 2 2 4"
    ascent="800"
    descent="-200"
    x-height="518"
    cap-height="700"
    bbox="-423 -267 1070 1005"
    underline-thickness="24"
    underline-position="-183"
    unicode-range="U+0008-FB04"
  />
<missing-glyph horiz-adv-x="500" 
d="M430 0h-360v750h360v-750zM145 65h210v620h-210v-620z" />
    <glyph glyph-name="f_f" unicode="ff" horiz-adv-x="685" 
d="M601 730q42 0 70 -4v-93q-25 3 -53 3q-46 0 -64 -19t-18 -60v-39h125v-94h-125v-424h-118v424h-195v-424h-118v424h-91v94h91v45q0 86 44 126.5t139 40.5q42 0 70 -4v-93q-26 3 -53 3q-46 0 -64 -19t-18 -60v-39h195v45q0 86 44 126.5t139 40.5z" />
    <glyph glyph-name="f_i" unicode="fi" horiz-adv-x="614" 
d="M424 0v424h-201v-424h-118v424h-91v94h91v45q0 87 43.5 127t139.5 40q38 0 63 -3v-94q-23 3 -48 3q-44 0 -62 -19t-18 -60v-39h319v-518h-118zM556 667q0 -31 -21 -51.5t-52 -20.5t-52 20.5t-21 51.5t21 51.5t52 20.5t52 -20.5t21 -51.5z" />
    <glyph glyph-name="f_l" unicode="fl" horiz-adv-x="604" 
d="M284 730q62 0 130 -17v17h118v-730h-118v625q-57 11 -111 11q-44 0 -62 -19t-18 -60v-39h124v-94h-124v-424h-118v424h-91v94h91v45q0 87 42.5 127t136.5 40z" />
    <glyph glyph-name="f_f_i" unicode="ffi" horiz-adv-x="927" 
d="M737 0v424h-201v-424h-118v424h-195v-424h-118v424h-91v94h91v45q0 86 44 126.5t139 40.5q42 0 70 -4v-93q-26 3 -53 3q-46 0 -64 -19t-18 -60v-39h195v45q0 87 43.5 127t139.5 40q37 0 63 -3v-94q-22 3 -48 3q-44 0 -62 -19t-18 -60v-39h319v-518h-118zM869 667
q0 -31 -21 -51.5t-52 -20.5t-52 20.5t-21 51.5t21 51.5t52 20.5t52 -20.5t21 -51.5z" />
    <glyph glyph-name="f_f_l" unicode="ffl" horiz-adv-x="917" 
d="M597 730q62 0 130 -17v17h118v-730h-118v625q-57 11 -111 11q-44 0 -62 -19t-18 -60v-39h124v-94h-124v-424h-118v424h-195v-424h-118v424h-91v94h91v45q0 86 44 126.5t139 40.5q42 0 70 -4v-93q-26 3 -53 3q-46 0 -64 -19t-18 -60v-39h195v45q0 87 42.5 127t136.5 40z
" />
    <glyph glyph-name=".notdef" horiz-adv-x="500" 
d="M430 0h-360v750h360v-750zM145 65h210v620h-210v-620z" />
    <glyph glyph-name=".null" horiz-adv-x="0" 
 />
    <glyph glyph-name=".null" horiz-adv-x="0" 
 />
    <glyph glyph-name=".null" horiz-adv-x="0" 
 />
    <glyph glyph-name="nonmarkingreturn" horiz-adv-x="333" 
 />
    <glyph glyph-name="CR" unicode="&#x9;" horiz-adv-x="237" 
 />
    <glyph glyph-name="CR" unicode="&#xd;" horiz-adv-x="237" 
 />
    <glyph glyph-name="space" unicode=" " horiz-adv-x="300" 
 />
    <glyph glyph-name="exclam" unicode="!" horiz-adv-x="300" 
d="M78 61q0 31 21 52t51 21t51 -21t21 -52t-21 -52t-51 -21t-51 21t-21 52zM108 182l-24 342v176h132v-176l-24 -342h-84z" />
    <glyph glyph-name="quotedbl" unicode="&#x22;" horiz-adv-x="512" 
d="M110 422l-14 278h121v-32l-27 -246h-80zM309 422l-14 278h121v-32l-27 -246h-80z" />
    <glyph glyph-name="numbersign" unicode="#" horiz-adv-x="706" 
d="M309 535h151l29 165h111l-29 -165h102v-93h-118l-31 -181h109v-93h-125l-28 -168h-111l28 168h-151l-28 -168h-111l28 168h-102v93h118l31 181h-108v93h124l28 165h111zM444 442h-151l-31 -181h151z" />
    <glyph glyph-name="dollar" unicode="$" horiz-adv-x="612" 
d="M280 -98v88q-154 16 -247 121l90 70q67 -73 157 -85v215q-3 0 -4 1q-112 31 -162 82t-50 129q0 83 57 134t159 55v88h67v-92q118 -19 196 -107l-86 -66q-48 51 -110 66v-192q119 -35 171 -84t52 -133q0 -89 -59.5 -143.5t-163.5 -59.5v-87h-67zM444 184q0 38 -21 61.5
t-76 43.5v-193q44 6 70.5 30t26.5 58zM190 526q0 -32 19.5 -54.5t70.5 -41.5v175q-90 -9 -90 -79z" />
    <glyph glyph-name="percent" unicode="%" horiz-adv-x="895" 
d="M725 666l-487 -680l-68 47l487 680zM403 528q0 -79 -44 -129t-119 -50t-119 50t-44 129t44 129t119 50t119 -50t44 -129zM177 528q0 -91 63 -91t63 91t-63 91t-63 -91zM492 171q0 79 44 129t119 50t119 -50t44 -129t-44 -129t-119 -50t-119 50t-44 129zM718 171
q0 91 -63 91t-63 -91t63 -91t63 91z" />
    <glyph glyph-name="ampersand" unicode="&#x26;" horiz-adv-x="661" 
d="M486 0l-33 39q-80 -51 -179 -51q-101 0 -163.5 51.5t-62.5 134.5q0 61 29 107t98 87q-40 52 -55 90.5t-15 80.5q0 78 52.5 125.5t140.5 47.5q79 0 133 -48t54 -127q0 -111 -141 -196l121 -140q41 53 66 112l100 -46q-38 -86 -92 -151l100 -116h-153zM288 93q48 0 94 30
l-137 161q-42 -29 -56.5 -52.5t-14.5 -53.5q0 -39 29 -62t85 -23zM229 536q0 -20 2 -31.5t12.5 -32.5t32.5 -50q50 28 69 55.5t19 63.5q0 30 -18.5 50t-47.5 20q-32 0 -50.5 -21t-18.5 -54z" />
    <glyph glyph-name="quotesingle" unicode="'" horiz-adv-x="303" 
d="M105 422l-14 278h121v-32l-27 -246h-80z" />
    <glyph glyph-name="parenleft" unicode="(" horiz-adv-x="375" 
d="M96 310q0 249 157 443l78 -38q-125 -187 -125 -405t125 -405l-78 -38q-157 194 -157 443z" />
    <glyph glyph-name="parenright" unicode=")" horiz-adv-x="375" 
d="M279 310q0 -249 -157 -443l-78 38q125 187 125 405t-125 405l78 38q157 -194 157 -443z" />
    <glyph glyph-name="asterisk" unicode="*" horiz-adv-x="550" 
d="M326 554l-10 -152l125 85l52 -89l-136 -66l136 -67l-52 -89l-125 85l10 -151h-102l10 151l-125 -85l-52 89l136 67l-136 66l52 89l125 -85l-10 152h102z" />
    <glyph glyph-name="plus" unicode="+" horiz-adv-x="616" 
d="M253 82v203h-196v93h196v202h110v-202h196v-93h-196v-203h-110z" />
    <glyph glyph-name="comma" unicode="," horiz-adv-x="308" 
d="M41 -133l79 277l112 -38l-109 -265z" />
    <glyph glyph-name="hyphen" unicode="-" horiz-adv-x="404" 
d="M347 281h-290v101h290v-101z" />
    <glyph glyph-name="period" unicode="." horiz-adv-x="308" 
d="M82 61q0 31 21 52t51 21t51 -21t21 -52t-21 -52t-51 -21t-51 21t-21 52z" />
    <glyph glyph-name="slash" unicode="/" horiz-adv-x="518" 
d="M516 711l-425 -839l-89 53l424 838z" />
    <glyph glyph-name="zero" unicode="0" horiz-adv-x="616" 
d="M570 350q0 -163 -67 -262.5t-195 -99.5t-195 99.5t-67 262.5t67 262.5t195 99.5t195 -99.5t67 -262.5zM172 350q0 -256 136 -256t136 256t-136 256t-136 -256z" />
    <glyph glyph-name="one" unicode="1" horiz-adv-x="616" 
d="M282 0v559l-121 -87l-71 78l206 150h110v-700h-124z" />
    <glyph glyph-name="two" unicode="2" horiz-adv-x="616" 
d="M299 712q105 0 167.5 -55t62.5 -153q0 -168 -279 -400h289v-104h-464v93q69 58 118.5 103.5t102 102t80 108t27.5 95.5q0 50 -28 77t-81 27q-89 0 -154 -79l-85 64q44 56 108.5 88.5t135.5 32.5z" />
    <glyph glyph-name="three" unicode="3" horiz-adv-x="616" 
d="M309 712q99 0 160.5 -49t61.5 -133q0 -61 -31.5 -104t-80.5 -61q136 -42 136 -174q0 -90 -66.5 -146.5t-182.5 -56.5q-81 0 -147.5 30.5t-110.5 84.5l86 70q66 -79 162 -79q61 0 97 27t36 75q0 59 -43.5 87t-114.5 28h-66v104h65q61 0 98 27t37 75q0 42 -27.5 65.5
t-77.5 23.5q-86 0 -147 -70l-84 68q96 108 240 108z" />
    <glyph glyph-name="four" unicode="4" horiz-adv-x="616" 
d="M363 140h-327v99l336 461h115v-456h89v-104h-89v-140h-124v140zM363 509l-193 -265h193v265z" />
    <glyph glyph-name="five" unicode="5" horiz-adv-x="616" 
d="M134 311l-25 16v373h407v-104h-283v-166q41 11 89 11q104 0 167 -62.5t63 -169.5q0 -97 -64.5 -159t-179.5 -62q-158 0 -247 113l85 70q65 -77 155 -77q56 0 90.5 32.5t34.5 85.5q0 59 -38.5 91t-105.5 32q-78 0 -148 -24z" />
    <glyph glyph-name="six" unicode="6" horiz-adv-x="616" 
d="M325 606q-128 0 -140 -208q68 59 155 59q101 0 163 -65.5t62 -170.5q0 -104 -67 -168.5t-177 -64.5q-123 0 -192 84.5t-69 261.5q0 192 68 285t191 93q141 0 217 -111l-89 -59q-48 64 -122 64zM316 353q-74 0 -133 -57q8 -202 135 -202q121 0 121 129q0 62 -31.5 96
t-91.5 34z" />
    <glyph glyph-name="seven" unicode="7" horiz-adv-x="616" 
d="M539 598l-265 -598h-132l265 596h-343v104h475v-102z" />
    <glyph glyph-name="eight" unicode="8" horiz-adv-x="616" 
d="M77 523q0 83 61.5 136t167.5 53q105 0 168.5 -53.5t63.5 -134.5q0 -103 -93 -160q122 -65 122 -177q0 -89 -71.5 -143.5t-188.5 -54.5q-118 0 -188.5 55t-70.5 151q0 120 112 181q-83 60 -83 147zM174 195q0 -47 38 -73.5t96 -26.5q59 0 96 23t37 64q0 46 -34.5 70.5
t-152.5 74.5q-80 -49 -80 -132zM412 514q0 43 -28 67.5t-76 24.5q-49 0 -77 -22.5t-28 -60.5q0 -34 31.5 -59.5t115.5 -57.5q62 40 62 108z" />
    <glyph glyph-name="nine" unicode="9" horiz-adv-x="616" 
d="M431 302q-68 -59 -155 -59q-101 0 -163 65.5t-62 170.5q0 104 67 168.5t177 64.5q123 0 192 -84.5t69 -261.5q0 -195 -74 -286.5t-203 -91.5q-121 0 -201 79l80 76q46 -49 121 -49q137 0 152 208zM300 347q74 0 133 57q-8 202 -135 202q-121 0 -121 -129q0 -62 31.5 -96
t91.5 -34z" />
    <glyph glyph-name="colon" unicode=":" horiz-adv-x="308" 
d="M82 61q0 31 21 52t51 21t51 -21t21 -52t-21 -52t-51 -21t-51 21t-21 52zM82 457q0 31 21 52t51 21t51 -21t21 -52t-21 -52t-51 -21t-51 21t-21 52z" />
    <glyph glyph-name="semicolon" unicode=";" horiz-adv-x="308" 
d="M82 457q0 31 21 52t51 21t51 -21t21 -52t-21 -52t-51 -21t-51 21t-21 52zM27 -133l79 277l112 -38l-109 -265z" />
    <glyph glyph-name="less" unicode="&#x3c;" horiz-adv-x="616" 
d="M102 293v76l362 229l50 -87l-290 -180l290 -180l-50 -87z" />
    <glyph glyph-name="equal" unicode="=" horiz-adv-x="616" 
d="M559 402h-502v92h502v-92zM559 169h-502v92h502v-92z" />
    <glyph glyph-name="greater" unicode="&#x3e;" horiz-adv-x="616" 
d="M514 369v-76l-362 -229l-50 87l290 180l-290 180l50 87z" />
    <glyph glyph-name="question" unicode="?" horiz-adv-x="546" 
d="M266 712q99 0 156 -47.5t57 -132.5q0 -114 -117 -192q-37 -24 -50.5 -48t-13.5 -65v-45h-124v53q0 58 22.5 100t74.5 76q47 31 64.5 56.5t17.5 60.5q0 37 -25.5 57.5t-71.5 20.5q-76 0 -132 -66l-81 66q38 48 97.5 77t125.5 29zM164 61q0 31 21 52t51 21t51 -21t21 -52
t-21 -52t-51 -21t-51 21t-21 52z" />
    <glyph glyph-name="at" unicode="@" horiz-adv-x="963" 
d="M257 271q0 100 49.5 161.5t143.5 61.5q75 0 131 -56v44h105v-286q0 -32 14.5 -49t38.5 -17q82 0 82 164q0 153 -98 253t-241 100q-145 0 -242.5 -104t-97.5 -269t97 -269.5t243 -104.5q60 0 119.5 20.5t104.5 56.5l37 -57q-108 -84 -261 -84q-186 0 -299.5 125.5
t-113.5 312.5t113.5 312.5t299.5 125.5q183 0 297.5 -120.5t114.5 -297.5q0 -106 -43 -173t-131 -67q-92 0 -125 62q-60 -68 -145 -68q-94 0 -143.5 61.5t-49.5 161.5zM469 130q64 0 112 56v169q-49 56 -112 56q-59 0 -83 -36.5t-24 -103.5q0 -68 24 -104.5t83 -36.5z" />
    <glyph glyph-name="A" unicode="A" horiz-adv-x="698" 
d="M276 700h146l257 -700h-133l-55 160h-285l-54 -160h-133zM349 579l-107 -315h214z" />
    <glyph glyph-name="B" unicode="B" horiz-adv-x="640" 
d="M77 0v700h250q114 0 177 -51.5t63 -136.5q0 -50 -25.5 -88.5t-72.5 -54.5q64 -15 98.5 -59t34.5 -107q0 -95 -66.5 -149t-193.5 -54h-265zM201 596v-184h118q62 0 92 22t30 70t-30 70t-92 22h-118zM201 104h131q75 0 109.5 25t34.5 77t-34.5 77t-109.5 25h-131v-204z" />
    <glyph glyph-name="C" unicode="C" horiz-adv-x="694" 
d="M43 350q0 162 91.5 262t241.5 100q95 0 169.5 -40.5t115.5 -111.5l-102 -55q-67 101 -178 101q-93 0 -152.5 -67.5t-59.5 -188.5t59.5 -188.5t152.5 -67.5q111 0 178 101l102 -55q-41 -71 -115.5 -111.5t-169.5 -40.5q-150 0 -241.5 100t-91.5 262z" />
    <glyph glyph-name="D" unicode="D" horiz-adv-x="698" 
d="M319 0h-242v700h242q156 0 246 -95t90 -255t-90 -255t-246 -95zM201 596v-492h110q103 0 160.5 63.5t57.5 182.5t-57.5 182.5t-160.5 63.5h-110z" />
    <glyph glyph-name="E" unicode="E" horiz-adv-x="578" 
d="M77 0v700h452v-104h-328v-184h293v-104h-293v-204h337v-104h-461z" />
    <glyph glyph-name="F" unicode="F" horiz-adv-x="548" 
d="M77 0v700h452v-104h-328v-204h293v-104h-293v-288h-124z" />
    <glyph glyph-name="G" unicode="G" horiz-adv-x="720" 
d="M43 350q0 162 91 262t235 100q198 0 290 -151l-102 -55q-65 100 -184 100q-87 0 -145.5 -68t-58.5 -188q0 -119 62 -187.5t157 -68.5q108 0 154 62v116h-158v104h278v-265q-95 -123 -276 -123q-152 0 -247.5 101t-95.5 261z" />
    <glyph glyph-name="H" unicode="H" horiz-adv-x="718" 
d="M77 0v700h124v-278h316v278h124v-700h-124v318h-316v-318h-124z" />
    <glyph glyph-name="I" unicode="I" horiz-adv-x="288" 
d="M82 700h124v-700h-124v700z" />
    <glyph glyph-name="J" unicode="J" horiz-adv-x="592" 
d="M268 94q60 0 91.5 40t31.5 110v456h124v-453q0 -120 -63 -189.5t-180 -69.5q-82 0 -145 37t-99 106l100 55q50 -92 140 -92z" />
    <glyph glyph-name="K" unicode="K" horiz-adv-x="644" 
d="M604 700l-224 -288l255 -412h-137l-191 317l-106 -136v-181h-124v700h124v-344l261 344h142z" />
    <glyph glyph-name="L" unicode="L" horiz-adv-x="548" 
d="M77 0v700h124v-596h328v-104h-452z" />
    <glyph glyph-name="M" unicode="M" horiz-adv-x="864" 
d="M470 127h-76l-193 356v-483h-124v700h122l233 -423l233 423h122v-700h-124v483z" />
    <glyph glyph-name="N" unicode="N" horiz-adv-x="720" 
d="M77 0v700h120l322 -494v494h124v-700h-120l-322 494v-494h-124z" />
    <glyph glyph-name="O" unicode="O" horiz-adv-x="730" 
d="M687 350q0 -157 -86.5 -259.5t-235.5 -102.5t-235.5 102.5t-86.5 259.5t86.5 259.5t235.5 102.5t235.5 -102.5t86.5 -259.5zM561 350q0 118 -53 187t-143 69t-143 -69t-53 -187t53 -187t143 -69t143 69t53 187z" />
    <glyph glyph-name="P" unicode="P" horiz-adv-x="613" 
d="M580 475q0 -110 -71.5 -167t-199.5 -57h-108v-251h-124v700h232q128 0 199.5 -57t71.5 -168zM454 475q0 63 -37.5 92t-114.5 29h-101v-241h101q77 0 114.5 29t37.5 91z" />
    <glyph glyph-name="Q" unicode="Q" horiz-adv-x="730" 
d="M687 350q0 -145 -75 -245l94 -101l-82 -76l-95 102q-72 -42 -164 -42q-149 0 -235.5 102.5t-86.5 259.5t86.5 259.5t235.5 102.5t235.5 -102.5t86.5 -259.5zM561 350q0 118 -53 187t-143 69t-143 -69t-53 -187t53 -187t143 -69q48 0 86 20l-96 105l82 76l91 -99
q33 64 33 154z" />
    <glyph glyph-name="R" unicode="R" horiz-adv-x="650" 
d="M588 489q0 -74 -37.5 -124t-107.5 -70l188 -295h-136l-171 279h-123v-279h-124v700h244q129 0 198 -53.5t69 -157.5zM462 489q0 56 -33.5 81.5t-106.5 25.5h-121v-213h121q73 0 106.5 25.5t33.5 80.5z" />
    <glyph glyph-name="S" unicode="S" horiz-adv-x="612" 
d="M318 94q57 0 91.5 25t34.5 65q0 48 -34 74t-134 54q-112 31 -162 82t-50 129q0 86 60.5 137.5t168.5 51.5q154 0 250 -111l-86 -66q-66 71 -155 71q-55 0 -83.5 -21.5t-28.5 -58.5q0 -39 30 -64.5t113 -48.5q126 -35 181.5 -85t55.5 -136q0 -94 -66 -149t-179 -55
q-181 0 -292 123l90 70q79 -87 195 -87z" />
    <glyph glyph-name="T" unicode="T" horiz-adv-x="582" 
d="M229 0v596h-210v104h544v-104h-210v-596h-124z" />
    <glyph glyph-name="U" unicode="U" horiz-adv-x="732" 
d="M366 -12q-132 0 -210.5 74.5t-78.5 215.5v422h124v-422q0 -184 165 -184t165 184v422h124v-422q0 -141 -78.5 -215.5t-210.5 -74.5z" />
    <glyph glyph-name="V" unicode="V" horiz-adv-x="698" 
d="M152 700l197 -559l197 559h133l-257 -700h-146l-257 700h133z" />
    <glyph glyph-name="W" unicode="W" horiz-adv-x="1014" 
d="M441 700h132l135 -535l158 535h129l-206 -700h-154l-128 508l-128 -508h-154l-206 700h129l158 -535z" />
    <glyph glyph-name="X" unicode="X" horiz-adv-x="638" 
d="M485 0l-166 267l-166 -267h-138l228 363l-210 337h138l148 -239l148 239h138l-210 -337l228 -363h-138z" />
    <glyph glyph-name="Y" unicode="Y" horiz-adv-x="634" 
d="M379 0h-124v276l-241 424h134l169 -308l169 308h134l-241 -424v-276z" />
    <glyph glyph-name="Z" unicode="Z" horiz-adv-x="579" 
d="M31 99l357 496h-338v105h488v-99l-357 -496h367v-105h-517v99z" />
    <glyph glyph-name="bracketleft" unicode="[" horiz-adv-x="418" 
d="M115 -130v880h284v-87h-174v-707h174v-86h-284z" />
    <glyph glyph-name="backslash" unicode="\" horiz-adv-x="518" 
d="M426 -128l-424 839l89 52l425 -838z" />
    <glyph glyph-name="bracketright" unicode="]" horiz-adv-x="418" 
d="M303 750v-880h-284v86h174v707h-174v87h284z" />
    <glyph glyph-name="asciicircum" unicode="^" horiz-adv-x="626" 
d="M267 702h92l190 -291l-85 -57l-151 221l-151 -221l-85 57z" />
    <glyph glyph-name="underscore" unicode="_" horiz-adv-x="500" 
d="M0 -170v68h500v-68h-500z" />
    <glyph glyph-name="grave" unicode="`" horiz-adv-x="396" 
d="M253 554l-160 129l68 65l142 -143z" />
    <glyph glyph-name="a" unicode="a" horiz-adv-x="565" 
d="M384 276v49q0 52 -27 80t-91 28q-74 0 -132 -48l-68 68q91 77 214 77q121 0 171.5 -58.5t50.5 -166.5v-305h-118v43q-57 -55 -152 -55q-85 0 -140 47.5t-55 121.5t55 121.5t140 47.5q87 0 152 -50zM262 84q75 0 122 46v54q-51 46 -122 46q-49 0 -77 -18.5t-28 -54.5
t28 -54.5t77 -18.5z" />
    <glyph glyph-name="b" unicode="b" horiz-adv-x="609" 
d="M565 259q0 -126 -59 -198.5t-165 -72.5q-91 0 -156 62v-50h-118v730h118v-262q65 62 156 62q106 0 165 -72.5t59 -198.5zM311 433q-34 0 -68.5 -14.5t-57.5 -40.5v-238q23 -26 57.5 -40.5t68.5 -14.5q134 0 134 174t-134 174z" />
    <glyph glyph-name="c" unicode="c" horiz-adv-x="546" 
d="M38 259q0 121 69.5 196t186.5 75q152 0 226 -126l-91 -48q-51 78 -130 78q-65 0 -103 -46.5t-38 -128.5t38 -128.5t103 -46.5q79 0 130 78l91 -48q-74 -126 -226 -126q-117 0 -186.5 75t-69.5 196z" />
    <glyph glyph-name="d" unicode="d" horiz-adv-x="609" 
d="M44 259q0 126 59 198.5t165 72.5q91 0 156 -62v262h118v-730h-118v50q-65 -62 -156 -62q-106 0 -165 72.5t-59 198.5zM298 433q-134 0 -134 -174t134 -174q34 0 68.5 14.5t57.5 40.5v238q-23 26 -57.5 40.5t-68.5 14.5z" />
    <glyph glyph-name="e" unicode="e" horiz-adv-x="580" 
d="M542 256q0 -29 -2 -40h-382q8 -60 48.5 -96t100.5 -36q76 0 129 66l83 -59q-76 -103 -211 -103q-121 0 -195.5 75.5t-74.5 195.5q0 119 70 195t183 76q111 0 181 -76.5t70 -197.5zM291 434q-55 0 -90.5 -34t-43.5 -94h266q-4 58 -41 93t-91 35z" />
    <glyph glyph-name="f" unicode="f" horiz-adv-x="372" 
d="M288 730q42 0 70 -4v-93q-26 3 -53 3q-46 0 -64 -19t-18 -60v-39h125v-94h-125v-424h-118v424h-91v94h91v45q0 86 44 126.5t139 40.5z" />
    <glyph glyph-name="g" unicode="g" horiz-adv-x="609" 
d="M424 468v50h118v-496q0 -119 -63 -182.5t-178 -63.5q-151 0 -234 107l85 57q59 -73 143 -73q59 0 94 35.5t35 103.5v44q-65 -62 -156 -62q-106 0 -165 72.5t-59 198.5t59 198.5t165 72.5q91 0 156 -62zM298 433q-134 0 -134 -174t134 -174q34 0 68.5 14.5t57.5 40.5v238
q-23 26 -57.5 40.5t-68.5 14.5z" />
    <glyph glyph-name="h" unicode="h" horiz-adv-x="605" 
d="M324 434q-41 0 -78.5 -20.5t-60.5 -49.5v-364h-118v730h118v-272q72 72 174 72q84 0 133.5 -50.5t49.5 -143.5v-336h-118v319q0 115 -100 115z" />
    <glyph glyph-name="i" unicode="i" horiz-adv-x="262" 
d="M72 0v518h118v-518h-118zM204 667q0 -31 -21 -51.5t-52 -20.5t-52 20.5t-21 51.5t21 51.5t52 20.5t52 -20.5t21 -51.5z" />
    <glyph glyph-name="j" unicode="j" horiz-adv-x="262" 
d="M-4 -224q-28 0 -48 3v94q13 -1 44 -1q44 0 62 21t18 65v560h118v-547q0 -102 -45 -148.5t-149 -46.5zM204 667q0 -31 -21 -51.5t-52 -20.5t-52 20.5t-21 51.5t21 51.5t52 20.5t52 -20.5t21 -51.5z" />
    <glyph glyph-name="k" unicode="k" horiz-adv-x="553" 
d="M67 730h118v-443l200 231h137l-176 -200l202 -318h-130l-144 236l-89 -102v-134h-118v730z" />
    <glyph glyph-name="l" unicode="l" horiz-adv-x="262" 
d="M72 0v730h118v-730h-118z" />
    <glyph glyph-name="m" unicode="m" horiz-adv-x="897" 
d="M185 375v-375h-118v518h118v-52q71 64 158 64q102 0 142 -77q83 77 181 77q81 0 124.5 -49t43.5 -142v-339h-118v320q0 57 -20.5 85.5t-67.5 28.5q-33 0 -66.5 -18t-53.5 -46q2 -15 2 -46v-324h-118v320q0 58 -20 86t-68 28q-70 0 -119 -59z" />
    <glyph glyph-name="n" unicode="n" horiz-adv-x="605" 
d="M324 434q-41 0 -78.5 -20.5t-60.5 -49.5v-364h-118v518h118v-60q72 72 174 72q84 0 133.5 -50.5t49.5 -143.5v-336h-118v319q0 115 -100 115z" />
    <glyph glyph-name="o" unicode="o" horiz-adv-x="592" 
d="M554 259q0 -122 -70.5 -196.5t-187.5 -74.5t-187.5 74.5t-70.5 196.5t70.5 196.5t187.5 74.5t187.5 -74.5t70.5 -196.5zM434 259q0 81 -36.5 128t-101.5 47t-101.5 -47t-36.5 -128t36.5 -128t101.5 -47t101.5 47t36.5 128z" />
    <glyph glyph-name="p" unicode="p" horiz-adv-x="609" 
d="M565 259q0 -126 -59 -198.5t-165 -72.5q-91 0 -156 62v-262h-118v730h118v-50q65 62 156 62q106 0 165 -72.5t59 -198.5zM311 85q134 0 134 174t-134 174q-34 0 -68.5 -14.5t-57.5 -40.5v-238q23 -26 57.5 -40.5t68.5 -14.5z" />
    <glyph glyph-name="q" unicode="q" horiz-adv-x="609" 
d="M44 259q0 126 59 198.5t165 72.5q91 0 156 -62v50h118v-730h-118v262q-65 -62 -156 -62q-106 0 -165 72.5t-59 198.5zM298 85q34 0 68.5 14.5t57.5 40.5v238q-23 26 -57.5 40.5t-68.5 14.5q-134 0 -134 -174t134 -174z" />
    <glyph glyph-name="r" unicode="r" horiz-adv-x="388" 
d="M374 528v-98q-20 2 -42 2q-45 0 -84.5 -21t-62.5 -57v-354h-118v518h118v-63q56 75 156 75q13 0 33 -2z" />
    <glyph glyph-name="s" unicode="s" horiz-adv-x="511" 
d="M56 386q0 65 50 104.5t140 39.5q128 0 208 -82l-78 -64q-47 50 -120 50q-74 0 -74 -45q0 -23 24 -39t95 -37q87 -25 129.5 -65t42.5 -103q0 -73 -52 -115t-150 -42q-153 0 -243 100l83 66q68 -70 150 -70q86 0 86 55q0 29 -23 46t-89 36q-99 28 -139 66t-40 99z" />
    <glyph glyph-name="t" unicode="t" horiz-adv-x="375" 
d="M284 -12q-94 0 -136.5 44t-42.5 141v251h-91v94h91v155h118v-155h124v-94h-124v-255q0 -45 18 -65t63 -20q31 0 43 1v-94q-29 -3 -63 -3z" />
    <glyph glyph-name="u" unicode="u" horiz-adv-x="598" 
d="M299 -12q-111 0 -174 58t-63 172v300h118v-301q0 -65 33 -99t86 -34t86 34t33 99v301h118v-300q0 -114 -63 -172t-174 -58z" />
    <glyph glyph-name="v" unicode="v" horiz-adv-x="551" 
d="M341 0h-130l-197 518h124l138 -390l137 390h124z" />
    <glyph glyph-name="w" unicode="w" horiz-adv-x="820" 
d="M357 518h106l109 -367l111 367h123l-170 -518h-120l-106 357l-106 -357h-120l-170 518h124l110 -367z" />
    <glyph glyph-name="x" unicode="x" horiz-adv-x="530" 
d="M393 0l-128 194l-128 -194h-127l179 270l-162 248h127l111 -171l111 171h127l-162 -248l179 -270h-127z" />
    <glyph glyph-name="y" unicode="y" horiz-adv-x="546" 
d="M142 -212l80 216l-208 514h121l144 -361l132 361h121l-269 -730h-121z" />
    <glyph glyph-name="z" unicode="z" horiz-adv-x="476" 
d="M24 0v90l274 334h-258v94h402v-90l-274 -334h284v-94h-428z" />
    <glyph glyph-name="braceleft" unicode="{" horiz-adv-x="400" 
d="M159 1v165q0 46 -28.5 73t-71.5 27v87q43 0 71.5 27t28.5 73v112q0 100 32.5 142.5t116.5 42.5h73v-88h-68q-44 0 -44 -46v-145q0 -70 -21 -108t-79 -53q57 -15 78.5 -53t21.5 -109v-145q0 -45 44 -45h68v-88h-73q-149 0 -149 131z" />
    <glyph glyph-name="bar" unicode="|" horiz-adv-x="301" 
d="M106 -200v969h89v-969h-89z" />
    <glyph glyph-name="braceright" unicode="}" horiz-adv-x="400" 
d="M241 166v-165q0 -131 -149 -131h-73v88h68q44 0 44 45v145q0 71 21.5 109t78.5 53q-58 15 -79 53t-21 108v145q0 46 -44 46h-68v88h73q84 0 116.5 -42.5t32.5 -142.5v-112q0 -46 28.5 -73t71.5 -27v-87q-43 0 -71.5 -27t-28.5 -73z" />
    <glyph glyph-name="asciitilde" unicode="~" horiz-adv-x="616" 
d="M476 400l99 -16q-11 -66 -53 -107.5t-101 -41.5q-64 0 -130 44q-49 33 -84 33q-50 0 -67 -62l-99 16q11 66 53 107.5t101 41.5q64 0 130 -44q49 -33 84 -33q50 0 67 62z" />
    <glyph glyph-name="uni00A0" unicode="&#xa0;" horiz-adv-x="300" 
 />
    <glyph glyph-name="exclamdown" unicode="&#xa1;" horiz-adv-x="300" 
d="M222 457q0 -31 -21 -52t-51 -21t-51 21t-21 52t21 52t51 21t51 -21t21 -52zM192 336l24 -342v-176h-132v176l24 342h84z" />
    <glyph glyph-name="cent" unicode="&#xa2;" horiz-adv-x="546" 
d="M38 259q0 111 60 184.5t163 84.5v88h67v-88q127 -15 192 -124l-91 -48q-42 64 -101 75v-345q59 11 101 76l91 -48q-65 -109 -192 -124v-88h-67v88q-103 10 -163 83.5t-60 185.5zM158 259q0 -69 27 -113t76 -57v340q-48 -13 -75.5 -57.5t-27.5 -112.5z" />
    <glyph glyph-name="sterling" unicode="&#xa3;" horiz-adv-x="599" 
d="M340 712q63 0 120.5 -25.5t93.5 -70.5l-86 -67q-47 57 -119 57q-109 0 -109 -109v-103h196v-65h-196v-71q0 -105 -60 -154h390v-104h-532v96q78 56 78 147v86h-78v65h78v105q0 106 58 159.5t166 53.5z" />
    <glyph glyph-name="currency" unicode="&#xa4;" horiz-adv-x="718" 
d="M580 332q0 -62 -29 -112l90 -91l-74 -76l-90 92q-52 -33 -118 -33t-118 33l-90 -92l-74 76l90 91q-29 50 -29 112t29 112l-90 91l74 76l90 -92q52 33 118 33t118 -33l90 92l74 -76l-90 -91q29 -50 29 -112zM476 332q0 57 -32 92t-85 35t-85 -35t-32 -92t32 -92t85 -35
t85 35t32 92z" />
    <glyph glyph-name="yen" unicode="&#xa5;" horiz-adv-x="634" 
d="M379 0h-124v152h-199v60h199v63h-199v60h165l-207 365h134l169 -308l169 308h134l-208 -365h166v-60h-199v-63h199v-60h-199v-152z" />
    <glyph glyph-name="brokenbar" unicode="&#xa6;" horiz-adv-x="301" 
d="M106 224h89v-326h-89v326zM106 690h89v-327h-89v327z" />
    <glyph glyph-name="section" unicode="&#xa7;" horiz-adv-x="510" 
d="M61 299q0 93 94 134q-95 43 -95 130q0 66 54 107.5t141 41.5q120 0 193 -79l-73 -57q-42 46 -112 46q-37 0 -59.5 -16.5t-22.5 -42.5q0 -25 27.5 -43.5t91.5 -37.5q83 -24 119.5 -62.5t36.5 -97.5q0 -44 -25.5 -78.5t-68.5 -52.5q44 -19 69.5 -52.5t25.5 -78.5
q0 -71 -53 -115.5t-149 -44.5q-134 0 -212 90l75 59q55 -60 131 -60q43 0 65 18t22 47t-22 47t-82 34q-171 43 -171 164zM260 227q36 8 58 31t22 54q0 66 -84 85q-36 -8 -58 -30.5t-22 -54.5q0 -66 84 -85z" />
    <glyph glyph-name="dieresis" unicode="&#xa8;" horiz-adv-x="396" 
d="M33 647q0 26 18.5 44.5t44.5 18.5t44.5 -18.5t18.5 -44.5t-18.5 -44.5t-44.5 -18.5t-44.5 18.5t-18.5 44.5zM237 647q0 26 18.5 44.5t44.5 18.5t44.5 -18.5t18.5 -44.5t-18.5 -44.5t-44.5 -18.5t-44.5 18.5t-18.5 44.5z" />
    <glyph glyph-name="copyright" unicode="&#xa9;" horiz-adv-x="826" 
d="M51 350q0 150 106 256t256 106t256 -106t106 -256t-106 -256t-256 -106t-256 106t-106 256zM719 350q0 129 -89.5 219.5t-216.5 90.5t-216.5 -90.5t-89.5 -219.5t89.5 -219.5t216.5 -90.5t216.5 90.5t89.5 219.5zM308 350q0 -63 30.5 -100.5t84.5 -37.5q63 0 104 60
l70 -36q-57 -103 -178 -103q-92 0 -148.5 61t-56.5 156t56.5 156t148.5 61q121 0 178 -103l-70 -36q-41 60 -104 60q-54 0 -84.5 -37.5t-30.5 -100.5z" />
    <glyph glyph-name="ordfeminine" unicode="&#xaa;" horiz-adv-x="450" 
d="M42 445q0 55 40 89t104 34q62 0 109 -31v25q0 69 -81 69q-54 0 -98 -34l-53 56q67 55 160 55q82 0 125 -36.5t43 -102.5v-240h-96v32q-44 -39 -109 -39q-63 0 -103.5 34t-40.5 89zM209 497q-77 0 -77 -52q0 -51 80 -51q47 0 83 33v41q-36 29 -86 29z" />
    <glyph glyph-name="guillemotleft" unicode="&#xab;" horiz-adv-x="598" 
d="M48 290v44l219 159l50 -66l-164 -115l164 -115l-50 -66zM281 290v44l219 159l50 -66l-164 -115l164 -115l-50 -66z" />
    <glyph glyph-name="logicalnot" unicode="&#xac;" horiz-adv-x="616" 
d="M52 354v93h502v-287h-109v194h-393z" />
    <glyph glyph-name="uni00AD" unicode="&#xad;" horiz-adv-x="404" 
d="M347 281h-290v101h290v-101z" />
    <glyph glyph-name="registered" unicode="&#xae;" horiz-adv-x="826" 
d="M51 350q0 150 106 256t256 106t256 -106t106 -256t-106 -256t-256 -106t-256 106t-106 256zM107 350q0 -129 89.5 -219.5t216.5 -90.5t216.5 90.5t89.5 219.5t-89.5 219.5t-216.5 90.5t-216.5 -90.5t-89.5 -219.5zM578 432q0 -86 -85 -115l108 -176h-95l-94 164h-66v-164
h-85v417h157q74 0 117 -33t43 -93zM491 432q0 60 -79 60h-66v-119h66q79 0 79 59z" />
    <glyph glyph-name="macron" unicode="&#xaf;" horiz-adv-x="396" 
d="M49 607v80h298v-80h-298z" />
    <glyph glyph-name="degree" unicode="&#xb0;" horiz-adv-x="400" 
d="M338 576q0 -59 -39 -97.5t-99 -38.5t-99 38.5t-39 97.5t39 97.5t99 38.5t99 -38.5t39 -97.5zM263 576q0 28 -17.5 46t-45.5 18t-45.5 -18t-17.5 -46t17.5 -46t45.5 -18t45.5 18t17.5 46z" />
    <glyph glyph-name="plusminus" unicode="&#xb1;" horiz-adv-x="616" 
d="M253 136v196h-196v93h196v196h110v-196h196v-93h-196v-196h-110zM559 0h-502v92h502v-92z" />
    <glyph glyph-name="twosuperior" unicode="&#xb2;" 
d="M198 625q-47 0 -85 -43l-66 50q64 76 160 76q66 0 106 -37t40 -99q0 -105 -169 -255h172v-80h-307v69q207 172 207 263q0 24 -15.5 40t-42.5 16z" />
    <glyph glyph-name="threesuperior" unicode="&#xb3;" 
d="M195 308q34 0 54.5 18t20.5 45q0 35 -26.5 52t-71.5 17h-45v74h45q40 0 62.5 16t22.5 45q0 25 -14.5 39t-41.5 14q-51 0 -81 -40l-65 49q59 71 151 71q66 0 106.5 -34t40.5 -92q0 -35 -20 -63t-51 -41q37 -14 60 -42.5t23 -68.5q0 -60 -44.5 -99t-121.5 -39
q-105 0 -159 78l66 48q32 -47 89 -47z" />
    <glyph glyph-name="acute" unicode="&#xb4;" horiz-adv-x="396" 
d="M303 683l-160 -129l-50 51l142 143z" />
    <glyph glyph-name="mu" unicode="&#xb5;" horiz-adv-x="609" 
d="M300 -12q-73 0 -115 42v-242h-118v730h118v-377q39 -55 119 -55q35 0 68 15t52 42v375h118v-518h-118v41q-45 -53 -124 -53z" />
    <glyph glyph-name="paragraph" unicode="&#xb6;" horiz-adv-x="597" 
d="M41 484q0 100 62.5 158t160.5 58h245v-831h-91v745h-43v-745h-94v399h-17q-98 0 -160.5 58t-62.5 158z" />
    <glyph glyph-name="periodcentered" unicode="&#xb7;" horiz-adv-x="308" 
d="M82 350q0 31 21 52t51 21t51 -21t21 -52t-21 -52t-51 -21t-51 21t-21 52z" />
    <glyph glyph-name="cedilla" unicode="&#xb8;" horiz-adv-x="396" 
d="M167 -168q49 0 49 36q0 21 -23 33t-62 13l-7 9l36 77h86l-22 -45q37 -9 59 -34t22 -59q0 -42 -33.5 -71t-96.5 -29q-61 0 -106 37l44 53q23 -20 54 -20z" />
    <glyph glyph-name="onesuperior" unicode="&#xb9;" 
d="M190 591l-68 -49l-55 60l134 99h82v-464h-93v354z" />
    <glyph glyph-name="ordmasculine" unicode="&#xba;" horiz-adv-x="450" 
d="M414 515q0 -84 -52.5 -138.5t-136.5 -54.5t-136.5 54.5t-52.5 138.5t52.5 138.5t136.5 54.5t136.5 -54.5t52.5 -138.5zM317 515q0 54 -25 85t-67 31t-67 -31t-25 -85t25 -85t67 -31t67 31t25 85z" />
    <glyph glyph-name="guillemotright" unicode="&#xbb;" horiz-adv-x="598" 
d="M550 334v-44l-219 -159l-50 66l164 115l-164 115l50 66zM317 334v-44l-219 -159l-50 66l164 115l-164 115l50 66z" />
    <glyph glyph-name="onequarter" unicode="&#xbc;" horiz-adv-x="1014" 
d="M660 715l68 -37l-373 -693l-68 37zM833 94h-212v76l209 293h95v-288h54v-81h-54v-94h-92v94zM833 330l-110 -155h110v155zM190 591l-68 -49l-55 60l134 99h82v-464h-93v354z" />
    <glyph glyph-name="onehalf" unicode="&#xbd;" horiz-adv-x="1014" 
d="M660 715l68 -37l-373 -693l-68 37zM792 388q-47 0 -85 -43l-66 50q64 76 160 76q66 0 106 -37t40 -99q0 -105 -169 -255h172v-80h-307v69q207 172 207 263q0 24 -15.5 40t-42.5 16zM190 591l-68 -49l-55 60l134 99h82v-464h-93v354z" />
    <glyph glyph-name="threequarters" unicode="&#xbe;" horiz-adv-x="1014" 
d="M660 715l68 -37l-373 -693l-68 37zM833 94h-212v76l209 293h95v-288h54v-81h-54v-94h-92v94zM833 330l-110 -155h110v155zM195 308q34 0 54.5 18t20.5 45q0 35 -26.5 52t-71.5 17h-45v74h45q40 0 62.5 16t22.5 45q0 25 -14.5 39t-41.5 14q-51 0 -81 -40l-65 49
q59 71 151 71q66 0 106.5 -34t40.5 -92q0 -35 -20 -63t-51 -41q37 -14 60 -42.5t23 -68.5q0 -60 -44.5 -99t-121.5 -39q-105 0 -159 78l66 48q32 -47 89 -47z" />
    <glyph glyph-name="questiondown" unicode="&#xbf;" horiz-adv-x="546" 
d="M280 -194q-99 0 -156 47.5t-57 132.5q0 114 117 192q37 24 50.5 48t13.5 65v45h124v-53q0 -58 -22.5 -100t-74.5 -76q-47 -31 -64.5 -56.5t-17.5 -60.5q0 -37 25.5 -57.5t71.5 -20.5q76 0 132 66l81 -66q-38 -48 -97.5 -77t-125.5 -29zM382 457q0 -31 -21 -52t-51 -21
t-51 21t-21 52t21 52t51 21t51 -21t21 -52z" />
    <glyph glyph-name="Agrave" unicode="&#xc0;" horiz-adv-x="698" 
d="M276 700h146l257 -700h-133l-55 160h-285l-54 -160h-133zM349 579l-107 -315h214zM370 748l-160 129l68 65l142 -143z" />
    <glyph glyph-name="Aacute" unicode="&#xc1;" horiz-adv-x="698" 
d="M276 700h146l257 -700h-133l-55 160h-285l-54 -160h-133zM349 579l-107 -315h214zM488 877l-160 -129l-50 51l142 143z" />
    <glyph glyph-name="Acircumflex" unicode="&#xc2;" horiz-adv-x="698" 
d="M276 700h146l257 -700h-133l-55 160h-285l-54 -160h-133zM349 579l-107 -315h214zM459 748l-110 97l-110 -97l-53 44l129 135h68l129 -135z" />
    <glyph glyph-name="Atilde" unicode="&#xc3;" horiz-adv-x="698" 
d="M422 700h-146l-257 -700h133l54 160h285l55 -160h133zM242 264l107 315l107 -315h-214zM253 784l-74 10q10 56 37 85.5t68 29.5q39 0 79 -28q27 -20 47 -20q28 0 35 42l74 -10q-10 -56 -37 -85.5t-68 -29.5q-39 0 -79 28q-27 20 -47 20q-28 0 -35 -42z" />
    <glyph glyph-name="Adieresis" unicode="&#xc4;" horiz-adv-x="698" 
d="M422 700h-146l-257 -700h133l54 160h285l55 -160h133zM242 264l107 315l107 -315h-214zM184 841q0 26 18.5 44.5t44.5 18.5t44.5 -18.5t18.5 -44.5t-18.5 -44.5t-44.5 -18.5t-44.5 18.5t-18.5 44.5zM388 841q0 26 18.5 44.5t44.5 18.5t44.5 -18.5t18.5 -44.5t-18.5 -44.5
t-44.5 -18.5t-44.5 18.5t-18.5 44.5z" />
    <glyph glyph-name="Aring" unicode="&#xc5;" horiz-adv-x="698" 
d="M276 700h146l257 -700h-133l-55 160h-285l-54 -160h-133zM349 579l-107 -315h214zM459 843q0 -45 -32 -76t-78 -31t-78 31t-32 76t32 76t78 31t78 -31t32 -76zM309 843q0 -19 11.5 -30.5t28.5 -11.5t28.5 11.5t11.5 30.5t-11.5 30.5t-28.5 11.5t-28.5 -11.5t-11.5 -30.5z
" />
    <glyph glyph-name="AE" unicode="&#xc6;" horiz-adv-x="892" 
d="M852 0h-408v158h-212l-79 -158h-135l361 700h464v-104h-275v-184h240v-104h-240v-204h284v-104zM444 581l-160 -319h160v319z" />
    <glyph glyph-name="Ccedilla" unicode="&#xc7;" horiz-adv-x="694" 
d="M356 -168q49 0 49 36q0 21 -23 33t-62 13l-7 9l31 67q-137 11 -219 108.5t-82 251.5q0 162 91.5 262t241.5 100q95 0 169.5 -40.5t115.5 -111.5l-102 -55q-67 101 -178 101q-93 0 -152.5 -67.5t-59.5 -188.5t59.5 -188.5t152.5 -67.5q111 0 178 101l102 -55
q-35 -60 -94.5 -99t-135.5 -49l-18 -37q37 -9 59 -34t22 -59q0 -42 -33.5 -71t-96.5 -29q-61 0 -106 37l44 53q23 -20 54 -20z" />
    <glyph glyph-name="Egrave" unicode="&#xc8;" horiz-adv-x="578" 
d="M77 0v700h452v-104h-328v-184h293v-104h-293v-204h337v-104h-461zM337 748l-160 129l68 65l142 -143z" />
    <glyph glyph-name="Eacute" unicode="&#xc9;" horiz-adv-x="578" 
d="M77 0v700h452v-104h-328v-184h293v-104h-293v-204h337v-104h-461zM431 877l-160 -129l-50 51l142 143z" />
    <glyph glyph-name="Ecircumflex" unicode="&#xca;" horiz-adv-x="578" 
d="M77 0v700h452v-104h-328v-184h293v-104h-293v-204h337v-104h-461zM416 748l-110 97l-110 -97l-53 44l129 135h68l129 -135z" />
    <glyph glyph-name="Edieresis" unicode="&#xcb;" horiz-adv-x="578" 
d="M77 0v700h452v-104h-328v-184h293v-104h-293v-204h337v-104h-461zM142 841q0 26 18.5 44.5t44.5 18.5t44.5 -18.5t18.5 -44.5t-18.5 -44.5t-44.5 -18.5t-44.5 18.5t-18.5 44.5zM346 841q0 26 18.5 44.5t44.5 18.5t44.5 -18.5t18.5 -44.5t-18.5 -44.5t-44.5 -18.5
t-44.5 18.5t-18.5 44.5z" />
    <glyph glyph-name="Igrave" unicode="&#xcc;" horiz-adv-x="288" 
d="M82 700h124v-700h-124v700zM143 748l-160 129l68 65l142 -143z" />
    <glyph glyph-name="Iacute" unicode="&#xcd;" horiz-adv-x="288" 
d="M82 700h124v-700h-124v700zM305 877l-160 -129l-50 51l142 143z" />
    <glyph glyph-name="Icircumflex" unicode="&#xce;" horiz-adv-x="288" 
d="M82 700h124v-700h-124v700zM254 748l-110 97l-110 -97l-53 44l129 135h68l129 -135z" />
    <glyph glyph-name="Idieresis" unicode="&#xcf;" horiz-adv-x="288" 
d="M82 700h124v-700h-124v700zM-21 841q0 26 18.5 44.5t44.5 18.5t44.5 -18.5t18.5 -44.5t-18.5 -44.5t-44.5 -18.5t-44.5 18.5t-18.5 44.5zM183 841q0 26 18.5 44.5t44.5 18.5t44.5 -18.5t18.5 -44.5t-18.5 -44.5t-44.5 -18.5t-44.5 18.5t-18.5 44.5z" />
    <glyph glyph-name="Eth" unicode="&#xd0;" horiz-adv-x="698" 
d="M319 0h-242v312h-74v76h74v312h242q156 0 246 -95t90 -255t-90 -255t-246 -95zM201 312v-208h110q103 0 160.5 63.5t57.5 182.5t-57.5 182.5t-160.5 63.5h-110v-208h149v-76h-149z" />
    <glyph glyph-name="Ntilde" unicode="&#xd1;" horiz-adv-x="720" 
d="M77 0v700h120l322 -494v494h124v-700h-120l-322 494v-494h-124zM264 784l-74 10q10 56 37 85.5t68 29.5q39 0 79 -28q27 -20 47 -20q28 0 35 42l74 -10q-10 -56 -37 -85.5t-68 -29.5q-39 0 -79 28q-27 20 -47 20q-28 0 -35 -42z" />
    <glyph glyph-name="Ograve" unicode="&#xd2;" horiz-adv-x="730" 
d="M687 350q0 -157 -86.5 -259.5t-235.5 -102.5t-235.5 102.5t-86.5 259.5t86.5 259.5t235.5 102.5t235.5 -102.5t86.5 -259.5zM561 350q0 118 -53 187t-143 69t-143 -69t-53 -187t53 -187t143 -69t143 69t53 187zM390 748l-160 129l68 65l142 -143z" />
    <glyph glyph-name="Oacute" unicode="&#xd3;" horiz-adv-x="730" 
d="M687 350q0 -157 -86.5 -259.5t-235.5 -102.5t-235.5 102.5t-86.5 259.5t86.5 259.5t235.5 102.5t235.5 -102.5t86.5 -259.5zM561 350q0 118 -53 187t-143 69t-143 -69t-53 -187t53 -187t143 -69t143 69t53 187zM500 877l-160 -129l-50 51l142 143z" />
    <glyph glyph-name="Ocircumflex" unicode="&#xd4;" horiz-adv-x="730" 
d="M687 350q0 -157 -86.5 -259.5t-235.5 -102.5t-235.5 102.5t-86.5 259.5t86.5 259.5t235.5 102.5t235.5 -102.5t86.5 -259.5zM561 350q0 118 -53 187t-143 69t-143 -69t-53 -187t53 -187t143 -69t143 69t53 187zM475 748l-110 97l-110 -97l-53 44l129 135h68l129 -135z
" />
    <glyph glyph-name="Otilde" unicode="&#xd5;" horiz-adv-x="730" 
d="M687 350q0 -157 -86.5 -259.5t-235.5 -102.5t-235.5 102.5t-86.5 259.5t86.5 259.5t235.5 102.5t235.5 -102.5t86.5 -259.5zM561 350q0 118 -53 187t-143 69t-143 -69t-53 -187t53 -187t143 -69t143 69t53 187zM269 784l-74 10q10 56 37 85.5t68 29.5q39 0 79 -28
q27 -20 47 -20q28 0 35 42l74 -10q-10 -56 -37 -85.5t-68 -29.5q-39 0 -79 28q-27 20 -47 20q-28 0 -35 -42z" />
    <glyph glyph-name="Odieresis" unicode="&#xd6;" horiz-adv-x="730" 
d="M687 350q0 -157 -86.5 -259.5t-235.5 -102.5t-235.5 102.5t-86.5 259.5t86.5 259.5t235.5 102.5t235.5 -102.5t86.5 -259.5zM561 350q0 118 -53 187t-143 69t-143 -69t-53 -187t53 -187t143 -69t143 69t53 187zM200 841q0 26 18.5 44.5t44.5 18.5t44.5 -18.5t18.5 -44.5
t-18.5 -44.5t-44.5 -18.5t-44.5 18.5t-18.5 44.5zM404 841q0 26 18.5 44.5t44.5 18.5t44.5 -18.5t18.5 -44.5t-18.5 -44.5t-44.5 -18.5t-44.5 18.5t-18.5 44.5z" />
    <glyph glyph-name="multiply" unicode="&#xd7;" horiz-adv-x="616" 
d="M381 332l153 -153l-73 -73l-153 153l-153 -153l-73 73l153 153l-153 153l73 73l153 -153l153 153l73 -73z" />
    <glyph glyph-name="Oslash" unicode="&#xd8;" horiz-adv-x="730" 
d="M69 2l63 86q-89 100 -89 262q0 157 86.5 259.5t235.5 102.5q103 0 181 -54l59 80l56 -40l-63 -87q89 -101 89 -261q0 -157 -86.5 -259.5t-235.5 -102.5q-104 0 -182 54l-58 -80zM169 350q0 -96 36 -162l275 378q-48 40 -115 40q-90 0 -143 -69t-53 -187zM561 350
q0 95 -36 161l-275 -378q48 -39 115 -39q90 0 143 69t53 187z" />
    <glyph glyph-name="Ugrave" unicode="&#xd9;" horiz-adv-x="732" 
d="M366 -12q-132 0 -210.5 74.5t-78.5 215.5v422h124v-422q0 -184 165 -184t165 184v422h124v-422q0 -141 -78.5 -215.5t-210.5 -74.5zM374 748l-160 129l68 65l142 -143z" />
    <glyph glyph-name="Uacute" unicode="&#xda;" horiz-adv-x="732" 
d="M366 -12q-132 0 -210.5 74.5t-78.5 215.5v422h124v-422q0 -184 165 -184t165 184v422h124v-422q0 -141 -78.5 -215.5t-210.5 -74.5zM518 877l-160 -129l-50 51l142 143z" />
    <glyph glyph-name="Ucircumflex" unicode="&#xdb;" horiz-adv-x="732" 
d="M366 -12q-132 0 -210.5 74.5t-78.5 215.5v422h124v-422q0 -184 165 -184t165 184v422h124v-422q0 -141 -78.5 -215.5t-210.5 -74.5zM476 748l-110 97l-110 -97l-53 44l129 135h68l129 -135z" />
    <glyph glyph-name="Udieresis" unicode="&#xdc;" horiz-adv-x="732" 
d="M366 -12q132 0 210.5 74.5t78.5 215.5v422h-124v-422q0 -184 -165 -184t-165 184v422h-124v-422q0 -141 78.5 -215.5t210.5 -74.5zM201 841q0 26 18.5 44.5t44.5 18.5t44.5 -18.5t18.5 -44.5t-18.5 -44.5t-44.5 -18.5t-44.5 18.5t-18.5 44.5zM405 841q0 26 18.5 44.5
t44.5 18.5t44.5 -18.5t18.5 -44.5t-18.5 -44.5t-44.5 -18.5t-44.5 18.5t-18.5 44.5z" />
    <glyph glyph-name="Yacute" unicode="&#xdd;" horiz-adv-x="634" 
d="M379 0h-124v276l-241 424h134l169 -308l169 308h134l-241 -424v-276zM462 877l-160 -129l-50 51l142 143z" />
    <glyph glyph-name="Thorn" unicode="&#xde;" horiz-adv-x="613" 
d="M580 354q0 -110 -71.5 -167t-199.5 -57h-108v-130h-124v700h124v-121h108q128 0 199.5 -57t71.5 -168zM454 354q0 63 -37.5 92t-114.5 29h-101v-241h101q77 0 114.5 29t37.5 91z" />
    <glyph glyph-name="germandbls" unicode="&#xdf;" horiz-adv-x="596" 
d="M282 319v104q47 0 72.5 25.5t25.5 71.5q0 37 -23.5 61.5t-65.5 24.5q-47 0 -71 -30.5t-24 -85.5v-490h-124v476q0 114 56.5 175t163.5 61q94 0 154 -54t60 -130q0 -113 -102 -155q75 -17 119 -64t44 -123q0 -95 -54.5 -146.5t-149.5 -51.5q-77 0 -134 34l42 92
q30 -22 70 -22q47 0 73.5 26t26.5 76q0 59 -43 91.5t-116 33.5z" />
    <glyph glyph-name="agrave" unicode="&#xe0;" horiz-adv-x="565" 
d="M384 276v49q0 52 -27 80t-91 28q-74 0 -132 -48l-68 68q91 77 214 77q121 0 171.5 -58.5t50.5 -166.5v-305h-118v43q-57 -55 -152 -55q-85 0 -140 47.5t-55 121.5t55 121.5t140 47.5q87 0 152 -50zM262 84q75 0 122 46v54q-51 46 -122 46q-49 0 -77 -18.5t-28 -54.5
t28 -54.5t77 -18.5zM315 574l-160 129l68 65l142 -143z" />
    <glyph glyph-name="aacute" unicode="&#xe1;" horiz-adv-x="565" 
d="M384 276v49q0 52 -27 80t-91 28q-74 0 -132 -48l-68 68q91 77 214 77q121 0 171.5 -58.5t50.5 -166.5v-305h-118v43q-57 -55 -152 -55q-85 0 -140 47.5t-55 121.5t55 121.5t140 47.5q87 0 152 -50zM262 84q75 0 122 46v54q-51 46 -122 46q-49 0 -77 -18.5t-28 -54.5
t28 -54.5t77 -18.5zM409 703l-160 -129l-50 51l142 143z" />
    <glyph glyph-name="acircumflex" unicode="&#xe2;" horiz-adv-x="565" 
d="M384 276v49q0 52 -27 80t-91 28q-74 0 -132 -48l-68 68q91 77 214 77q121 0 171.5 -58.5t50.5 -166.5v-305h-118v43q-57 -55 -152 -55q-85 0 -140 47.5t-55 121.5t55 121.5t140 47.5q87 0 152 -50zM262 84q75 0 122 46v54q-51 46 -122 46q-49 0 -77 -18.5t-28 -54.5
t28 -54.5t77 -18.5zM395 574l-110 97l-110 -97l-53 44l129 135h68l129 -135z" />
    <glyph glyph-name="atilde" unicode="&#xe3;" horiz-adv-x="565" 
d="M384 276v49q0 52 -27 80t-91 28q-74 0 -132 -48l-68 68q91 77 214 77q121 0 171.5 -58.5t50.5 -166.5v-305h-118v43q-57 -55 -152 -55q-85 0 -140 47.5t-55 121.5t55 121.5t140 47.5q87 0 152 -50zM262 84q75 0 122 46v54q-51 46 -122 46q-49 0 -77 -18.5t-28 -54.5
t28 -54.5t77 -18.5zM186 610l-74 10q10 56 37 85.5t68 29.5q39 0 79 -28q27 -20 47 -20q28 0 35 42l74 -10q-10 -56 -37 -85.5t-68 -29.5q-39 0 -79 28q-27 20 -47 20q-28 0 -35 -42z" />
    <glyph glyph-name="adieresis" unicode="&#xe4;" horiz-adv-x="565" 
d="M384 276v49q0 52 -27 80t-91 28q-74 0 -132 -48l-68 68q91 77 214 77q121 0 171.5 -58.5t50.5 -166.5v-305h-118v43q-57 -55 -152 -55q-85 0 -140 47.5t-55 121.5t55 121.5t140 47.5q87 0 152 -50zM262 84q75 0 122 46v54q-51 46 -122 46q-49 0 -77 -18.5t-28 -54.5
t28 -54.5t77 -18.5zM127 667q0 26 18.5 44.5t44.5 18.5t44.5 -18.5t18.5 -44.5t-18.5 -44.5t-44.5 -18.5t-44.5 18.5t-18.5 44.5zM331 667q0 26 18.5 44.5t44.5 18.5t44.5 -18.5t18.5 -44.5t-18.5 -44.5t-44.5 -18.5t-44.5 18.5t-18.5 44.5z" />
    <glyph glyph-name="aring" unicode="&#xe5;" horiz-adv-x="565" 
d="M384 276v49q0 52 -27 80t-91 28q-74 0 -132 -48l-68 68q91 77 214 77q121 0 171.5 -58.5t50.5 -166.5v-305h-118v43q-57 -55 -152 -55q-85 0 -140 47.5t-55 121.5t55 121.5t140 47.5q87 0 152 -50zM262 84q75 0 122 46v54q-51 46 -122 46q-49 0 -77 -18.5t-28 -54.5
t28 -54.5t77 -18.5zM397 669q0 -45 -32 -76t-78 -31t-78 31t-32 76t32 76t78 31t78 -31t32 -76zM247 669q0 -19 11.5 -30.5t28.5 -11.5t28.5 11.5t11.5 30.5t-11.5 30.5t-28.5 11.5t-28.5 -11.5t-11.5 -30.5z" />
    <glyph glyph-name="ae" unicode="&#xe6;" horiz-adv-x="923" 
d="M501 216q8 -60 48.5 -96t100.5 -36q76 0 129 66l83 -59q-76 -103 -211 -103q-123 0 -198 78q-86 -78 -216 -78q-89 0 -144.5 47t-55.5 122q0 74 55 121.5t140 47.5q89 0 152 -50v49q0 52 -27 80t-91 28q-74 0 -132 -48l-68 68q86 77 212 77q124 0 181 -75q66 75 175 75
q111 0 181 -76.5t70 -197.5q0 -29 -2 -40h-382zM262 84q84 0 141 57q-10 25 -13 42q-56 47 -128 47q-49 0 -77 -18.5t-28 -54.5t28 -54.5t77 -18.5zM500 306h266q-4 58 -41 93t-91 35q-55 0 -90.5 -34t-43.5 -94z" />
    <glyph glyph-name="ccedilla" unicode="&#xe7;" horiz-adv-x="546" 
d="M273 -168q49 0 49 36q0 21 -23 33t-62 13l-7 9l31 67q-103 10 -163 83.5t-60 185.5q0 121 69.5 196t186.5 75q152 0 226 -126l-91 -48q-51 78 -130 78q-65 0 -103 -46.5t-38 -128.5t38 -128.5t103 -46.5q79 0 130 78l91 -48q-60 -100 -172 -121l-18 -38q37 -9 59 -34
t22 -59q0 -42 -33.5 -71t-96.5 -29q-61 0 -106 37l44 53q23 -20 54 -20z" />
    <glyph glyph-name="egrave" unicode="&#xe8;" horiz-adv-x="580" 
d="M542 256q0 -29 -2 -40h-382q8 -60 48.5 -96t100.5 -36q76 0 129 66l83 -59q-76 -103 -211 -103q-121 0 -195.5 75.5t-74.5 195.5q0 119 70 195t183 76q111 0 181 -76.5t70 -197.5zM291 434q-55 0 -90.5 -34t-43.5 -94h266q-4 58 -41 93t-91 35zM325 574l-160 129l68 65
l142 -143z" />
    <glyph glyph-name="eacute" unicode="&#xe9;" horiz-adv-x="580" 
d="M542 256q0 -29 -2 -40h-382q8 -60 48.5 -96t100.5 -36q76 0 129 66l83 -59q-76 -103 -211 -103q-121 0 -195.5 75.5t-74.5 195.5q0 119 70 195t183 76q111 0 181 -76.5t70 -197.5zM291 434q-55 0 -90.5 -34t-43.5 -94h266q-4 58 -41 93t-91 35zM427 703l-160 -129l-50 51
l142 143z" />
    <glyph glyph-name="ecircumflex" unicode="&#xea;" horiz-adv-x="580" 
d="M542 256q0 -29 -2 -40h-382q8 -60 48.5 -96t100.5 -36q76 0 129 66l83 -59q-76 -103 -211 -103q-121 0 -195.5 75.5t-74.5 195.5q0 119 70 195t183 76q111 0 181 -76.5t70 -197.5zM291 434q-55 0 -90.5 -34t-43.5 -94h266q-4 58 -41 93t-91 35zM398 574l-110 97l-110 -97
l-53 44l129 135h68l129 -135z" />
    <glyph glyph-name="edieresis" unicode="&#xeb;" horiz-adv-x="580" 
d="M542 256q0 -29 -2 -40h-382q8 -60 48.5 -96t100.5 -36q76 0 129 66l83 -59q-76 -103 -211 -103q-121 0 -195.5 75.5t-74.5 195.5q0 119 70 195t183 76q111 0 181 -76.5t70 -197.5zM291 434q-55 0 -90.5 -34t-43.5 -94h266q-4 58 -41 93t-91 35zM126 667q0 26 18.5 44.5
t44.5 18.5t44.5 -18.5t18.5 -44.5t-18.5 -44.5t-44.5 -18.5t-44.5 18.5t-18.5 44.5zM330 667q0 26 18.5 44.5t44.5 18.5t44.5 -18.5t18.5 -44.5t-18.5 -44.5t-44.5 -18.5t-44.5 18.5t-18.5 44.5z" />
    <glyph glyph-name="igrave" unicode="&#xec;" horiz-adv-x="263" 
d="M72 0v518h118v-518h-118zM132 574l-160 129l68 65l142 -143z" />
    <glyph glyph-name="iacute" unicode="&#xed;" horiz-adv-x="263" 
d="M72 0v518h118v-518h-118zM290 703l-160 -129l-50 51l142 143z" />
    <glyph glyph-name="icircumflex" unicode="&#xee;" horiz-adv-x="263" 
d="M72 0v518h118v-518h-118zM241 574l-110 97l-110 -97l-53 44l129 135h68l129 -135z" />
    <glyph glyph-name="idieresis" unicode="&#xef;" horiz-adv-x="263" 
d="M72 0v518h118v-518h-118zM-34 667q0 26 18.5 44.5t44.5 18.5t44.5 -18.5t18.5 -44.5t-18.5 -44.5t-44.5 -18.5t-44.5 18.5t-18.5 44.5zM170 667q0 26 18.5 44.5t44.5 18.5t44.5 -18.5t18.5 -44.5t-18.5 -44.5t-44.5 -18.5t-44.5 18.5t-18.5 44.5z" />
    <glyph glyph-name="eth" unicode="&#xf0;" horiz-adv-x="576" 
d="M162 581l98 33q-40 17 -91 28l3 88q127 -19 207 -75l135 47l24 -63l-100 -35q94 -102 94 -283q0 -157 -64.5 -245t-189.5 -88q-106 0 -170.5 68t-64.5 186q0 119 60 184.5t160 65.5q82 0 143 -52q-19 80 -72 129l-148 -51zM280 397q-55 0 -86 -42t-31 -114t31 -114.5
t86 -42.5q138 0 138 252q-55 61 -138 61z" />
    <glyph glyph-name="ntilde" unicode="&#xf1;" horiz-adv-x="605" 
d="M324 434q-41 0 -78.5 -20.5t-60.5 -49.5v-364h-118v518h118v-60q72 72 174 72q84 0 133.5 -50.5t49.5 -143.5v-336h-118v319q0 115 -100 115zM206 610l-74 10q10 56 37 85.5t68 29.5q39 0 79 -28q27 -20 47 -20q28 0 35 42l74 -10q-10 -56 -37 -85.5t-68 -29.5
q-39 0 -79 28q-27 20 -47 20q-28 0 -35 -42z" />
    <glyph glyph-name="ograve" unicode="&#xf2;" horiz-adv-x="592" 
d="M554 259q0 -122 -70.5 -196.5t-187.5 -74.5t-187.5 74.5t-70.5 196.5t70.5 196.5t187.5 74.5t187.5 -74.5t70.5 -196.5zM434 259q0 81 -36.5 128t-101.5 47t-101.5 -47t-36.5 -128t36.5 -128t101.5 -47t101.5 47t36.5 128zM325 574l-160 129l68 65l142 -143z" />
    <glyph glyph-name="oacute" unicode="&#xf3;" horiz-adv-x="592" 
d="M554 259q0 -122 -70.5 -196.5t-187.5 -74.5t-187.5 74.5t-70.5 196.5t70.5 196.5t187.5 74.5t187.5 -74.5t70.5 -196.5zM434 259q0 81 -36.5 128t-101.5 47t-101.5 -47t-36.5 -128t36.5 -128t101.5 -47t101.5 47t36.5 128zM427 703l-160 -129l-50 51l142 143z" />
    <glyph glyph-name="ocircumflex" unicode="&#xf4;" horiz-adv-x="592" 
d="M554 259q0 -122 -70.5 -196.5t-187.5 -74.5t-187.5 74.5t-70.5 196.5t70.5 196.5t187.5 74.5t187.5 -74.5t70.5 -196.5zM434 259q0 81 -36.5 128t-101.5 47t-101.5 -47t-36.5 -128t36.5 -128t101.5 -47t101.5 47t36.5 128zM406 574l-110 97l-110 -97l-53 44l129 135h68
l129 -135z" />
    <glyph glyph-name="otilde" unicode="&#xf5;" horiz-adv-x="592" 
d="M554 259q0 -122 -70.5 -196.5t-187.5 -74.5t-187.5 74.5t-70.5 196.5t70.5 196.5t187.5 74.5t187.5 -74.5t70.5 -196.5zM434 259q0 81 -36.5 128t-101.5 47t-101.5 -47t-36.5 -128t36.5 -128t101.5 -47t101.5 47t36.5 128zM200 610l-74 10q10 56 37 85.5t68 29.5
q39 0 79 -28q27 -20 47 -20q28 0 35 42l74 -10q-10 -56 -37 -85.5t-68 -29.5q-39 0 -79 28q-27 20 -47 20q-28 0 -35 -42z" />
    <glyph glyph-name="odieresis" unicode="&#xf6;" horiz-adv-x="592" 
d="M554 259q0 -122 -70.5 -196.5t-187.5 -74.5t-187.5 74.5t-70.5 196.5t70.5 196.5t187.5 74.5t187.5 -74.5t70.5 -196.5zM434 259q0 81 -36.5 128t-101.5 47t-101.5 -47t-36.5 -128t36.5 -128t101.5 -47t101.5 47t36.5 128zM131 667q0 26 18.5 44.5t44.5 18.5t44.5 -18.5
t18.5 -44.5t-18.5 -44.5t-44.5 -18.5t-44.5 18.5t-18.5 44.5zM335 667q0 26 18.5 44.5t44.5 18.5t44.5 -18.5t18.5 -44.5t-18.5 -44.5t-44.5 -18.5t-44.5 18.5t-18.5 44.5z" />
    <glyph glyph-name="divide" unicode="&#xf7;" horiz-adv-x="616" 
d="M559 285h-502v93h502v-93zM239 532q0 28 20.5 48.5t48.5 20.5t48.5 -20.5t20.5 -48.5t-20.5 -48.5t-48.5 -20.5t-48.5 20.5t-20.5 48.5zM239 131q0 -29 20.5 -49t48.5 -20t48.5 20t20.5 49t-20.5 49t-48.5 20t-48.5 -20t-20.5 -49z" />
    <glyph glyph-name="oslash" unicode="&#xf8;" horiz-adv-x="592" 
d="M61 -2l47 64q-70 75 -70 197t70.5 196.5t187.5 74.5q75 0 133 -32l46 62l56 -40l-48 -64q71 -76 71 -197q0 -122 -70.5 -196.5t-187.5 -74.5q-77 0 -133 32l-46 -62zM158 259q0 -60 20 -102l189 257q-31 20 -71 20q-65 0 -101.5 -47t-36.5 -128zM434 259q0 59 -20 102
l-190 -258q32 -19 72 -19q65 0 101.5 47t36.5 128z" />
    <glyph glyph-name="ugrave" unicode="&#xf9;" horiz-adv-x="598" 
d="M299 -12q-111 0 -174 58t-63 172v300h118v-301q0 -65 33 -99t86 -34t86 34t33 99v301h118v-300q0 -114 -63 -172t-174 -58zM316 574l-160 129l68 65l142 -143z" />
    <glyph glyph-name="uacute" unicode="&#xfa;" horiz-adv-x="598" 
d="M299 -12q-111 0 -174 58t-63 172v300h118v-301q0 -65 33 -99t86 -34t86 34t33 99v301h118v-300q0 -114 -63 -172t-174 -58zM442 703l-160 -129l-50 51l142 143z" />
    <glyph glyph-name="ucircumflex" unicode="&#xfb;" horiz-adv-x="598" 
d="M299 -12q-111 0 -174 58t-63 172v300h118v-301q0 -65 33 -99t86 -34t86 34t33 99v301h118v-300q0 -114 -63 -172t-174 -58zM409 574l-110 97l-110 -97l-53 44l129 135h68l129 -135z" />
    <glyph glyph-name="udieresis" unicode="&#xfc;" horiz-adv-x="598" 
d="M299 -12q-111 0 -174 58t-63 172v300h118v-301q0 -65 33 -99t86 -34t86 34t33 99v301h118v-300q0 -114 -63 -172t-174 -58zM134 667q0 26 18.5 44.5t44.5 18.5t44.5 -18.5t18.5 -44.5t-18.5 -44.5t-44.5 -18.5t-44.5 18.5t-18.5 44.5zM338 667q0 26 18.5 44.5t44.5 18.5
t44.5 -18.5t18.5 -44.5t-18.5 -44.5t-44.5 -18.5t-44.5 18.5t-18.5 44.5z" />
    <glyph glyph-name="yacute" unicode="&#xfd;" horiz-adv-x="546" 
d="M142 -212l80 216l-208 514h121l144 -361l132 361h121l-269 -730h-121zM413 703l-160 -129l-50 51l142 143z" />
    <glyph glyph-name="thorn" unicode="&#xfe;" horiz-adv-x="609" 
d="M565 259q0 -126 -59 -198.5t-165 -72.5q-91 0 -156 62v-262h-118v942h118v-262q65 62 156 62q106 0 165 -72.5t59 -198.5zM311 433q-34 0 -68.5 -14.5t-57.5 -40.5v-238q23 -26 57.5 -40.5t68.5 -14.5q134 0 134 174t-134 174z" />
    <glyph glyph-name="ydieresis" unicode="&#xff;" horiz-adv-x="546" 
d="M142 -212l80 216l-208 514h121l144 -361l132 361h121l-269 -730h-121zM113 667q0 26 18.5 44.5t44.5 18.5t44.5 -18.5t18.5 -44.5t-18.5 -44.5t-44.5 -18.5t-44.5 18.5t-18.5 44.5zM317 667q0 26 18.5 44.5t44.5 18.5t44.5 -18.5t18.5 -44.5t-18.5 -44.5t-44.5 -18.5
t-44.5 18.5t-18.5 44.5z" />
    <glyph glyph-name="Amacron" unicode="&#x100;" horiz-adv-x="698" 
d="M422 700h-146l-257 -700h133l54 160h285l55 -160h133zM242 264l107 315l107 -315h-214zM200 801v80h298v-80h-298z" />
    <glyph glyph-name="amacron" unicode="&#x101;" horiz-adv-x="565" 
d="M384 276v49q0 52 -27 80t-91 28q-74 0 -132 -48l-68 68q91 77 214 77q121 0 171.5 -58.5t50.5 -166.5v-305h-118v43q-57 -55 -152 -55q-85 0 -140 47.5t-55 121.5t55 121.5t140 47.5q87 0 152 -50zM262 84q75 0 122 46v54q-51 46 -122 46q-49 0 -77 -18.5t-28 -54.5
t28 -54.5t77 -18.5zM134 627v80h298v-80h-298z" />
    <glyph glyph-name="Abreve" unicode="&#x102;" horiz-adv-x="698" 
d="M276 700h146l257 -700h-133l-55 160h-285l-54 -160h-133zM349 579l-107 -315h214zM349 763q-65 0 -105.5 36.5t-56.5 100.5l76 18q23 -79 86 -79t86 79l76 -18q-16 -64 -56.5 -100.5t-105.5 -36.5z" />
    <glyph glyph-name="abreve" unicode="&#x103;" horiz-adv-x="565" 
d="M384 276v49q0 52 -27 80t-91 28q-74 0 -132 -48l-68 68q91 77 214 77q121 0 171.5 -58.5t50.5 -166.5v-305h-118v43q-57 -55 -152 -55q-85 0 -140 47.5t-55 121.5t55 121.5t140 47.5q87 0 152 -50zM262 84q75 0 122 46v54q-51 46 -122 46q-49 0 -77 -18.5t-28 -54.5
t28 -54.5t77 -18.5zM284 591q-65 0 -105.5 36.5t-56.5 100.5l76 18q23 -79 86 -79t86 79l76 -18q-16 -64 -56.5 -100.5t-105.5 -36.5z" />
    <glyph glyph-name="Aogonek" unicode="&#x104;" horiz-adv-x="698" 
d="M422 700l257 -700q-61 -49 -61 -101q0 -21 12 -33t31 -12q26 0 44 20l45 -53q-45 -40 -108 -40q-51 0 -82.5 29.5t-31.5 72.5q0 69 65 117h-47l-55 160h-285l-54 -160h-133l257 700h146zM349 579l-107 -315h214z" />
    <glyph glyph-name="aogonek" unicode="&#x105;" horiz-adv-x="565" 
d="M416 0h-32v43q-57 -55 -152 -55q-85 0 -140 47.5t-55 121.5t55 121.5t140 47.5q87 0 152 -50v49q0 52 -27 80t-91 28q-74 0 -132 -48l-68 68q91 77 214 77q121 0 171.5 -58.5t50.5 -166.5v-305q-61 -49 -61 -101q0 -21 12.5 -33t30.5 -12q26 0 44 20l45 -53
q-45 -40 -108 -40q-51 0 -82.5 29.5t-31.5 72.5q0 69 65 117zM262 84q75 0 122 46v54q-51 46 -122 46q-49 0 -77 -18.5t-28 -54.5t28 -54.5t77 -18.5z" />
    <glyph glyph-name="Cacute" unicode="&#x106;" horiz-adv-x="694" 
d="M43 350q0 162 91.5 262t241.5 100q95 0 169.5 -40.5t115.5 -111.5l-102 -55q-67 101 -178 101q-93 0 -152.5 -67.5t-59.5 -188.5t59.5 -188.5t152.5 -67.5q111 0 178 101l102 -55q-41 -71 -115.5 -111.5t-169.5 -40.5q-150 0 -241.5 100t-91.5 262zM498 877l-160 -129
l-50 51l142 143z" />
    <glyph glyph-name="cacute" unicode="&#x107;" horiz-adv-x="546" 
d="M38 259q0 121 69.5 196t186.5 75q152 0 226 -126l-91 -48q-51 78 -130 78q-65 0 -103 -46.5t-38 -128.5t38 -128.5t103 -46.5q79 0 130 78l91 -48q-74 -126 -226 -126q-117 0 -186.5 75t-69.5 196zM400 703l-160 -129l-50 51l142 143z" />
    <glyph glyph-name="Ccircumflex" unicode="&#x108;" horiz-adv-x="694" 
d="M43 350q0 162 91.5 262t241.5 100q95 0 169.5 -40.5t115.5 -111.5l-102 -55q-67 101 -178 101q-93 0 -152.5 -67.5t-59.5 -188.5t59.5 -188.5t152.5 -67.5q111 0 178 101l102 -55q-41 -71 -115.5 -111.5t-169.5 -40.5q-150 0 -241.5 100t-91.5 262zM478 748l-110 97
l-110 -97l-53 44l129 135h68l129 -135z" />
    <glyph glyph-name="ccircumflex" unicode="&#x109;" horiz-adv-x="546" 
d="M38 259q0 121 69.5 196t186.5 75q152 0 226 -126l-91 -48q-51 78 -130 78q-65 0 -103 -46.5t-38 -128.5t38 -128.5t103 -46.5q79 0 130 78l91 -48q-74 -126 -226 -126q-117 0 -186.5 75t-69.5 196zM391 574l-110 97l-110 -97l-53 44l129 135h68l129 -135z" />
    <glyph glyph-name="Cdotaccent" unicode="&#x10a;" horiz-adv-x="694" 
d="M43 350q0 -162 91.5 -262t241.5 -100q95 0 169.5 40.5t115.5 111.5l-102 55q-67 -101 -178 -101q-93 0 -152.5 67.5t-59.5 188.5t59.5 188.5t152.5 67.5q111 0 178 -101l102 55q-41 71 -115.5 111.5t-169.5 40.5q-150 0 -241.5 -100t-91.5 -262zM297 841q0 26 18.5 44.5
t44.5 18.5t44.5 -18.5t18.5 -44.5t-18.5 -44.5t-44.5 -18.5t-44.5 18.5t-18.5 44.5z" />
    <glyph glyph-name="cdotaccent" unicode="&#x10b;" horiz-adv-x="546" 
d="M38 259q0 -121 69.5 -196t186.5 -75q152 0 226 126l-91 48q-51 -78 -130 -78q-65 0 -103 46.5t-38 128.5t38 128.5t103 46.5q79 0 130 -78l91 48q-74 126 -226 126q-117 0 -186.5 -75t-69.5 -196zM214 667q0 26 18.5 44.5t44.5 18.5t44.5 -18.5t18.5 -44.5t-18.5 -44.5
t-44.5 -18.5t-44.5 18.5t-18.5 44.5z" />
    <glyph glyph-name="Ccaron" unicode="&#x10c;" horiz-adv-x="694" 
d="M43 350q0 -162 91.5 -262t241.5 -100q95 0 169.5 40.5t115.5 111.5l-102 55q-67 -101 -178 -101q-93 0 -152.5 67.5t-59.5 188.5t59.5 188.5t152.5 67.5q111 0 178 -101l102 55q-41 71 -115.5 111.5t-169.5 40.5q-150 0 -241.5 -100t-91.5 -262zM365 842l110 97l53 -44
l-129 -135h-68l-129 135l53 44z" />
    <glyph glyph-name="ccaron" unicode="&#x10d;" horiz-adv-x="546" 
d="M38 259q0 -121 69.5 -196t186.5 -75q152 0 226 126l-91 48q-51 -78 -130 -78q-65 0 -103 46.5t-38 128.5t38 128.5t103 46.5q79 0 130 -78l91 48q-74 126 -226 126q-117 0 -186.5 -75t-69.5 -196zM285 668l110 97l53 -44l-129 -135h-68l-129 135l53 44z" />
    <glyph glyph-name="Dcaron" unicode="&#x10e;" horiz-adv-x="698" 
d="M319 0h-242v700h242q156 0 246 -95t90 -255t-90 -255t-246 -95zM201 596v-492h110q103 0 160.5 63.5t57.5 182.5t-57.5 182.5t-160.5 63.5h-110zM295 842l110 97l53 -44l-129 -135h-68l-129 135l53 44z" />
    <glyph glyph-name="dcaron" unicode="&#x10f;" horiz-adv-x="729" 
d="M44 259q0 -126 59 -198.5t165 -72.5q91 0 156 62v-50h118v730h-118v-262q-65 62 -156 62q-106 0 -165 -72.5t-59 -198.5zM298 433q34 0 68.5 -14.5t57.5 -40.5v-238q-23 -26 -57.5 -40.5t-68.5 -14.5q-134 0 -134 174t134 174zM581 500l67 242l93 -31l-91 -231z" />
    <glyph glyph-name="Dcroat" unicode="&#x110;" horiz-adv-x="698" 
d="M319 0h-242v312h-74v76h74v312h242q156 0 246 -95t90 -255t-90 -255t-246 -95zM201 312v-208h110q103 0 160.5 63.5t57.5 182.5t-57.5 182.5t-160.5 63.5h-110v-208h149v-76h-149z" />
    <glyph glyph-name="dcroat" unicode="&#x111;" horiz-adv-x="609" 
d="M424 590h-196v73h196v67h118v-67h62v-73h-62v-590h-118v50q-65 -62 -156 -62q-106 0 -165 72.5t-59 198.5t59 198.5t165 72.5q91 0 156 -62v122zM298 433q-134 0 -134 -174t134 -174q34 0 68.5 14.5t57.5 40.5v238q-23 26 -57.5 40.5t-68.5 14.5z" />
    <glyph glyph-name="Emacron" unicode="&#x112;" horiz-adv-x="578" 
d="M77 0v700h452v-104h-328v-184h293v-104h-293v-204h337v-104h-461zM158 801v80h298v-80h-298z" />
    <glyph glyph-name="emacron" unicode="&#x113;" horiz-adv-x="580" 
d="M542 256q0 -29 -2 -40h-382q8 -60 48.5 -96t100.5 -36q76 0 129 66l83 -59q-76 -103 -211 -103q-121 0 -195.5 75.5t-74.5 195.5q0 119 70 195t183 76q111 0 181 -76.5t70 -197.5zM291 434q-55 0 -90.5 -34t-43.5 -94h266q-4 58 -41 93t-91 35zM139 627v80h298v-80h-298z
" />
    <glyph glyph-name="Ebreve" unicode="&#x114;" horiz-adv-x="578" 
d="M77 0v700h452v-104h-328v-184h293v-104h-293v-204h337v-104h-461zM306 763q-65 0 -105.5 36.5t-56.5 100.5l76 18q23 -79 86 -79t86 79l76 -18q-16 -64 -56.5 -100.5t-105.5 -36.5z" />
    <glyph glyph-name="ebreve" unicode="&#x115;" horiz-adv-x="580" 
d="M542 256q0 -29 -2 -40h-382q8 -60 48.5 -96t100.5 -36q76 0 129 66l83 -59q-76 -103 -211 -103q-121 0 -195.5 75.5t-74.5 195.5q0 119 70 195t183 76q111 0 181 -76.5t70 -197.5zM291 434q-55 0 -90.5 -34t-43.5 -94h266q-4 58 -41 93t-91 35zM287 591
q-65 0 -105.5 36.5t-56.5 100.5l76 18q23 -79 86 -79t86 79l76 -18q-16 -64 -56.5 -100.5t-105.5 -36.5z" />
    <glyph glyph-name="Edotaccent" unicode="&#x116;" horiz-adv-x="578" 
d="M77 0v700h452v-104h-328v-184h293v-104h-293v-204h337v-104h-461zM243 841q0 26 18.5 44.5t44.5 18.5t44.5 -18.5t18.5 -44.5t-18.5 -44.5t-44.5 -18.5t-44.5 18.5t-18.5 44.5z" />
    <glyph glyph-name="edotaccent" unicode="&#x117;" horiz-adv-x="580" 
d="M542 256q0 -29 -2 -40h-382q8 -60 48.5 -96t100.5 -36q76 0 129 66l83 -59q-76 -103 -211 -103q-121 0 -195.5 75.5t-74.5 195.5q0 119 70 195t183 76q111 0 181 -76.5t70 -197.5zM291 434q-55 0 -90.5 -34t-43.5 -94h266q-4 58 -41 93t-91 35zM224 667q0 26 18.5 44.5
t44.5 18.5t44.5 -18.5t18.5 -44.5t-18.5 -44.5t-44.5 -18.5t-44.5 18.5t-18.5 44.5z" />
    <glyph glyph-name="Eogonek" unicode="&#x118;" horiz-adv-x="578" 
d="M77 0v700h452v-104h-328v-184h293v-104h-293v-204h337v-104h-53q-61 -49 -61 -101q0 -21 12 -33t31 -12q26 0 44 20l45 -53q-45 -40 -108 -40q-51 0 -82.5 29.5t-31.5 72.5q0 69 65 117h-322z" />
    <glyph glyph-name="eogonek" unicode="&#x119;" horiz-adv-x="580" 
d="M542 256q0 -29 -2 -40h-382q8 -60 48.5 -96t100.5 -36q76 0 129 66l83 -59q-57 -77 -153 -97q-53 -45 -53 -95q0 -21 12.5 -33t30.5 -12q26 0 44 20l45 -53q-45 -40 -108 -40q-51 0 -82.5 29.5t-31.5 72.5q0 62 52 107q-108 10 -172.5 84t-64.5 185q0 119 70 195t183 76
q111 0 181 -76.5t70 -197.5zM291 434q-55 0 -90.5 -34t-43.5 -94h266q-4 58 -41 93t-91 35z" />
    <glyph glyph-name="Ecaron" unicode="&#x11a;" horiz-adv-x="578" 
d="M77 0v700h452v-104h-328v-184h293v-104h-293v-204h337v-104h-461zM307 842l110 97l53 -44l-129 -135h-68l-129 135l53 44z" />
    <glyph glyph-name="ecaron" unicode="&#x11b;" horiz-adv-x="580" 
d="M542 256q0 -29 -2 -40h-382q8 -60 48.5 -96t100.5 -36q76 0 129 66l83 -59q-76 -103 -211 -103q-121 0 -195.5 75.5t-74.5 195.5q0 119 70 195t183 76q111 0 181 -76.5t70 -197.5zM291 434q-55 0 -90.5 -34t-43.5 -94h266q-4 58 -41 93t-91 35zM288 668l110 97l53 -44
l-129 -135h-68l-129 135l53 44z" />
    <glyph glyph-name="Gcircumflex" unicode="&#x11c;" horiz-adv-x="720" 
d="M43 350q0 162 91 262t235 100q198 0 290 -151l-102 -55q-65 100 -184 100q-87 0 -145.5 -68t-58.5 -188q0 -119 62 -187.5t157 -68.5q108 0 154 62v116h-158v104h278v-265q-95 -123 -276 -123q-152 0 -247.5 101t-95.5 261zM476 748l-110 97l-110 -97l-53 44l129 135h68
l129 -135z" />
    <glyph glyph-name="gcircumflex" unicode="&#x11d;" horiz-adv-x="609" 
d="M424 468v50h118v-496q0 -119 -63 -182.5t-178 -63.5q-151 0 -234 107l85 57q59 -73 143 -73q59 0 94 35.5t35 103.5v44q-65 -62 -156 -62q-106 0 -165 72.5t-59 198.5t59 198.5t165 72.5q91 0 156 -62zM298 433q-134 0 -134 -174t134 -174q34 0 68.5 14.5t57.5 40.5v238
q-23 26 -57.5 40.5t-68.5 14.5zM417 574l-110 97l-110 -97l-53 44l129 135h68l129 -135z" />
    <glyph glyph-name="Gbreve" unicode="&#x11e;" horiz-adv-x="720" 
d="M43 350q0 162 91 262t235 100q198 0 290 -151l-102 -55q-65 100 -184 100q-87 0 -145.5 -68t-58.5 -188q0 -119 62 -187.5t157 -68.5q108 0 154 62v116h-158v104h278v-265q-95 -123 -276 -123q-152 0 -247.5 101t-95.5 261zM366 763q-65 0 -105.5 36.5t-56.5 100.5l76 18
q23 -79 86 -79t86 79l76 -18q-16 -64 -56.5 -100.5t-105.5 -36.5z" />
    <glyph glyph-name="gbreve" unicode="&#x11f;" horiz-adv-x="609" 
d="M424 468v50h118v-496q0 -119 -63 -182.5t-178 -63.5q-151 0 -234 107l85 57q59 -73 143 -73q59 0 94 35.5t35 103.5v44q-65 -62 -156 -62q-106 0 -165 72.5t-59 198.5t59 198.5t165 72.5q91 0 156 -62zM298 433q-134 0 -134 -174t134 -174q34 0 68.5 14.5t57.5 40.5v238
q-23 26 -57.5 40.5t-68.5 14.5zM307 591q-65 0 -105.5 36.5t-56.5 100.5l76 18q23 -79 86 -79t86 79l76 -18q-16 -64 -56.5 -100.5t-105.5 -36.5z" />
    <glyph glyph-name="Gdotaccent" unicode="&#x120;" horiz-adv-x="720" 
d="M43 350q0 162 91 262t235 100q198 0 290 -151l-102 -55q-65 100 -184 100q-87 0 -145.5 -68t-58.5 -188q0 -119 62 -187.5t157 -68.5q108 0 154 62v116h-158v104h278v-265q-95 -123 -276 -123q-152 0 -247.5 101t-95.5 261zM303 841q0 26 18.5 44.5t44.5 18.5t44.5 -18.5
t18.5 -44.5t-18.5 -44.5t-44.5 -18.5t-44.5 18.5t-18.5 44.5z" />
    <glyph glyph-name="gdotaccent" unicode="&#x121;" horiz-adv-x="609" 
d="M424 468v50h118v-496q0 -119 -63 -182.5t-178 -63.5q-151 0 -234 107l85 57q59 -73 143 -73q59 0 94 35.5t35 103.5v44q-65 -62 -156 -62q-106 0 -165 72.5t-59 198.5t59 198.5t165 72.5q91 0 156 -62zM298 433q-134 0 -134 -174t134 -174q34 0 68.5 14.5t57.5 40.5v238
q-23 26 -57.5 40.5t-68.5 14.5zM244 667q0 26 18.5 44.5t44.5 18.5t44.5 -18.5t18.5 -44.5t-18.5 -44.5t-44.5 -18.5t-44.5 18.5t-18.5 44.5z" />
    <glyph glyph-name="Gcommaaccent" unicode="&#x122;" horiz-adv-x="720" 
d="M43 350q0 162 91 262t235 100q198 0 290 -151l-102 -55q-65 100 -184 100q-87 0 -145.5 -68t-58.5 -188q0 -119 62 -187.5t157 -68.5q108 0 154 62v116h-158v104h278v-265q-95 -123 -276 -123q-152 0 -247.5 101t-95.5 261zM312 -243l58 201l88 -30l-77 -195z" />
    <glyph glyph-name="gcommaaccent" unicode="&#x123;" horiz-adv-x="609" 
d="M424 518v-50q-65 62 -156 62q-106 0 -165 -72.5t-59 -198.5t59 -198.5t165 -72.5q91 0 156 62v-44q0 -68 -35 -103.5t-94 -35.5q-84 0 -143 73l-85 -57q83 -107 234 -107q115 0 178 63.5t63 182.5v496h-118zM298 433q34 0 68.5 -14.5t57.5 -40.5v-238
q-23 -26 -57.5 -40.5t-68.5 -14.5q-134 0 -134 174t134 174zM388 780l-58 -201l-88 30l77 195z" />
    <glyph glyph-name="Hcircumflex" unicode="&#x124;" horiz-adv-x="718" 
d="M77 0v700h124v-278h316v278h124v-700h-124v318h-316v-318h-124zM469 748l-110 97l-110 -97l-53 44l129 135h68l129 -135z" />
    <glyph glyph-name="hcircumflex" unicode="&#x125;" horiz-adv-x="605" 
d="M324 434q-41 0 -78.5 -20.5t-60.5 -49.5v-364h-118v730h118v-272q72 72 174 72q84 0 133.5 -50.5t49.5 -143.5v-336h-118v319q0 115 -100 115zM237 748l-110 97l-110 -97l-53 44l129 135h68l129 -135z" />
    <glyph glyph-name="Hbar" unicode="&#x126;" horiz-adv-x="718" 
d="M701 531h-60v-531h-124v318h-316v-318h-124v531h-60v76h60v93h124v-93h316v93h124v-93h60v-76zM201 422h316v109h-316v-109z" />
    <glyph glyph-name="hbar" unicode="&#x127;" horiz-adv-x="605" 
d="M381 590h-196v-132q72 72 174 72q84 0 133.5 -50.5t49.5 -143.5v-336h-118v319q0 115 -100 115q-41 0 -78.5 -20.5t-60.5 -49.5v-364h-118v590h-62v73h62v67h118v-67h196v-73z" />
    <glyph glyph-name="Itilde" unicode="&#x128;" horiz-adv-x="288" 
d="M82 700h124v-700h-124v700zM48 784l-74 10q10 56 37 85.5t68 29.5q39 0 79 -28q27 -20 47 -20q28 0 35 42l74 -10q-10 -56 -37 -85.5t-68 -29.5q-39 0 -79 28q-27 20 -47 20q-28 0 -35 -42z" />
    <glyph glyph-name="itilde" unicode="&#x129;" horiz-adv-x="263" 
d="M72 0v518h118v-518h-118zM35 610l-74 10q10 56 37 85.5t68 29.5q39 0 79 -28q27 -20 47 -20q28 0 35 42l74 -10q-10 -56 -37 -85.5t-68 -29.5q-39 0 -79 28q-27 20 -47 20q-28 0 -35 -42z" />
    <glyph glyph-name="Imacron" unicode="&#x12a;" horiz-adv-x="288" 
d="M82 700h124v-700h-124v700zM-5 801v80h298v-80h-298z" />
    <glyph glyph-name="imacron" unicode="&#x12b;" horiz-adv-x="263" 
d="M72 0v518h118v-518h-118zM-18 627v80h298v-80h-298z" />
    <glyph glyph-name="Ibreve" unicode="&#x12c;" horiz-adv-x="288" 
d="M82 700h124v-700h-124v700zM144 763q-65 0 -105.5 36.5t-56.5 100.5l76 18q23 -79 86 -79t86 79l76 -18q-16 -64 -56.5 -100.5t-105.5 -36.5z" />
    <glyph glyph-name="ibreve" unicode="&#x12d;" horiz-adv-x="263" 
d="M72 0v518h118v-518h-118zM131 591q-65 0 -105.5 36.5t-56.5 100.5l76 18q23 -79 86 -79t86 79l76 -18q-16 -64 -56.5 -100.5t-105.5 -36.5z" />
    <glyph glyph-name="Iogonek" unicode="&#x12e;" horiz-adv-x="288" 
d="M120 0h-38v700h124v-700q-61 -49 -61 -101q0 -21 12.5 -33t30.5 -12q26 0 44 20l45 -53q-45 -40 -108 -40q-51 0 -82.5 29.5t-31.5 72.5q0 69 65 117z" />
    <glyph glyph-name="iogonek" unicode="&#x12f;" horiz-adv-x="262" 
d="M72 0v518h118v-518q-61 -49 -61 -101q0 -21 12.5 -33t30.5 -12q26 0 44 20l45 -53q-45 -40 -108 -40q-51 0 -82.5 29.5t-31.5 72.5q0 69 65 117h-32zM204 667q0 -31 -21 -51.5t-52 -20.5t-52 20.5t-21 51.5t21 51.5t52 20.5t52 -20.5t21 -51.5z" />
    <glyph glyph-name="Idotaccent" unicode="&#x130;" horiz-adv-x="287" 
d="M82 700h124v-700h-124v700zM80 841q0 26 18.5 44.5t44.5 18.5t44.5 -18.5t18.5 -44.5t-18.5 -44.5t-44.5 -18.5t-44.5 18.5t-18.5 44.5z" />
    <glyph glyph-name="dotlessi" unicode="&#x131;" horiz-adv-x="262" 
d="M72 0v518h118v-518h-118z" />
    <glyph glyph-name="IJ" unicode="&#x132;" horiz-adv-x="872" 
d="M82 700h124v-700h-124v700zM548 94q60 0 91.5 40t31.5 110v456h124v-453q0 -120 -63 -189.5t-180 -69.5q-82 0 -145 37t-99 106l100 55q50 -92 140 -92z" />
    <glyph glyph-name="ij" unicode="&#x133;" horiz-adv-x="522" 
d="M72 0v518h118v-518h-118zM204 667q0 -31 -21 -51.5t-52 -20.5t-52 20.5t-21 51.5t21 51.5t52 20.5t52 -20.5t21 -51.5zM256 -224q-28 0 -48 3v94q13 -1 44 -1q44 0 62 21t18 65v560h118v-547q0 -102 -45 -148.5t-149 -46.5zM464 667q0 -31 -21 -51.5t-52 -20.5t-52 20.5
t-21 51.5t21 51.5t52 20.5t52 -20.5t21 -51.5z" />
    <glyph glyph-name="Jcircumflex" unicode="&#x134;" horiz-adv-x="592" 
d="M268 94q60 0 91.5 40t31.5 110v456h124v-453q0 -120 -63 -189.5t-180 -69.5q-82 0 -145 37t-99 106l100 55q50 -92 140 -92zM563 748l-110 97l-110 -97l-53 44l129 135h68l129 -135z" />
    <glyph glyph-name="jcircumflex" unicode="&#x135;" horiz-adv-x="262" 
d="M-4 -224q-28 0 -48 3v94q13 -1 44 -1q44 0 62 21t18 65v560h118v-547q0 -102 -45 -148.5t-149 -46.5zM241 574l-110 97l-110 -97l-53 44l129 135h68l129 -135z" />
    <glyph glyph-name="Kcommaaccent" unicode="&#x136;" horiz-adv-x="644" 
d="M604 700l-224 -288l255 -412h-137l-191 317l-106 -136v-181h-124v700h124v-344l261 344h142zM250 -243l58 201l88 -30l-77 -195z" />
    <glyph glyph-name="kcommaaccent" unicode="&#x137;" horiz-adv-x="553" 
d="M67 730h118v-443l200 231h137l-176 -200l202 -318h-130l-144 236l-89 -102v-134h-118v730zM203 -243l58 201l88 -30l-77 -195z" />
    <glyph glyph-name="kgreenlandic" unicode="&#x138;" horiz-adv-x="553" 
d="M67 518h118v-231l200 231h137l-176 -200l202 -318h-130l-144 236l-89 -102v-134h-118v518z" />
    <glyph glyph-name="Lacute" unicode="&#x139;" horiz-adv-x="548" 
d="M77 0v700h124v-596h328v-104h-452zM298 877l-160 -129l-50 51l142 143z" />
    <glyph glyph-name="lacute" unicode="&#x13a;" horiz-adv-x="262" 
d="M72 0v730h118v-730h-118zM291 877l-160 -129l-50 51l142 143z" />
    <glyph glyph-name="Lcommaaccent" unicode="&#x13b;" horiz-adv-x="548" 
d="M77 0v700h124v-596h328v-104h-452zM223 -243l58 201l88 -30l-77 -195z" />
    <glyph glyph-name="lcommaaccent" unicode="&#x13c;" horiz-adv-x="262" 
d="M72 0v730h118v-730h-118zM40 -243l58 201l88 -30l-77 -195z" />
    <glyph glyph-name="Lcaron" unicode="&#x13d;" horiz-adv-x="548" 
d="M77 0v700h124v-596h328v-104h-452zM329 500l67 242l93 -31l-91 -231z" />
    <glyph glyph-name="lcaron" unicode="&#x13e;" horiz-adv-x="375" 
d="M72 0v730h118v-730h-118zM227 500l67 242l93 -31l-91 -231z" />
    <glyph glyph-name="Ldot" unicode="&#x13f;" horiz-adv-x="548" 
d="M77 0v700h124v-596h328v-104h-452zM328 377q0 26 18.5 44.5t44.5 18.5t44.5 -18.5t18.5 -44.5t-18.5 -44.5t-44.5 -18.5t-44.5 18.5t-18.5 44.5z" />
    <glyph glyph-name="ldot" unicode="&#x140;" horiz-adv-x="451" 
d="M77 0v730h118v-730h-118zM297 377q0 26 18.5 44.5t44.5 18.5t44.5 -18.5t18.5 -44.5t-18.5 -44.5t-44.5 -18.5t-44.5 18.5t-18.5 44.5z" />
    <glyph glyph-name="Lslash" unicode="&#x141;" horiz-adv-x="548" 
d="M480 519l-279 -182v-233h328v-104h-452v256l-70 -45l-38 62l108 70v357h124v-276l241 157z" />
    <glyph glyph-name="lslash" unicode="&#x142;" horiz-adv-x="386" 
d="M134 0v306l-107 -69l-38 60l145 94v339h118v-262l107 70l38 -60l-145 -95v-383h-118z" />
    <glyph glyph-name="Nacute" unicode="&#x143;" horiz-adv-x="720" 
d="M77 0v700h120l322 -494v494h124v-700h-120l-322 494v-494h-124zM510 877l-160 -129l-50 51l142 143z" />
    <glyph glyph-name="nacute" unicode="&#x144;" horiz-adv-x="605" 
d="M324 434q-41 0 -78.5 -20.5t-60.5 -49.5v-364h-118v518h118v-60q72 72 174 72q84 0 133.5 -50.5t49.5 -143.5v-336h-118v319q0 115 -100 115zM440 703l-160 -129l-50 51l142 143z" />
    <glyph glyph-name="Ncommaaccent" unicode="&#x145;" horiz-adv-x="720" 
d="M77 0v700h120l322 -494v494h124v-700h-120l-322 494v-494h-124zM291 -243l58 201l88 -30l-77 -195z" />
    <glyph glyph-name="ncommaaccent" unicode="&#x146;" horiz-adv-x="605" 
d="M324 434q-41 0 -78.5 -20.5t-60.5 -49.5v-364h-118v518h118v-60q72 72 174 72q84 0 133.5 -50.5t49.5 -143.5v-336h-118v319q0 115 -100 115zM213 -243l58 201l88 -30l-77 -195z" />
    <glyph glyph-name="Ncaron" unicode="&#x147;" horiz-adv-x="720" 
d="M77 0v700h120l322 -494v494h124v-700h-120l-322 494v-494h-124zM360 842l110 97l53 -44l-129 -135h-68l-129 135l53 44z" />
    <glyph glyph-name="ncaron" unicode="&#x148;" horiz-adv-x="605" 
d="M324 434q-41 0 -78.5 -20.5t-60.5 -49.5v-364h-118v518h118v-60q72 72 174 72q84 0 133.5 -50.5t49.5 -143.5v-336h-118v319q0 115 -100 115zM302 668l110 97l53 -44l-129 -135h-68l-129 135l53 44z" />
    <glyph glyph-name="napostrophe" unicode="&#x149;" horiz-adv-x="668" 
d="M387 434q-41 0 -78.5 -20.5t-60.5 -49.5v-364h-118v518h118v-60q72 72 174 72q84 0 133.5 -50.5t49.5 -143.5v-336h-118v319q0 115 -100 115zM-12 500l67 242l93 -31l-91 -231z" />
    <glyph glyph-name="Eng" unicode="&#x14a;" horiz-adv-x="720" 
d="M519 -42v49l-318 487v-494h-124v700h120l322 -493v493h124v-729q0 -102 -45 -148.5t-149 -46.5q-29 0 -48 3v94q13 -1 44 -1q41 0 57.5 20.5t16.5 65.5z" />
    <glyph glyph-name="eng" unicode="&#x14b;" horiz-adv-x="605" 
d="M424 -42v361q0 115 -100 115q-41 0 -78.5 -20.5t-60.5 -49.5v-364h-118v518h118v-60q72 72 174 72q84 0 133.5 -50.5t49.5 -143.5v-365q0 -102 -45 -148.5t-149 -46.5q-28 0 -48 3v94q13 -1 44 -1q44 0 62 21t18 65z" />
    <glyph glyph-name="Omacron" unicode="&#x14c;" horiz-adv-x="730" 
d="M687 350q0 -157 -86.5 -259.5t-235.5 -102.5t-235.5 102.5t-86.5 259.5t86.5 259.5t235.5 102.5t235.5 -102.5t86.5 -259.5zM561 350q0 118 -53 187t-143 69t-143 -69t-53 -187t53 -187t143 -69t143 69t53 187zM216 801v80h298v-80h-298z" />
    <glyph glyph-name="omacron" unicode="&#x14d;" horiz-adv-x="592" 
d="M554 259q0 -122 -70.5 -196.5t-187.5 -74.5t-187.5 74.5t-70.5 196.5t70.5 196.5t187.5 74.5t187.5 -74.5t70.5 -196.5zM434 259q0 81 -36.5 128t-101.5 47t-101.5 -47t-36.5 -128t36.5 -128t101.5 -47t101.5 47t36.5 128zM147 627v80h298v-80h-298z" />
    <glyph glyph-name="Obreve" unicode="&#x14e;" horiz-adv-x="730" 
d="M687 350q0 -157 -86.5 -259.5t-235.5 -102.5t-235.5 102.5t-86.5 259.5t86.5 259.5t235.5 102.5t235.5 -102.5t86.5 -259.5zM561 350q0 118 -53 187t-143 69t-143 -69t-53 -187t53 -187t143 -69t143 69t53 187zM365 763q-65 0 -105.5 36.5t-56.5 100.5l76 18
q23 -79 86 -79t86 79l76 -18q-16 -64 -56.5 -100.5t-105.5 -36.5z" />
    <glyph glyph-name="obreve" unicode="&#x14f;" horiz-adv-x="592" 
d="M554 259q0 -122 -70.5 -196.5t-187.5 -74.5t-187.5 74.5t-70.5 196.5t70.5 196.5t187.5 74.5t187.5 -74.5t70.5 -196.5zM434 259q0 81 -36.5 128t-101.5 47t-101.5 -47t-36.5 -128t36.5 -128t101.5 -47t101.5 47t36.5 128zM296 591q-65 0 -105.5 36.5t-56.5 100.5l76 18
q23 -79 86 -79t86 79l76 -18q-16 -64 -56.5 -100.5t-105.5 -36.5z" />
    <glyph glyph-name="Ohungarumlaut" unicode="&#x150;" horiz-adv-x="730" 
d="M687 350q0 -157 -86.5 -259.5t-235.5 -102.5t-235.5 102.5t-86.5 259.5t86.5 259.5t235.5 102.5t235.5 -102.5t86.5 -259.5zM561 350q0 118 -53 187t-143 69t-143 -69t-53 -187t53 -187t143 -69t143 69t53 187zM524 936l68 -64l-155 -130l-56 50zM330 936l71 -61
l-126 -133l-57 48z" />
    <glyph glyph-name="ohungarumlaut" unicode="&#x151;" horiz-adv-x="592" 
d="M554 259q0 -122 -70.5 -196.5t-187.5 -74.5t-187.5 74.5t-70.5 196.5t70.5 196.5t187.5 74.5t187.5 -74.5t70.5 -196.5zM434 259q0 81 -36.5 128t-101.5 47t-101.5 -47t-36.5 -128t36.5 -128t101.5 -47t101.5 47t36.5 128zM439 762l68 -64l-155 -130l-56 50zM245 762
l71 -61l-126 -133l-57 48z" />
    <glyph glyph-name="OE" unicode="&#x152;" horiz-adv-x="862" 
d="M372 700h441v-104h-275v-184h240v-104h-240v-204h284v-104h-450q-154 0 -241.5 95t-87.5 255t87.5 255t241.5 95zM169 350q0 -120 57 -183t151 -63h37v492h-37q-93 0 -150.5 -63.5t-57.5 -182.5z" />
    <glyph glyph-name="oe" unicode="&#x153;" horiz-adv-x="977" 
d="M688 434q-55 0 -90.5 -34t-43.5 -94h266q-4 58 -41 93t-91 35zM434 259q0 81 -36.5 128t-101.5 47t-101.5 -47t-36.5 -128t36.5 -128t101.5 -47t101.5 47t36.5 128zM697 -12q-62 0 -116 26t-86 70q-70 -96 -199 -96q-117 0 -187.5 74.5t-70.5 196.5t70.5 196.5
t187.5 74.5q129 0 199 -96q70 96 193 96q111 0 181 -76.5t70 -197.5q0 -29 -2 -40h-382q8 -60 48.5 -96t100.5 -36q76 0 129 66l83 -59q-76 -103 -219 -103z" />
    <glyph glyph-name="Racute" unicode="&#x154;" horiz-adv-x="650" 
d="M588 489q0 -74 -37.5 -124t-107.5 -70l188 -295h-136l-171 279h-123v-279h-124v700h244q129 0 198 -53.5t69 -157.5zM462 489q0 56 -33.5 81.5t-106.5 25.5h-121v-213h121q73 0 106.5 25.5t33.5 80.5zM407 877l-160 -129l-50 51l142 143z" />
    <glyph glyph-name="racute" unicode="&#x155;" horiz-adv-x="388" 
d="M374 528v-98q-20 2 -42 2q-45 0 -84.5 -21t-62.5 -57v-354h-118v518h118v-63q56 75 156 75q13 0 33 -2zM328 703l-160 -129l-50 51l142 143z" />
    <glyph glyph-name="Rcommaaccent" unicode="&#x156;" horiz-adv-x="650" 
d="M588 489q0 -74 -37.5 -124t-107.5 -70l188 -295h-136l-171 279h-123v-279h-124v700h244q129 0 198 -53.5t69 -157.5zM462 489q0 56 -33.5 81.5t-106.5 25.5h-121v-213h121q73 0 106.5 25.5t33.5 80.5zM247 -243l58 201l88 -30l-77 -195z" />
    <glyph glyph-name="rcommaaccent" unicode="&#x157;" horiz-adv-x="388" 
d="M374 528v-98q-20 2 -42 2q-45 0 -84.5 -21t-62.5 -57v-354h-118v518h118v-63q56 75 156 75q13 0 33 -2zM33 -243l58 201l88 -30l-77 -195z" />
    <glyph glyph-name="Rcaron" unicode="&#x158;" horiz-adv-x="650" 
d="M588 489q0 -74 -37.5 -124t-107.5 -70l188 -295h-136l-171 279h-123v-279h-124v700h244q129 0 198 -53.5t69 -157.5zM462 489q0 56 -33.5 81.5t-106.5 25.5h-121v-213h121q73 0 106.5 25.5t33.5 80.5zM294 842l110 97l53 -44l-129 -135h-68l-129 135l53 44z" />
    <glyph glyph-name="rcaron" unicode="&#x159;" horiz-adv-x="388" 
d="M374 528v-98q-20 2 -42 2q-45 0 -84.5 -21t-62.5 -57v-354h-118v518h118v-63q56 75 156 75q13 0 33 -2zM213 668l110 97l53 -44l-129 -135h-68l-129 135l53 44z" />
    <glyph glyph-name="Sacute" unicode="&#x15a;" horiz-adv-x="612" 
d="M318 94q57 0 91.5 25t34.5 65q0 48 -34 74t-134 54q-112 31 -162 82t-50 129q0 86 60.5 137.5t168.5 51.5q154 0 250 -111l-86 -66q-66 71 -155 71q-55 0 -83.5 -21.5t-28.5 -58.5q0 -39 30 -64.5t113 -48.5q126 -35 181.5 -85t55.5 -136q0 -94 -66 -149t-179 -55
q-181 0 -292 123l90 70q79 -87 195 -87zM422 877l-160 -129l-50 51l142 143z" />
    <glyph glyph-name="sacute" unicode="&#x15b;" horiz-adv-x="511" 
d="M56 386q0 65 50 104.5t140 39.5q128 0 208 -82l-78 -64q-47 50 -120 50q-74 0 -74 -45q0 -23 24 -39t95 -37q87 -25 129.5 -65t42.5 -103q0 -73 -52 -115t-150 -42q-153 0 -243 100l83 66q68 -70 150 -70q86 0 86 55q0 29 -23 46t-89 36q-99 28 -139 66t-40 99zM376 703
l-160 -129l-50 51l142 143z" />
    <glyph glyph-name="Scircumflex" unicode="&#x15c;" horiz-adv-x="612" 
d="M318 94q57 0 91.5 25t34.5 65q0 48 -34 74t-134 54q-112 31 -162 82t-50 129q0 86 60.5 137.5t168.5 51.5q154 0 250 -111l-86 -66q-66 71 -155 71q-55 0 -83.5 -21.5t-28.5 -58.5q0 -39 30 -64.5t113 -48.5q126 -35 181.5 -85t55.5 -136q0 -94 -66 -149t-179 -55
q-181 0 -292 123l90 70q79 -87 195 -87zM410 748l-110 97l-110 -97l-53 44l129 135h68l129 -135z" />
    <glyph glyph-name="scircumflex" unicode="&#x15d;" horiz-adv-x="511" 
d="M56 386q0 65 50 104.5t140 39.5q128 0 208 -82l-78 -64q-47 50 -120 50q-74 0 -74 -45q0 -23 24 -39t95 -37q87 -25 129.5 -65t42.5 -103q0 -73 -52 -115t-150 -42q-153 0 -243 100l83 66q68 -70 150 -70q86 0 86 55q0 29 -23 46t-89 36q-99 28 -139 66t-40 99zM358 574
l-110 97l-110 -97l-53 44l129 135h68l129 -135z" />
    <glyph glyph-name="Scedilla" unicode="&#x15e;" horiz-adv-x="612" 
d="M288 -168q49 0 49 36q0 21 -23 33t-62 13l-7 9l31 68q-149 14 -243 120l90 70q79 -87 195 -87q57 0 91.5 25t34.5 65q0 48 -34 74t-134 54q-112 31 -162 82t-50 129q0 86 60.5 137.5t168.5 51.5q154 0 250 -111l-86 -66q-66 71 -155 71q-55 0 -83.5 -21.5t-28.5 -58.5
q0 -39 30 -64.5t113 -48.5q126 -35 181.5 -85t55.5 -136t-55.5 -139.5t-152.5 -62.5l-17 -35q37 -9 59 -34t22 -59q0 -42 -33.5 -71t-96.5 -29q-61 0 -106 37l44 53q23 -20 54 -20z" />
    <glyph glyph-name="scedilla" unicode="&#x15f;" horiz-adv-x="511" 
d="M241 -168q49 0 49 36q0 21 -23 33t-62 13l-7 9l31 67q-124 12 -201 98l83 66q68 -70 150 -70q86 0 86 55q0 29 -23 46t-89 36q-99 28 -139 66t-40 99q0 65 50 104.5t140 39.5q128 0 208 -82l-78 -64q-47 50 -120 50q-74 0 -74 -45q0 -23 24 -39t95 -37q87 -25 129.5 -65
t42.5 -103q0 -64 -40.5 -104.5t-117.5 -49.5l-17 -36q37 -9 59 -34t22 -59q0 -42 -33.5 -71t-96.5 -29q-61 0 -106 37l44 53q23 -20 54 -20z" />
    <glyph glyph-name="Scaron" unicode="&#x160;" horiz-adv-x="612" 
d="M318 94q57 0 91.5 25t34.5 65q0 48 -34 74t-134 54q-112 31 -162 82t-50 129q0 86 60.5 137.5t168.5 51.5q154 0 250 -111l-86 -66q-66 71 -155 71q-55 0 -83.5 -21.5t-28.5 -58.5q0 -39 30 -64.5t113 -48.5q126 -35 181.5 -85t55.5 -136q0 -94 -66 -149t-179 -55
q-181 0 -292 123l90 70q79 -87 195 -87zM293 842l110 97l53 -44l-129 -135h-68l-129 135l53 44z" />
    <glyph glyph-name="scaron" unicode="&#x161;" horiz-adv-x="511" 
d="M56 386q0 65 50 104.5t140 39.5q128 0 208 -82l-78 -64q-47 50 -120 50q-74 0 -74 -45q0 -23 24 -39t95 -37q87 -25 129.5 -65t42.5 -103q0 -73 -52 -115t-150 -42q-153 0 -243 100l83 66q68 -70 150 -70q86 0 86 55q0 29 -23 46t-89 36q-99 28 -139 66t-40 99zM247 668
l110 97l53 -44l-129 -135h-68l-129 135l53 44z" />
    <glyph glyph-name="Tcommaaccent" unicode="&#x162;" horiz-adv-x="582" 
d="M229 0v596h-210v104h544v-104h-210v-596h-15l-22 -45q37 -9 59 -34t22 -59q0 -42 -33.5 -71t-96.5 -29q-61 0 -106 37l44 53q23 -20 54 -20q49 0 49 36q0 21 -23 33t-62 13l-7 9l36 77h-23z" />
    <glyph glyph-name="tcommaaccent" unicode="&#x163;" horiz-adv-x="375" 
d="M190 -168q49 0 49 36q0 21 -23 33t-62 13l-7 9l38 82q-80 38 -80 168v251h-91v94h91v155h118v-155h124v-94h-124v-255q0 -45 18 -65t63 -20q31 0 43 1v-94q-29 -3 -63 -3q-14 0 -21 1l-16 -34q37 -9 59 -34t22 -59q0 -42 -33.5 -71t-96.5 -29q-61 0 -106 37l44 53
q23 -20 54 -20z" />
    <glyph glyph-name="Tcaron" unicode="&#x164;" horiz-adv-x="582" 
d="M229 0v596h-210v104h544v-104h-210v-596h-124zM291 842l110 97l53 -44l-129 -135h-68l-129 135l53 44z" />
    <glyph glyph-name="tcaron" unicode="&#x165;" horiz-adv-x="515" 
d="M284 -12q-94 0 -136.5 44t-42.5 141v251h-91v94h91v155h118v-155h124v-94h-124v-255q0 -45 18 -65t63 -20q31 0 43 1v-94q-29 -3 -63 -3zM367 500l67 242l93 -31l-91 -231z" />
    <glyph glyph-name="Tbar" unicode="&#x166;" horiz-adv-x="582" 
d="M229 386v210h-210v104h544v-104h-210v-210h144v-76h-144v-310h-124v310h-144v76h144z" />
    <glyph glyph-name="tbar" unicode="&#x167;" horiz-adv-x="375" 
d="M33 324h72v100h-91v94h91v155h118v-155h124v-94h-124v-100h106v-73h-106v-82q0 -45 18 -65t63 -20q31 0 43 1v-94q-29 -3 -63 -3q-94 0 -136.5 44t-42.5 141v78h-72v73z" />
    <glyph glyph-name="Utilde" unicode="&#x168;" horiz-adv-x="732" 
d="M366 -12q-132 0 -210.5 74.5t-78.5 215.5v422h124v-422q0 -184 165 -184t165 184v422h124v-422q0 -141 -78.5 -215.5t-210.5 -74.5zM270 784l-74 10q10 56 37 85.5t68 29.5q39 0 79 -28q27 -20 47 -20q28 0 35 42l74 -10q-10 -56 -37 -85.5t-68 -29.5q-39 0 -79 28
q-27 20 -47 20q-28 0 -35 -42z" />
    <glyph glyph-name="utilde" unicode="&#x169;" horiz-adv-x="598" 
d="M299 -12q-111 0 -174 58t-63 172v300h118v-301q0 -65 33 -99t86 -34t86 34t33 99v301h118v-300q0 -114 -63 -172t-174 -58zM203 610l-74 10q10 56 37 85.5t68 29.5q39 0 79 -28q27 -20 47 -20q28 0 35 42l74 -10q-10 -56 -37 -85.5t-68 -29.5q-39 0 -79 28q-27 20 -47 20
q-28 0 -35 -42z" />
    <glyph glyph-name="Umacron" unicode="&#x16a;" horiz-adv-x="732" 
d="M366 -12q-132 0 -210.5 74.5t-78.5 215.5v422h124v-422q0 -184 165 -184t165 184v422h124v-422q0 -141 -78.5 -215.5t-210.5 -74.5zM217 801v80h298v-80h-298z" />
    <glyph glyph-name="umacron" unicode="&#x16b;" horiz-adv-x="598" 
d="M299 -12q-111 0 -174 58t-63 172v300h118v-301q0 -65 33 -99t86 -34t86 34t33 99v301h118v-300q0 -114 -63 -172t-174 -58zM150 627v80h298v-80h-298z" />
    <glyph glyph-name="Ubreve" unicode="&#x16c;" horiz-adv-x="732" 
d="M366 -12q-132 0 -210.5 74.5t-78.5 215.5v422h124v-422q0 -184 165 -184t165 184v422h124v-422q0 -141 -78.5 -215.5t-210.5 -74.5zM366 763q-65 0 -105.5 36.5t-56.5 100.5l76 18q23 -79 86 -79t86 79l76 -18q-16 -64 -56.5 -100.5t-105.5 -36.5z" />
    <glyph glyph-name="ubreve" unicode="&#x16d;" horiz-adv-x="598" 
d="M299 -12q-111 0 -174 58t-63 172v300h118v-301q0 -65 33 -99t86 -34t86 34t33 99v301h118v-300q0 -114 -63 -172t-174 -58zM299 591q-65 0 -105.5 36.5t-56.5 100.5l76 18q23 -79 86 -79t86 79l76 -18q-16 -64 -56.5 -100.5t-105.5 -36.5z" />
    <glyph glyph-name="Uring" unicode="&#x16e;" horiz-adv-x="732" 
d="M366 -12q132 0 210.5 74.5t78.5 215.5v422h-124v-422q0 -184 -165 -184t-165 184v422h-124v-422q0 -141 78.5 -215.5t210.5 -74.5zM476 843q0 -45 -32 -76t-78 -31t-78 31t-32 76t32 76t78 31t78 -31t32 -76zM326 843q0 -19 11.5 -30.5t28.5 -11.5t28.5 11.5t11.5 30.5
t-11.5 30.5t-28.5 11.5t-28.5 -11.5t-11.5 -30.5z" />
    <glyph glyph-name="uring" unicode="&#x16f;" horiz-adv-x="598" 
d="M299 -12q-111 0 -174 58t-63 172v300h118v-301q0 -65 33 -99t86 -34t86 34t33 99v301h118v-300q0 -114 -63 -172t-174 -58zM409 669q0 -45 -32 -76t-78 -31t-78 31t-32 76t32 76t78 31t78 -31t32 -76zM259 669q0 -19 11.5 -30.5t28.5 -11.5t28.5 11.5t11.5 30.5
t-11.5 30.5t-28.5 11.5t-28.5 -11.5t-11.5 -30.5z" />
    <glyph glyph-name="Uhungarumlaut" unicode="&#x170;" horiz-adv-x="732" 
d="M366 -12q132 0 210.5 74.5t78.5 215.5v422h-124v-422q0 -184 -165 -184t-165 184v422h-124v-422q0 -141 78.5 -215.5t210.5 -74.5zM530 936l68 -64l-155 -130l-56 50zM336 936l71 -61l-126 -133l-57 48z" />
    <glyph glyph-name="uhungarumlaut" unicode="&#x171;" horiz-adv-x="598" 
d="M299 -12q-111 0 -174 58t-63 172v300h118v-301q0 -65 33 -99t86 -34t86 34t33 99v301h118v-300q0 -114 -63 -172t-174 -58zM449 762l68 -64l-155 -130l-56 50zM255 762l71 -61l-126 -133l-57 48z" />
    <glyph glyph-name="Uogonek" unicode="&#x172;" horiz-adv-x="732" 
d="M77 278v422h124v-422q0 -184 165 -184t165 184v422h124v-422q0 -125 -62.5 -198t-170.5 -88q-51 -44 -51 -93q0 -21 12.5 -33t30.5 -12q26 0 44 20l45 -53q-45 -40 -108 -40q-51 0 -82.5 29.5t-31.5 72.5q0 60 51 106q-118 9 -186.5 83.5t-68.5 205.5z" />
    <glyph glyph-name="uogonek" unicode="&#x173;" horiz-adv-x="598" 
d="M536 218q0 -94 -43.5 -150.5t-122.5 -72.5q-55 -46 -55 -96q0 -21 12.5 -33t30.5 -12q26 0 44 20l45 -53q-45 -40 -108 -40q-51 0 -82.5 29.5t-31.5 72.5q0 58 51 106q-100 5 -157 63t-57 166v300h118v-301q0 -65 33 -99t86 -34t86 34t33 99v301h118v-300z" />
    <glyph glyph-name="Wcircumflex" unicode="&#x174;" horiz-adv-x="1014" 
d="M441 700h132l135 -535l158 535h129l-206 -700h-154l-128 508l-128 -508h-154l-206 700h129l158 -535zM617 748l-110 97l-110 -97l-53 44l129 135h68l129 -135z" />
    <glyph glyph-name="wcircumflex" unicode="&#x175;" horiz-adv-x="820" 
d="M357 518h106l109 -367l111 367h123l-170 -518h-120l-106 357l-106 -357h-120l-170 518h124l110 -367zM520 574l-110 97l-110 -97l-53 44l129 135h68l129 -135z" />
    <glyph glyph-name="Ycircumflex" unicode="&#x176;" horiz-adv-x="634" 
d="M379 0h-124v276l-241 424h134l169 -308l169 308h134l-241 -424v-276zM427 748l-110 97l-110 -97l-53 44l129 135h68l129 -135z" />
    <glyph glyph-name="ycircumflex" unicode="&#x177;" horiz-adv-x="546" 
d="M142 -212l80 216l-208 514h121l144 -361l132 361h121l-269 -730h-121zM389 574l-110 97l-110 -97l-53 44l129 135h68l129 -135z" />
    <glyph glyph-name="Ydieresis" unicode="&#x178;" horiz-adv-x="634" 
d="M379 0h-124v276l-241 424h134l169 -308l169 308h134l-241 -424v-276zM152 841q0 26 18.5 44.5t44.5 18.5t44.5 -18.5t18.5 -44.5t-18.5 -44.5t-44.5 -18.5t-44.5 18.5t-18.5 44.5zM356 841q0 26 18.5 44.5t44.5 18.5t44.5 -18.5t18.5 -44.5t-18.5 -44.5t-44.5 -18.5
t-44.5 18.5t-18.5 44.5z" />
    <glyph glyph-name="Zacute" unicode="&#x179;" horiz-adv-x="579" 
d="M31 99l357 496h-338v105h488v-99l-357 -496h367v-105h-517v99zM424 877l-160 -129l-50 51l142 143z" />
    <glyph glyph-name="zacute" unicode="&#x17a;" horiz-adv-x="476" 
d="M24 0v90l274 334h-258v94h402v-90l-274 -334h284v-94h-428zM372 703l-160 -129l-50 51l142 143z" />
    <glyph glyph-name="Zdotaccent" unicode="&#x17b;" horiz-adv-x="579" 
d="M31 99l357 496h-338v105h488v-99l-357 -496h367v-105h-517v99zM226 841q0 26 18.5 44.5t44.5 18.5t44.5 -18.5t18.5 -44.5t-18.5 -44.5t-44.5 -18.5t-44.5 18.5t-18.5 44.5z" />
    <glyph glyph-name="zdotaccent" unicode="&#x17c;" horiz-adv-x="476" 
d="M24 0v90l274 334h-258v94h402v-90l-274 -334h284v-94h-428zM178 667q0 26 18.5 44.5t44.5 18.5t44.5 -18.5t18.5 -44.5t-18.5 -44.5t-44.5 -18.5t-44.5 18.5t-18.5 44.5z" />
    <glyph glyph-name="Zcaron" unicode="&#x17d;" horiz-adv-x="579" 
d="M31 99l357 496h-338v105h488v-99l-357 -496h367v-105h-517v99zM294 842l110 97l53 -44l-129 -135h-68l-129 135l53 44z" />
    <glyph glyph-name="zcaron" unicode="&#x17e;" horiz-adv-x="476" 
d="M24 0v90l274 334h-258v94h402v-90l-274 -334h284v-94h-428zM246 668l110 97l53 -44l-129 -135h-68l-129 135l53 44z" />
    <glyph glyph-name="longs" unicode="&#x17f;" horiz-adv-x="372" 
d="M288 730q42 0 70 -4v-93q-26 3 -53 3q-46 0 -64 -19t-18 -60v-557h-118v424h-91v94h91v45q0 86 44 126.5t139 40.5z" />
    <glyph glyph-name="uni0191" unicode="&#x191;" horiz-adv-x="548" 
d="M201 288v-317q0 -102 -45 -148.5t-149 -46.5q-29 0 -48 3v94q13 -1 44 -1q41 0 57.5 20.5t16.5 65.5v742h452v-104h-328v-204h293v-104h-293z" />
    <glyph glyph-name="florin" unicode="&#x192;" horiz-adv-x="372" 
d="M288 730q42 0 70 -4v-93q-26 3 -53 3q-46 0 -64 -19t-18 -60v-39h125v-94h-125v-482q0 -86 -44 -126.5t-139 -40.5q-42 0 -70 4v93q26 -3 53 -3q46 0 64 19t18 60v476h-91v94h91v45q0 86 44 126.5t139 40.5z" />
    <glyph glyph-name="Aringacute" unicode="&#x1fa;" horiz-adv-x="698" 
d="M459 738q0 -39 -26 -70l246 -668h-133l-55 160h-285l-54 -160h-133l245 668q-25 30 -25 70q0 45 32 76t78 31t78 -31t32 -76zM349 579l-107 -315h214zM282 902l134 103l52 -64l-148 -87zM309 738q0 -19 11.5 -30.5t28.5 -11.5t28.5 11.5t11.5 30.5t-11.5 30.5t-28.5 11.5
t-28.5 -11.5t-11.5 -30.5z" />
    <glyph glyph-name="aringacute" unicode="&#x1fb;" horiz-adv-x="565" 
d="M384 276v49q0 52 -27 80t-91 28q-74 0 -132 -48l-68 68q91 77 214 77q121 0 171.5 -58.5t50.5 -166.5v-305h-118v43q-57 -55 -152 -55q-85 0 -140 47.5t-55 121.5t55 121.5t140 47.5q87 0 152 -50zM262 84q75 0 122 46v54q-51 46 -122 46q-49 0 -77 -18.5t-28 -54.5
t28 -54.5t77 -18.5zM397 669q0 -45 -32 -76t-78 -31t-78 31t-32 76t32 76t78 31t78 -31t32 -76zM247 669q0 -19 11.5 -30.5t28.5 -11.5t28.5 11.5t11.5 30.5t-11.5 30.5t-28.5 11.5t-28.5 -11.5t-11.5 -30.5zM220 833l134 103l52 -64l-148 -87z" />
    <glyph glyph-name="AEacute" unicode="&#x1fc;" horiz-adv-x="892" 
d="M852 0h-408v158h-212l-79 -158h-135l361 700h464v-104h-275v-184h240v-104h-240v-204h284v-104zM444 581l-160 -319h160v319zM687 877l-160 -129l-50 51l142 143z" />
    <glyph glyph-name="aeacute" unicode="&#x1fd;" horiz-adv-x="923" 
d="M501 216q8 -60 48.5 -96t100.5 -36q76 0 129 66l83 -59q-76 -103 -211 -103q-123 0 -198 78q-86 -78 -216 -78q-89 0 -144.5 47t-55.5 122q0 74 55 121.5t140 47.5q89 0 152 -50v49q0 52 -27 80t-91 28q-74 0 -132 -48l-68 68q86 77 212 77q124 0 181 -75q66 75 175 75
q111 0 181 -76.5t70 -197.5q0 -29 -2 -40h-382zM262 84q84 0 141 57q-10 25 -13 42q-56 47 -128 47q-49 0 -77 -18.5t-28 -54.5t28 -54.5t77 -18.5zM500 306h266q-4 58 -41 93t-91 35q-55 0 -90.5 -34t-43.5 -94zM597 703l-160 -129l-50 51l142 143z" />
    <glyph glyph-name="Oslashacute" unicode="&#x1fe;" horiz-adv-x="730" 
d="M69 2l63 86q-89 100 -89 262q0 157 86.5 259.5t235.5 102.5q103 0 181 -54l59 80l56 -40l-63 -87q89 -101 89 -261q0 -157 -86.5 -259.5t-235.5 -102.5q-104 0 -182 54l-58 -80zM169 350q0 -96 36 -162l275 378q-48 40 -115 40q-90 0 -143 -69t-53 -187zM561 350
q0 95 -36 161l-275 -378q48 -39 115 -39q90 0 143 69t53 187zM500 877l-160 -129l-50 51l142 143z" />
    <glyph glyph-name="oslashacute" unicode="&#x1ff;" horiz-adv-x="592" 
d="M61 -2l47 64q-70 75 -70 197t70.5 196.5t187.5 74.5q75 0 133 -32l46 62l56 -40l-48 -64q71 -76 71 -197q0 -122 -70.5 -196.5t-187.5 -74.5q-77 0 -133 32l-46 -62zM158 259q0 -60 20 -102l189 257q-31 20 -71 20q-65 0 -101.5 -47t-36.5 -128zM434 259q0 59 -20 102
l-190 -258q32 -19 72 -19q65 0 101.5 47t36.5 128zM427 703l-160 -129l-50 51l142 143z" />
    <glyph glyph-name="Scommaaccent" unicode="&#x218;" horiz-adv-x="612" 
d="M318 94q57 0 91.5 25t34.5 65q0 48 -34 74t-134 54q-112 31 -162 82t-50 129q0 86 60.5 137.5t168.5 51.5q154 0 250 -111l-86 -66q-66 71 -155 71q-55 0 -83.5 -21.5t-28.5 -58.5q0 -39 30 -64.5t113 -48.5q126 -35 181.5 -85t55.5 -136q0 -94 -66 -149t-179 -55
q-181 0 -292 123l90 70q79 -87 195 -87zM237 -243l58 201l88 -30l-77 -195z" />
    <glyph glyph-name="scommaaccent" unicode="&#x219;" horiz-adv-x="511" 
d="M56 386q0 65 50 104.5t140 39.5q128 0 208 -82l-78 -64q-47 50 -120 50q-74 0 -74 -45q0 -23 24 -39t95 -37q87 -25 129.5 -65t42.5 -103q0 -73 -52 -115t-150 -42q-153 0 -243 100l83 66q68 -70 150 -70q86 0 86 55q0 29 -23 46t-89 36q-99 28 -139 66t-40 99zM190 -243
l58 201l88 -30l-77 -195z" />
    <glyph glyph-name="uni021A" unicode="&#x21a;" horiz-adv-x="582" 
d="M229 0v596h-210v104h544v-104h-210v-596h-124zM195 -243l58 201l88 -30l-77 -195z" />
    <glyph glyph-name="uni021B" unicode="&#x21b;" horiz-adv-x="375" 
d="M284 -12q-94 0 -136.5 44t-42.5 141v251h-91v94h91v155h118v-155h124v-94h-124v-255q0 -45 18 -65t63 -20q31 0 43 1v-94q-29 -3 -63 -3zM139 -243l58 201l88 -30l-77 -195z" />
    <glyph glyph-name="dotlessj" unicode="&#x237;" horiz-adv-x="262" 
d="M-4 -224q-28 0 -48 3v94q13 -1 44 -1q44 0 62 21t18 65v560h118v-547q0 -102 -45 -148.5t-149 -46.5z" />
    <glyph glyph-name="apostrophe" unicode="&#x2bc;" horiz-adv-x="396" 
d="M118 508l67 242l93 -31l-91 -231z" />
    <glyph glyph-name="circumflex" unicode="&#x2c6;" horiz-adv-x="396" 
d="M308 554l-110 97l-110 -97l-53 44l129 135h68l129 -135z" />
    <glyph glyph-name="caron" unicode="&#x2c7;" horiz-adv-x="396" 
d="M198 648l110 97l53 -44l-129 -135h-68l-129 135l53 44z" />
    <glyph glyph-name="uni02C9" unicode="&#x2c9;" horiz-adv-x="396" 
d="M49 607v80h298v-80h-298z" />
    <glyph glyph-name="breve" unicode="&#x2d8;" horiz-adv-x="396" 
d="M198 571q-65 0 -105.5 36.5t-56.5 100.5l76 18q23 -79 86 -79t86 79l76 -18q-16 -64 -56.5 -100.5t-105.5 -36.5z" />
    <glyph glyph-name="dotaccent" unicode="&#x2d9;" horiz-adv-x="396" 
d="M135 647q0 26 18.5 44.5t44.5 18.5t44.5 -18.5t18.5 -44.5t-18.5 -44.5t-44.5 -18.5t-44.5 18.5t-18.5 44.5z" />
    <glyph glyph-name="ring" unicode="&#x2da;" horiz-adv-x="396" 
d="M308 649q0 -45 -32 -76t-78 -31t-78 31t-32 76t32 76t78 31t78 -31t32 -76zM158 649q0 -19 11.5 -30.5t28.5 -11.5t28.5 11.5t11.5 30.5t-11.5 30.5t-28.5 11.5t-28.5 -11.5t-11.5 -30.5z" />
    <glyph glyph-name="ogonek" unicode="&#x2db;" horiz-adv-x="396" 
d="M174 0h86q-61 -49 -61 -101q0 -21 12.5 -33t30.5 -12q26 0 44 20l45 -53q-45 -40 -108 -40q-51 0 -82.5 29.5t-31.5 72.5q0 69 65 117z" />
    <glyph glyph-name="tilde" unicode="&#x2dc;" horiz-adv-x="396" 
d="M102 591l-74 10q10 56 37 85.5t68 29.5q39 0 79 -28q27 -20 47 -20q28 0 35 42l74 -10q-10 -56 -37 -85.5t-68 -29.5q-39 0 -79 28q-27 20 -47 20q-28 0 -35 -42z" />
    <glyph glyph-name="hungarumlaut" unicode="&#x2dd;" horiz-adv-x="396" 
d="M317 742l68 -64l-155 -130l-56 50zM123 742l71 -61l-126 -133l-57 48z" />
    <glyph glyph-name="gravecomb" unicode="&#x300;" horiz-adv-x="0" 
d="M-217 554l-160 129l68 65l142 -143z" />
    <glyph glyph-name="acutecomb" unicode="&#x301;" horiz-adv-x="0" 
d="M-127 683l-160 -129l-50 51l142 143z" />
    <glyph glyph-name="uni0302" unicode="&#x302;" horiz-adv-x="0" 
d="M-143 554l-110 97l-110 -97l-53 44l129 135h68l129 -135z" />
    <glyph glyph-name="tildecomb" unicode="&#x303;" horiz-adv-x="0" 
d="M-349 591l-74 10q10 56 37 85.5t68 29.5q39 0 79 -28q27 -20 47 -20q28 0 35 42l74 -10q-10 -56 -37 -85.5t-68 -29.5q-39 0 -79 28q-27 20 -47 20q-28 0 -35 -42z" />
    <glyph glyph-name="uni0304" unicode="&#x304;" horiz-adv-x="0" 
d="M-399 607v80h298v-80h-298z" />
    <glyph glyph-name="uni0306" unicode="&#x306;" horiz-adv-x="0" 
d="M-253 571q-65 0 -105.5 36.5t-56.5 100.5l76 18q23 -79 86 -79t86 79l76 -18q-16 -64 -56.5 -100.5t-105.5 -36.5z" />
    <glyph glyph-name="uni0307" unicode="&#x307;" horiz-adv-x="0" 
d="M-316 647q0 26 18.5 44.5t44.5 18.5t44.5 -18.5t18.5 -44.5t-18.5 -44.5t-44.5 -18.5t-44.5 18.5t-18.5 44.5z" />
    <glyph glyph-name="uni0308" unicode="&#x308;" horiz-adv-x="0" 
d="M-417 647q0 26 18.5 44.5t44.5 18.5t44.5 -18.5t18.5 -44.5t-18.5 -44.5t-44.5 -18.5t-44.5 18.5t-18.5 44.5zM-213 647q0 26 18.5 44.5t44.5 18.5t44.5 -18.5t18.5 -44.5t-18.5 -44.5t-44.5 -18.5t-44.5 18.5t-18.5 44.5z" />
    <glyph glyph-name="uni030A" unicode="&#x30a;" horiz-adv-x="0" 
d="M-143 649q0 -45 -32 -76t-78 -31t-78 31t-32 76t32 76t78 31t78 -31t32 -76zM-293 649q0 -19 11.5 -30.5t28.5 -11.5t28.5 11.5t11.5 30.5t-11.5 30.5t-28.5 11.5t-28.5 -11.5t-11.5 -30.5z" />
    <glyph glyph-name="uni030C" unicode="&#x30c;" horiz-adv-x="0" 
d="M-252 648l110 97l53 -44l-129 -135h-68l-129 135l53 44z" />
    <glyph glyph-name="uni0327" unicode="&#x327;" horiz-adv-x="0" 
d="M-279 -168q49 0 49 36q0 21 -23 33t-62 13l-7 9l36 77h86l-22 -45q37 -9 59 -34t22 -59q0 -42 -33.5 -71t-96.5 -29q-61 0 -106 37l44 53q23 -20 54 -20z" />
    <glyph glyph-name="uni03A9" unicode="&#x3a9;" horiz-adv-x="730" 
d="M365 605q-91 0 -143.5 -68.5t-52.5 -170.5q0 -163 143 -264v-102h-261v104h122q-130 98 -130 273q0 146 86 240.5t236 94.5t236 -94.5t86 -240.5q0 -175 -130 -273h122v-104h-261v102q143 101 143 264q0 102 -52.5 170.5t-143.5 68.5z" />
    <glyph glyph-name="uni0400" unicode="&#x400;" horiz-adv-x="578" 
d="M77 0v700h452v-104h-328v-184h293v-104h-293v-204h337v-104h-461zM337 748l-160 129l68 65l142 -143z" />
    <glyph glyph-name="afii10023" unicode="&#x401;" horiz-adv-x="578" 
d="M77 0v700h452v-104h-328v-184h293v-104h-293v-204h337v-104h-461zM142 841q0 26 18.5 44.5t44.5 18.5t44.5 -18.5t18.5 -44.5t-18.5 -44.5t-44.5 -18.5t-44.5 18.5t-18.5 44.5zM346 841q0 26 18.5 44.5t44.5 18.5t44.5 -18.5t18.5 -44.5t-18.5 -44.5t-44.5 -18.5
t-44.5 18.5t-18.5 44.5z" />
    <glyph glyph-name="afii10051" unicode="&#x402;" horiz-adv-x="772" 
d="M229 0v596h-210v104h544v-104h-210v-191q69 52 156 52q101 0 160.5 -60t59.5 -161q0 -105 -62 -170.5t-169 -65.5h-24v104h15q53 0 83.5 36t30.5 89q0 57 -30 90.5t-90 33.5q-80 0 -130 -42v-311h-124z" />
    <glyph glyph-name="afii10052" unicode="&#x403;" horiz-adv-x="552" 
d="M428 877l-160 -129l-50 51l142 143zM77 0v700h456v-104h-332v-596h-124z" />
    <glyph glyph-name="afii10053" unicode="&#x404;" horiz-adv-x="694" 
d="M172 402h300v-104h-300q12 -98 69 -151t140 -53q111 0 178 101l102 -55q-41 -71 -115.5 -111.5t-169.5 -40.5q-150 0 -241.5 100t-91.5 262t91.5 262t241.5 100q95 0 169.5 -40.5t115.5 -111.5l-102 -55q-67 101 -178 101q-83 0 -140 -53.5t-69 -150.5z" />
    <glyph glyph-name="afii10054" unicode="&#x405;" horiz-adv-x="612" 
d="M318 94q57 0 91.5 25t34.5 65q0 48 -34 74t-134 54q-112 31 -162 82t-50 129q0 86 60.5 137.5t168.5 51.5q154 0 250 -111l-86 -66q-66 71 -155 71q-55 0 -83.5 -21.5t-28.5 -58.5q0 -39 30 -64.5t113 -48.5q126 -35 181.5 -85t55.5 -136q0 -94 -66 -149t-179 -55
q-181 0 -292 123l90 70q79 -87 195 -87z" />
    <glyph glyph-name="afii10055" unicode="&#x406;" horiz-adv-x="288" 
d="M82 700h124v-700h-124v700z" />
    <glyph glyph-name="afii10056" unicode="&#x407;" horiz-adv-x="288" 
d="M82 700h124v-700h-124v700zM-21 841q0 26 18.5 44.5t44.5 18.5t44.5 -18.5t18.5 -44.5t-18.5 -44.5t-44.5 -18.5t-44.5 18.5t-18.5 44.5zM183 841q0 26 18.5 44.5t44.5 18.5t44.5 -18.5t18.5 -44.5t-18.5 -44.5t-44.5 -18.5t-44.5 18.5t-18.5 44.5z" />
    <glyph glyph-name="afii10057" unicode="&#x408;" horiz-adv-x="592" 
d="M268 94q60 0 91.5 40t31.5 110v456h124v-453q0 -120 -63 -189.5t-180 -69.5q-82 0 -145 37t-99 106l100 55q50 -92 140 -92z" />
    <glyph glyph-name="afii10058" unicode="&#x409;" horiz-adv-x="1036" 
d="M638 700v-278h116q114 0 179 -56.5t65 -154.5t-65 -154.5t-179 -56.5h-240v595h-247v-428q0 -92 -48.5 -135.5t-150.5 -43.5q-21 0 -49 2v103q24 -3 44 -3q44 0 62 21t18 65v524h495zM874 211q0 107 -134 107h-102v-214h102q134 0 134 107z" />
    <glyph glyph-name="afii10059" unicode="&#x40a;" horiz-adv-x="1018" 
d="M620 422h116q114 0 179 -56.5t65 -154.5t-65 -154.5t-179 -56.5h-240v318h-295v-318h-124v700h124v-278h295v278h124v-278zM856 211q0 107 -134 107h-102v-214h102q134 0 134 107z" />
    <glyph glyph-name="afii10060" unicode="&#x40b;" horiz-adv-x="792" 
d="M229 0v596h-210v104h544v-104h-210v-191q69 52 158 52q105 0 161.5 -60t56.5 -175v-222h-124v210q0 74 -30 108.5t-95 34.5q-77 0 -127 -42v-311h-124z" />
    <glyph glyph-name="afii10061" unicode="&#x40c;" horiz-adv-x="644" 
d="M604 700l-224 -288l255 -412h-137l-191 317l-106 -136v-181h-124v700h124v-344l261 344h142zM463 877l-160 -129l-50 51l142 143z" />
    <glyph glyph-name="uni040D" unicode="&#x40d;" horiz-adv-x="720" 
d="M77 700v-700h120l322 494v-494h124v700h-120l-322 -494v494h-124zM381 748l-160 129l68 65l142 -143z" />
    <glyph glyph-name="afii10062" unicode="&#x40e;" horiz-adv-x="632" 
d="M321 341l167 359h129l-323 -700h-129l97 211l-245 489h129zM314 763q-65 0 -105.5 36.5t-56.5 100.5l76 18q23 -79 86 -79t86 79l76 -18q-16 -64 -56.5 -100.5t-105.5 -36.5z" />
    <glyph glyph-name="afii10145" unicode="&#x40f;" horiz-adv-x="718" 
d="M201 104h316v596h124v-700h-220v-120h-124v120h-220v700h124v-596z" />
    <glyph glyph-name="afii10017" unicode="&#x410;" horiz-adv-x="698" 
d="M276 700h146l257 -700h-133l-55 160h-285l-54 -160h-133zM349 579l-107 -315h214z" />
    <glyph glyph-name="afii10018" unicode="&#x411;" horiz-adv-x="599" 
d="M77 700h424v-104h-300v-174h116q114 0 179 -56.5t65 -154.5t-65 -154.5t-179 -56.5h-240v700zM437 211q0 107 -134 107h-102v-214h102q134 0 134 107z" />
    <glyph glyph-name="afii10019" unicode="&#x412;" horiz-adv-x="640" 
d="M77 0v700h250q114 0 177 -51.5t63 -136.5q0 -50 -25.5 -88.5t-72.5 -54.5q64 -15 98.5 -59t34.5 -107q0 -95 -66.5 -149t-193.5 -54h-265zM201 596v-184h118q62 0 92 22t30 70t-30 70t-92 22h-118zM201 104h131q75 0 109.5 25t34.5 77t-34.5 77t-109.5 25h-131v-204z" />
    <glyph glyph-name="afii10020" unicode="&#x413;" horiz-adv-x="552" 
d="M77 0v700h456v-104h-332v-596h-124z" />
    <glyph glyph-name="afii10021" unicode="&#x414;" horiz-adv-x="652" 
d="M632 104v-224h-124v120h-366v-120h-124v224h62q56 183 56 477v119h417v-596h79zM205 104h224v492h-169q0 -286 -55 -492z" />
    <glyph glyph-name="afii10022" unicode="&#x415;" horiz-adv-x="578" 
d="M77 0v700h452v-104h-328v-184h293v-104h-293v-204h337v-104h-461z" />
    <glyph glyph-name="afii10024" unicode="&#x416;" horiz-adv-x="941" 
d="M409 369v331h123v-331l230 331h139l-205 -284l236 -416h-143l-167 314l-90 -124v-190h-123v190l-91 124l-166 -314h-143l236 416l-205 284h139z" />
    <glyph glyph-name="afii10025" unicode="&#x417;" horiz-adv-x="568" 
d="M284 712q99 0 160.5 -49t61.5 -133q0 -61 -31.5 -104t-80.5 -61q136 -42 136 -174q0 -90 -66.5 -146.5t-182.5 -56.5q-81 0 -147.5 30.5t-110.5 84.5l86 70q66 -79 162 -79q61 0 97 27t36 75q0 59 -43.5 87t-114.5 28h-66v104h65q61 0 98 27t37 75q0 42 -27.5 65.5
t-77.5 23.5q-86 0 -145 -68l-84 68q94 106 238 106z" />
    <glyph glyph-name="afii10026" unicode="&#x418;" horiz-adv-x="720" 
d="M77 0v700h124v-494l322 494h120v-700h-124v494l-322 -494h-120z" />
    <glyph glyph-name="afii10027" unicode="&#x419;" horiz-adv-x="720" 
d="M77 0v700h124v-494l322 494h120v-700h-124v494l-322 -494h-120zM360 763q-65 0 -105.5 36.5t-56.5 100.5l76 18q23 -79 86 -79t86 79l76 -18q-16 -64 -56.5 -100.5t-105.5 -36.5z" />
    <glyph glyph-name="afii10028" unicode="&#x41a;" horiz-adv-x="644" 
d="M604 700l-224 -288l255 -412h-137l-191 317l-106 -136v-181h-124v700h124v-344l261 344h142z" />
    <glyph glyph-name="afii10029" unicode="&#x41b;" horiz-adv-x="735" 
d="M658 0h-123v595h-268v-381q0 -122 -42.5 -174t-156.5 -52q-28 0 -49 3v102q24 -3 44 -3q44 0 62 21t18 65v524h515v-700z" />
    <glyph glyph-name="afii10030" unicode="&#x41c;" horiz-adv-x="864" 
d="M470 127h-76l-193 356v-483h-124v700h122l233 -423l233 423h122v-700h-124v483z" />
    <glyph glyph-name="afii10031" unicode="&#x41d;" horiz-adv-x="718" 
d="M77 0v700h124v-278h316v278h124v-700h-124v318h-316v-318h-124z" />
    <glyph glyph-name="afii10032" unicode="&#x41e;" horiz-adv-x="730" 
d="M687 350q0 -157 -86.5 -259.5t-235.5 -102.5t-235.5 102.5t-86.5 259.5t86.5 259.5t235.5 102.5t235.5 -102.5t86.5 -259.5zM561 350q0 118 -53 187t-143 69t-143 -69t-53 -187t53 -187t143 -69t143 69t53 187z" />
    <glyph glyph-name="afii10033" unicode="&#x41f;" horiz-adv-x="718" 
d="M641 700v-700h-124v595h-316v-595h-124v700h564z" />
    <glyph glyph-name="afii10034" unicode="&#x420;" horiz-adv-x="613" 
d="M580 475q0 -110 -71.5 -167t-199.5 -57h-108v-251h-124v700h232q128 0 199.5 -57t71.5 -168zM454 475q0 63 -37.5 92t-114.5 29h-101v-241h101q77 0 114.5 29t37.5 91z" />
    <glyph glyph-name="afii10035" unicode="&#x421;" horiz-adv-x="694" 
d="M43 350q0 162 91.5 262t241.5 100q95 0 169.5 -40.5t115.5 -111.5l-102 -55q-67 101 -178 101q-93 0 -152.5 -67.5t-59.5 -188.5t59.5 -188.5t152.5 -67.5q111 0 178 101l102 -55q-41 -71 -115.5 -111.5t-169.5 -40.5q-150 0 -241.5 100t-91.5 262z" />
    <glyph glyph-name="afii10036" unicode="&#x422;" horiz-adv-x="582" 
d="M229 0v596h-210v104h544v-104h-210v-596h-124z" />
    <glyph glyph-name="afii10037" unicode="&#x423;" horiz-adv-x="632" 
d="M321 341l167 359h129l-323 -700h-129l97 211l-245 489h129z" />
    <glyph glyph-name="afii10038" unicode="&#x424;" horiz-adv-x="746" 
d="M435 0h-124v101q-125 7 -199 73t-74 176q0 109 74 175t199 74v101h124v-101q125 -8 199 -74t74 -175q0 -110 -74 -176t-199 -73v-101zM435 493v-287q68 3 108.5 40.5t40.5 103.5q0 65 -40.5 102.5t-108.5 40.5zM311 206v287q-68 -3 -108.5 -40.5t-40.5 -102.5
q0 -66 40.5 -103.5t108.5 -40.5z" />
    <glyph glyph-name="afii10039" unicode="&#x425;" horiz-adv-x="638" 
d="M485 0l-166 267l-166 -267h-138l228 363l-210 337h138l148 -239l148 239h138l-210 -337l228 -363h-138z" />
    <glyph glyph-name="afii10040" unicode="&#x426;" horiz-adv-x="736" 
d="M201 104h312v596h124v-596h79v-224h-123v120h-516v700h124v-596z" />
    <glyph glyph-name="afii10041" unicode="&#x427;" horiz-adv-x="635" 
d="M558 0h-124v292q-67 -51 -157 -51q-106 0 -163 59t-57 174v226h124v-214q0 -74 30 -107.5t96 -33.5q80 0 127 42v313h124v-700z" />
    <glyph glyph-name="afii10042" unicode="&#x428;" horiz-adv-x="874" 
d="M201 104h174v596h124v-596h174v596h124v-700h-720v700h124v-596z" />
    <glyph glyph-name="afii10043" unicode="&#x429;" horiz-adv-x="896" 
d="M753 0h-676v700h124v-596h174v596h124v-596h174v596h124v-596h79v-224h-123v120z" />
    <glyph glyph-name="afii10044" unicode="&#x42a;" horiz-adv-x="703" 
d="M305 700v-278h116q114 0 179 -56.5t65 -154.5t-65 -154.5t-179 -56.5h-240v595h-162v105h286zM541 211q0 107 -134 107h-102v-214h102q134 0 134 107z" />
    <glyph glyph-name="afii10045" unicode="&#x42b;" horiz-adv-x="840" 
d="M639 700h124v-700h-124v700zM77 700h124v-278h116q114 0 179 -56.5t65 -154.5t-65 -154.5t-179 -56.5h-240v700zM437 211q0 107 -134 107h-102v-214h102q134 0 134 107z" />
    <glyph glyph-name="afii10046" unicode="&#x42c;" horiz-adv-x="599" 
d="M77 700h124v-278h116q114 0 179 -56.5t65 -154.5t-65 -154.5t-179 -56.5h-240v700zM437 211q0 107 -134 107h-102v-214h102q134 0 134 107z" />
    <glyph glyph-name="afii10047" unicode="&#x42d;" horiz-adv-x="694" 
d="M222 402h300q-12 97 -69 150.5t-140 53.5q-111 0 -178 -101l-102 55q41 71 115.5 111.5t169.5 40.5q150 0 241.5 -100t91.5 -262t-91.5 -262t-241.5 -100q-95 0 -169.5 40.5t-115.5 111.5l102 55q67 -101 178 -101q83 0 140 53t69 151h-300v104z" />
    <glyph glyph-name="afii10048" unicode="&#x42e;" horiz-adv-x="874" 
d="M426 350q0 -256 139 -256t139 256t-139 256t-139 -256zM201 402h100q10 142 76.5 226t187.5 84q132 0 199 -99.5t67 -262.5t-67 -262.5t-199 -99.5q-120 0 -187 84t-77 225h-100v-297h-124v700h124v-298z" />
    <glyph glyph-name="afii10049" unicode="&#x42f;" horiz-adv-x="650" 
d="M62 489q0 102 72.5 156.5t194.5 54.5h244v-700h-123v279h-124l-171 -279h-136l189 297q-146 49 -146 192zM187 489q0 -109 145 -109h118v219h-118q-145 0 -145 -110z" />
    <glyph glyph-name="afii10065" unicode="&#x430;" horiz-adv-x="565" 
d="M384 276v49q0 52 -27 80t-91 28q-74 0 -132 -48l-68 68q91 77 214 77q121 0 171.5 -58.5t50.5 -166.5v-305h-118v43q-57 -55 -152 -55q-85 0 -140 47.5t-55 121.5t55 121.5t140 47.5q87 0 152 -50zM262 84q75 0 122 46v54q-51 46 -122 46q-49 0 -77 -18.5t-28 -54.5
t28 -54.5t77 -18.5z" />
    <glyph glyph-name="afii10066" unicode="&#x431;" horiz-adv-x="574" 
d="M322 499q97 0 155 -67.5t58 -186.5t-64.5 -188t-170.5 -69q-123 0 -188 88.5t-65 244.5q0 200 108 302.5t363 117.5l-11 -96q-144 -7 -229 -59t-103 -141q54 54 147 54zM165 339q0 -136 34.5 -195.5t101.5 -59.5q53 0 84 43t31 117q0 75 -31 117t-85 42q-82 0 -135 -64z
" />
    <glyph glyph-name="afii10067" unicode="&#x432;" horiz-adv-x="537" 
d="M287 0h-220v518h210q97 0 146 -36t49 -102q0 -78 -66 -105q43 -13 68 -45t25 -80q0 -150 -212 -150zM358 369q0 31 -21 43t-64 12h-88v-111h88q43 0 64 12.5t21 43.5zM381 158q0 66 -96 66h-100v-130h100q96 0 96 64z" />
    <glyph glyph-name="afii10068" unicode="&#x433;" horiz-adv-x="462" 
d="M443 424h-258v-424h-118v518h376v-94z" />
    <glyph glyph-name="afii10069" unicode="&#x434;" horiz-adv-x="588" 
d="M568 94v-204h-118v110h-313v-110h-118v204h64q43 136 43 303v121h366v-424h76zM202 94h172v330h-130v-64q0 -125 -42 -266z" />
    <glyph glyph-name="afii10070" unicode="&#x435;" horiz-adv-x="580" 
d="M542 256q0 -29 -2 -40h-382q8 -60 48.5 -96t100.5 -36q76 0 129 66l83 -59q-76 -103 -211 -103q-121 0 -195.5 75.5t-74.5 195.5q0 119 70 195t183 76q111 0 181 -76.5t70 -197.5zM291 434q-55 0 -90.5 -34t-43.5 -94h266q-4 58 -41 93t-91 35z" />
    <glyph glyph-name="afii10072" unicode="&#x436;" horiz-adv-x="799" 
d="M340 518h118v-232l174 232h136l-163 -200l189 -318h-128l-132 231l-76 -93v-138h-118v138l-76 93l-131 -231h-129l189 318l-163 200h136l174 -232v232z" />
    <glyph glyph-name="afii10073" unicode="&#x437;" horiz-adv-x="502" 
d="M238 438q-67 0 -123 -47l-72 62q83 77 202 77q88 0 143.5 -38.5t55.5 -102.5q0 -83 -86 -119q49 -14 77.5 -47.5t28.5 -79.5q0 -69 -58 -112.5t-160 -43.5q-141 0 -229 82l73 66q68 -56 151 -56q49 0 76 18.5t27 50.5q0 38 -36 58t-93 20h-63v87h56q52 0 84 17.5t32 48.5
q0 28 -23.5 43.5t-62.5 15.5z" />
    <glyph glyph-name="afii10074" unicode="&#x438;" horiz-adv-x="618" 
d="M551 0h-118v349l-249 -349h-117v518h118v-349l249 349h117v-518z" />
    <glyph glyph-name="afii10075" unicode="&#x439;" horiz-adv-x="618" 
d="M551 0h-118v349l-249 -349h-117v518h118v-349l249 349h117v-518zM309 591q-65 0 -105.5 36.5t-56.5 100.5l76 18q23 -79 86 -79t86 79l76 -18q-16 -64 -56.5 -100.5t-105.5 -36.5z" />
    <glyph glyph-name="afii10076" unicode="&#x43a;" horiz-adv-x="553" 
d="M67 518h118v-231l200 231h137l-176 -200l202 -318h-130l-144 236l-89 -102v-134h-118v518z" />
    <glyph glyph-name="afii10077" unicode="&#x43b;" horiz-adv-x="618" 
d="M140 518h411v-518h-118v423h-175v-256q0 -94 -45 -136.5t-145 -42.5q-28 0 -49 3v96q24 -3 44 -3q42 0 59.5 21.5t17.5 65.5v347z" />
    <glyph glyph-name="afii10078" unicode="&#x43c;" horiz-adv-x="724" 
d="M332 108l-147 221v-329h-118v518h113l182 -281l182 281h113v-518h-118v329l-147 -221h-60z" />
    <glyph glyph-name="afii10079" unicode="&#x43d;" horiz-adv-x="605" 
d="M185 329h235v189h118v-518h-118v235h-235v-235h-118v518h118v-189z" />
    <glyph glyph-name="afii10080" unicode="&#x43e;" horiz-adv-x="592" 
d="M554 259q0 -122 -70.5 -196.5t-187.5 -74.5t-187.5 74.5t-70.5 196.5t70.5 196.5t187.5 74.5t187.5 -74.5t70.5 -196.5zM434 259q0 81 -36.5 128t-101.5 47t-101.5 -47t-36.5 -128t36.5 -128t101.5 -47t101.5 47t36.5 128z" />
    <glyph glyph-name="afii10081" unicode="&#x43f;" horiz-adv-x="588" 
d="M403 424h-218v-424h-118v518h454v-518h-118v424z" />
    <glyph glyph-name="afii10082" unicode="&#x440;" horiz-adv-x="609" 
d="M565 259q0 -126 -59 -198.5t-165 -72.5q-91 0 -156 62v-262h-118v730h118v-50q65 62 156 62q106 0 165 -72.5t59 -198.5zM311 85q134 0 134 174t-134 174q-34 0 -68.5 -14.5t-57.5 -40.5v-238q23 -26 57.5 -40.5t68.5 -14.5z" />
    <glyph glyph-name="afii10083" unicode="&#x441;" horiz-adv-x="546" 
d="M38 259q0 121 69.5 196t186.5 75q152 0 226 -126l-91 -48q-51 78 -130 78q-65 0 -103 -46.5t-38 -128.5t38 -128.5t103 -46.5q79 0 130 78l91 -48q-74 -126 -226 -126q-117 0 -186.5 75t-69.5 196z" />
    <glyph glyph-name="afii10084" unicode="&#x442;" horiz-adv-x="512" 
d="M197 0v424h-181v94h480v-94h-181v-424h-118z" />
    <glyph glyph-name="afii10085" unicode="&#x443;" horiz-adv-x="547" 
d="M142 -212l80 216l-208 514h121l144 -361l132 361h121l-269 -730h-121z" />
    <glyph glyph-name="afii10086" unicode="&#x444;" horiz-adv-x="930" 
d="M637 433q-62 0 -113 -51v-244q49 -54 117 -54q125 0 125 175q0 86 -30 130t-99 44zM293 433q-69 0 -99 -44t-30 -130q0 -175 125 -175q68 0 117 54v244q-51 51 -113 51zM406 -212v259q-67 -59 -147 -59q-105 0 -160 72t-55 199t55.5 199t160.5 72q82 0 146 -61v261h118
v-261q64 61 146 61q105 0 160.5 -72t55.5 -199t-55 -199t-160 -72q-80 0 -147 59v-259h-118z" />
    <glyph glyph-name="afii10087" unicode="&#x445;" horiz-adv-x="530" 
d="M393 0l-128 194l-128 -194h-127l179 270l-162 248h127l111 -171l111 171h127l-162 -248l179 -270h-127z" />
    <glyph glyph-name="afii10088" unicode="&#x446;" horiz-adv-x="619" 
d="M521 94h78v-204h-118v110h-414v518h118v-424h218v424h118v-424z" />
    <glyph glyph-name="afii10089" unicode="&#x447;" horiz-adv-x="558" 
d="M268 267q62 0 104 37v214h118v-518h-118v218q-61 -45 -130 -45q-92 0 -144.5 50t-52.5 152v143h118v-136q0 -64 25.5 -89.5t79.5 -25.5z" />
    <glyph glyph-name="afii10090" unicode="&#x448;" horiz-adv-x="750" 
d="M434 94h131v424h118v-518h-616v518h118v-424h131v424h118v-424z" />
    <glyph glyph-name="afii10091" unicode="&#x449;" horiz-adv-x="782" 
d="M644 0h-577v518h118v-424h131v424h118v-424h131v424h118v-424h79v-204h-118v110z" />
    <glyph glyph-name="afii10092" unicode="&#x44a;" horiz-adv-x="595" 
d="M349 0h-201v423h-140v95h258v-186h83q105 0 160.5 -43t55.5 -123t-55.5 -123t-160.5 -43zM267 238v-144h81q99 0 99 72t-99 72h-81z" />
    <glyph glyph-name="afii10093" unicode="&#x44b;" horiz-adv-x="744" 
d="M559 0v518h118v-518h-118zM67 0h201q105 0 160.5 43t55.5 123t-55.5 123t-160.5 43h-83v186h-118v-518zM186 94v144h81q99 0 99 -72t-99 -72h-81z" />
    <glyph glyph-name="afii10094" unicode="&#x44c;" horiz-adv-x="513" 
d="M268 0h-201v518h118v-186h83q105 0 160.5 -43t55.5 -123t-55.5 -123t-160.5 -43zM186 238v-144h81q99 0 99 72t-99 72h-81z" />
    <glyph glyph-name="afii10095" unicode="&#x44d;" horiz-adv-x="546" 
d="M187 306h198q-10 61 -46.5 94.5t-91.5 33.5q-79 0 -130 -78l-91 48q74 126 226 126q117 0 186.5 -75t69.5 -196t-69.5 -196t-186.5 -75q-152 0 -226 126l91 48q51 -78 130 -78q55 0 91 33t46 94h-197v95z" />
    <glyph glyph-name="afii10096" unicode="&#x44e;" horiz-adv-x="758" 
d="M602 259q0 82 -31 128.5t-84 46.5t-84 -46.5t-31 -128.5t31 -128.5t84 -46.5t84 46.5t31 128.5zM67 518h118v-212h72q12 101 73 162.5t157 61.5q108 0 170.5 -75.5t62.5 -195.5t-62.5 -195.5t-170.5 -75.5q-96 0 -157 61.5t-73 162.5h-72v-212h-118v518z" />
    <glyph glyph-name="afii10097" unicode="&#x44f;" horiz-adv-x="556" 
d="M371 195h-110l-122 -195h-130l139 213q-47 18 -72.5 55.5t-25.5 87.5q0 74 53 118t150 44h236v-518h-118v195zM262 290h109v133h-109q-45 0 -69.5 -18t-24.5 -49t24.5 -48.5t69.5 -17.5z" />
    <glyph glyph-name="uni0450" unicode="&#x450;" horiz-adv-x="580" 
d="M542 256q0 -29 -2 -40h-382q8 -60 48.5 -96t100.5 -36q76 0 129 66l83 -59q-76 -103 -211 -103q-121 0 -195.5 75.5t-74.5 195.5q0 119 70 195t183 76q111 0 181 -76.5t70 -197.5zM291 434q-55 0 -90.5 -34t-43.5 -94h266q-4 58 -41 93t-91 35zM330 574l-160 129l68 65
l142 -143z" />
    <glyph glyph-name="afii10071" unicode="&#x451;" horiz-adv-x="580" 
d="M542 256q0 -29 -2 -40h-382q8 -60 48.5 -96t100.5 -36q76 0 129 66l83 -59q-76 -103 -211 -103q-121 0 -195.5 75.5t-74.5 195.5q0 119 70 195t183 76q111 0 181 -76.5t70 -197.5zM291 434q-55 0 -90.5 -34t-43.5 -94h266q-4 58 -41 93t-91 35zM126 667q0 26 18.5 44.5
t44.5 18.5t44.5 -18.5t18.5 -44.5t-18.5 -44.5t-44.5 -18.5t-44.5 18.5t-18.5 44.5zM330 667q0 26 18.5 44.5t44.5 18.5t44.5 -18.5t18.5 -44.5t-18.5 -44.5t-44.5 -18.5t-44.5 18.5t-18.5 44.5z" />
    <glyph glyph-name="afii10099" unicode="&#x452;" horiz-adv-x="605" 
d="M381 590h-196v-132q72 72 174 72q84 0 133.5 -50.5t49.5 -143.5v-336q0 -122 -40.5 -172.5t-153.5 -50.5q-22 0 -48 2v96q30 -2 44 -2q44 0 62 21t18 65v360q0 115 -100 115q-41 0 -78.5 -20.5t-60.5 -49.5v-364h-118v590h-62v73h62v67h118v-67h196v-73z" />
    <glyph glyph-name="afii10100" unicode="&#x453;" horiz-adv-x="462" 
d="M443 424h-258v-424h-118v518h376v-94zM379 703l-160 -129l-50 51l142 143z" />
    <glyph glyph-name="afii10101" unicode="&#x454;" horiz-adv-x="546" 
d="M161 306h198v-95h-197q10 -61 46 -94t91 -33q79 0 130 78l91 -48q-74 -126 -226 -126q-117 0 -186.5 75t-69.5 196t69.5 196t186.5 75q152 0 226 -126l-91 -48q-51 78 -130 78q-55 0 -91.5 -33.5t-46.5 -94.5z" />
    <glyph glyph-name="afii10102" unicode="&#x455;" horiz-adv-x="511" 
d="M56 386q0 65 50 104.5t140 39.5q128 0 208 -82l-78 -64q-47 50 -120 50q-74 0 -74 -45q0 -23 24 -39t95 -37q87 -25 129.5 -65t42.5 -103q0 -73 -52 -115t-150 -42q-153 0 -243 100l83 66q68 -70 150 -70q86 0 86 55q0 29 -23 46t-89 36q-99 28 -139 66t-40 99z" />
    <glyph glyph-name="afii10103" unicode="&#x456;" horiz-adv-x="262" 
d="M72 0v518h118v-518h-118zM204 667q0 -31 -21 -51.5t-52 -20.5t-52 20.5t-21 51.5t21 51.5t52 20.5t52 -20.5t21 -51.5z" />
    <glyph glyph-name="afii10104" unicode="&#x457;" horiz-adv-x="262" 
d="M72 0v518h118v-518h-118zM-34 667q0 26 18.5 44.5t44.5 18.5t44.5 -18.5t18.5 -44.5t-18.5 -44.5t-44.5 -18.5t-44.5 18.5t-18.5 44.5zM170 667q0 26 18.5 44.5t44.5 18.5t44.5 -18.5t18.5 -44.5t-18.5 -44.5t-44.5 -18.5t-44.5 18.5t-18.5 44.5z" />
    <glyph glyph-name="afii10105" unicode="&#x458;" horiz-adv-x="262" 
d="M-4 -224q-28 0 -48 3v94q13 -1 44 -1q44 0 62 21t18 65v560h118v-547q0 -102 -45 -148.5t-149 -46.5zM204 667q0 -31 -21 -51.5t-52 -20.5t-52 20.5t-21 51.5t21 51.5t52 20.5t52 -20.5t21 -51.5z" />
    <glyph glyph-name="afii10106" unicode="&#x459;" horiz-adv-x="874" 
d="M629 0h-201v423h-170v-256q0 -92 -46.5 -135.5t-143.5 -43.5q-28 0 -49 3v96q24 -3 44 -3q42 0 59.5 21.5t17.5 65.5v347h406v-186h83q105 0 160.5 -43t55.5 -123t-55.5 -123t-160.5 -43zM547 238v-144h81q99 0 99 72t-99 72h-81z" />
    <glyph glyph-name="afii10107" unicode="&#x45a;" horiz-adv-x="839" 
d="M594 0h-201v234h-208v-234h-118v518h118v-189h208v189h118v-186h83q105 0 160.5 -43t55.5 -123t-55.5 -123t-160.5 -43zM512 238v-144h81q99 0 99 72t-99 72h-81z" />
    <glyph glyph-name="afii10108" unicode="&#x45b;" horiz-adv-x="605" 
d="M381 590h-196v-132q72 72 174 72q84 0 133.5 -50.5t49.5 -143.5v-336h-118v319q0 115 -100 115q-41 0 -78.5 -20.5t-60.5 -49.5v-364h-118v590h-62v73h62v67h118v-67h196v-73z" />
    <glyph glyph-name="afii10109" unicode="&#x45c;" horiz-adv-x="553" 
d="M67 518h118v-231l200 231h137l-176 -200l202 -318h-130l-144 236l-89 -102v-134h-118v518zM409 703l-160 -129l-50 51l142 143z" />
    <glyph glyph-name="uni045D" unicode="&#x45d;" horiz-adv-x="618" 
d="M551 0h-118v349l-249 -349h-117v518h118v-349l249 349h117v-518zM334 574l-160 129l68 65l142 -143z" />
    <glyph glyph-name="afii10110" unicode="&#x45e;" horiz-adv-x="546" 
d="M142 -212l80 216l-208 514h121l144 -361l132 361h121l-269 -730h-121zM273 591q-65 0 -105.5 36.5t-56.5 100.5l76 18q23 -79 86 -79t86 79l76 -18q-16 -64 -56.5 -100.5t-105.5 -36.5z" />
    <glyph glyph-name="afii10193" unicode="&#x45f;" horiz-adv-x="588" 
d="M353 -110h-118v110h-168v518h118v-424h218v424h118v-518h-168v-110z" />
    <glyph glyph-name="afii10050" unicode="&#x490;" horiz-adv-x="552" 
d="M77 0v700h332v123h124v-227h-332v-596h-124z" />
    <glyph glyph-name="afii10098" unicode="&#x491;" horiz-adv-x="462" 
d="M443 424h-258v-424h-118v518h258v132h118v-226z" />
    <glyph glyph-name="Wgrave" unicode="&#x1e80;" horiz-adv-x="1014" 
d="M441 700h132l135 -535l158 535h129l-206 -700h-154l-128 508l-128 -508h-154l-206 700h129l158 -535zM512 748l-160 129l68 65l142 -143z" />
    <glyph glyph-name="wgrave" unicode="&#x1e81;" horiz-adv-x="820" 
d="M357 518h106l109 -367l111 367h123l-170 -518h-120l-106 357l-106 -357h-120l-170 518h124l110 -367zM415 574l-160 129l68 65l142 -143z" />
    <glyph glyph-name="Wacute" unicode="&#x1e82;" horiz-adv-x="1014" 
d="M441 700h132l135 -535l158 535h129l-206 -700h-154l-128 508l-128 -508h-154l-206 700h129l158 -535zM662 877l-160 -129l-50 51l142 143z" />
    <glyph glyph-name="wacute" unicode="&#x1e83;" horiz-adv-x="820" 
d="M357 518h106l109 -367l111 367h123l-170 -518h-120l-106 357l-106 -357h-120l-170 518h124l110 -367zM565 703l-160 -129l-50 51l142 143z" />
    <glyph glyph-name="Wdieresis" unicode="&#x1e84;" horiz-adv-x="1014" 
d="M441 700h132l135 -535l158 535h129l-206 -700h-154l-128 508l-128 -508h-154l-206 700h129l158 -535zM342 841q0 26 18.5 44.5t44.5 18.5t44.5 -18.5t18.5 -44.5t-18.5 -44.5t-44.5 -18.5t-44.5 18.5t-18.5 44.5zM546 841q0 26 18.5 44.5t44.5 18.5t44.5 -18.5
t18.5 -44.5t-18.5 -44.5t-44.5 -18.5t-44.5 18.5t-18.5 44.5z" />
    <glyph glyph-name="wdieresis" unicode="&#x1e85;" horiz-adv-x="820" 
d="M357 518h106l109 -367l111 367h123l-170 -518h-120l-106 357l-106 -357h-120l-170 518h124l110 -367zM245 667q0 26 18.5 44.5t44.5 18.5t44.5 -18.5t18.5 -44.5t-18.5 -44.5t-44.5 -18.5t-44.5 18.5t-18.5 44.5zM449 667q0 26 18.5 44.5t44.5 18.5t44.5 -18.5
t18.5 -44.5t-18.5 -44.5t-44.5 -18.5t-44.5 18.5t-18.5 44.5z" />
    <glyph glyph-name="Ygrave" unicode="&#x1ef2;" horiz-adv-x="634" 
d="M379 0h-124v276l-241 424h134l169 -308l169 308h134l-241 -424v-276zM358 748l-160 129l68 65l142 -143z" />
    <glyph glyph-name="ygrave" unicode="&#x1ef3;" horiz-adv-x="546" 
d="M142 -212l80 216l-208 514h121l144 -361l132 361h121l-269 -730h-121zM293 574l-160 129l68 65l142 -143z" />
    <glyph glyph-name="thinspace" unicode="&#x2009;" horiz-adv-x="200" 
 />
    <glyph glyph-name="uni2010" unicode="&#x2010;" horiz-adv-x="404" 
d="M347 281h-290v101h290v-101z" />
    <glyph glyph-name="figuredash" unicode="&#x2012;" horiz-adv-x="599" 
d="M559 285h-519v93h519v-93z" />
    <glyph glyph-name="endash" unicode="&#x2013;" horiz-adv-x="500" 
d="M500 285h-500v93h500v-93z" />
    <glyph glyph-name="emdash" unicode="&#x2014;" horiz-adv-x="1000" 
d="M1000 285h-1000v93h1000v-93z" />
    <glyph glyph-name="afii00208" unicode="&#x2015;" horiz-adv-x="1000" 
d="M902 285h-804v93h804v-93z" />
    <glyph glyph-name="uni2016" unicode="&#x2016;" horiz-adv-x="456" 
d="M97 -130v879h90v-879h-90zM269 -130v879h90v-879h-90z" />
    <glyph glyph-name="underscoredbl" unicode="&#x2017;" horiz-adv-x="603" 
d="M48 -221v80h507v-80h-507zM48 -107v80h507v-80h-507z" />
    <glyph glyph-name="quoteleft" unicode="&#x2018;" horiz-adv-x="308" 
d="M269 761l-79 -277l-112 38l109 265z" />
    <glyph glyph-name="quoteright" unicode="&#x2019;" horiz-adv-x="308" 
d="M41 510l79 277l112 -38l-109 -265z" />
    <glyph glyph-name="quotesinglbase" unicode="&#x201a;" horiz-adv-x="308" 
d="M41 -133l79 277l112 -38l-109 -265z" />
    <glyph glyph-name="quotereversed" unicode="&#x201b;" horiz-adv-x="308" 
d="M188 787l79 -277l-82 -26l-109 265z" />
    <glyph glyph-name="quotedblleft" unicode="&#x201c;" horiz-adv-x="491" 
d="M269 761l-79 -277l-112 38l109 265zM452 761l-79 -277l-112 38l109 265z" />
    <glyph glyph-name="quotedblright" unicode="&#x201d;" horiz-adv-x="491" 
d="M41 510l79 277l112 -38l-109 -265zM224 510l79 277l112 -38l-109 -265z" />
    <glyph glyph-name="quotedblbase" unicode="&#x201e;" horiz-adv-x="491" 
d="M41 -133l79 277l112 -38l-109 -265zM224 -133l79 277l112 -38l-109 -265z" />
    <glyph glyph-name="uni201F" unicode="&#x201f;" horiz-adv-x="491" 
d="M188 787l79 -277l-82 -26l-109 265zM371 787l79 -277l-82 -26l-109 265z" />
    <glyph glyph-name="dagger" unicode="&#x2020;" horiz-adv-x="587" 
d="M510 580v-96h-158v-615h-118v615h-157v96h157v168h118v-168h158z" />
    <glyph glyph-name="daggerdbl" unicode="&#x2021;" horiz-adv-x="587" 
d="M510 133v-96h-158v-168h-118v168h-157v96h157v351h-157v96h157v168h118v-168h158v-96h-158v-351h158z" />
    <glyph glyph-name="bullet" unicode="&#x2022;" horiz-adv-x="448" 
d="M89 331q0 58 38.5 97t96.5 39t96.5 -39t38.5 -97q0 -59 -38.5 -97.5t-96.5 -38.5t-96.5 38.5t-38.5 97.5z" />
    <glyph glyph-name="onedotenleader" unicode="&#x2024;" horiz-adv-x="308" 
d="M82 61q0 31 21 52t51 21t51 -21t21 -52t-21 -52t-51 -21t-51 21t-21 52z" />
    <glyph glyph-name="twodotenleader" unicode="&#x2025;" horiz-adv-x="616" 
d="M82 61q0 31 21 52t51 21t51 -21t21 -52t-21 -52t-51 -21t-51 21t-21 52zM390 61q0 31 21 52t51 21t51 -21t21 -52t-21 -52t-51 -21t-51 21t-21 52z" />
    <glyph glyph-name="ellipsis" unicode="&#x2026;" horiz-adv-x="924" 
d="M82 61q0 31 21 52t51 21t51 -21t21 -52t-21 -52t-51 -21t-51 21t-21 52zM698 61q0 31 21 52t51 21t51 -21t21 -52t-21 -52t-51 -21t-51 21t-21 52zM390 61q0 31 21 52t51 21t51 -21t21 -52t-21 -52t-51 -21t-51 21t-21 52z" />
    <glyph glyph-name="perthousand" unicode="&#x2030;" horiz-adv-x="1147" 
d="M160 33l427 680l68 -47l-427 -680zM427 171q0 80 43 129.5t113 49.5t112.5 -49.5t42.5 -129.5t-42.5 -129.5t-112.5 -49.5t-113 49.5t-43 129.5zM638 171q0 92 -55 92q-56 0 -56 -92q0 -45 15 -68t41 -23q55 0 55 91zM177 528q0 -91 55 -91t55 91t-55 91t-55 -91zM77 528
q0 80 42.5 129.5t112.5 49.5t112.5 -49.5t42.5 -129.5t-42.5 -129.5t-112.5 -49.5t-112.5 49.5t-42.5 129.5zM759 171q0 80 43 129.5t113 49.5t112.5 -49.5t42.5 -129.5t-42.5 -129.5t-112.5 -49.5t-113 49.5t-43 129.5zM970 171q0 92 -55 92q-56 0 -56 -92q0 -45 15 -68
t41 -23q55 0 55 91z" />
    <glyph glyph-name="minute" unicode="&#x2032;" horiz-adv-x="330" 
d="M74 441l72 266l110 -35l-104 -254z" />
    <glyph glyph-name="second" unicode="&#x2033;" horiz-adv-x="531" 
d="M74 441l72 266l110 -35l-104 -254zM275 441l72 266l110 -35l-104 -254z" />
    <glyph glyph-name="guilsinglleft" unicode="&#x2039;" horiz-adv-x="365" 
d="M48 290v44l219 159l50 -66l-164 -115l164 -115l-50 -66z" />
    <glyph glyph-name="guilsinglright" unicode="&#x203a;" horiz-adv-x="365" 
d="M317 334v-44l-219 -159l-50 66l164 115l-164 115l50 66z" />
    <glyph glyph-name="exclamdbl" unicode="&#x203c;" horiz-adv-x="518" 
d="M78 61q0 31 21 52t51 21t51 -21t21 -52t-21 -52t-51 -21t-51 21t-21 52zM108 182l-24 342v176h132v-176l-24 -342h-84zM296 61q0 31 21 52t51 21t51 -21t21 -52t-21 -52t-51 -21t-51 21t-21 52zM326 182l-24 342v176h132v-176l-24 -342h-84z" />
    <glyph glyph-name="uni203E" unicode="&#x203e;" horiz-adv-x="396" 
d="M49 607v80h298v-80h-298z" />
    <glyph glyph-name="fraction" unicode="&#x2044;" horiz-adv-x="199" 
d="M252 715l68 -37l-373 -693l-68 37z" />
    <glyph glyph-name="zerosuperior" unicode="&#x2070;" 
d="M389 469q0 -108 -46.5 -173.5t-132.5 -65.5t-132.5 65.5t-46.5 173.5t46.5 173.5t132.5 65.5t132.5 -65.5t46.5 -173.5zM292 469q0 156 -82 156t-82 -156t82 -156t82 156z" />
    <glyph glyph-name="uni2071" unicode="&#x2071;" 
d="M164 237v331h92v-331h-92zM264 662q0 -22 -15.5 -38t-38.5 -16t-38.5 16t-15.5 38t15.5 38t38.5 16t38.5 -16t15.5 -38z" />
    <glyph glyph-name="foursuperior" unicode="&#x2074;" 
d="M239 331h-212v76l209 293h95v-288h54v-81h-54v-94h-92v94zM239 567l-110 -155h110v155z" />
    <glyph glyph-name="fivesuperior" unicode="&#x2075;" 
d="M100 440l-24 14v246h276v-80h-187v-94q27 6 55 6q68 0 111 -42t43 -112q0 -65 -45.5 -107t-121.5 -42q-97 0 -160 66l64 55q39 -39 96 -39q31 0 50.5 20t19.5 49q0 34 -23 54t-62 20q-48 0 -92 -14z" />
    <glyph glyph-name="sixsuperior" unicode="&#x2076;" 
d="M218 628q-32 0 -52.5 -29.5t-24.5 -87.5q43 34 92 34q66 0 107 -44t41 -114t-45 -114t-119 -44q-80 0 -127.5 58t-47.5 169q0 127 46.5 189.5t127.5 62.5q97 0 150 -77l-66 -44q-30 41 -82 41zM215 464q-43 0 -76 -32q7 -122 76 -122q34 0 52.5 21t18.5 57q0 35 -19 55.5
t-52 20.5z" />
    <glyph glyph-name="sevensuperior" unicode="&#x2077;" 
d="M366 619l-164 -382h-104l165 381h-203v82h306v-81z" />
    <glyph glyph-name="eightsuperior" unicode="&#x2078;" 
d="M42 371q0 71 67 114q-55 35 -55 98q0 57 41 91t110 34q70 0 112 -35t42 -95q0 -65 -55 -102q73 -42 73 -111q0 -61 -46 -99t-120 -38q-76 0 -122.5 39t-46.5 104zM283 361q0 25 -17 39.5t-59 33.5l-30 13q-40 -31 -40 -76q0 -30 20.5 -47t53.5 -17q31 0 51.5 15.5
t20.5 38.5zM147 585q0 -22 14 -36t43 -27l30 -13q33 27 33 67q0 26 -16.5 40t-46.5 14q-26 0 -41.5 -13t-15.5 -32z" />
    <glyph glyph-name="ninesuperior" unicode="&#x2079;" 
d="M198 308q73 0 80 115q-40 -32 -89 -32q-66 0 -108.5 44t-42.5 114t45 114.5t119 44.5q81 0 128 -57.5t47 -167.5q0 -254 -178 -254q-84 0 -137 55l58 56q32 -32 78 -32zM205 472q43 0 75 32q-5 122 -76 122q-34 0 -52.5 -21t-18.5 -57q0 -35 19.5 -55.5t52.5 -20.5z" />
    <glyph glyph-name="uni207A" unicode="&#x207a;" 
d="M167 309v125h-124v73h124v125h86v-125h124v-73h-124v-125h-86z" />
    <glyph glyph-name="uni207B" unicode="&#x207b;" 
d="M377 434h-334v73h334v-73z" />
    <glyph glyph-name="uni207C" unicode="&#x207c;" 
d="M377 506h-334v73h334v-73zM377 362h-334v73h334v-73z" />
    <glyph glyph-name="uni207D" unicode="&#x207d;" 
d="M133 469q0 154 95 290l64 -29q-77 -122 -77 -261t77 -261l-64 -29q-95 136 -95 290z" />
    <glyph glyph-name="uni207E" unicode="&#x207e;" 
d="M287 469q0 -154 -95 -290l-64 29q77 122 77 261t-77 261l64 29q95 -136 95 -290z" />
    <glyph glyph-name="uni207F" unicode="&#x207f;" 
d="M219 498q-39 0 -65 -30v-231h-94v332h94v-30q43 38 99 38q49 0 78 -32t29 -88v-220h-94v209q0 52 -47 52z" />
    <glyph glyph-name="zeroinferior" unicode="&#x2080;" 
d="M389 106q0 -108 -46.5 -173.5t-132.5 -65.5t-132.5 65.5t-46.5 173.5t46.5 173.5t132.5 65.5t132.5 -65.5t46.5 -173.5zM292 106q0 156 -82 156t-82 -156t82 -156t82 156z" />
    <glyph glyph-name="oneinferior" unicode="&#x2081;" 
d="M190 228l-68 -49l-55 60l134 99h82v-464h-93v354z" />
    <glyph glyph-name="twoinferior" unicode="&#x2082;" 
d="M201 262q-47 0 -85 -43l-66 50q64 76 160 76q66 0 106 -37t40 -99q0 -105 -169 -255h172v-80h-307v69q207 172 207 263q0 24 -15.5 40t-42.5 16z" />
    <glyph glyph-name="threeinferior" unicode="&#x2083;" 
d="M195 -55q34 0 54.5 18t20.5 45q0 35 -26.5 52t-71.5 17h-45v74h45q40 0 62.5 16t22.5 45q0 25 -14.5 39t-41.5 14q-51 0 -81 -40l-65 49q59 71 151 71q66 0 106.5 -34t40.5 -92q0 -35 -20 -63t-51 -41q37 -14 60 -42.5t23 -68.5q0 -60 -44.5 -99t-121.5 -39
q-105 0 -159 78l66 48q32 -47 89 -47z" />
    <glyph glyph-name="fourinferior" unicode="&#x2084;" 
d="M239 -32h-212v76l209 293h95v-288h54v-81h-54v-94h-92v94zM239 204l-110 -155h110v155z" />
    <glyph glyph-name="fiveinferior" unicode="&#x2085;" 
d="M100 77l-24 14v246h276v-80h-187v-94q27 6 55 6q68 0 111 -42t43 -112q0 -65 -45.5 -107t-121.5 -42q-97 0 -160 66l64 55q39 -39 96 -39q31 0 50.5 20t19.5 49q0 34 -23 54t-62 20q-48 0 -92 -14z" />
    <glyph glyph-name="sixinferior" unicode="&#x2086;" 
d="M218 265q-32 0 -52.5 -29.5t-24.5 -87.5q43 34 92 34q66 0 107 -44t41 -114t-45 -114t-119 -44q-80 0 -127.5 58t-47.5 169q0 127 46.5 189.5t127.5 62.5q97 0 150 -77l-66 -44q-30 41 -82 41zM215 101q-43 0 -76 -32q7 -122 76 -122q34 0 52.5 21t18.5 57q0 35 -19 55.5
t-52 20.5z" />
    <glyph glyph-name="seveninferior" unicode="&#x2087;" 
d="M366 256l-164 -382h-104l165 381h-203v82h306v-81z" />
    <glyph glyph-name="eightinferior" unicode="&#x2088;" 
d="M42 8q0 71 67 114q-55 35 -55 98q0 57 41 91t110 34q70 0 112 -35t42 -95q0 -65 -55 -102q73 -42 73 -111q0 -61 -46 -99t-120 -38q-76 0 -122.5 39t-46.5 104zM283 -2q0 25 -17 39.5t-59 33.5l-30 13q-40 -31 -40 -76q0 -30 20.5 -47t53.5 -17q31 0 51.5 15.5t20.5 38.5
zM147 222q0 -22 14 -36t43 -27l30 -13q33 27 33 67q0 26 -16.5 40t-46.5 14q-26 0 -41.5 -13t-15.5 -32z" />
    <glyph glyph-name="nineinferior" unicode="&#x2089;" 
d="M198 -55q73 0 80 115q-40 -32 -89 -32q-66 0 -108.5 44t-42.5 114t45 114.5t119 44.5q81 0 128 -57.5t47 -167.5q0 -254 -178 -254q-84 0 -137 55l58 56q32 -32 78 -32zM205 109q43 0 75 32q-5 122 -76 122q-34 0 -52.5 -21t-18.5 -57q0 -35 19.5 -55.5t52.5 -20.5z" />
    <glyph glyph-name="uni208A" unicode="&#x208a;" 
d="M167 -54v125h-124v73h124v125h86v-125h124v-73h-124v-125h-86z" />
    <glyph glyph-name="uni208B" unicode="&#x208b;" 
d="M377 71h-334v73h334v-73z" />
    <glyph glyph-name="uni208C" unicode="&#x208c;" 
d="M377 143h-334v73h334v-73zM377 -1h-334v73h334v-73z" />
    <glyph glyph-name="uni208D" unicode="&#x208d;" 
d="M133 106q0 154 95 290l64 -29q-77 -122 -77 -261t77 -261l-64 -29q-95 136 -95 290z" />
    <glyph glyph-name="uni208E" unicode="&#x208e;" 
d="M287 106q0 -154 -95 -290l-64 29q77 122 77 261t-77 261l64 29q95 -136 95 -290z" />
    <glyph glyph-name="uni2090" unicode="&#x2090;" 
d="M43 -23q0 50 37.5 81t95.5 31q60 0 99 -30v31q0 62 -70 62q-51 0 -90 -30l-52 53q66 51 151 51q71 0 111 -34.5t40 -93.5v-224h-90v28q-39 -36 -98 -36q-58 0 -96 30.5t-38 80.5zM196 -65q53 0 79 26v39q-30 19 -79 19q-63 0 -63 -42t63 -42z" />
    <glyph glyph-name="uni2091" unicode="&#x2091;" 
d="M210 152q-66 0 -75 -74h151q-4 36 -24.5 55t-51.5 19zM217 -133q-79 0 -127 49t-48 130q0 78 47 128.5t121 50.5q75 0 121.5 -50.5t46.5 -130.5q0 -17 -2 -28h-240q5 -37 27.5 -57t56.5 -20q52 0 81 39l59 -44q-54 -67 -143 -67z" />
    <glyph glyph-name="uni2092" unicode="&#x2092;" 
d="M387 46q0 -79 -48 -129t-129 -50t-129 50t-48 129t48 129t129 50t129 -50t48 -129zM128 46q0 -47 23 -76t59 -29t59 29t23 76t-23 76t-59 29t-59 -29t-23 -76z" />
    <glyph glyph-name="uni2093" unicode="&#x2093;" 
d="M210 -13l-80 -112h-106l129 175l-120 167h102l75 -104l75 104h102l-120 -167l129 -175h-106z" />
    <glyph glyph-name="uni2094" unicode="&#x2094;" 
d="M210 -60q66 0 75 74h-151q4 -36 24.5 -55t51.5 -19zM203 225q79 0 127 -49t48 -130q0 -78 -47 -128.5t-121 -50.5q-75 0 -121.5 50.5t-46.5 130.5q0 17 2 28h240q-5 37 -27.5 57t-56.5 20q-52 0 -81 -39l-59 44q54 67 143 67z" />
    <glyph glyph-name="uni20A0" unicode="&#x20a0;" horiz-adv-x="778" 
d="M38 458q0 114 65.5 184t174.5 70q66 0 118.5 -28.5t83.5 -78.5l-81 -51q-48 65 -119 65q-61 0 -96.5 -43.5t-35.5 -117.5q0 -72 38 -116t94 -44q77 0 117 47v145h335v-87h-227v-109h210v-87h-210v-120h234v-87h-342v240q-49 -35 -123 -35q-103 0 -169.5 71.5t-66.5 181.5
z" />
    <glyph glyph-name="colonmonetary" unicode="&#x20a1;" horiz-adv-x="694" 
d="M43 350q0 160 88.5 259t235.5 102l22 77l58 -17l-18 -63q27 -3 49 -10l26 90l58 -17l-28 -95q83 -40 127 -116l-102 -55q-26 38 -56 62l-137 -473h15q111 0 178 101l102 -55q-41 -71 -115.5 -111.5t-169.5 -40.5q-14 0 -40 2l-17 -59l-58 17l15 53q-23 6 -47 17l-25 -87
l-58 17l29 102q-63 48 -97.5 125t-34.5 175zM169 350q0 -103 44 -169l122 420q-75 -16 -120.5 -80.5t-45.5 -170.5zM399 605l-137 -475q21 -15 45 -24l141 490q-22 7 -49 9z" />
    <glyph glyph-name="uni20A2" unicode="&#x20a2;" horiz-adv-x="694" 
d="M285 116v312h99v-57q53 68 145 68q20 0 30 -1v-85q-15 2 -39 2q-42 0 -78.5 -19.5t-57.5 -52.5v-189q108 1 175 101l102 -55q-41 -71 -115.5 -111.5t-169.5 -40.5q-150 0 -241.5 100t-91.5 262t91.5 262t241.5 100q95 0 169.5 -40.5t115.5 -111.5l-102 -55
q-67 101 -178 101q-93 0 -152.5 -67.5t-59.5 -188.5q0 -174 116 -234z" />
    <glyph glyph-name="franc" unicode="&#x20a3;" horiz-adv-x="548" 
d="M19 452h58v248h452v-104h-328v-144h276v-60h-276v-70h276v-60h-276v-262h-124v262h-58v60h58v70h-58v60z" />
    <glyph glyph-name="lira" unicode="&#x20a4;" horiz-adv-x="599" 
d="M116 430v69q0 106 58 159.5t166 53.5q63 0 120.5 -25.5t93.5 -70.5l-86 -67q-47 57 -119 57q-109 0 -109 -109v-67h195v-60h-195v-70h195v-60h-196q-5 -91 -59 -136h390v-104h-532v96q77 55 78 144h-78v60h78v70h-78v60h78z" />
    <glyph glyph-name="uni20A6" unicode="&#x20a6;" horiz-adv-x="724" 
d="M14 312h65v75h-65v60h65v253h123l160 -253h165v253h118v-253h65v-60h-65v-75h65v-60h-65v-252h-123l-160 252h-165v-252h-118v252h-65v60zM197 387v-75h127l-48 75h-79zM400 387l48 -75h79v75h-127zM197 512v-65h41zM486 252l41 -64v64h-41z" />
    <glyph glyph-name="peseta" unicode="&#x20a7;" horiz-adv-x="1084" 
d="M627 673v-155h163v-10q38 22 86 22q96 0 162 -76l-74 -53q-31 37 -76 37q-25 0 -41.5 -13.5t-16.5 -36.5q0 -27 19 -44.5t69 -36.5q128 -49 128 -153q0 -73 -47.5 -113.5t-129.5 -40.5h-177q-101 0 -136 56t-35 188v179h-56q-15 -83 -82.5 -127.5t-169.5 -44.5h-25v-251
h-111v700h136q105 0 173.5 -47t81.5 -135h53v155h106zM720 385q0 24 5 38h-98v-161q0 -103 13.5 -136.5t66.5 -33.5h154q71 0 71 59q0 27 -17.5 46t-67.5 36q-127 42 -127 152zM361 475q0 64 -37.5 93.5t-114.5 29.5h-21v-245h21q77 0 114.5 29.5t37.5 92.5z" />
    <glyph glyph-name="uni20A8" unicode="&#x20a8;" horiz-adv-x="1056" 
d="M558 489q0 -72 -37 -120t-104 -69l170 -300h-136l-152 279h-99v-279h-123v700h216q127 0 196 -54.5t69 -156.5zM433 489q0 110 -142 110h-91v-219h91q142 0 142 109zM578 86l78 61q71 -69 155 -69q40 0 63.5 18.5t23.5 43.5q0 31 -24.5 48.5t-88.5 35.5q-97 27 -138 65.5
t-41 95.5q0 63 51.5 104t141.5 41q119 0 201 -81l-72 -58q-57 49 -122 49q-36 0 -58 -14t-22 -37t23 -39t86 -34q92 -27 137.5 -65.5t45.5 -105.5q0 -70 -56.5 -113.5t-147.5 -43.5q-147 0 -236 98z" />
    <glyph glyph-name="uni20A9" unicode="&#x20a9;" horiz-adv-x="1014" 
d="M878 303h117v-60h-135l-71 -243h-154l-62 243h-133l-61 -243h-154l-72 243h-133v60h116l-20 66h-96v60h79l-80 271h129l80 -271h144l69 271h132l68 -271h145l80 271h129l-80 -271h80v-60h-98zM245 369l20 -66h75l17 66h-112zM656 369l17 -66h75l20 66h-112zM471 369
l-16 -66h103l-16 66h-71zM688 243l20 -78l23 78h-43zM283 243l23 -78l19 78h-42zM507 508l-20 -79h40z" />
    <glyph glyph-name="afii57636" unicode="&#x20aa;" horiz-adv-x="882" 
d="M77 0v700h273q120 0 187.5 -73t67.5 -214v-156h-109v144q0 117 -38.5 162t-116.5 45h-156v-608h-108zM805 700v-700h-273q-120 0 -187.5 73t-67.5 214v156h109v-144q0 -117 38.5 -162t116.5 -45h156v608h108z" />
    <glyph glyph-name="dong" unicode="&#x20ab;" horiz-adv-x="610" 
d="M44 244q0 119 59 187.5t165 68.5q91 0 156 -62v122h-195v73h195v67h118v-67h63v-73h-63v-560h-118v50q-65 -62 -156 -62q-106 0 -165 68.5t-59 187.5zM298 403q-134 0 -134 -159t134 -159q34 0 68.5 14.5t57.5 40.5v208q-23 26 -57.5 40.5t-68.5 14.5zM521 -81v-73h-380
v73h380z" />
    <glyph glyph-name="Euro" unicode="&#x20ac;" horiz-adv-x="724" 
d="M81 257h-62v61h55q-1 10 -1 32q0 21 1 31h-55v61h62q25 124 111.5 197t213.5 73q95 0 169.5 -40.5t115.5 -111.5l-102 -55q-67 101 -178 101q-73 0 -127 -42.5t-75 -121.5h262l-18 -61h-253q-1 -10 -1 -31q0 -22 1 -32h235l-19 -61h-206q21 -79 74.5 -121t126.5 -42
q111 0 178 101l102 -55q-41 -71 -115.5 -111.5t-169.5 -40.5q-127 0 -213.5 72.5t-111.5 196.5z" />
    <glyph glyph-name="afii61248" unicode="&#x2105;" horiz-adv-x="1051" 
d="M672 715l68 -37l-373 -693l-68 37zM29 482q0 -102 59 -164t157 -62q126 0 189 106l-83 44q-42 -60 -104 -60q-51 0 -80 36.5t-29 99.5t29 99.5t80 36.5q62 0 104 -60l83 44q-63 106 -189 106q-98 0 -157 -62t-59 -164zM1022 215q0 -99 -58.5 -162t-155.5 -63t-155.5 63
t-58.5 162t58.5 162t155.5 63t155.5 -63t58.5 -162zM913 215q0 61 -29 98t-76 37t-76 -37t-29 -98t29 -98t76 -37t76 37t29 98z" />
    <glyph glyph-name="uni2109" unicode="&#x2109;" horiz-adv-x="818" 
d="M347 0v700h452v-104h-328v-204h293v-104h-293v-288h-124zM286 576q0 -59 -39 -97.5t-99 -38.5t-99 38.5t-39 97.5t39 97.5t99 38.5t99 -38.5t39 -97.5zM211 576q0 28 -17.5 46t-45.5 18t-45.5 -18t-17.5 -46t17.5 -46t45.5 -18t45.5 18t17.5 46z" />
    <glyph glyph-name="afii61289" unicode="&#x2113;" horiz-adv-x="532" 
d="M341 -12q-92 0 -158 72q-54 -22 -113 -32l-32 101q53 12 88 25q-45 105 -45 246q0 147 58.5 229t156.5 82q81 0 125.5 -63t44.5 -168q0 -116 -48.5 -210.5t-136.5 -156.5q29 -27 66 -27q43 0 73 30l61 -76q-50 -52 -140 -52zM201 403q0 -108 27 -194q118 91 118 277
q0 127 -56 127q-38 0 -63.5 -56.5t-25.5 -153.5z" />
    <glyph glyph-name="afii61352" unicode="&#x2116;" horiz-adv-x="973" 
d="M77 0v700h119l191 -477v477h110v-700h-119l-191 477v-477h-110zM934 80v-80h-390v80h390zM657 328q0 -57 22 -87t60 -30t60 30t22 87t-22 87t-60 30t-60 -30t-22 -87zM554 328q0 92 49.5 148.5t135.5 56.5t135.5 -56.5t49.5 -148.5t-49.5 -148.5t-135.5 -56.5
t-135.5 56.5t-49.5 148.5z" />
    <glyph glyph-name="uni2117" unicode="&#x2117;" horiz-adv-x="826" 
d="M51 350q0 150 106 256t256 106t256 -106t106 -256t-106 -256t-256 -106t-256 106t-106 256zM107 350q0 -129 89.5 -219.5t216.5 -90.5t216.5 90.5t89.5 219.5t-89.5 219.5t-216.5 90.5t-216.5 -90.5t-89.5 -219.5zM512 414q0 78 -82 78h-63v-156h63q82 0 82 78zM597 414
q0 -68 -44 -106t-120 -38h-66v-140h-88v427h154q76 0 120 -37.5t44 -105.5z" />
    <glyph glyph-name="uni2120" unicode="&#x2120;" horiz-adv-x="695" 
d="M150 430q19 0 31.5 8t12.5 23q0 18 -14 30.5t-50 23.5q-95 29 -95 99q0 39 31 64.5t82 25.5q69 0 114 -50l-46 -38q-29 29 -63 29q-41 0 -41 -30q0 -23 46 -39q61 -22 86.5 -45t25.5 -65q0 -43 -33 -69t-87 -26q-78 0 -127 56l49 41q38 -38 78 -38zM449 429l-69 132v-185
h-74v324h75l95 -183l95 183h75v-324h-74v185l-69 -132h-54z" />
    <glyph glyph-name="uni2121" unicode="&#x2121;" horiz-adv-x="1012" 
d="M171 0v600h-152v100h422v-100h-152v-600h-118zM476 304h174q-1 61 -25 96.5t-63 35.5q-38 0 -61.5 -35.5t-24.5 -96.5zM825 0v730h115v-730h-115zM666 146l83 -58q-62 -100 -175 -100q-104 0 -159 78.5t-55 192.5q0 122 55 196.5t147 74.5q96 0 150 -75.5t54 -198.5
q0 -25 -2 -38h-288q2 -59 29 -96.5t72 -37.5q59 0 89 62z" />
    <glyph glyph-name="trademark" unicode="&#x2122;" horiz-adv-x="681" 
d="M101 376v266h-92v58h259v-58h-92v-266h-75zM436 429l-69 132v-185h-74v324h75l95 -183l95 183h75v-324h-74v185l-69 -132h-54z" />
    <glyph glyph-name="Omega" unicode="&#x2126;" horiz-adv-x="730" 
d="M365 605q-91 0 -143.5 -68.5t-52.5 -170.5q0 -163 143 -264v-102h-261v104h122q-130 98 -130 273q0 146 86 240.5t236 94.5t236 -94.5t86 -240.5q0 -175 -130 -273h122v-104h-261v102q143 101 143 264q0 102 -52.5 170.5t-143.5 68.5z" />
    <glyph glyph-name="estimated" unicode="&#x212e;" horiz-adv-x="736" 
d="M402 40q112 0 191 68l42 -40q-101 -80 -234 -80q-184 0 -271 99.5t-87 262.5q0 154 88.5 258t242.5 104q148 0 233.5 -105t85.5 -263v-24h-484v-223q69 -57 193 -57zM371 658q-98 0 -162 -58v-226h323v228q-64 56 -161 56z" />
    <glyph glyph-name="onethird" unicode="&#x2153;" horiz-adv-x="1014" 
d="M660 715l68 -37l-373 -693l-68 37zM789 71q34 0 54.5 18t20.5 45q0 35 -26.5 52t-71.5 17h-45v74h45q40 0 62.5 16t22.5 45q0 25 -14.5 39t-41.5 14q-51 0 -81 -40l-65 49q59 71 151 71q66 0 106.5 -34t40.5 -92q0 -35 -20 -63t-51 -41q37 -14 60 -42.5t23 -68.5
q0 -60 -44.5 -99t-121.5 -39q-105 0 -159 78l66 48q32 -47 89 -47zM190 591l-68 -49l-55 60l134 99h82v-464h-93v354z" />
    <glyph glyph-name="twothirds" unicode="&#x2154;" horiz-adv-x="1014" 
d="M660 715l68 -37l-373 -693l-68 37zM789 71q34 0 54.5 18t20.5 45q0 35 -26.5 52t-71.5 17h-45v74h45q40 0 62.5 16t22.5 45q0 25 -14.5 39t-41.5 14q-51 0 -81 -40l-65 49q59 71 151 71q66 0 106.5 -34t40.5 -92q0 -35 -20 -63t-51 -41q37 -14 60 -42.5t23 -68.5
q0 -60 -44.5 -99t-121.5 -39q-105 0 -159 78l66 48q32 -47 89 -47zM198 625q-47 0 -85 -43l-66 50q64 76 160 76q66 0 106 -37t40 -99q0 -105 -169 -255h172v-80h-307v69q207 172 207 263q0 24 -15.5 40t-42.5 16z" />
    <glyph glyph-name="onefifth" unicode="&#x2155;" horiz-adv-x="1014" 
d="M660 715l68 -37l-373 -693l-68 37zM694 203l-24 14v246h276v-80h-187v-94q27 6 55 6q68 0 111 -42t43 -112q0 -65 -45.5 -107t-121.5 -42q-97 0 -160 66l64 55q39 -39 96 -39q31 0 50.5 20t19.5 49q0 34 -23 54t-62 20q-48 0 -92 -14zM190 591l-68 -49l-55 60l134 99h82
v-464h-93v354z" />
    <glyph glyph-name="twofifths" unicode="&#x2156;" horiz-adv-x="1014" 
d="M660 715l68 -37l-373 -693l-68 37zM694 203l-24 14v246h276v-80h-187v-94q27 6 55 6q68 0 111 -42t43 -112q0 -65 -45.5 -107t-121.5 -42q-97 0 -160 66l64 55q39 -39 96 -39q31 0 50.5 20t19.5 49q0 34 -23 54t-62 20q-48 0 -92 -14zM198 625q-47 0 -85 -43l-66 50
q64 76 160 76q66 0 106 -37t40 -99q0 -105 -169 -255h172v-80h-307v69q207 172 207 263q0 24 -15.5 40t-42.5 16z" />
    <glyph glyph-name="threefifths" unicode="&#x2157;" horiz-adv-x="1014" 
d="M660 715l68 -37l-373 -693l-68 37zM694 203l-24 14v246h276v-80h-187v-94q27 6 55 6q68 0 111 -42t43 -112q0 -65 -45.5 -107t-121.5 -42q-97 0 -160 66l64 55q39 -39 96 -39q31 0 50.5 20t19.5 49q0 34 -23 54t-62 20q-48 0 -92 -14zM195 308q34 0 54.5 18t20.5 45
q0 35 -26.5 52t-71.5 17h-45v74h45q40 0 62.5 16t22.5 45q0 25 -14.5 39t-41.5 14q-51 0 -81 -40l-65 49q59 71 151 71q66 0 106.5 -34t40.5 -92q0 -35 -20 -63t-51 -41q37 -14 60 -42.5t23 -68.5q0 -60 -44.5 -99t-121.5 -39q-105 0 -159 78l66 48q32 -47 89 -47z" />
    <glyph glyph-name="fourfifths" unicode="&#x2158;" horiz-adv-x="1014" 
d="M660 715l68 -37l-373 -693l-68 37zM694 203l-24 14v246h276v-80h-187v-94q27 6 55 6q68 0 111 -42t43 -112q0 -65 -45.5 -107t-121.5 -42q-97 0 -160 66l64 55q39 -39 96 -39q31 0 50.5 20t19.5 49q0 34 -23 54t-62 20q-48 0 -92 -14zM239 331h-212v76l209 293h95v-288
h54v-81h-54v-94h-92v94zM239 567l-110 -155h110v155z" />
    <glyph glyph-name="onesixth" unicode="&#x2159;" horiz-adv-x="1014" 
d="M660 715l68 -37l-373 -693l-68 37zM812 391q-32 0 -52.5 -29.5t-24.5 -87.5q43 34 92 34q66 0 107 -44t41 -114t-45 -114t-119 -44q-80 0 -127.5 58t-47.5 169q0 127 46.5 189.5t127.5 62.5q97 0 150 -77l-66 -44q-30 41 -82 41zM809 227q-43 0 -76 -32q7 -122 76 -122
q34 0 52.5 21t18.5 57q0 35 -19 55.5t-52 20.5zM190 591l-68 -49l-55 60l134 99h82v-464h-93v354z" />
    <glyph glyph-name="fivesixths" unicode="&#x215a;" horiz-adv-x="1014" 
d="M660 715l68 -37l-373 -693l-68 37zM812 391q-32 0 -52.5 -29.5t-24.5 -87.5q43 34 92 34q66 0 107 -44t41 -114t-45 -114t-119 -44q-80 0 -127.5 58t-47.5 169q0 127 46.5 189.5t127.5 62.5q97 0 150 -77l-66 -44q-30 41 -82 41zM809 227q-43 0 -76 -32q7 -122 76 -122
q34 0 52.5 21t18.5 57q0 35 -19 55.5t-52 20.5zM100 440l-24 14v246h276v-80h-187v-94q27 6 55 6q68 0 111 -42t43 -112q0 -65 -45.5 -107t-121.5 -42q-97 0 -160 66l64 55q39 -39 96 -39q31 0 50.5 20t19.5 49q0 34 -23 54t-62 20q-48 0 -92 -14z" />
    <glyph glyph-name="oneeighth" unicode="&#x215b;" horiz-adv-x="1014" 
d="M660 715l68 -37l-373 -693l-68 37zM636 134q0 71 67 114q-55 35 -55 98q0 57 41 91t110 34q70 0 112 -35t42 -95q0 -65 -55 -102q73 -42 73 -111q0 -61 -46 -99t-120 -38q-76 0 -122.5 39t-46.5 104zM877 124q0 25 -17 39.5t-59 33.5l-30 13q-40 -31 -40 -76
q0 -30 20.5 -47t53.5 -17q31 0 51.5 15.5t20.5 38.5zM741 348q0 -22 14 -36t43 -27l30 -13q33 27 33 67q0 26 -16.5 40t-46.5 14q-26 0 -41.5 -13t-15.5 -32zM190 591l-68 -49l-55 60l134 99h82v-464h-93v354z" />
    <glyph glyph-name="threeeighths" unicode="&#x215c;" horiz-adv-x="1014" 
d="M660 715l68 -37l-373 -693l-68 37zM636 134q0 71 67 114q-55 35 -55 98q0 57 41 91t110 34q70 0 112 -35t42 -95q0 -65 -55 -102q73 -42 73 -111q0 -61 -46 -99t-120 -38q-76 0 -122.5 39t-46.5 104zM877 124q0 25 -17 39.5t-59 33.5l-30 13q-40 -31 -40 -76
q0 -30 20.5 -47t53.5 -17q31 0 51.5 15.5t20.5 38.5zM741 348q0 -22 14 -36t43 -27l30 -13q33 27 33 67q0 26 -16.5 40t-46.5 14q-26 0 -41.5 -13t-15.5 -32zM195 308q34 0 54.5 18t20.5 45q0 35 -26.5 52t-71.5 17h-45v74h45q40 0 62.5 16t22.5 45q0 25 -14.5 39t-41.5 14
q-51 0 -81 -40l-65 49q59 71 151 71q66 0 106.5 -34t40.5 -92q0 -35 -20 -63t-51 -41q37 -14 60 -42.5t23 -68.5q0 -60 -44.5 -99t-121.5 -39q-105 0 -159 78l66 48q32 -47 89 -47z" />
    <glyph glyph-name="fiveeighths" unicode="&#x215d;" horiz-adv-x="1014" 
d="M660 715l68 -37l-373 -693l-68 37zM636 134q0 71 67 114q-55 35 -55 98q0 57 41 91t110 34q70 0 112 -35t42 -95q0 -65 -55 -102q73 -42 73 -111q0 -61 -46 -99t-120 -38q-76 0 -122.5 39t-46.5 104zM877 124q0 25 -17 39.5t-59 33.5l-30 13q-40 -31 -40 -76
q0 -30 20.5 -47t53.5 -17q31 0 51.5 15.5t20.5 38.5zM741 348q0 -22 14 -36t43 -27l30 -13q33 27 33 67q0 26 -16.5 40t-46.5 14q-26 0 -41.5 -13t-15.5 -32zM100 440l-24 14v246h276v-80h-187v-94q27 6 55 6q68 0 111 -42t43 -112q0 -65 -45.5 -107t-121.5 -42
q-97 0 -160 66l64 55q39 -39 96 -39q31 0 50.5 20t19.5 49q0 34 -23 54t-62 20q-48 0 -92 -14z" />
    <glyph glyph-name="seveneighths" unicode="&#x215e;" horiz-adv-x="1014" 
d="M660 715l68 -37l-373 -693l-68 37zM636 134q0 71 67 114q-55 35 -55 98q0 57 41 91t110 34q70 0 112 -35t42 -95q0 -65 -55 -102q73 -42 73 -111q0 -61 -46 -99t-120 -38q-76 0 -122.5 39t-46.5 104zM877 124q0 25 -17 39.5t-59 33.5l-30 13q-40 -31 -40 -76
q0 -30 20.5 -47t53.5 -17q31 0 51.5 15.5t20.5 38.5zM741 348q0 -22 14 -36t43 -27l30 -13q33 27 33 67q0 26 -16.5 40t-46.5 14q-26 0 -41.5 -13t-15.5 -32zM366 619l-164 -382h-104l165 381h-203v82h306v-81z" />
    <glyph glyph-name="uni215F" unicode="&#x215f;" horiz-adv-x="1014" 
d="M660 715l68 -37l-373 -693l-68 37zM190 591l-68 -49l-55 60l134 99h82v-464h-93v354z" />
    <glyph glyph-name="arrowleft" unicode="&#x2190;" horiz-adv-x="860" 
d="M824 380v-97h-598l43 -158l-233 207l233 206l-43 -158h598z" />
    <glyph glyph-name="arrowup" unicode="&#x2191;" horiz-adv-x="860" 
d="M479 559v-597h-98v597l-158 -43l207 234l207 -234z" />
    <glyph glyph-name="arrowright" unicode="&#x2192;" horiz-adv-x="860" 
d="M36 283v97h597l-43 158l234 -206l-234 -207l43 158h-597z" />
    <glyph glyph-name="arrowdown" unicode="&#x2193;" horiz-adv-x="860" 
d="M479 750v-597l158 43l-207 -234l-207 234l158 -43v597h98z" />
    <glyph glyph-name="arrowboth" unicode="&#x2194;" horiz-adv-x="860" 
d="M633 283h-407l43 -158l-233 207l233 206l-43 -158h407l-43 158l234 -206l-234 -207z" />
    <glyph glyph-name="arrowupdn" unicode="&#x2195;" horiz-adv-x="860" 
d="M479 559v-406l158 43l-207 -234l-207 234l158 -43v406l-158 -43l207 234l207 -234z" />
    <glyph glyph-name="arrowupdnbse" unicode="&#x21a8;" horiz-adv-x="860" 
d="M479 559v-406l158 43l-186 -210h180v-74h-403v74h181l-186 210l158 -43v406l-158 -43l207 234l207 -234z" />
    <glyph glyph-name="partialdiff" unicode="&#x2202;" horiz-adv-x="593" 
d="M280 606q-74 0 -122 -64l-89 59q77 111 217 111q123 0 191 -93t68 -285q0 -177 -69 -261.5t-192 -84.5q-110 0 -177 64.5t-67 168.5q0 105 62 170.5t163 65.5q87 0 155 -59q-12 208 -140 208zM289 353q-60 0 -91.5 -34t-31.5 -96q0 -129 121 -129q127 0 135 202
q-59 57 -133 57z" />
    <glyph glyph-name="Delta" unicode="&#x2206;" horiz-adv-x="671" 
d="M316 709h39l297 -680l-19 -29h-595l-19 29zM174 105h323l-162 390z" />
    <glyph glyph-name="product" unicode="&#x220f;" horiz-adv-x="712" 
d="M635 740v-851h-124v746h-310v-746h-124v851h558z" />
    <glyph glyph-name="summation" unicode="&#x2211;" horiz-adv-x="613" 
d="M38 -12l216 342l-216 307v103h546v-104h-406l196 -287v-40l-195 -316h405v-104h-546v99z" />
    <glyph glyph-name="minus" unicode="&#x2212;" horiz-adv-x="616" 
d="M559 285h-502v93h502v-93z" />
    <glyph glyph-name="uni2215" unicode="&#x2215;" horiz-adv-x="199" 
d="M252 715l68 -37l-373 -693l-68 37z" />
    <glyph glyph-name="uni2219" unicode="&#x2219;" horiz-adv-x="308" 
d="M82 350q0 31 21 52t51 21t51 -21t21 -52t-21 -52t-51 -21t-51 21t-21 52z" />
    <glyph glyph-name="radical" unicode="&#x221a;" horiz-adv-x="622" 
d="M392 0h-62l-162 302h-72v73h124l123 -227l151 622h91z" />
    <glyph glyph-name="infinity" unicode="&#x221e;" horiz-adv-x="784" 
d="M154 331q0 -31 16.5 -49t49.5 -18q59 0 120 67q-61 67 -120 67q-33 0 -49.5 -18t-16.5 -49zM392 392q83 86 177 86q72 0 115 -40.5t43 -106.5t-43 -106.5t-115 -40.5q-94 0 -177 86q-83 -86 -177 -86q-72 0 -115 40.5t-43 106.5t43 106.5t115 40.5q94 0 177 -86zM630 331
q0 31 -16.5 49t-49.5 18q-59 0 -120 -67q61 -67 120 -67q33 0 49.5 18t16.5 49z" />
    <glyph glyph-name="orthogonal" unicode="&#x221f;" horiz-adv-x="650" 
d="M631 95v-95h-535v575h118v-480h417z" />
    <glyph glyph-name="intersection" unicode="&#x2229;" horiz-adv-x="775" 
d="M388 617q144 0 217.5 -92t73.5 -247v-278h-116v256q0 133 -45 199.5t-130 66.5t-130.5 -66.5t-45.5 -199.5v-256h-116v278q0 155 73.5 247t218.5 92z" />
    <glyph glyph-name="integral" unicode="&#x222b;" horiz-adv-x="418" 
d="M333 750q42 0 70 -4v-93q-25 3 -53 3q-46 0 -64 -19t-18 -60v-630q0 -86 -44 -126.5t-139 -40.5q-42 0 -70 4v93q25 -3 53 -3q46 0 64 19t18 60v630q0 86 44 126.5t139 40.5z" />
    <glyph glyph-name="approxequal" unicode="&#x2248;" horiz-adv-x="616" 
d="M476 502l99 -16q-11 -66 -53 -107.5t-101 -41.5q-64 0 -130 44q-49 33 -84 33q-50 0 -67 -62l-99 16q11 66 53 107.5t101 41.5q64 0 130 -44q49 -33 84 -33q50 0 67 62zM476 313l99 -16q-11 -66 -53 -107.5t-101 -41.5q-64 0 -130 44q-49 33 -84 33q-50 0 -67 -62l-99 16
q11 66 53 107.5t101 41.5q64 0 130 -44q49 -33 84 -33q50 0 67 62z" />
    <glyph glyph-name="notequal" unicode="&#x2260;" horiz-adv-x="617" 
d="M98 51l70 118h-111v92h166l85 141h-251v92h306l94 156l61 -37l-71 -119h112v-92h-167l-85 -141h252v-92h-307l-92 -155z" />
    <glyph glyph-name="equivalence" unicode="&#x2261;" horiz-adv-x="617" 
d="M559 465h-502v92h502v-92zM559 285h-502v92h502v-92zM559 106h-502v92h502v-92z" />
    <glyph glyph-name="lessequal" unicode="&#x2264;" horiz-adv-x="617" 
d="M559 0h-502v92h502v-92zM57 421l466 203l36 -94l-349 -150l349 -150l-36 -94l-466 203v82z" />
    <glyph glyph-name="greaterequal" unicode="&#x2265;" horiz-adv-x="617" 
d="M559 0h-502v92h502v-92zM93 624l466 -203v-82l-466 -203l-36 94l349 150l-349 150z" />
    <glyph glyph-name="house" unicode="&#x2302;" horiz-adv-x="706" 
d="M200 294v-213h306v213l-153 172zM96 0v328l257 288l257 -288v-328h-514z" />
    <glyph glyph-name="revlogicalnot" unicode="&#x2310;" horiz-adv-x="616" 
d="M564 447v-93h-393v-194h-109v287h502z" />
    <glyph glyph-name="uni2318" unicode="&#x2318;" horiz-adv-x="918" 
d="M518 269v113h-118v-113h118zM265 461h42v43q0 72 -58 72q-26 0 -41.5 -16t-15.5 -41q0 -58 73 -58zM307 190h-42q-73 0 -73 -58q0 -25 15.5 -41t41.5 -16q58 0 58 72v43zM518 461v45q0 69 40 110t112 41q70 0 111 -39t41 -99q0 -67 -45 -102t-118 -35h-48v-113h48
q73 0 118 -35t45 -102q0 -60 -41 -99t-111 -39q-72 0 -112 41t-40 110v45h-118v-45q0 -69 -40 -110t-112 -41q-70 0 -111 39t-41 99q0 67 45 102t118 35h48v113h-48q-73 0 -118 35t-45 102q0 60 41 99t111 39q72 0 112 -41t40 -110v-45h118zM611 461h42q31 0 52 15.5
t21 42.5q0 25 -15.5 41t-41.5 16q-58 0 -58 -72v-43zM653 190h-42v-43q0 -72 58 -72q26 0 41.5 16t15.5 41q0 58 -73 58z" />
    <glyph glyph-name="lozenge" unicode="&#x25ca;" horiz-adv-x="562" 
d="M525 302l-244 -459l-244 459l244 459zM141 302l140 -269l140 269l-140 268z" />
    <glyph glyph-name="H18533" unicode="&#x25cf;" horiz-adv-x="1000" 
d="M162 326q0 140 99 239t239 99t239 -99t99 -239t-99 -239t-239 -99t-239 99t-99 239z" />
    <glyph glyph-name="fi" horiz-adv-x="614" 
d="M424 0v424h-201v-424h-118v424h-91v94h91v45q0 87 43.5 127t139.5 40q38 0 63 -3v-94q-23 3 -48 3q-44 0 -62 -19t-18 -60v-39h319v-518h-118zM556 667q0 -31 -21 -51.5t-52 -20.5t-52 20.5t-21 51.5t21 51.5t52 20.5t52 -20.5t21 -51.5z" />
    <glyph glyph-name="fl" horiz-adv-x="604" 
d="M284 730q62 0 130 -17v17h118v-730h-118v625q-57 11 -111 11q-44 0 -62 -19t-18 -60v-39h124v-94h-124v-424h-118v424h-91v94h91v45q0 87 42.5 127t136.5 40z" />
    <glyph glyph-name="commaaccent" horiz-adv-x="396" 
d="M125 -243l58 201l88 -30l-77 -195z" />
    <glyph glyph-name="zero.tnum" horiz-adv-x="616" 
d="M570 350q0 -163 -67 -262.5t-195 -99.5t-195 99.5t-67 262.5t67 262.5t195 99.5t195 -99.5t67 -262.5zM172 350q0 -256 136 -256t136 256t-136 256t-136 -256z" />
    <glyph glyph-name="one.tnum" horiz-adv-x="440" 
d="M203 0v559l-121 -87l-71 78l206 150h110v-700h-124z" />
    <glyph glyph-name="two.tnum" horiz-adv-x="557" 
d="M269 712q105 0 167.5 -55t62.5 -153q0 -168 -279 -400h289v-104h-464v93q69 58 118.5 103.5t102 102t80 108t27.5 95.5q0 50 -28 77t-81 27q-89 0 -154 -79l-85 64q44 56 108.5 88.5t135.5 32.5z" />
    <glyph glyph-name="three.tnum" horiz-adv-x="578" 
d="M276 712q99 0 160.5 -49t61.5 -133q0 -61 -31.5 -104t-80.5 -61q136 -42 136 -174q0 -90 -66.5 -146.5t-182.5 -56.5q-81 0 -147.5 30.5t-110.5 84.5l86 70q66 -79 162 -79q61 0 97 27t36 75q0 59 -43.5 87t-114.5 28h-66v104h65q61 0 98 27t37 75q0 42 -27.5 65.5
t-77.5 23.5q-86 0 -147 -70l-84 68q96 108 240 108z" />
    <glyph glyph-name="four.tnum" horiz-adv-x="583" 
d="M352 140h-327v99l336 461h115v-456h89v-104h-89v-140h-124v140zM352 509l-193 -265h193v265z" />
    <glyph glyph-name="five.tnum" horiz-adv-x="571" 
d="M105 311l-25 16v373h407v-104h-283v-166q41 11 89 11q104 0 167 -62.5t63 -169.5q0 -97 -64.5 -159t-179.5 -62q-158 0 -247 113l85 70q65 -77 155 -77q56 0 90.5 32.5t34.5 85.5q0 59 -38.5 91t-105.5 32q-78 0 -148 -24z" />
    <glyph glyph-name="six.tnum" horiz-adv-x="596" 
d="M315 606q-128 0 -140 -208q68 59 155 59q101 0 163 -65.5t62 -170.5q0 -104 -67 -168.5t-177 -64.5q-123 0 -192 84.5t-69 261.5q0 192 68 285t191 93q141 0 217 -111l-89 -59q-48 64 -122 64zM306 353q-74 0 -133 -57q8 -202 135 -202q121 0 121 129q0 62 -31.5 96
t-91.5 34z" />
    <glyph glyph-name="seven.tnum" horiz-adv-x="553" 
d="M515 598l-265 -598h-132l265 596h-343v104h475v-102z" />
    <glyph glyph-name="eight.tnum" horiz-adv-x="617" 
d="M78 523q0 83 61.5 136t167.5 53q105 0 168.5 -53.5t63.5 -134.5q0 -103 -93 -160q122 -65 122 -177q0 -89 -71.5 -143.5t-188.5 -54.5q-118 0 -188.5 55t-70.5 151q0 120 112 181q-83 60 -83 147zM175 195q0 -47 38 -73.5t96 -26.5q59 0 96 23t37 64q0 46 -34.5 70.5
t-152.5 74.5q-80 -49 -80 -132zM413 514q0 43 -28 67.5t-76 24.5q-49 0 -77 -22.5t-28 -60.5q0 -34 31.5 -59.5t115.5 -57.5q62 40 62 108z" />
    <glyph glyph-name="nine.tnum" horiz-adv-x="596" 
d="M421 302q-68 -59 -155 -59q-101 0 -163 65.5t-62 170.5q0 104 67 168.5t177 64.5q123 0 192 -84.5t69 -261.5q0 -195 -74 -286.5t-203 -91.5q-121 0 -201 79l80 76q46 -49 121 -49q137 0 152 208zM290 347q74 0 133 57q-8 202 -135 202q-121 0 -121 -129q0 -62 31.5 -96
t91.5 -34z" />
    <glyph glyph-name="parenleft.case" horiz-adv-x="375" 
d="M96 350q0 249 157 443l78 -38q-125 -187 -125 -405t125 -405l-78 -38q-157 194 -157 443z" />
    <glyph glyph-name="parenright.case" horiz-adv-x="375" 
d="M279 350q0 -249 -157 -443l-78 38q125 187 125 405t-125 405l78 38q157 -194 157 -443z" />
    <glyph glyph-name="hyphen.case" horiz-adv-x="404" 
d="M347 299h-290v101h290v-101z" />
    <glyph glyph-name="at.case" horiz-adv-x="963" 
d="M257 347q0 100 49.5 161.5t143.5 61.5q75 0 131 -56v44h105v-286q0 -32 14.5 -49t38.5 -17q82 0 82 164q0 153 -98 253t-241 100q-145 0 -242.5 -104t-97.5 -269t97 -269.5t243 -104.5q60 0 119.5 20.5t104.5 56.5l37 -57q-108 -84 -261 -84q-186 0 -299.5 125.5
t-113.5 312.5t113.5 312.5t299.5 125.5q183 0 297.5 -120.5t114.5 -297.5q0 -106 -43 -173t-131 -67q-92 0 -125 62q-60 -68 -145 -68q-94 0 -143.5 61.5t-49.5 161.5zM469 206q64 0 112 56v169q-49 56 -112 56q-59 0 -83 -36.5t-24 -103.5q0 -68 24 -104.5t83 -36.5z" />
    <glyph glyph-name="bracketleft.case" horiz-adv-x="418" 
d="M115 -90v880h284v-87h-174v-707h174v-86h-284z" />
    <glyph glyph-name="bracketright.case" horiz-adv-x="418" 
d="M303 790v-880h-284v86h174v707h-174v87h284z" />
    <glyph glyph-name="braceleft.case" horiz-adv-x="400" 
d="M159 41v165q0 46 -28.5 73t-71.5 27v87q43 0 71.5 27t28.5 73v112q0 100 32.5 142.5t116.5 42.5h73v-88h-68q-44 0 -44 -46v-145q0 -70 -21 -108t-79 -53q57 -15 78.5 -53t21.5 -109v-145q0 -45 44 -45h68v-88h-73q-149 0 -149 131z" />
    <glyph glyph-name="braceright.case" horiz-adv-x="400" 
d="M241 206v-165q0 -131 -149 -131h-73v88h68q44 0 44 45v145q0 71 21.5 109t78.5 53q-58 15 -79 53t-21 108v145q0 46 -44 46h-68v88h73q84 0 116.5 -42.5t32.5 -142.5v-112q0 -46 28.5 -73t71.5 -27v-87q-43 0 -71.5 -27t-28.5 -73z" />
    <glyph glyph-name="exclamdown.case" horiz-adv-x="300" 
d="M84 175l24 343h85l23 -343v-175h-132v175zM78 639q0 31 21 52t51 21t51 -21t21 -52q0 -30 -21 -51t-51 -21t-51 21t-21 51z" />
    <glyph glyph-name="guillemotleft.case" horiz-adv-x="598" 
d="M48 328v44l219 159l50 -66l-164 -115l164 -115l-50 -66zM281 328v44l219 159l50 -66l-164 -115l164 -115l-50 -66z" />
    <glyph glyph-name="periodcentered.case" horiz-adv-x="308" 
d="M82 350q0 31 21 52t51 21t51 -21t21 -52t-21 -52t-51 -21t-51 21t-21 52z" />
    <glyph glyph-name="guillemotright.case" horiz-adv-x="598" 
d="M550 372v-44l-219 -159l-50 66l164 115l-164 115l50 66zM317 372v-44l-219 -159l-50 66l164 115l-164 115l50 66z" />
    <glyph glyph-name="questiondown.case" horiz-adv-x="546" 
d="M280 -13q-99 0 -156 47.5t-57 132.5q0 114 117 192q37 24 50.5 48t13.5 65v45h124v-53q0 -58 -22.5 -100t-74.5 -76q-47 -31 -64.5 -56.5t-17.5 -60.5q0 -37 25.5 -57.5t71.5 -20.5q76 0 132 66l81 -66q-38 -48 -97.5 -77t-125.5 -29zM382 638q0 -31 -21 -52t-51 -21
t-51 21t-21 52t21 52t51 21t51 -21t21 -52z" />
    <glyph glyph-name="endash.case" horiz-adv-x="500" 
d="M500 303h-500v93h500v-93z" />
    <glyph glyph-name="emdash.case" horiz-adv-x="1000" 
d="M1000 303h-1000v93h1000v-93z" />
    <glyph glyph-name="bullet.case" horiz-adv-x="448" 
d="M89 349q0 58 38.5 97t96.5 39t96.5 -39t38.5 -97q0 -59 -38.5 -97.5t-96.5 -38.5t-96.5 38.5t-38.5 97.5z" />
    <glyph glyph-name="guilsinglleft.case" horiz-adv-x="365" 
d="M48 328v44l219 159l50 -66l-164 -115l164 -115l-50 -66z" />
    <glyph glyph-name="guilsinglright.case" horiz-adv-x="365" 
d="M317 372v-44l-219 -159l-50 66l164 115l-164 115l50 66z" />
    <glyph glyph-name="zero.numerator" 
d="M389 469q0 -108 -46.5 -173.5t-132.5 -65.5t-132.5 65.5t-46.5 173.5t46.5 173.5t132.5 65.5t132.5 -65.5t46.5 -173.5zM292 469q0 156 -82 156t-82 -156t82 -156t82 156z" />
    <glyph glyph-name="one.numerator" 
d="M190 591l-68 -49l-55 60l134 99h82v-464h-93v354z" />
    <glyph glyph-name="two.numerator" 
d="M198 625q-47 0 -85 -43l-66 50q64 76 160 76q66 0 106 -37t40 -99q0 -105 -169 -255h172v-80h-307v69q207 172 207 263q0 24 -15.5 40t-42.5 16z" />
    <glyph glyph-name="three.numerator" 
d="M195 308q34 0 54.5 18t20.5 45q0 35 -26.5 52t-71.5 17h-45v74h45q40 0 62.5 16t22.5 45q0 25 -14.5 39t-41.5 14q-51 0 -81 -40l-65 49q59 71 151 71q66 0 106.5 -34t40.5 -92q0 -35 -20 -63t-51 -41q37 -14 60 -42.5t23 -68.5q0 -60 -44.5 -99t-121.5 -39
q-105 0 -159 78l66 48q32 -47 89 -47z" />
    <glyph glyph-name="four.numerator" 
d="M239 331h-212v76l209 293h95v-288h54v-81h-54v-94h-92v94zM239 567l-110 -155h110v155z" />
    <glyph glyph-name="five.numerator" 
d="M100 440l-24 14v246h276v-80h-187v-94q27 6 55 6q68 0 111 -42t43 -112q0 -65 -45.5 -107t-121.5 -42q-97 0 -160 66l64 55q39 -39 96 -39q31 0 50.5 20t19.5 49q0 34 -23 54t-62 20q-48 0 -92 -14z" />
    <glyph glyph-name="six.numerator" 
d="M218 628q-32 0 -52.5 -29.5t-24.5 -87.5q43 34 92 34q66 0 107 -44t41 -114t-45 -114t-119 -44q-80 0 -127.5 58t-47.5 169q0 127 46.5 189.5t127.5 62.5q97 0 150 -77l-66 -44q-30 41 -82 41zM215 464q-43 0 -76 -32q7 -122 76 -122q34 0 52.5 21t18.5 57q0 35 -19 55.5
t-52 20.5z" />
    <glyph glyph-name="seven.numerator" 
d="M366 619l-164 -382h-104l165 381h-203v82h306v-81z" />
    <glyph glyph-name="eight.numerator" 
d="M42 371q0 71 67 114q-55 35 -55 98q0 57 41 91t110 34q70 0 112 -35t42 -95q0 -65 -55 -102q73 -42 73 -111q0 -61 -46 -99t-120 -38q-76 0 -122.5 39t-46.5 104zM283 361q0 25 -17 39.5t-59 33.5l-30 13q-40 -31 -40 -76q0 -30 20.5 -47t53.5 -17q31 0 51.5 15.5
t20.5 38.5zM147 585q0 -22 14 -36t43 -27l30 -13q33 27 33 67q0 26 -16.5 40t-46.5 14q-26 0 -41.5 -13t-15.5 -32z" />
    <glyph glyph-name="nine.numerator" 
d="M198 308q73 0 80 115q-40 -32 -89 -32q-66 0 -108.5 44t-42.5 114t45 114.5t119 44.5q81 0 128 -57.5t47 -167.5q0 -254 -178 -254q-84 0 -137 55l58 56q32 -32 78 -32zM205 472q43 0 75 32q-5 122 -76 122q-34 0 -52.5 -21t-18.5 -57q0 -35 19.5 -55.5t52.5 -20.5z" />
    <glyph glyph-name="zero.denominator" 
d="M389 232q0 -108 -46.5 -173.5t-132.5 -65.5t-132.5 65.5t-46.5 173.5t46.5 173.5t132.5 65.5t132.5 -65.5t46.5 -173.5zM292 232q0 156 -82 156t-82 -156t82 -156t82 156z" />
    <glyph glyph-name="one.denominator" 
d="M190 354l-68 -49l-55 60l134 99h82v-464h-93v354z" />
    <glyph glyph-name="two.denominator" 
d="M198 388q-47 0 -85 -43l-66 50q64 76 160 76q66 0 106 -37t40 -99q0 -105 -169 -255h172v-80h-307v69q207 172 207 263q0 24 -15.5 40t-42.5 16z" />
    <glyph glyph-name="three.denominator" 
d="M195 71q34 0 54.5 18t20.5 45q0 35 -26.5 52t-71.5 17h-45v74h45q40 0 62.5 16t22.5 45q0 25 -14.5 39t-41.5 14q-51 0 -81 -40l-65 49q59 71 151 71q66 0 106.5 -34t40.5 -92q0 -35 -20 -63t-51 -41q37 -14 60 -42.5t23 -68.5q0 -60 -44.5 -99t-121.5 -39
q-105 0 -159 78l66 48q32 -47 89 -47z" />
    <glyph glyph-name="four.denominator" 
d="M239 94h-212v76l209 293h95v-288h54v-81h-54v-94h-92v94zM239 330l-110 -155h110v155z" />
    <glyph glyph-name="five.denominator" 
d="M100 203l-24 14v246h276v-80h-187v-94q27 6 55 6q68 0 111 -42t43 -112q0 -65 -45.5 -107t-121.5 -42q-97 0 -160 66l64 55q39 -39 96 -39q31 0 50.5 20t19.5 49q0 34 -23 54t-62 20q-48 0 -92 -14z" />
    <glyph glyph-name="six.denominator" 
d="M218 391q-32 0 -52.5 -29.5t-24.5 -87.5q43 34 92 34q66 0 107 -44t41 -114t-45 -114t-119 -44q-80 0 -127.5 58t-47.5 169q0 127 46.5 189.5t127.5 62.5q97 0 150 -77l-66 -44q-30 41 -82 41zM215 227q-43 0 -76 -32q7 -122 76 -122q34 0 52.5 21t18.5 57q0 35 -19 55.5
t-52 20.5z" />
    <glyph glyph-name="seven.denominator" 
d="M366 382l-164 -382h-104l165 381h-203v82h306v-81z" />
    <glyph glyph-name="eight.denominator" 
d="M42 134q0 71 67 114q-55 35 -55 98q0 57 41 91t110 34q70 0 112 -35t42 -95q0 -65 -55 -102q73 -42 73 -111q0 -61 -46 -99t-120 -38q-76 0 -122.5 39t-46.5 104zM283 124q0 25 -17 39.5t-59 33.5l-30 13q-40 -31 -40 -76q0 -30 20.5 -47t53.5 -17q31 0 51.5 15.5
t20.5 38.5zM147 348q0 -22 14 -36t43 -27l30 -13q33 27 33 67q0 26 -16.5 40t-46.5 14q-26 0 -41.5 -13t-15.5 -32z" />
    <glyph glyph-name="nine.denominator" 
d="M198 71q73 0 80 115q-40 -32 -89 -32q-66 0 -108.5 44t-42.5 114t45 114.5t119 44.5q81 0 128 -57.5t47 -167.5q0 -254 -178 -254q-84 0 -137 55l58 56q32 -32 78 -32zM205 235q43 0 75 32q-5 122 -76 122q-34 0 -52.5 -21t-18.5 -57q0 -35 19.5 -55.5t52.5 -20.5z" />
    </font>
</defs>
</svg>
